<?xml version="1.0" standalone="no"?>
<!DOCTYPE svg PUBLIC "-//W3C//DTD SVG 1.1//EN" "http://www.w3.org/Graphics/SVG/1.1/DTD/svg11.dtd">
<svg width="106mm" height="130mm" viewBox="-53 -65 106 130" xmlns="http://www.w3.org/2000/svg" version="1.1">
<title>OpenSCAD Model</title>
<path d="
M 1.57309,64.0807 L 3.14523,64.0228 L 4.71548,63.9263 L 6.2829,63.7913 L 7.84651,63.6179 L 9.40541,63.4062
 L 10.9586,63.1563 L 12.5053,62.8683 L 14.0444,62.5425 L 15.575,62.179 L 17.0963,61.778 L 18.6072,61.3399
 L 20.107,60.8647 L 21.5946,60.353 L 23.0693,59.8048 L 24.53,59.2207 L 24.8115,59.1 L 35.1,59.1
 L 35.1,53.6303 L 35.612,53.2972 L 36.9093,52.4072 L 38.1843,51.4856 L 39.4363,50.533 L 40.6646,49.55
 L 41.8684,48.5371 L 43.0469,47.495 L 44.1995,46.4242 L 45.3255,45.3255 L 46.4242,44.1995 L 47.495,43.0469
 L 48.5371,41.8684 L 49.55,40.6646 L 50.533,39.4363 L 51.4856,38.1843 L 52.4072,36.9093 L 52.6,36.6283
 L 52.6,-36.6283 L 52.4072,-36.9093 L 51.4856,-38.1843 L 50.533,-39.4363 L 49.55,-40.6646 L 48.5371,-41.8684
 L 47.495,-43.0469 L 46.4242,-44.1995 L 45.3255,-45.3255 L 44.1995,-46.4242 L 43.0469,-47.495 L 41.8684,-48.5371
 L 40.6646,-49.55 L 39.4363,-50.533 L 38.1843,-51.4856 L 36.9093,-52.4072 L 35.612,-53.2972 L 35.1,-53.6303
 L 35.1,-59.1 L 24.8115,-59.1 L 24.53,-59.2207 L 23.0693,-59.8048 L 21.5946,-60.353 L 20.107,-60.8647
 L 18.6072,-61.3399 L 17.0963,-61.778 L 15.575,-62.179 L 14.0444,-62.5425 L 12.5053,-62.8683 L 10.9586,-63.1563
 L 9.40541,-63.4062 L 7.84651,-63.6179 L 6.2829,-63.7913 L 4.71548,-63.9263 L 3.14523,-64.0228 L 1.57309,-64.0807
 L 0,-64.1 L -1.57309,-64.0807 L -3.14523,-64.0228 L -4.71548,-63.9263 L -6.2829,-63.7913 L -7.84651,-63.6179
 L -9.40541,-63.4062 L -10.9586,-63.1563 L -12.5053,-62.8683 L -14.0444,-62.5425 L -15.575,-62.179 L -17.0963,-61.778
 L -18.6072,-61.3399 L -20.107,-60.8647 L -21.5946,-60.353 L -23.0693,-59.8048 L -24.53,-59.2207 L -24.8115,-59.1
 L -35.1,-59.1 L -35.1,-53.6303 L -35.612,-53.2972 L -36.9093,-52.4072 L -38.1843,-51.4856 L -39.4363,-50.533
 L -40.6646,-49.55 L -41.8684,-48.5371 L -43.0469,-47.495 L -44.1995,-46.4242 L -45.3255,-45.3255 L -46.4242,-44.1995
 L -47.495,-43.0469 L -48.5371,-41.8684 L -49.55,-40.6646 L -50.533,-39.4363 L -51.4856,-38.1843 L -52.4072,-36.9093
 L -52.6,-36.6283 L -52.6,36.6283 L -52.4072,36.9093 L -51.4856,38.1843 L -50.533,39.4363 L -49.55,40.6646
 L -48.5371,41.8684 L -47.495,43.0469 L -46.4242,44.1995 L -45.3255,45.3255 L -44.1995,46.4242 L -43.0469,47.495
 L -41.8684,48.5371 L -40.6646,49.55 L -39.4363,50.533 L -38.1843,51.4856 L -36.9093,52.4072 L -35.612,53.2972
 L -35.1,53.6303 L -35.1,59.1 L -24.8115,59.1 L -24.53,59.2207 L -23.0693,59.8048 L -21.5946,60.353
 L -20.107,60.8647 L -18.6072,61.3399 L -17.0963,61.778 L -15.575,62.179 L -14.0444,62.5425 L -12.5053,62.8683
 L -10.9586,63.1563 L -9.40541,63.4062 L -7.84651,63.6179 L -6.2829,63.7913 L -4.71548,63.9263 L -3.14523,64.0228
 L -1.57309,64.0807 L 0,64.1 z
M -1.53381,62.4812 L -3.06673,62.4247 L -4.59778,62.3306 L -6.12607,62.199 L -7.65067,62.03 L -9.17065,61.8235
 L -10.6851,61.5798 L -12.1931,61.2991 L -13.6938,60.9814 L -15.1862,60.627 L -16.6695,60.236 L -18.1428,59.8088
 L -19.6051,59.3455 L -21.0556,58.8465 L -22.4934,58.312 L -23.9177,57.7425 L -25.3276,57.1381 L -26.7222,56.4993
 L -28.1007,55.8265 L -29.4623,55.1201 L -30.8061,54.3804 L -32.1314,53.608 L -33.4373,52.8033 L -33.5,52.7626
 L -33.5,40 L -34.5506,40 L -34.5607,39.9522 L -34.5749,39.8925 L -34.5906,39.8332 L -34.6077,39.7743
 L -34.6262,39.7158 L -34.6461,39.6578 L -34.6675,39.6003 L -34.6903,39.5433 L -34.7145,39.4869 L -34.74,39.4311
 L -34.7669,39.376 L -34.7952,39.3215 L -34.8248,39.2677 L -34.8557,39.2147 L -34.8879,39.1625 L -34.9213,39.1111
 L -34.956,39.0605 L -34.992,39.0107 L -35.0291,38.9619 L -35.0675,38.914 L -35.107,38.8671 L -35.1476,38.8211
 L -35.1894,38.7761 L -35.2322,38.7322 L -35.2761,38.6894 L -35.3211,38.6476 L -35.3671,38.607 L -35.414,38.5675
 L -35.4619,38.5291 L -35.5107,38.492 L -35.5605,38.456 L -35.6111,38.4213 L -35.6625,38.3879 L -35.7147,38.3557
 L -35.7677,38.3248 L -35.8215,38.2952 L -35.876,38.2669 L -35.9311,38.24 L -35.9869,38.2145 L -36.0433,38.1903
 L -36.1003,38.1675 L -36.1578,38.1461 L -36.2158,38.1262 L -36.2743,38.1077 L -36.3332,38.0906 L -36.3925,38.0749
 L -36.4522,38.0607 L -36.5123,38.048 L -36.5726,38.0368 L -36.6332,38.0271 L -36.694,38.0188 L -36.755,38.012
 L -36.8161,38.0068 L -36.8773,38.003 L -36.9386,38.0007 L -37,38 L -37.0613,38.0007 L -37.1227,38.003
 L -37.1839,38.0068 L -37.245,38.012 L -37.306,38.0188 L -37.3668,38.0271 L -37.4274,38.0368 L -37.4877,38.048
 L -37.5477,38.0607 L -37.6074,38.0749 L -37.6668,38.0906 L -37.7257,38.1077 L -37.7842,38.1262 L -37.8422,38.1461
 L -37.8997,38.1675 L -37.9567,38.1903 L -38.0131,38.2145 L -38.0689,38.24 L -38.124,38.2669 L -38.1785,38.2952
 L -38.2322,38.3248 L -38.2852,38.3557 L -38.3375,38.3879 L -38.3889,38.4213 L -38.4395,38.456 L -38.4892,38.492
 L -38.5381,38.5291 L -38.586,38.5675 L -38.6329,38.607 L -38.6789,38.6476 L -38.7238,38.6894 L -38.7678,38.7322
 L -38.8106,38.7761 L -38.8524,38.8211 L -38.893,38.8671 L -38.9325,38.914 L -38.9709,38.9619 L -39.008,39.0107
 L -39.044,39.0605 L -39.0787,39.1111 L -39.1121,39.1625 L -39.1443,39.2147 L -39.1752,39.2677 L -39.2048,39.3215
 L -39.233,39.376 L -39.26,39.4311 L -39.2855,39.4869 L -39.3097,39.5433 L -39.3325,39.6003 L -39.3539,39.6578
 L -39.3738,39.7158 L -39.3923,39.7743 L -39.4094,39.8332 L -39.4251,39.8925 L -39.4393,39.9522 L -39.452,40.0123
 L -39.4632,40.0726 L -39.4729,40.1332 L -39.4812,40.194 L -39.488,40.255 L -39.4932,40.3161 L -39.497,40.3773
 L -39.4992,40.4386 L -39.5,40.5 L -39.4992,40.5613 L -39.497,40.6227 L -39.4932,40.6839 L -39.488,40.745
 L -39.4812,40.806 L -39.4729,40.8668 L -39.4632,40.9274 L -39.452,40.9877 L -39.4393,41.0477 L -39.4251,41.1074
 L -39.4094,41.1668 L -39.3998,41.2 L -46.75,41.2 L -46.75,41.4742 L -47.3255,40.8233 L -48.3131,39.6496
 L -49.2717,38.452 L -50.2005,37.2312 L -51,36.125 L -51,-36.125 L -50.2005,-37.2312 L -49.2717,-38.452
 L -48.3131,-39.6496 L -47.3255,-40.8233 L -46.75,-41.4742 L -46.75,-41.2 L -39.3998,-41.2 L -39.4094,-41.1668
 L -39.4251,-41.1074 L -39.4393,-41.0477 L -39.452,-40.9877 L -39.4632,-40.9274 L -39.4729,-40.8668 L -39.4812,-40.806
 L -39.488,-40.745 L -39.4932,-40.6839 L -39.497,-40.6227 L -39.4992,-40.5613 L -39.5,-40.5 L -39.4992,-40.4386
 L -39.497,-40.3773 L -39.4932,-40.3161 L -39.488,-40.255 L -39.4812,-40.194 L -39.4729,-40.1332 L -39.4632,-40.0726
 L -39.452,-40.0123 L -39.4393,-39.9522 L -39.4251,-39.8925 L -39.4094,-39.8332 L -39.3923,-39.7743 L -39.3738,-39.7158
 L -39.3539,-39.6578 L -39.3325,-39.6003 L -39.3097,-39.5433 L -39.2855,-39.4869 L -39.26,-39.4311 L -39.233,-39.376
 L -39.2048,-39.3215 L -39.1752,-39.2677 L -39.1443,-39.2147 L -39.1121,-39.1625 L -39.0787,-39.1111 L -39.044,-39.0605
 L -39.008,-39.0107 L -38.9709,-38.9619 L -38.9325,-38.914 L -38.893,-38.8671 L -38.8524,-38.8211 L -38.8106,-38.7761
 L -38.7678,-38.7322 L -38.7238,-38.6894 L -38.6789,-38.6476 L -38.6329,-38.607 L -38.586,-38.5675 L -38.5381,-38.5291
 L -38.4892,-38.492 L -38.4395,-38.456 L -38.3889,-38.4213 L -38.3375,-38.3879 L -38.2852,-38.3557 L -38.2322,-38.3248
 L -38.1785,-38.2952 L -38.124,-38.2669 L -38.0689,-38.24 L -38.0131,-38.2145 L -37.9567,-38.1903 L -37.8997,-38.1675
 L -37.8422,-38.1461 L -37.7842,-38.1262 L -37.7257,-38.1077 L -37.6668,-38.0906 L -37.6074,-38.0749 L -37.5477,-38.0607
 L -37.4877,-38.048 L -37.4274,-38.0368 L -37.3668,-38.0271 L -37.306,-38.0188 L -37.245,-38.012 L -37.1839,-38.0068
 L -37.1227,-38.003 L -37.0613,-38.0007 L -37,-38 L -36.9386,-38.0007 L -36.8773,-38.003 L -36.8161,-38.0068
 L -36.755,-38.012 L -36.694,-38.0188 L -36.6332,-38.0271 L -36.5726,-38.0368 L -36.5123,-38.048 L -36.4522,-38.0607
 L -36.3925,-38.0749 L -36.3332,-38.0906 L -36.2743,-38.1077 L -36.2158,-38.1262 L -36.1578,-38.1461 L -36.1003,-38.1675
 L -36.0433,-38.1903 L -35.9869,-38.2145 L -35.9311,-38.24 L -35.876,-38.2669 L -35.8215,-38.2952 L -35.7677,-38.3248
 L -35.7147,-38.3557 L -35.6625,-38.3879 L -35.6111,-38.4213 L -35.5605,-38.456 L -35.5107,-38.492 L -35.4619,-38.5291
 L -35.414,-38.5675 L -35.3671,-38.607 L -35.3211,-38.6476 L -35.2761,-38.6894 L -35.2322,-38.7322 L -35.1894,-38.7761
 L -35.1476,-38.8211 L -35.107,-38.8671 L -35.0675,-38.914 L -35.0291,-38.9619 L -34.992,-39.0107 L -34.956,-39.0605
 L -34.9213,-39.1111 L -34.8879,-39.1625 L -34.8557,-39.2147 L -34.8248,-39.2677 L -34.7952,-39.3215 L -34.7669,-39.376
 L -34.74,-39.4311 L -34.7145,-39.4869 L -34.6903,-39.5433 L -34.6675,-39.6003 L -34.6461,-39.6578 L -34.6262,-39.7158
 L -34.6077,-39.7743 L -34.5906,-39.8332 L -34.5749,-39.8925 L -34.5607,-39.9522 L -34.5506,-40 L -33.5,-40
 L -33.5,-52.7626 L -33.4373,-52.8033 L -32.1314,-53.608 L -30.8061,-54.3804 L -29.4623,-55.1201 L -28.1007,-55.8265
 L -26.7222,-56.4993 L -25.3276,-57.1381 L -23.9177,-57.7425 L -22.4934,-58.312 L -21.0556,-58.8465 L -19.6051,-59.3455
 L -18.1428,-59.8088 L -16.6695,-60.236 L -15.1862,-60.627 L -13.6938,-60.9814 L -12.1931,-61.2991 L -10.6851,-61.5798
 L -9.17065,-61.8235 L -7.65067,-62.03 L -6.12607,-62.199 L -4.59778,-62.3306 L -3.06673,-62.4247 L -1.53381,-62.4812
 L 0,-62.5 L 1.53381,-62.4812 L 3.06673,-62.4247 L 4.59778,-62.3306 L 6.12607,-62.199 L 7.65067,-62.03
 L 9.17065,-61.8235 L 10.6851,-61.5798 L 12.1931,-61.2991 L 13.6938,-60.9814 L 15.1862,-60.627 L 16.6695,-60.236
 L 18.1428,-59.8088 L 19.6051,-59.3455 L 21.0556,-58.8465 L 22.4934,-58.312 L 23.9177,-57.7425 L 25.3276,-57.1381
 L 26.7222,-56.4993 L 28.1007,-55.8265 L 29.4623,-55.1201 L 30.8061,-54.3804 L 32.1314,-53.608 L 33.4373,-52.8033
 L 33.5,-52.7626 L 33.5,-40 L 34.5506,-40 L 34.5607,-39.9522 L 34.5749,-39.8925 L 34.5906,-39.8332
 L 34.6077,-39.7743 L 34.6262,-39.7158 L 34.6461,-39.6578 L 34.6675,-39.6003 L 34.6903,-39.5433 L 34.7145,-39.4869
 L 34.74,-39.4311 L 34.7669,-39.376 L 34.7952,-39.3215 L 34.8248,-39.2677 L 34.8557,-39.2147 L 34.8879,-39.1625
 L 34.9213,-39.1111 L 34.956,-39.0605 L 34.992,-39.0107 L 35.0291,-38.9619 L 35.0675,-38.914 L 35.107,-38.8671
 L 35.1476,-38.8211 L 35.1894,-38.7761 L 35.2322,-38.7322 L 35.2761,-38.6894 L 35.3211,-38.6476 L 35.3671,-38.607
 L 35.414,-38.5675 L 35.4619,-38.5291 L 35.5107,-38.492 L 35.5605,-38.456 L 35.6111,-38.4213 L 35.6625,-38.3879
 L 35.7147,-38.3557 L 35.7677,-38.3248 L 35.8215,-38.2952 L 35.876,-38.2669 L 35.9311,-38.24 L 35.9869,-38.2145
 L 36.0433,-38.1903 L 36.1003,-38.1675 L 36.1578,-38.1461 L 36.2158,-38.1262 L 36.2743,-38.1077 L 36.3332,-38.0906
 L 36.3925,-38.0749 L 36.4522,-38.0607 L 36.5123,-38.048 L 36.5726,-38.0368 L 36.6332,-38.0271 L 36.694,-38.0188
 L 36.755,-38.012 L 36.8161,-38.0068 L 36.8773,-38.003 L 36.9386,-38.0007 L 37,-38 L 37.0613,-38.0007
 L 37.1227,-38.003 L 37.1839,-38.0068 L 37.245,-38.012 L 37.306,-38.0188 L 37.3668,-38.0271 L 37.4274,-38.0368
 L 37.4877,-38.048 L 37.5477,-38.0607 L 37.6074,-38.0749 L 37.6668,-38.0906 L 37.7257,-38.1077 L 37.7842,-38.1262
 L 37.8422,-38.1461 L 37.8997,-38.1675 L 37.9567,-38.1903 L 38.0131,-38.2145 L 38.0689,-38.24 L 38.124,-38.2669
 L 38.1785,-38.2952 L 38.2322,-38.3248 L 38.2852,-38.3557 L 38.3375,-38.3879 L 38.3889,-38.4213 L 38.4395,-38.456
 L 38.4892,-38.492 L 38.5381,-38.5291 L 38.586,-38.5675 L 38.6329,-38.607 L 38.6789,-38.6476 L 38.7238,-38.6894
 L 38.7678,-38.7322 L 38.8106,-38.7761 L 38.8524,-38.8211 L 38.893,-38.8671 L 38.9325,-38.914 L 38.9709,-38.9619
 L 39.008,-39.0107 L 39.044,-39.0605 L 39.0787,-39.1111 L 39.1121,-39.1625 L 39.1443,-39.2147 L 39.1752,-39.2677
 L 39.2048,-39.3215 L 39.233,-39.376 L 39.26,-39.4311 L 39.2855,-39.4869 L 39.3097,-39.5433 L 39.3325,-39.6003
 L 39.3539,-39.6578 L 39.3738,-39.7158 L 39.3923,-39.7743 L 39.4094,-39.8332 L 39.4251,-39.8925 L 39.4393,-39.9522
 L 39.452,-40.0123 L 39.4632,-40.0726 L 39.4729,-40.1332 L 39.4812,-40.194 L 39.488,-40.255 L 39.4932,-40.3161
 L 39.497,-40.3773 L 39.4992,-40.4386 L 39.5,-40.5 L 39.4992,-40.5613 L 39.497,-40.6227 L 39.4932,-40.6839
 L 39.488,-40.745 L 39.4812,-40.806 L 39.4729,-40.8668 L 39.4632,-40.9274 L 39.452,-40.9877 L 39.4393,-41.0477
 L 39.4251,-41.1074 L 39.4094,-41.1668 L 39.3998,-41.2 L 46.75,-41.2 L 46.75,-41.4742 L 47.3255,-40.8233
 L 48.3131,-39.6496 L 49.2717,-38.452 L 50.2005,-37.2312 L 51,-36.125 L 51,36.125 L 50.2005,37.2312
 L 49.2717,38.452 L 48.3131,39.6496 L 47.3255,40.8233 L 46.75,41.4742 L 46.75,41.2 L 39.3998,41.2
 L 39.4094,41.1668 L 39.4251,41.1074 L 39.4393,41.0477 L 39.452,40.9877 L 39.4632,40.9274 L 39.4729,40.8668
 L 39.4812,40.806 L 39.488,40.745 L 39.4932,40.6839 L 39.497,40.6227 L 39.4992,40.5613 L 39.5,40.5
 L 39.4992,40.4386 L 39.497,40.3773 L 39.4932,40.3161 L 39.488,40.255 L 39.4812,40.194 L 39.4729,40.1332
 L 39.4632,40.0726 L 39.452,40.0123 L 39.4393,39.9522 L 39.4251,39.8925 L 39.4094,39.8332 L 39.3923,39.7743
 L 39.3738,39.7158 L 39.3539,39.6578 L 39.3325,39.6003 L 39.3097,39.5433 L 39.2855,39.4869 L 39.26,39.4311
 L 39.233,39.376 L 39.2048,39.3215 L 39.1752,39.2677 L 39.1443,39.2147 L 39.1121,39.1625 L 39.0787,39.1111
 L 39.044,39.0605 L 39.008,39.0107 L 38.9709,38.9619 L 38.9325,38.914 L 38.893,38.8671 L 38.8524,38.8211
 L 38.8106,38.7761 L 38.7678,38.7322 L 38.7238,38.6894 L 38.6789,38.6476 L 38.6329,38.607 L 38.586,38.5675
 L 38.5381,38.5291 L 38.4892,38.492 L 38.4395,38.456 L 38.3889,38.4213 L 38.3375,38.3879 L 38.2852,38.3557
 L 38.2322,38.3248 L 38.1785,38.2952 L 38.124,38.2669 L 38.0689,38.24 L 38.0131,38.2145 L 37.9567,38.1903
 L 37.8997,38.1675 L 37.8422,38.1461 L 37.7842,38.1262 L 37.7257,38.1077 L 37.6668,38.0906 L 37.6074,38.0749
 L 37.5477,38.0607 L 37.4877,38.048 L 37.4274,38.0368 L 37.3668,38.0271 L 37.306,38.0188 L 37.245,38.012
 L 37.1839,38.0068 L 37.1227,38.003 L 37.0613,38.0007 L 37,38 L 36.9386,38.0007 L 36.8773,38.003
 L 36.8161,38.0068 L 36.755,38.012 L 36.694,38.0188 L 36.6332,38.0271 L 36.5726,38.0368 L 36.5123,38.048
 L 36.4522,38.0607 L 36.3925,38.0749 L 36.3332,38.0906 L 36.2743,38.1077 L 36.2158,38.1262 L 36.1578,38.1461
 L 36.1003,38.1675 L 36.0433,38.1903 L 35.9869,38.2145 L 35.9311,38.24 L 35.876,38.2669 L 35.8215,38.2952
 L 35.7677,38.3248 L 35.7147,38.3557 L 35.6625,38.3879 L 35.6111,38.4213 L 35.5605,38.456 L 35.5107,38.492
 L 35.4619,38.5291 L 35.414,38.5675 L 35.3671,38.607 L 35.3211,38.6476 L 35.2761,38.6894 L 35.2322,38.7322
 L 35.1894,38.7761 L 35.1476,38.8211 L 35.107,38.8671 L 35.0675,38.914 L 35.0291,38.9619 L 34.992,39.0107
 L 34.956,39.0605 L 34.9213,39.1111 L 34.8879,39.1625 L 34.8557,39.2147 L 34.8248,39.2677 L 34.7952,39.3215
 L 34.7669,39.376 L 34.74,39.4311 L 34.7145,39.4869 L 34.6903,39.5433 L 34.6675,39.6003 L 34.6461,39.6578
 L 34.6262,39.7158 L 34.6077,39.7743 L 34.5906,39.8332 L 34.5749,39.8925 L 34.5607,39.9522 L 34.5506,40
 L 33.5,40 L 33.5,52.7626 L 33.4373,52.8033 L 32.1314,53.608 L 30.8061,54.3804 L 29.4623,55.1201
 L 28.1007,55.8265 L 26.7222,56.4993 L 25.3276,57.1381 L 23.9177,57.7425 L 22.4934,58.312 L 21.0556,58.8465
 L 19.6051,59.3455 L 18.1428,59.8088 L 16.6695,60.236 L 15.1862,60.627 L 13.6938,60.9814 L 12.1931,61.2991
 L 10.6851,61.5798 L 9.17065,61.8235 L 7.65067,62.03 L 6.12607,62.199 L 4.59778,62.3306 L 3.06673,62.4247
 L 1.53381,62.4812 L 0,62.5 z
M 35.1,-51.7083 L 35.988,-51.099 L 37.2312,-50.2005 L 38.452,-49.2717 L 39.6496,-48.3131 L 40.8233,-47.3255
 L 41.9724,-46.3094 L 43.0963,-45.2654 L 44.1942,-44.1942 L 45.2654,-43.0963 L 45.5407,-42.8 L 38.25,-42.8
 L 38.25,-42.6649 L 38.2322,-42.6752 L 38.1785,-42.7048 L 38.124,-42.733 L 38.0689,-42.76 L 38.0131,-42.7855
 L 37.9567,-42.8097 L 37.8997,-42.8325 L 37.8422,-42.8539 L 37.7842,-42.8738 L 37.7257,-42.8923 L 37.6668,-42.9094
 L 37.6074,-42.9251 L 37.5477,-42.9393 L 37.4877,-42.952 L 37.4274,-42.9632 L 37.3668,-42.9729 L 37.306,-42.9812
 L 37.245,-42.988 L 37.1839,-42.9932 L 37.1227,-42.997 L 37.0613,-42.9992 L 37,-43 L 36.9386,-42.9992
 L 36.8773,-42.997 L 36.8161,-42.9932 L 36.755,-42.988 L 36.694,-42.9812 L 36.6332,-42.9729 L 36.5726,-42.9632
 L 36.5123,-42.952 L 36.4522,-42.9393 L 36.3925,-42.9251 L 36.3332,-42.9094 L 36.2743,-42.8923 L 36.2158,-42.8738
 L 36.1578,-42.8539 L 36.1003,-42.8325 L 36.0433,-42.8097 L 35.9869,-42.7855 L 35.9311,-42.76 L 35.876,-42.733
 L 35.8215,-42.7048 L 35.7677,-42.6752 L 35.7147,-42.6443 L 35.6625,-42.6121 L 35.6111,-42.5787 L 35.5605,-42.544
 L 35.5107,-42.508 L 35.4619,-42.4709 L 35.414,-42.4325 L 35.3671,-42.393 L 35.3211,-42.3524 L 35.2761,-42.3106
 L 35.2322,-42.2678 L 35.1894,-42.2238 L 35.1476,-42.1789 L 35.107,-42.1329 L 35.1,-42.1246 z
M -35.107,-42.1329 L -35.1476,-42.1789 L -35.1894,-42.2238 L -35.2322,-42.2678 L -35.2761,-42.3106 L -35.3211,-42.3524
 L -35.3671,-42.393 L -35.414,-42.4325 L -35.4619,-42.4709 L -35.5107,-42.508 L -35.5605,-42.544 L -35.6111,-42.5787
 L -35.6625,-42.6121 L -35.7147,-42.6443 L -35.7677,-42.6752 L -35.8215,-42.7048 L -35.876,-42.733 L -35.9311,-42.76
 L -35.9869,-42.7855 L -36.0433,-42.8097 L -36.1003,-42.8325 L -36.1578,-42.8539 L -36.2158,-42.8738 L -36.2743,-42.8923
 L -36.3332,-42.9094 L -36.3925,-42.9251 L -36.4522,-42.9393 L -36.5123,-42.952 L -36.5726,-42.9632 L -36.6332,-42.9729
 L -36.694,-42.9812 L -36.755,-42.988 L -36.8161,-42.9932 L -36.8773,-42.997 L -36.9386,-42.9992 L -37,-43
 L -37.0613,-42.9992 L -37.1227,-42.997 L -37.1839,-42.9932 L -37.245,-42.988 L -37.306,-42.9812 L -37.3668,-42.9729
 L -37.4274,-42.9632 L -37.4877,-42.952 L -37.5477,-42.9393 L -37.6074,-42.9251 L -37.6668,-42.9094 L -37.7257,-42.8923
 L -37.7842,-42.8738 L -37.8422,-42.8539 L -37.8997,-42.8325 L -37.9567,-42.8097 L -38.0131,-42.7855 L -38.0689,-42.76
 L -38.124,-42.733 L -38.1785,-42.7048 L -38.2322,-42.6752 L -38.25,-42.6649 L -38.25,-42.8 L -45.5407,-42.8
 L -45.2654,-43.0963 L -44.1942,-44.1942 L -43.0963,-45.2654 L -41.9724,-46.3094 L -40.8233,-47.3255 L -39.6496,-48.3131
 L -38.452,-49.2717 L -37.2312,-50.2005 L -35.988,-51.099 L -35.1,-51.7083 L -35.1,-42.1246 z
M 36.9607,-38.9005 L 36.9215,-38.9019 L 36.8823,-38.9043 L 36.8432,-38.9077 L 36.8041,-38.912 L 36.7652,-38.9173
 L 36.7265,-38.9236 L 36.6879,-38.9307 L 36.6494,-38.9389 L 36.6112,-38.948 L 36.5733,-38.9579 L 36.5355,-38.9689
 L 36.4981,-38.9807 L 36.461,-38.9935 L 36.4242,-39.0072 L 36.3877,-39.0218 L 36.3516,-39.0373 L 36.3159,-39.0536
 L 36.2806,-39.0708 L 36.2458,-39.0889 L 36.2114,-39.1078 L 36.1774,-39.1276 L 36.144,-39.1482 L 36.1111,-39.1696
 L 36.0787,-39.1919 L 36.0469,-39.2149 L 36.0156,-39.2386 L 35.985,-39.2632 L 35.9549,-39.2885 L 35.9255,-39.3145
 L 35.8967,-39.3412 L 35.8686,-39.3686 L 35.8412,-39.3967 L 35.8145,-39.4255 L 35.7885,-39.4549 L 35.7632,-39.485
 L 35.7386,-39.5156 L 35.7149,-39.5469 L 35.6919,-39.5787 L 35.6696,-39.6111 L 35.6482,-39.644 L 35.6276,-39.6774
 L 35.6078,-39.7114 L 35.5889,-39.7458 L 35.5708,-39.7806 L 35.5536,-39.8159 L 35.5373,-39.8516 L 35.5218,-39.8877
 L 35.5072,-39.9242 L 35.4935,-39.961 L 35.4807,-39.9981 L 35.4689,-40.0355 L 35.4579,-40.0733 L 35.448,-40.1112
 L 35.4389,-40.1494 L 35.4307,-40.1879 L 35.4236,-40.2265 L 35.4173,-40.2652 L 35.412,-40.3041 L 35.4077,-40.3432
 L 35.4043,-40.3823 L 35.4019,-40.4215 L 35.4005,-40.4607 L 35.4,-40.5 L 35.4005,-40.5393 L 35.4019,-40.5785
 L 35.4043,-40.6177 L 35.4077,-40.6568 L 35.412,-40.6958 L 35.4173,-40.7348 L 35.4236,-40.7735 L 35.4307,-40.8121
 L 35.4389,-40.8506 L 35.448,-40.8888 L 35.4579,-40.9267 L 35.4689,-40.9644 L 35.4807,-41.0019 L 35.4935,-41.039
 L 35.5072,-41.0758 L 35.5218,-41.1123 L 35.5373,-41.1484 L 35.5536,-41.1841 L 35.5708,-41.2194 L 35.5889,-41.2542
 L 35.6078,-41.2886 L 35.6276,-41.3226 L 35.6482,-41.356 L 35.6696,-41.3889 L 35.6919,-41.4213 L 35.7149,-41.4531
 L 35.7386,-41.4844 L 35.7632,-41.515 L 35.7885,-41.5451 L 35.8145,-41.5745 L 35.8412,-41.6033 L 35.8686,-41.6314
 L 35.8967,-41.6588 L 35.9255,-41.6855 L 35.9549,-41.7115 L 35.985,-41.7368 L 36.0156,-41.7614 L 36.0469,-41.7851
 L 36.0787,-41.8081 L 36.1111,-41.8304 L 36.144,-41.8518 L 36.1774,-41.8724 L 36.2114,-41.8921 L 36.2458,-41.9111
 L 36.2806,-41.9292 L 36.3159,-41.9464 L 36.3516,-41.9627 L 36.3877,-41.9782 L 36.4242,-41.9928 L 36.461,-42.0065
 L 36.4981,-42.0192 L 36.5355,-42.0311 L 36.5733,-42.042 L 36.6112,-42.052 L 36.6494,-42.0611 L 36.6879,-42.0692
 L 36.7265,-42.0764 L 36.7652,-42.0827 L 36.8041,-42.088 L 36.8432,-42.0923 L 36.8823,-42.0957 L 36.9215,-42.0981
 L 36.9607,-42.0995 L 37,-42.1 L 37.0393,-42.0995 L 37.0785,-42.0981 L 37.1177,-42.0957 L 37.1568,-42.0923
 L 37.1958,-42.088 L 37.2348,-42.0827 L 37.2735,-42.0764 L 37.3121,-42.0692 L 37.3506,-42.0611 L 37.3888,-42.052
 L 37.4267,-42.042 L 37.4644,-42.0311 L 37.5019,-42.0192 L 37.539,-42.0065 L 37.5758,-41.9928 L 37.6123,-41.9782
 L 37.6484,-41.9627 L 37.6841,-41.9464 L 37.7194,-41.9292 L 37.7542,-41.9111 L 37.7886,-41.8921 L 37.8226,-41.8724
 L 37.856,-41.8518 L 37.8889,-41.8304 L 37.9213,-41.8081 L 37.9531,-41.7851 L 37.9844,-41.7614 L 38.015,-41.7368
 L 38.0451,-41.7115 L 38.0745,-41.6855 L 38.1033,-41.6588 L 38.1314,-41.6314 L 38.1588,-41.6033 L 38.1855,-41.5745
 L 38.2115,-41.5451 L 38.2368,-41.515 L 38.25,-41.4986 L 38.25,-41.2 L 38.4386,-41.2 L 38.4464,-41.1841
 L 38.4627,-41.1484 L 38.4782,-41.1123 L 38.4928,-41.0758 L 38.5065,-41.039 L 38.5192,-41.0019 L 38.5311,-40.9644
 L 38.542,-40.9267 L 38.552,-40.8888 L 38.5611,-40.8506 L 38.5692,-40.8121 L 38.5764,-40.7735 L 38.5827,-40.7348
 L 38.588,-40.6958 L 38.5923,-40.6568 L 38.5957,-40.6177 L 38.5981,-40.5785 L 38.5995,-40.5393 L 38.6,-40.5
 L 38.5995,-40.4607 L 38.5981,-40.4215 L 38.5957,-40.3823 L 38.5923,-40.3432 L 38.588,-40.3041 L 38.5827,-40.2652
 L 38.5764,-40.2265 L 38.5692,-40.1879 L 38.5611,-40.1494 L 38.552,-40.1112 L 38.542,-40.0733 L 38.5311,-40.0355
 L 38.5192,-39.9981 L 38.5065,-39.961 L 38.4928,-39.9242 L 38.4782,-39.8877 L 38.4627,-39.8516 L 38.4464,-39.8159
 L 38.4292,-39.7806 L 38.4111,-39.7458 L 38.3921,-39.7114 L 38.3724,-39.6774 L 38.3518,-39.644 L 38.3304,-39.6111
 L 38.3081,-39.5787 L 38.2851,-39.5469 L 38.2614,-39.5156 L 38.2368,-39.485 L 38.2115,-39.4549 L 38.1855,-39.4255
 L 38.1588,-39.3967 L 38.1314,-39.3686 L 38.1033,-39.3412 L 38.0745,-39.3145 L 38.0451,-39.2885 L 38.015,-39.2632
 L 37.9844,-39.2386 L 37.9531,-39.2149 L 37.9213,-39.1919 L 37.8889,-39.1696 L 37.856,-39.1482 L 37.8226,-39.1276
 L 37.7886,-39.1078 L 37.7542,-39.0889 L 37.7194,-39.0708 L 37.6841,-39.0536 L 37.6484,-39.0373 L 37.6123,-39.0218
 L 37.5758,-39.0072 L 37.539,-38.9935 L 37.5019,-38.9807 L 37.4644,-38.9689 L 37.4267,-38.9579 L 37.3888,-38.948
 L 37.3506,-38.9389 L 37.3121,-38.9307 L 37.2735,-38.9236 L 37.2348,-38.9173 L 37.1958,-38.912 L 37.1568,-38.9077
 L 37.1177,-38.9043 L 37.0785,-38.9019 L 37.0393,-38.9005 L 37,-38.9 z
M -37.0393,-38.9005 L -37.0785,-38.9019 L -37.1177,-38.9043 L -37.1568,-38.9077 L -37.1958,-38.912 L -37.2348,-38.9173
 L -37.2735,-38.9236 L -37.3121,-38.9307 L -37.3506,-38.9389 L -37.3888,-38.948 L -37.4267,-38.9579 L -37.4644,-38.9689
 L -37.5019,-38.9807 L -37.539,-38.9935 L -37.5758,-39.0072 L -37.6123,-39.0218 L -37.6484,-39.0373 L -37.6841,-39.0536
 L -37.7194,-39.0708 L -37.7542,-39.0889 L -37.7886,-39.1078 L -37.8226,-39.1276 L -37.856,-39.1482 L -37.8889,-39.1696
 L -37.9213,-39.1919 L -37.9531,-39.2149 L -37.9844,-39.2386 L -38.015,-39.2632 L -38.0451,-39.2885 L -38.0745,-39.3145
 L -38.1033,-39.3412 L -38.1314,-39.3686 L -38.1588,-39.3967 L -38.1855,-39.4255 L -38.2115,-39.4549 L -38.2368,-39.485
 L -38.2614,-39.5156 L -38.2851,-39.5469 L -38.3081,-39.5787 L -38.3304,-39.6111 L -38.3518,-39.644 L -38.3724,-39.6774
 L -38.3921,-39.7114 L -38.4111,-39.7458 L -38.4292,-39.7806 L -38.4464,-39.8159 L -38.4627,-39.8516 L -38.4782,-39.8877
 L -38.4928,-39.9242 L -38.5065,-39.961 L -38.5192,-39.9981 L -38.5311,-40.0355 L -38.542,-40.0733 L -38.552,-40.1112
 L -38.5611,-40.1494 L -38.5692,-40.1879 L -38.5764,-40.2265 L -38.5827,-40.2652 L -38.588,-40.3041 L -38.5923,-40.3432
 L -38.5957,-40.3823 L -38.5981,-40.4215 L -38.5995,-40.4607 L -38.6,-40.5 L -38.5995,-40.5393 L -38.5981,-40.5785
 L -38.5957,-40.6177 L -38.5923,-40.6568 L -38.588,-40.6958 L -38.5827,-40.7348 L -38.5764,-40.7735 L -38.5692,-40.8121
 L -38.5611,-40.8506 L -38.552,-40.8888 L -38.542,-40.9267 L -38.5311,-40.9644 L -38.5192,-41.0019 L -38.5065,-41.039
 L -38.4928,-41.0758 L -38.4782,-41.1123 L -38.4627,-41.1484 L -38.4464,-41.1841 L -38.4386,-41.2 L -38.25,-41.2
 L -38.25,-41.4986 L -38.2368,-41.515 L -38.2115,-41.5451 L -38.1855,-41.5745 L -38.1588,-41.6033 L -38.1314,-41.6314
 L -38.1033,-41.6588 L -38.0745,-41.6855 L -38.0451,-41.7115 L -38.015,-41.7368 L -37.9844,-41.7614 L -37.9531,-41.7851
 L -37.9213,-41.8081 L -37.8889,-41.8304 L -37.856,-41.8518 L -37.8226,-41.8724 L -37.7886,-41.8921 L -37.7542,-41.9111
 L -37.7194,-41.9292 L -37.6841,-41.9464 L -37.6484,-41.9627 L -37.6123,-41.9782 L -37.5758,-41.9928 L -37.539,-42.0065
 L -37.5019,-42.0192 L -37.4644,-42.0311 L -37.4267,-42.042 L -37.3888,-42.052 L -37.3506,-42.0611 L -37.3121,-42.0692
 L -37.2735,-42.0764 L -37.2348,-42.0827 L -37.1958,-42.088 L -37.1568,-42.0923 L -37.1177,-42.0957 L -37.0785,-42.0981
 L -37.0393,-42.0995 L -37,-42.1 L -36.9607,-42.0995 L -36.9215,-42.0981 L -36.8823,-42.0957 L -36.8432,-42.0923
 L -36.8041,-42.088 L -36.7652,-42.0827 L -36.7265,-42.0764 L -36.6879,-42.0692 L -36.6494,-42.0611 L -36.6112,-42.052
 L -36.5733,-42.042 L -36.5355,-42.0311 L -36.4981,-42.0192 L -36.461,-42.0065 L -36.4242,-41.9928 L -36.3877,-41.9782
 L -36.3516,-41.9627 L -36.3159,-41.9464 L -36.2806,-41.9292 L -36.2458,-41.9111 L -36.2114,-41.8921 L -36.1774,-41.8724
 L -36.144,-41.8518 L -36.1111,-41.8304 L -36.0787,-41.8081 L -36.0469,-41.7851 L -36.0156,-41.7614 L -35.985,-41.7368
 L -35.9549,-41.7115 L -35.9255,-41.6855 L -35.8967,-41.6588 L -35.8686,-41.6314 L -35.8412,-41.6033 L -35.8145,-41.5745
 L -35.7885,-41.5451 L -35.7632,-41.515 L -35.7386,-41.4844 L -35.7149,-41.4531 L -35.6919,-41.4213 L -35.6696,-41.3889
 L -35.6482,-41.356 L -35.6276,-41.3226 L -35.6078,-41.2886 L -35.5889,-41.2542 L -35.5708,-41.2194 L -35.5536,-41.1841
 L -35.5373,-41.1484 L -35.5218,-41.1123 L -35.5072,-41.0758 L -35.4935,-41.039 L -35.4807,-41.0019 L -35.4689,-40.9644
 L -35.4579,-40.9267 L -35.448,-40.8888 L -35.4389,-40.8506 L -35.4307,-40.8121 L -35.4236,-40.7735 L -35.4173,-40.7348
 L -35.412,-40.6958 L -35.4077,-40.6568 L -35.4043,-40.6177 L -35.4019,-40.5785 L -35.4005,-40.5393 L -35.4,-40.5
 L -35.4005,-40.4607 L -35.4019,-40.4215 L -35.4043,-40.3823 L -35.4077,-40.3432 L -35.412,-40.3041 L -35.4173,-40.2652
 L -35.4236,-40.2265 L -35.4307,-40.1879 L -35.4389,-40.1494 L -35.448,-40.1112 L -35.4579,-40.0733 L -35.4689,-40.0355
 L -35.4807,-39.9981 L -35.4935,-39.961 L -35.5072,-39.9242 L -35.5218,-39.8877 L -35.5373,-39.8516 L -35.5536,-39.8159
 L -35.5708,-39.7806 L -35.5889,-39.7458 L -35.6078,-39.7114 L -35.6276,-39.6774 L -35.6482,-39.644 L -35.6696,-39.6111
 L -35.6919,-39.5787 L -35.7149,-39.5469 L -35.7386,-39.5156 L -35.7632,-39.485 L -35.7885,-39.4549 L -35.8145,-39.4255
 L -35.8412,-39.3967 L -35.8686,-39.3686 L -35.8967,-39.3412 L -35.9255,-39.3145 L -35.9549,-39.2885 L -35.985,-39.2632
 L -36.0156,-39.2386 L -36.0469,-39.2149 L -36.0787,-39.1919 L -36.1111,-39.1696 L -36.144,-39.1482 L -36.1774,-39.1276
 L -36.2114,-39.1078 L -36.2458,-39.0889 L -36.2806,-39.0708 L -36.3159,-39.0536 L -36.3516,-39.0373 L -36.3877,-39.0218
 L -36.4242,-39.0072 L -36.461,-38.9935 L -36.4981,-38.9807 L -36.5355,-38.9689 L -36.5733,-38.9579 L -36.6112,-38.948
 L -36.6494,-38.9389 L -36.6879,-38.9307 L -36.7265,-38.9236 L -36.7652,-38.9173 L -36.8041,-38.912 L -36.8432,-38.9077
 L -36.8823,-38.9043 L -36.9215,-38.9019 L -36.9607,-38.9005 L -37,-38.9 z
M -37.0393,42.0995 L -37.0785,42.0981 L -37.1177,42.0957 L -37.1568,42.0923 L -37.1958,42.088 L -37.2348,42.0827
 L -37.2735,42.0764 L -37.3121,42.0692 L -37.3506,42.0611 L -37.3888,42.052 L -37.4267,42.042 L -37.4644,42.0311
 L -37.5019,42.0192 L -37.539,42.0065 L -37.5758,41.9928 L -37.6123,41.9782 L -37.6484,41.9627 L -37.6841,41.9464
 L -37.7194,41.9292 L -37.7542,41.9111 L -37.7886,41.8921 L -37.8226,41.8724 L -37.856,41.8518 L -37.8889,41.8304
 L -37.9213,41.8081 L -37.9531,41.7851 L -37.9844,41.7614 L -38.015,41.7368 L -38.0451,41.7115 L -38.0745,41.6855
 L -38.1033,41.6588 L -38.1314,41.6314 L -38.1588,41.6033 L -38.1855,41.5745 L -38.2115,41.5451 L -38.2368,41.515
 L -38.25,41.4986 L -38.25,41.2 L -38.4386,41.2 L -38.4464,41.1841 L -38.4627,41.1484 L -38.4782,41.1123
 L -38.4928,41.0758 L -38.5065,41.039 L -38.5192,41.0019 L -38.5311,40.9644 L -38.542,40.9267 L -38.552,40.8888
 L -38.5611,40.8506 L -38.5692,40.8121 L -38.5764,40.7735 L -38.5827,40.7348 L -38.588,40.6958 L -38.5923,40.6568
 L -38.5957,40.6177 L -38.5981,40.5785 L -38.5995,40.5393 L -38.6,40.5 L -38.5995,40.4607 L -38.5981,40.4215
 L -38.5957,40.3823 L -38.5923,40.3432 L -38.588,40.3041 L -38.5827,40.2652 L -38.5764,40.2265 L -38.5692,40.1879
 L -38.5611,40.1494 L -38.552,40.1112 L -38.542,40.0733 L -38.5311,40.0355 L -38.5192,39.9981 L -38.5065,39.961
 L -38.4928,39.9242 L -38.4782,39.8877 L -38.4627,39.8516 L -38.4464,39.8159 L -38.4292,39.7806 L -38.4111,39.7458
 L -38.3921,39.7114 L -38.3724,39.6774 L -38.3518,39.644 L -38.3304,39.6111 L -38.3081,39.5787 L -38.2851,39.5469
 L -38.2614,39.5156 L -38.2368,39.485 L -38.2115,39.4549 L -38.1855,39.4255 L -38.1588,39.3967 L -38.1314,39.3686
 L -38.1033,39.3412 L -38.0745,39.3145 L -38.0451,39.2885 L -38.015,39.2632 L -37.9844,39.2386 L -37.9531,39.2149
 L -37.9213,39.1919 L -37.8889,39.1696 L -37.856,39.1482 L -37.8226,39.1276 L -37.7886,39.1078 L -37.7542,39.0889
 L -37.7194,39.0708 L -37.6841,39.0536 L -37.6484,39.0373 L -37.6123,39.0218 L -37.5758,39.0072 L -37.539,38.9935
 L -37.5019,38.9807 L -37.4644,38.9689 L -37.4267,38.9579 L -37.3888,38.948 L -37.3506,38.9389 L -37.3121,38.9307
 L -37.2735,38.9236 L -37.2348,38.9173 L -37.1958,38.912 L -37.1568,38.9077 L -37.1177,38.9043 L -37.0785,38.9019
 L -37.0393,38.9005 L -37,38.9 L -36.9607,38.9005 L -36.9215,38.9019 L -36.8823,38.9043 L -36.8432,38.9077
 L -36.8041,38.912 L -36.7652,38.9173 L -36.7265,38.9236 L -36.6879,38.9307 L -36.6494,38.9389 L -36.6112,38.948
 L -36.5733,38.9579 L -36.5355,38.9689 L -36.4981,38.9807 L -36.461,38.9935 L -36.4242,39.0072 L -36.3877,39.0218
 L -36.3516,39.0373 L -36.3159,39.0536 L -36.2806,39.0708 L -36.2458,39.0889 L -36.2114,39.1078 L -36.1774,39.1276
 L -36.144,39.1482 L -36.1111,39.1696 L -36.0787,39.1919 L -36.0469,39.2149 L -36.0156,39.2386 L -35.985,39.2632
 L -35.9549,39.2885 L -35.9255,39.3145 L -35.8967,39.3412 L -35.8686,39.3686 L -35.8412,39.3967 L -35.8145,39.4255
 L -35.7885,39.4549 L -35.7632,39.485 L -35.7386,39.5156 L -35.7149,39.5469 L -35.6919,39.5787 L -35.6696,39.6111
 L -35.6482,39.644 L -35.6276,39.6774 L -35.6078,39.7114 L -35.5889,39.7458 L -35.5708,39.7806 L -35.5536,39.8159
 L -35.5373,39.8516 L -35.5218,39.8877 L -35.5072,39.9242 L -35.4935,39.961 L -35.4807,39.9981 L -35.4689,40.0355
 L -35.4579,40.0733 L -35.448,40.1112 L -35.4389,40.1494 L -35.4307,40.1879 L -35.4236,40.2265 L -35.4173,40.2652
 L -35.412,40.3041 L -35.4077,40.3432 L -35.4043,40.3823 L -35.4019,40.4215 L -35.4005,40.4607 L -35.4,40.5
 L -35.4005,40.5393 L -35.4019,40.5785 L -35.4043,40.6177 L -35.4077,40.6568 L -35.412,40.6958 L -35.4173,40.7348
 L -35.4236,40.7735 L -35.4307,40.8121 L -35.4389,40.8506 L -35.448,40.8888 L -35.4579,40.9267 L -35.4689,40.9644
 L -35.4807,41.0019 L -35.4935,41.039 L -35.5072,41.0758 L -35.5218,41.1123 L -35.5373,41.1484 L -35.5536,41.1841
 L -35.5708,41.2194 L -35.5889,41.2542 L -35.6078,41.2886 L -35.6276,41.3226 L -35.6482,41.356 L -35.6696,41.3889
 L -35.6919,41.4213 L -35.7149,41.4531 L -35.7386,41.4844 L -35.7632,41.515 L -35.7885,41.5451 L -35.8145,41.5745
 L -35.8412,41.6033 L -35.8686,41.6314 L -35.8967,41.6588 L -35.9255,41.6855 L -35.9549,41.7115 L -35.985,41.7368
 L -36.0156,41.7614 L -36.0469,41.7851 L -36.0787,41.8081 L -36.1111,41.8304 L -36.144,41.8518 L -36.1774,41.8724
 L -36.2114,41.8921 L -36.2458,41.9111 L -36.2806,41.9292 L -36.3159,41.9464 L -36.3516,41.9627 L -36.3877,41.9782
 L -36.4242,41.9928 L -36.461,42.0065 L -36.4981,42.0192 L -36.5355,42.0311 L -36.5733,42.042 L -36.6112,42.052
 L -36.6494,42.0611 L -36.6879,42.0692 L -36.7265,42.0764 L -36.7652,42.0827 L -36.8041,42.088 L -36.8432,42.0923
 L -36.8823,42.0957 L -36.9215,42.0981 L -36.9607,42.0995 L -37,42.1 z
M 36.9607,42.0995 L 36.9215,42.0981 L 36.8823,42.0957 L 36.8432,42.0923 L 36.8041,42.088 L 36.7652,42.0827
 L 36.7265,42.0764 L 36.6879,42.0692 L 36.6494,42.0611 L 36.6112,42.052 L 36.5733,42.042 L 36.5355,42.0311
 L 36.4981,42.0192 L 36.461,42.0065 L 36.4242,41.9928 L 36.3877,41.9782 L 36.3516,41.9627 L 36.3159,41.9464
 L 36.2806,41.9292 L 36.2458,41.9111 L 36.2114,41.8921 L 36.1774,41.8724 L 36.144,41.8518 L 36.1111,41.8304
 L 36.0787,41.8081 L 36.0469,41.7851 L 36.0156,41.7614 L 35.985,41.7368 L 35.9549,41.7115 L 35.9255,41.6855
 L 35.8967,41.6588 L 35.8686,41.6314 L 35.8412,41.6033 L 35.8145,41.5745 L 35.7885,41.5451 L 35.7632,41.515
 L 35.7386,41.4844 L 35.7149,41.4531 L 35.6919,41.4213 L 35.6696,41.3889 L 35.6482,41.356 L 35.6276,41.3226
 L 35.6078,41.2886 L 35.5889,41.2542 L 35.5708,41.2194 L 35.5536,41.1841 L 35.5373,41.1484 L 35.5218,41.1123
 L 35.5072,41.0758 L 35.4935,41.039 L 35.4807,41.0019 L 35.4689,40.9644 L 35.4579,40.9267 L 35.448,40.8888
 L 35.4389,40.8506 L 35.4307,40.8121 L 35.4236,40.7735 L 35.4173,40.7348 L 35.412,40.6958 L 35.4077,40.6568
 L 35.4043,40.6177 L 35.4019,40.5785 L 35.4005,40.5393 L 35.4,40.5 L 35.4005,40.4607 L 35.4019,40.4215
 L 35.4043,40.3823 L 35.4077,40.3432 L 35.412,40.3041 L 35.4173,40.2652 L 35.4236,40.2265 L 35.4307,40.1879
 L 35.4389,40.1494 L 35.448,40.1112 L 35.4579,40.0733 L 35.4689,40.0355 L 35.4807,39.9981 L 35.4935,39.961
 L 35.5072,39.9242 L 35.5218,39.8877 L 35.5373,39.8516 L 35.5536,39.8159 L 35.5708,39.7806 L 35.5889,39.7458
 L 35.6078,39.7114 L 35.6276,39.6774 L 35.6482,39.644 L 35.6696,39.6111 L 35.6919,39.5787 L 35.7149,39.5469
 L 35.7386,39.5156 L 35.7632,39.485 L 35.7885,39.4549 L 35.8145,39.4255 L 35.8412,39.3967 L 35.8686,39.3686
 L 35.8967,39.3412 L 35.9255,39.3145 L 35.9549,39.2885 L 35.985,39.2632 L 36.0156,39.2386 L 36.0469,39.2149
 L 36.0787,39.1919 L 36.1111,39.1696 L 36.144,39.1482 L 36.1774,39.1276 L 36.2114,39.1078 L 36.2458,39.0889
 L 36.2806,39.0708 L 36.3159,39.0536 L 36.3516,39.0373 L 36.3877,39.0218 L 36.4242,39.0072 L 36.461,38.9935
 L 36.4981,38.9807 L 36.5355,38.9689 L 36.5733,38.9579 L 36.6112,38.948 L 36.6494,38.9389 L 36.6879,38.9307
 L 36.7265,38.9236 L 36.7652,38.9173 L 36.8041,38.912 L 36.8432,38.9077 L 36.8823,38.9043 L 36.9215,38.9019
 L 36.9607,38.9005 L 37,38.9 L 37.0393,38.9005 L 37.0785,38.9019 L 37.1177,38.9043 L 37.1568,38.9077
 L 37.1958,38.912 L 37.2348,38.9173 L 37.2735,38.9236 L 37.3121,38.9307 L 37.3506,38.9389 L 37.3888,38.948
 L 37.4267,38.9579 L 37.4644,38.9689 L 37.5019,38.9807 L 37.539,38.9935 L 37.5758,39.0072 L 37.6123,39.0218
 L 37.6484,39.0373 L 37.6841,39.0536 L 37.7194,39.0708 L 37.7542,39.0889 L 37.7886,39.1078 L 37.8226,39.1276
 L 37.856,39.1482 L 37.8889,39.1696 L 37.9213,39.1919 L 37.9531,39.2149 L 37.9844,39.2386 L 38.015,39.2632
 L 38.0451,39.2885 L 38.0745,39.3145 L 38.1033,39.3412 L 38.1314,39.3686 L 38.1588,39.3967 L 38.1855,39.4255
 L 38.2115,39.4549 L 38.2368,39.485 L 38.2614,39.5156 L 38.2851,39.5469 L 38.3081,39.5787 L 38.3304,39.6111
 L 38.3518,39.644 L 38.3724,39.6774 L 38.3921,39.7114 L 38.4111,39.7458 L 38.4292,39.7806 L 38.4464,39.8159
 L 38.4627,39.8516 L 38.4782,39.8877 L 38.4928,39.9242 L 38.5065,39.961 L 38.5192,39.9981 L 38.5311,40.0355
 L 38.542,40.0733 L 38.552,40.1112 L 38.5611,40.1494 L 38.5692,40.1879 L 38.5764,40.2265 L 38.5827,40.2652
 L 38.588,40.3041 L 38.5923,40.3432 L 38.5957,40.3823 L 38.5981,40.4215 L 38.5995,40.4607 L 38.6,40.5
 L 38.5995,40.5393 L 38.5981,40.5785 L 38.5957,40.6177 L 38.5923,40.6568 L 38.588,40.6958 L 38.5827,40.7348
 L 38.5764,40.7735 L 38.5692,40.8121 L 38.5611,40.8506 L 38.552,40.8888 L 38.542,40.9267 L 38.5311,40.9644
 L 38.5192,41.0019 L 38.5065,41.039 L 38.4928,41.0758 L 38.4782,41.1123 L 38.4627,41.1484 L 38.4464,41.1841
 L 38.4386,41.2 L 38.25,41.2 L 38.25,41.4986 L 38.2368,41.515 L 38.2115,41.5451 L 38.1855,41.5745
 L 38.1588,41.6033 L 38.1314,41.6314 L 38.1033,41.6588 L 38.0745,41.6855 L 38.0451,41.7115 L 38.015,41.7368
 L 37.9844,41.7614 L 37.9531,41.7851 L 37.9213,41.8081 L 37.8889,41.8304 L 37.856,41.8518 L 37.8226,41.8724
 L 37.7886,41.8921 L 37.7542,41.9111 L 37.7194,41.9292 L 37.6841,41.9464 L 37.6484,41.9627 L 37.6123,41.9782
 L 37.5758,41.9928 L 37.539,42.0065 L 37.5019,42.0192 L 37.4644,42.0311 L 37.4267,42.042 L 37.3888,42.052
 L 37.3506,42.0611 L 37.3121,42.0692 L 37.2735,42.0764 L 37.2348,42.0827 L 37.1958,42.088 L 37.1568,42.0923
 L 37.1177,42.0957 L 37.0785,42.0981 L 37.0393,42.0995 L 37,42.1 z
M -35.988,51.099 L -37.2312,50.2005 L -38.452,49.2717 L -39.6496,48.3131 L -40.8233,47.3255 L -41.9724,46.3094
 L -43.0963,45.2654 L -44.1942,44.1942 L -45.2654,43.0963 L -45.5407,42.8 L -38.25,42.8 L -38.25,42.6649
 L -38.2322,42.6752 L -38.1785,42.7048 L -38.124,42.733 L -38.0689,42.76 L -38.0131,42.7855 L -37.9567,42.8097
 L -37.8997,42.8325 L -37.8422,42.8539 L -37.7842,42.8738 L -37.7257,42.8923 L -37.6668,42.9094 L -37.6074,42.9251
 L -37.5477,42.9393 L -37.4877,42.952 L -37.4274,42.9632 L -37.3668,42.9729 L -37.306,42.9812 L -37.245,42.988
 L -37.1839,42.9932 L -37.1227,42.997 L -37.0613,42.9992 L -37,43 L -36.9386,42.9992 L -36.8773,42.997
 L -36.8161,42.9932 L -36.755,42.988 L -36.694,42.9812 L -36.6332,42.9729 L -36.5726,42.9632 L -36.5123,42.952
 L -36.4522,42.9393 L -36.3925,42.9251 L -36.3332,42.9094 L -36.2743,42.8923 L -36.2158,42.8738 L -36.1578,42.8539
 L -36.1003,42.8325 L -36.0433,42.8097 L -35.9869,42.7855 L -35.9311,42.76 L -35.876,42.733 L -35.8215,42.7048
 L -35.7677,42.6752 L -35.7147,42.6443 L -35.6625,42.6121 L -35.6111,42.5787 L -35.5605,42.544 L -35.5107,42.508
 L -35.4619,42.4709 L -35.414,42.4325 L -35.3671,42.393 L -35.3211,42.3524 L -35.2761,42.3106 L -35.2322,42.2678
 L -35.1894,42.2238 L -35.1476,42.1789 L -35.107,42.1329 L -35.1,42.1246 L -35.1,51.7083 z
M 35.1,42.1246 L 35.107,42.1329 L 35.1476,42.1789 L 35.1894,42.2238 L 35.2322,42.2678 L 35.2761,42.3106
 L 35.3211,42.3524 L 35.3671,42.393 L 35.414,42.4325 L 35.4619,42.4709 L 35.5107,42.508 L 35.5605,42.544
 L 35.6111,42.5787 L 35.6625,42.6121 L 35.7147,42.6443 L 35.7677,42.6752 L 35.8215,42.7048 L 35.876,42.733
 L 35.9311,42.76 L 35.9869,42.7855 L 36.0433,42.8097 L 36.1003,42.8325 L 36.1578,42.8539 L 36.2158,42.8738
 L 36.2743,42.8923 L 36.3332,42.9094 L 36.3925,42.9251 L 36.4522,42.9393 L 36.5123,42.952 L 36.5726,42.9632
 L 36.6332,42.9729 L 36.694,42.9812 L 36.755,42.988 L 36.8161,42.9932 L 36.8773,42.997 L 36.9386,42.9992
 L 37,43 L 37.0613,42.9992 L 37.1227,42.997 L 37.1839,42.9932 L 37.245,42.988 L 37.306,42.9812
 L 37.3668,42.9729 L 37.4274,42.9632 L 37.4877,42.952 L 37.5477,42.9393 L 37.6074,42.9251 L 37.6668,42.9094
 L 37.7257,42.8923 L 37.7842,42.8738 L 37.8422,42.8539 L 37.8997,42.8325 L 37.9567,42.8097 L 38.0131,42.7855
 L 38.0689,42.76 L 38.124,42.733 L 38.1785,42.7048 L 38.2322,42.6752 L 38.25,42.6649 L 38.25,42.8
 L 45.5407,42.8 L 45.2654,43.0963 L 44.1942,44.1942 L 43.0963,45.2654 L 41.9724,46.3094 L 40.8233,47.3255
 L 39.6496,48.3131 L 38.452,49.2717 L 37.2312,50.2005 L 35.988,51.099 L 35.1,51.7083 z
" stroke="black" fill="lightgray" stroke-width="0.5"/>
</svg>
