  0
SECTION
  2
BLOCKS
  0
ENDSEC
  0
SECTION
  2
ENTITIES
  0
LINE
  8
0
 10
1.57309
 20
-64.0807
 11
3.14523
 21
-64.0228
  0
LINE
  8
0
 10
3.14523
 20
-64.0228
 11
4.71548
 21
-63.9263
  0
LINE
  8
0
 10
4.71548
 20
-63.9263
 11
6.2829
 21
-63.7913
  0
LINE
  8
0
 10
6.2829
 20
-63.7913
 11
7.84651
 21
-63.6179
  0
LINE
  8
0
 10
7.84651
 20
-63.6179
 11
9.40541
 21
-63.4062
  0
LINE
  8
0
 10
9.40541
 20
-63.4062
 11
10.9586
 21
-63.1563
  0
LINE
  8
0
 10
10.9586
 20
-63.1563
 11
12.5053
 21
-62.8683
  0
LINE
  8
0
 10
12.5053
 20
-62.8683
 11
14.0444
 21
-62.5425
  0
LINE
  8
0
 10
14.0444
 20
-62.5425
 11
15.575
 21
-62.179
  0
LINE
  8
0
 10
15.575
 20
-62.179
 11
17.0963
 21
-61.778
  0
LINE
  8
0
 10
17.0963
 20
-61.778
 11
18.6072
 21
-61.3399
  0
LINE
  8
0
 10
18.6072
 20
-61.3399
 11
20.107
 21
-60.8647
  0
LINE
  8
0
 10
20.107
 20
-60.8647
 11
21.5946
 21
-60.353
  0
LINE
  8
0
 10
21.5946
 20
-60.353
 11
23.0693
 21
-59.8048
  0
LINE
  8
0
 10
23.0693
 20
-59.8048
 11
24.53
 21
-59.2207
  0
LINE
  8
0
 10
24.53
 20
-59.2207
 11
24.8115
 21
-59.1
  0
LINE
  8
0
 10
24.8115
 20
-59.1
 11
35.1
 21
-59.1
  0
LINE
  8
0
 10
35.1
 20
-59.1
 11
35.1
 21
-53.6303
  0
LINE
  8
0
 10
35.1
 20
-53.6303
 11
35.612
 21
-53.2972
  0
LINE
  8
0
 10
35.612
 20
-53.2972
 11
36.9093
 21
-52.4072
  0
LINE
  8
0
 10
36.9093
 20
-52.4072
 11
38.1843
 21
-51.4856
  0
LINE
  8
0
 10
38.1843
 20
-51.4856
 11
39.4363
 21
-50.533
  0
LINE
  8
0
 10
39.4363
 20
-50.533
 11
40.6646
 21
-49.55
  0
LINE
  8
0
 10
40.6646
 20
-49.55
 11
41.8684
 21
-48.5371
  0
LINE
  8
0
 10
41.8684
 20
-48.5371
 11
43.0469
 21
-47.495
  0
LINE
  8
0
 10
43.0469
 20
-47.495
 11
44.1995
 21
-46.4242
  0
LINE
  8
0
 10
44.1995
 20
-46.4242
 11
45.3255
 21
-45.3255
  0
LINE
  8
0
 10
45.3255
 20
-45.3255
 11
46.4242
 21
-44.1995
  0
LINE
  8
0
 10
46.4242
 20
-44.1995
 11
47.495
 21
-43.0469
  0
LINE
  8
0
 10
47.495
 20
-43.0469
 11
48.5371
 21
-41.8684
  0
LINE
  8
0
 10
48.5371
 20
-41.8684
 11
49.55
 21
-40.6646
  0
LINE
  8
0
 10
49.55
 20
-40.6646
 11
50.533
 21
-39.4363
  0
LINE
  8
0
 10
50.533
 20
-39.4363
 11
51.4856
 21
-38.1843
  0
LINE
  8
0
 10
51.4856
 20
-38.1843
 11
52.4072
 21
-36.9093
  0
LINE
  8
0
 10
52.4072
 20
-36.9093
 11
52.6
 21
-36.6283
  0
LINE
  8
0
 10
52.6
 20
-36.6283
 11
52.6
 21
36.6283
  0
LINE
  8
0
 10
52.6
 20
36.6283
 11
52.4072
 21
36.9093
  0
LINE
  8
0
 10
52.4072
 20
36.9093
 11
51.4856
 21
38.1843
  0
LINE
  8
0
 10
51.4856
 20
38.1843
 11
50.533
 21
39.4363
  0
LINE
  8
0
 10
50.533
 20
39.4363
 11
49.55
 21
40.6646
  0
LINE
  8
0
 10
49.55
 20
40.6646
 11
48.5371
 21
41.8684
  0
LINE
  8
0
 10
48.5371
 20
41.8684
 11
47.495
 21
43.0469
  0
LINE
  8
0
 10
47.495
 20
43.0469
 11
46.4242
 21
44.1995
  0
LINE
  8
0
 10
46.4242
 20
44.1995
 11
45.3255
 21
45.3255
  0
LINE
  8
0
 10
45.3255
 20
45.3255
 11
44.1995
 21
46.4242
  0
LINE
  8
0
 10
44.1995
 20
46.4242
 11
43.0469
 21
47.495
  0
LINE
  8
0
 10
43.0469
 20
47.495
 11
41.8684
 21
48.5371
  0
LINE
  8
0
 10
41.8684
 20
48.5371
 11
40.6646
 21
49.55
  0
LINE
  8
0
 10
40.6646
 20
49.55
 11
39.4363
 21
50.533
  0
LINE
  8
0
 10
39.4363
 20
50.533
 11
38.1843
 21
51.4856
  0
LINE
  8
0
 10
38.1843
 20
51.4856
 11
36.9093
 21
52.4072
  0
LINE
  8
0
 10
36.9093
 20
52.4072
 11
35.612
 21
53.2972
  0
LINE
  8
0
 10
35.612
 20
53.2972
 11
35.1
 21
53.6303
  0
LINE
  8
0
 10
35.1
 20
53.6303
 11
35.1
 21
59.1
  0
LINE
  8
0
 10
35.1
 20
59.1
 11
24.8115
 21
59.1
  0
LINE
  8
0
 10
24.8115
 20
59.1
 11
24.53
 21
59.2207
  0
LINE
  8
0
 10
24.53
 20
59.2207
 11
23.0693
 21
59.8048
  0
LINE
  8
0
 10
23.0693
 20
59.8048
 11
21.5946
 21
60.353
  0
LINE
  8
0
 10
21.5946
 20
60.353
 11
20.107
 21
60.8647
  0
LINE
  8
0
 10
20.107
 20
60.8647
 11
18.6072
 21
61.3399
  0
LINE
  8
0
 10
18.6072
 20
61.3399
 11
17.0963
 21
61.778
  0
LINE
  8
0
 10
17.0963
 20
61.778
 11
15.575
 21
62.179
  0
LINE
  8
0
 10
15.575
 20
62.179
 11
14.0444
 21
62.5425
  0
LINE
  8
0
 10
14.0444
 20
62.5425
 11
12.5053
 21
62.8683
  0
LINE
  8
0
 10
12.5053
 20
62.8683
 11
10.9586
 21
63.1563
  0
LINE
  8
0
 10
10.9586
 20
63.1563
 11
9.40541
 21
63.4062
  0
LINE
  8
0
 10
9.40541
 20
63.4062
 11
7.84651
 21
63.6179
  0
LINE
  8
0
 10
7.84651
 20
63.6179
 11
6.2829
 21
63.7913
  0
LINE
  8
0
 10
6.2829
 20
63.7913
 11
4.71548
 21
63.9263
  0
LINE
  8
0
 10
4.71548
 20
63.9263
 11
3.14523
 21
64.0228
  0
LINE
  8
0
 10
3.14523
 20
64.0228
 11
1.57309
 21
64.0807
  0
LINE
  8
0
 10
1.57309
 20
64.0807
 11
0
 21
64.1
  0
LINE
  8
0
 10
0
 20
64.1
 11
-1.57309
 21
64.0807
  0
LINE
  8
0
 10
-1.57309
 20
64.0807
 11
-3.14523
 21
64.0228
  0
LINE
  8
0
 10
-3.14523
 20
64.0228
 11
-4.71548
 21
63.9263
  0
LINE
  8
0
 10
-4.71548
 20
63.9263
 11
-6.2829
 21
63.7913
  0
LINE
  8
0
 10
-6.2829
 20
63.7913
 11
-7.84651
 21
63.6179
  0
LINE
  8
0
 10
-7.84651
 20
63.6179
 11
-9.40541
 21
63.4062
  0
LINE
  8
0
 10
-9.40541
 20
63.4062
 11
-10.9586
 21
63.1563
  0
LINE
  8
0
 10
-10.9586
 20
63.1563
 11
-12.5053
 21
62.8683
  0
LINE
  8
0
 10
-12.5053
 20
62.8683
 11
-14.0444
 21
62.5425
  0
LINE
  8
0
 10
-14.0444
 20
62.5425
 11
-15.575
 21
62.179
  0
LINE
  8
0
 10
-15.575
 20
62.179
 11
-17.0963
 21
61.778
  0
LINE
  8
0
 10
-17.0963
 20
61.778
 11
-18.6072
 21
61.3399
  0
LINE
  8
0
 10
-18.6072
 20
61.3399
 11
-20.107
 21
60.8647
  0
LINE
  8
0
 10
-20.107
 20
60.8647
 11
-21.5946
 21
60.353
  0
LINE
  8
0
 10
-21.5946
 20
60.353
 11
-23.0693
 21
59.8048
  0
LINE
  8
0
 10
-23.0693
 20
59.8048
 11
-24.53
 21
59.2207
  0
LINE
  8
0
 10
-24.53
 20
59.2207
 11
-24.8115
 21
59.1
  0
LINE
  8
0
 10
-24.8115
 20
59.1
 11
-35.1
 21
59.1
  0
LINE
  8
0
 10
-35.1
 20
59.1
 11
-35.1
 21
53.6303
  0
LINE
  8
0
 10
-35.1
 20
53.6303
 11
-35.612
 21
53.2972
  0
LINE
  8
0
 10
-35.612
 20
53.2972
 11
-36.9093
 21
52.4072
  0
LINE
  8
0
 10
-36.9093
 20
52.4072
 11
-38.1843
 21
51.4856
  0
LINE
  8
0
 10
-38.1843
 20
51.4856
 11
-39.4363
 21
50.533
  0
LINE
  8
0
 10
-39.4363
 20
50.533
 11
-40.6646
 21
49.55
  0
LINE
  8
0
 10
-40.6646
 20
49.55
 11
-41.8684
 21
48.5371
  0
LINE
  8
0
 10
-41.8684
 20
48.5371
 11
-43.0469
 21
47.495
  0
LINE
  8
0
 10
-43.0469
 20
47.495
 11
-44.1995
 21
46.4242
  0
LINE
  8
0
 10
-44.1995
 20
46.4242
 11
-45.3255
 21
45.3255
  0
LINE
  8
0
 10
-45.3255
 20
45.3255
 11
-46.4242
 21
44.1995
  0
LINE
  8
0
 10
-46.4242
 20
44.1995
 11
-47.495
 21
43.0469
  0
LINE
  8
0
 10
-47.495
 20
43.0469
 11
-48.5371
 21
41.8684
  0
LINE
  8
0
 10
-48.5371
 20
41.8684
 11
-49.55
 21
40.6646
  0
LINE
  8
0
 10
-49.55
 20
40.6646
 11
-50.533
 21
39.4363
  0
LINE
  8
0
 10
-50.533
 20
39.4363
 11
-51.4856
 21
38.1843
  0
LINE
  8
0
 10
-51.4856
 20
38.1843
 11
-52.4072
 21
36.9093
  0
LINE
  8
0
 10
-52.4072
 20
36.9093
 11
-52.6
 21
36.6283
  0
LINE
  8
0
 10
-52.6
 20
36.6283
 11
-52.6
 21
-36.6283
  0
LINE
  8
0
 10
-52.6
 20
-36.6283
 11
-52.4072
 21
-36.9093
  0
LINE
  8
0
 10
-52.4072
 20
-36.9093
 11
-51.4856
 21
-38.1843
  0
LINE
  8
0
 10
-51.4856
 20
-38.1843
 11
-50.533
 21
-39.4363
  0
LINE
  8
0
 10
-50.533
 20
-39.4363
 11
-49.55
 21
-40.6646
  0
LINE
  8
0
 10
-49.55
 20
-40.6646
 11
-48.5371
 21
-41.8684
  0
LINE
  8
0
 10
-48.5371
 20
-41.8684
 11
-47.495
 21
-43.0469
  0
LINE
  8
0
 10
-47.495
 20
-43.0469
 11
-46.4242
 21
-44.1995
  0
LINE
  8
0
 10
-46.4242
 20
-44.1995
 11
-45.3255
 21
-45.3255
  0
LINE
  8
0
 10
-45.3255
 20
-45.3255
 11
-44.1995
 21
-46.4242
  0
LINE
  8
0
 10
-44.1995
 20
-46.4242
 11
-43.0469
 21
-47.495
  0
LINE
  8
0
 10
-43.0469
 20
-47.495
 11
-41.8684
 21
-48.5371
  0
LINE
  8
0
 10
-41.8684
 20
-48.5371
 11
-40.6646
 21
-49.55
  0
LINE
  8
0
 10
-40.6646
 20
-49.55
 11
-39.4363
 21
-50.533
  0
LINE
  8
0
 10
-39.4363
 20
-50.533
 11
-38.1843
 21
-51.4856
  0
LINE
  8
0
 10
-38.1843
 20
-51.4856
 11
-36.9093
 21
-52.4072
  0
LINE
  8
0
 10
-36.9093
 20
-52.4072
 11
-35.612
 21
-53.2972
  0
LINE
  8
0
 10
-35.612
 20
-53.2972
 11
-35.1
 21
-53.6303
  0
LINE
  8
0
 10
-35.1
 20
-53.6303
 11
-35.1
 21
-59.1
  0
LINE
  8
0
 10
-35.1
 20
-59.1
 11
-24.8115
 21
-59.1
  0
LINE
  8
0
 10
-24.8115
 20
-59.1
 11
-24.53
 21
-59.2207
  0
LINE
  8
0
 10
-24.53
 20
-59.2207
 11
-23.0693
 21
-59.8048
  0
LINE
  8
0
 10
-23.0693
 20
-59.8048
 11
-21.5946
 21
-60.353
  0
LINE
  8
0
 10
-21.5946
 20
-60.353
 11
-20.107
 21
-60.8647
  0
LINE
  8
0
 10
-20.107
 20
-60.8647
 11
-18.6072
 21
-61.3399
  0
LINE
  8
0
 10
-18.6072
 20
-61.3399
 11
-17.0963
 21
-61.778
  0
LINE
  8
0
 10
-17.0963
 20
-61.778
 11
-15.575
 21
-62.179
  0
LINE
  8
0
 10
-15.575
 20
-62.179
 11
-14.0444
 21
-62.5425
  0
LINE
  8
0
 10
-14.0444
 20
-62.5425
 11
-12.5053
 21
-62.8683
  0
LINE
  8
0
 10
-12.5053
 20
-62.8683
 11
-10.9586
 21
-63.1563
  0
LINE
  8
0
 10
-10.9586
 20
-63.1563
 11
-9.40541
 21
-63.4062
  0
LINE
  8
0
 10
-9.40541
 20
-63.4062
 11
-7.84651
 21
-63.6179
  0
LINE
  8
0
 10
-7.84651
 20
-63.6179
 11
-6.2829
 21
-63.7913
  0
LINE
  8
0
 10
-6.2829
 20
-63.7913
 11
-4.71548
 21
-63.9263
  0
LINE
  8
0
 10
-4.71548
 20
-63.9263
 11
-3.14523
 21
-64.0228
  0
LINE
  8
0
 10
-3.14523
 20
-64.0228
 11
-1.57309
 21
-64.0807
  0
LINE
  8
0
 10
-1.57309
 20
-64.0807
 11
0
 21
-64.1
  0
LINE
  8
0
 10
0
 20
-64.1
 11
1.57309
 21
-64.0807
  0
LINE
  8
0
 10
-1.53381
 20
-62.4812
 11
-3.06673
 21
-62.4247
  0
LINE
  8
0
 10
-3.06673
 20
-62.4247
 11
-4.59778
 21
-62.3306
  0
LINE
  8
0
 10
-4.59778
 20
-62.3306
 11
-6.12607
 21
-62.199
  0
LINE
  8
0
 10
-6.12607
 20
-62.199
 11
-7.65067
 21
-62.03
  0
LINE
  8
0
 10
-7.65067
 20
-62.03
 11
-9.17065
 21
-61.8235
  0
LINE
  8
0
 10
-9.17065
 20
-61.8235
 11
-10.6851
 21
-61.5798
  0
LINE
  8
0
 10
-10.6851
 20
-61.5798
 11
-12.1931
 21
-61.2991
  0
LINE
  8
0
 10
-12.1931
 20
-61.2991
 11
-13.6938
 21
-60.9814
  0
LINE
  8
0
 10
-13.6938
 20
-60.9814
 11
-15.1862
 21
-60.627
  0
LINE
  8
0
 10
-15.1862
 20
-60.627
 11
-16.6695
 21
-60.236
  0
LINE
  8
0
 10
-16.6695
 20
-60.236
 11
-18.1428
 21
-59.8088
  0
LINE
  8
0
 10
-18.1428
 20
-59.8088
 11
-19.6051
 21
-59.3455
  0
LINE
  8
0
 10
-19.6051
 20
-59.3455
 11
-21.0556
 21
-58.8465
  0
LINE
  8
0
 10
-21.0556
 20
-58.8465
 11
-22.4934
 21
-58.312
  0
LINE
  8
0
 10
-22.4934
 20
-58.312
 11
-23.9177
 21
-57.7425
  0
LINE
  8
0
 10
-23.9177
 20
-57.7425
 11
-25.3276
 21
-57.1381
  0
LINE
  8
0
 10
-25.3276
 20
-57.1381
 11
-26.7222
 21
-56.4993
  0
LINE
  8
0
 10
-26.7222
 20
-56.4993
 11
-28.1007
 21
-55.8265
  0
LINE
  8
0
 10
-28.1007
 20
-55.8265
 11
-29.4623
 21
-55.1201
  0
LINE
  8
0
 10
-29.4623
 20
-55.1201
 11
-30.8061
 21
-54.3804
  0
LINE
  8
0
 10
-30.8061
 20
-54.3804
 11
-32.1314
 21
-53.608
  0
LINE
  8
0
 10
-32.1314
 20
-53.608
 11
-33.4373
 21
-52.8033
  0
LINE
  8
0
 10
-33.4373
 20
-52.8033
 11
-33.5
 21
-52.7626
  0
LINE
  8
0
 10
-33.5
 20
-52.7626
 11
-33.5
 21
-40
  0
LINE
  8
0
 10
-33.5
 20
-40
 11
-34.5506
 21
-40
  0
LINE
  8
0
 10
-34.5506
 20
-40
 11
-34.5607
 21
-39.9522
  0
LINE
  8
0
 10
-34.5607
 20
-39.9522
 11
-34.5749
 21
-39.8925
  0
LINE
  8
0
 10
-34.5749
 20
-39.8925
 11
-34.5906
 21
-39.8332
  0
LINE
  8
0
 10
-34.5906
 20
-39.8332
 11
-34.6077
 21
-39.7743
  0
LINE
  8
0
 10
-34.6077
 20
-39.7743
 11
-34.6262
 21
-39.7158
  0
LINE
  8
0
 10
-34.6262
 20
-39.7158
 11
-34.6461
 21
-39.6578
  0
LINE
  8
0
 10
-34.6461
 20
-39.6578
 11
-34.6675
 21
-39.6003
  0
LINE
  8
0
 10
-34.6675
 20
-39.6003
 11
-34.6903
 21
-39.5433
  0
LINE
  8
0
 10
-34.6903
 20
-39.5433
 11
-34.7145
 21
-39.4869
  0
LINE
  8
0
 10
-34.7145
 20
-39.4869
 11
-34.74
 21
-39.4311
  0
LINE
  8
0
 10
-34.74
 20
-39.4311
 11
-34.7669
 21
-39.376
  0
LINE
  8
0
 10
-34.7669
 20
-39.376
 11
-34.7952
 21
-39.3215
  0
LINE
  8
0
 10
-34.7952
 20
-39.3215
 11
-34.8248
 21
-39.2677
  0
LINE
  8
0
 10
-34.8248
 20
-39.2677
 11
-34.8557
 21
-39.2147
  0
LINE
  8
0
 10
-34.8557
 20
-39.2147
 11
-34.8879
 21
-39.1625
  0
LINE
  8
0
 10
-34.8879
 20
-39.1625
 11
-34.9213
 21
-39.1111
  0
LINE
  8
0
 10
-34.9213
 20
-39.1111
 11
-34.956
 21
-39.0605
  0
LINE
  8
0
 10
-34.956
 20
-39.0605
 11
-34.992
 21
-39.0107
  0
LINE
  8
0
 10
-34.992
 20
-39.0107
 11
-35.0291
 21
-38.9619
  0
LINE
  8
0
 10
-35.0291
 20
-38.9619
 11
-35.0675
 21
-38.914
  0
LINE
  8
0
 10
-35.0675
 20
-38.914
 11
-35.107
 21
-38.8671
  0
LINE
  8
0
 10
-35.107
 20
-38.8671
 11
-35.1476
 21
-38.8211
  0
LINE
  8
0
 10
-35.1476
 20
-38.8211
 11
-35.1894
 21
-38.7761
  0
LINE
  8
0
 10
-35.1894
 20
-38.7761
 11
-35.2322
 21
-38.7322
  0
LINE
  8
0
 10
-35.2322
 20
-38.7322
 11
-35.2761
 21
-38.6894
  0
LINE
  8
0
 10
-35.2761
 20
-38.6894
 11
-35.3211
 21
-38.6476
  0
LINE
  8
0
 10
-35.3211
 20
-38.6476
 11
-35.3671
 21
-38.607
  0
LINE
  8
0
 10
-35.3671
 20
-38.607
 11
-35.414
 21
-38.5675
  0
LINE
  8
0
 10
-35.414
 20
-38.5675
 11
-35.4619
 21
-38.5291
  0
LINE
  8
0
 10
-35.4619
 20
-38.5291
 11
-35.5107
 21
-38.492
  0
LINE
  8
0
 10
-35.5107
 20
-38.492
 11
-35.5605
 21
-38.456
  0
LINE
  8
0
 10
-35.5605
 20
-38.456
 11
-35.6111
 21
-38.4213
  0
LINE
  8
0
 10
-35.6111
 20
-38.4213
 11
-35.6625
 21
-38.3879
  0
LINE
  8
0
 10
-35.6625
 20
-38.3879
 11
-35.7147
 21
-38.3557
  0
LINE
  8
0
 10
-35.7147
 20
-38.3557
 11
-35.7677
 21
-38.3248
  0
LINE
  8
0
 10
-35.7677
 20
-38.3248
 11
-35.8215
 21
-38.2952
  0
LINE
  8
0
 10
-35.8215
 20
-38.2952
 11
-35.876
 21
-38.2669
  0
LINE
  8
0
 10
-35.876
 20
-38.2669
 11
-35.9311
 21
-38.24
  0
LINE
  8
0
 10
-35.9311
 20
-38.24
 11
-35.9869
 21
-38.2145
  0
LINE
  8
0
 10
-35.9869
 20
-38.2145
 11
-36.0433
 21
-38.1903
  0
LINE
  8
0
 10
-36.0433
 20
-38.1903
 11
-36.1003
 21
-38.1675
  0
LINE
  8
0
 10
-36.1003
 20
-38.1675
 11
-36.1578
 21
-38.1461
  0
LINE
  8
0
 10
-36.1578
 20
-38.1461
 11
-36.2158
 21
-38.1262
  0
LINE
  8
0
 10
-36.2158
 20
-38.1262
 11
-36.2743
 21
-38.1077
  0
LINE
  8
0
 10
-36.2743
 20
-38.1077
 11
-36.3332
 21
-38.0906
  0
LINE
  8
0
 10
-36.3332
 20
-38.0906
 11
-36.3925
 21
-38.0749
  0
LINE
  8
0
 10
-36.3925
 20
-38.0749
 11
-36.4522
 21
-38.0607
  0
LINE
  8
0
 10
-36.4522
 20
-38.0607
 11
-36.5123
 21
-38.048
  0
LINE
  8
0
 10
-36.5123
 20
-38.048
 11
-36.5726
 21
-38.0368
  0
LINE
  8
0
 10
-36.5726
 20
-38.0368
 11
-36.6332
 21
-38.0271
  0
LINE
  8
0
 10
-36.6332
 20
-38.0271
 11
-36.694
 21
-38.0188
  0
LINE
  8
0
 10
-36.694
 20
-38.0188
 11
-36.755
 21
-38.012
  0
LINE
  8
0
 10
-36.755
 20
-38.012
 11
-36.8161
 21
-38.0068
  0
LINE
  8
0
 10
-36.8161
 20
-38.0068
 11
-36.8773
 21
-38.003
  0
LINE
  8
0
 10
-36.8773
 20
-38.003
 11
-36.9386
 21
-38.0007
  0
LINE
  8
0
 10
-36.9386
 20
-38.0007
 11
-37
 21
-38
  0
LINE
  8
0
 10
-37
 20
-38
 11
-37.0613
 21
-38.0007
  0
LINE
  8
0
 10
-37.0613
 20
-38.0007
 11
-37.1227
 21
-38.003
  0
LINE
  8
0
 10
-37.1227
 20
-38.003
 11
-37.1839
 21
-38.0068
  0
LINE
  8
0
 10
-37.1839
 20
-38.0068
 11
-37.245
 21
-38.012
  0
LINE
  8
0
 10
-37.245
 20
-38.012
 11
-37.306
 21
-38.0188
  0
LINE
  8
0
 10
-37.306
 20
-38.0188
 11
-37.3668
 21
-38.0271
  0
LINE
  8
0
 10
-37.3668
 20
-38.0271
 11
-37.4274
 21
-38.0368
  0
LINE
  8
0
 10
-37.4274
 20
-38.0368
 11
-37.4877
 21
-38.048
  0
LINE
  8
0
 10
-37.4877
 20
-38.048
 11
-37.5477
 21
-38.0607
  0
LINE
  8
0
 10
-37.5477
 20
-38.0607
 11
-37.6074
 21
-38.0749
  0
LINE
  8
0
 10
-37.6074
 20
-38.0749
 11
-37.6668
 21
-38.0906
  0
LINE
  8
0
 10
-37.6668
 20
-38.0906
 11
-37.7257
 21
-38.1077
  0
LINE
  8
0
 10
-37.7257
 20
-38.1077
 11
-37.7842
 21
-38.1262
  0
LINE
  8
0
 10
-37.7842
 20
-38.1262
 11
-37.8422
 21
-38.1461
  0
LINE
  8
0
 10
-37.8422
 20
-38.1461
 11
-37.8997
 21
-38.1675
  0
LINE
  8
0
 10
-37.8997
 20
-38.1675
 11
-37.9567
 21
-38.1903
  0
LINE
  8
0
 10
-37.9567
 20
-38.1903
 11
-38.0131
 21
-38.2145
  0
LINE
  8
0
 10
-38.0131
 20
-38.2145
 11
-38.0689
 21
-38.24
  0
LINE
  8
0
 10
-38.0689
 20
-38.24
 11
-38.124
 21
-38.2669
  0
LINE
  8
0
 10
-38.124
 20
-38.2669
 11
-38.1785
 21
-38.2952
  0
LINE
  8
0
 10
-38.1785
 20
-38.2952
 11
-38.2322
 21
-38.3248
  0
LINE
  8
0
 10
-38.2322
 20
-38.3248
 11
-38.2852
 21
-38.3557
  0
LINE
  8
0
 10
-38.2852
 20
-38.3557
 11
-38.3375
 21
-38.3879
  0
LINE
  8
0
 10
-38.3375
 20
-38.3879
 11
-38.3889
 21
-38.4213
  0
LINE
  8
0
 10
-38.3889
 20
-38.4213
 11
-38.4395
 21
-38.456
  0
LINE
  8
0
 10
-38.4395
 20
-38.456
 11
-38.4892
 21
-38.492
  0
LINE
  8
0
 10
-38.4892
 20
-38.492
 11
-38.5381
 21
-38.5291
  0
LINE
  8
0
 10
-38.5381
 20
-38.5291
 11
-38.586
 21
-38.5675
  0
LINE
  8
0
 10
-38.586
 20
-38.5675
 11
-38.6329
 21
-38.607
  0
LINE
  8
0
 10
-38.6329
 20
-38.607
 11
-38.6789
 21
-38.6476
  0
LINE
  8
0
 10
-38.6789
 20
-38.6476
 11
-38.7238
 21
-38.6894
  0
LINE
  8
0
 10
-38.7238
 20
-38.6894
 11
-38.7678
 21
-38.7322
  0
LINE
  8
0
 10
-38.7678
 20
-38.7322
 11
-38.8106
 21
-38.7761
  0
LINE
  8
0
 10
-38.8106
 20
-38.7761
 11
-38.8524
 21
-38.8211
  0
LINE
  8
0
 10
-38.8524
 20
-38.8211
 11
-38.893
 21
-38.8671
  0
LINE
  8
0
 10
-38.893
 20
-38.8671
 11
-38.9325
 21
-38.914
  0
LINE
  8
0
 10
-38.9325
 20
-38.914
 11
-38.9709
 21
-38.9619
  0
LINE
  8
0
 10
-38.9709
 20
-38.9619
 11
-39.008
 21
-39.0107
  0
LINE
  8
0
 10
-39.008
 20
-39.0107
 11
-39.044
 21
-39.0605
  0
LINE
  8
0
 10
-39.044
 20
-39.0605
 11
-39.0787
 21
-39.1111
  0
LINE
  8
0
 10
-39.0787
 20
-39.1111
 11
-39.1121
 21
-39.1625
  0
LINE
  8
0
 10
-39.1121
 20
-39.1625
 11
-39.1443
 21
-39.2147
  0
LINE
  8
0
 10
-39.1443
 20
-39.2147
 11
-39.1752
 21
-39.2677
  0
LINE
  8
0
 10
-39.1752
 20
-39.2677
 11
-39.2048
 21
-39.3215
  0
LINE
  8
0
 10
-39.2048
 20
-39.3215
 11
-39.233
 21
-39.376
  0
LINE
  8
0
 10
-39.233
 20
-39.376
 11
-39.26
 21
-39.4311
  0
LINE
  8
0
 10
-39.26
 20
-39.4311
 11
-39.2855
 21
-39.4869
  0
LINE
  8
0
 10
-39.2855
 20
-39.4869
 11
-39.3097
 21
-39.5433
  0
LINE
  8
0
 10
-39.3097
 20
-39.5433
 11
-39.3325
 21
-39.6003
  0
LINE
  8
0
 10
-39.3325
 20
-39.6003
 11
-39.3539
 21
-39.6578
  0
LINE
  8
0
 10
-39.3539
 20
-39.6578
 11
-39.3738
 21
-39.7158
  0
LINE
  8
0
 10
-39.3738
 20
-39.7158
 11
-39.3923
 21
-39.7743
  0
LINE
  8
0
 10
-39.3923
 20
-39.7743
 11
-39.4094
 21
-39.8332
  0
LINE
  8
0
 10
-39.4094
 20
-39.8332
 11
-39.4251
 21
-39.8925
  0
LINE
  8
0
 10
-39.4251
 20
-39.8925
 11
-39.4393
 21
-39.9522
  0
LINE
  8
0
 10
-39.4393
 20
-39.9522
 11
-39.452
 21
-40.0123
  0
LINE
  8
0
 10
-39.452
 20
-40.0123
 11
-39.4632
 21
-40.0726
  0
LINE
  8
0
 10
-39.4632
 20
-40.0726
 11
-39.4729
 21
-40.1332
  0
LINE
  8
0
 10
-39.4729
 20
-40.1332
 11
-39.4812
 21
-40.194
  0
LINE
  8
0
 10
-39.4812
 20
-40.194
 11
-39.488
 21
-40.255
  0
LINE
  8
0
 10
-39.488
 20
-40.255
 11
-39.4932
 21
-40.3161
  0
LINE
  8
0
 10
-39.4932
 20
-40.3161
 11
-39.497
 21
-40.3773
  0
LINE
  8
0
 10
-39.497
 20
-40.3773
 11
-39.4992
 21
-40.4386
  0
LINE
  8
0
 10
-39.4992
 20
-40.4386
 11
-39.5
 21
-40.5
  0
LINE
  8
0
 10
-39.5
 20
-40.5
 11
-39.4992
 21
-40.5613
  0
LINE
  8
0
 10
-39.4992
 20
-40.5613
 11
-39.497
 21
-40.6227
  0
LINE
  8
0
 10
-39.497
 20
-40.6227
 11
-39.4932
 21
-40.6839
  0
LINE
  8
0
 10
-39.4932
 20
-40.6839
 11
-39.488
 21
-40.745
  0
LINE
  8
0
 10
-39.488
 20
-40.745
 11
-39.4812
 21
-40.806
  0
LINE
  8
0
 10
-39.4812
 20
-40.806
 11
-39.4729
 21
-40.8668
  0
LINE
  8
0
 10
-39.4729
 20
-40.8668
 11
-39.4632
 21
-40.9274
  0
LINE
  8
0
 10
-39.4632
 20
-40.9274
 11
-39.452
 21
-40.9877
  0
LINE
  8
0
 10
-39.452
 20
-40.9877
 11
-39.4393
 21
-41.0477
  0
LINE
  8
0
 10
-39.4393
 20
-41.0477
 11
-39.4251
 21
-41.1074
  0
LINE
  8
0
 10
-39.4251
 20
-41.1074
 11
-39.4094
 21
-41.1668
  0
LINE
  8
0
 10
-39.4094
 20
-41.1668
 11
-39.3998
 21
-41.2
  0
LINE
  8
0
 10
-39.3998
 20
-41.2
 11
-46.75
 21
-41.2
  0
LINE
  8
0
 10
-46.75
 20
-41.2
 11
-46.75
 21
-41.4742
  0
LINE
  8
0
 10
-46.75
 20
-41.4742
 11
-47.3255
 21
-40.8233
  0
LINE
  8
0
 10
-47.3255
 20
-40.8233
 11
-48.3131
 21
-39.6496
  0
LINE
  8
0
 10
-48.3131
 20
-39.6496
 11
-49.2717
 21
-38.452
  0
LINE
  8
0
 10
-49.2717
 20
-38.452
 11
-50.2005
 21
-37.2312
  0
LINE
  8
0
 10
-50.2005
 20
-37.2312
 11
-51
 21
-36.125
  0
LINE
  8
0
 10
-51
 20
-36.125
 11
-51
 21
36.125
  0
LINE
  8
0
 10
-51
 20
36.125
 11
-50.2005
 21
37.2312
  0
LINE
  8
0
 10
-50.2005
 20
37.2312
 11
-49.2717
 21
38.452
  0
LINE
  8
0
 10
-49.2717
 20
38.452
 11
-48.3131
 21
39.6496
  0
LINE
  8
0
 10
-48.3131
 20
39.6496
 11
-47.3255
 21
40.8233
  0
LINE
  8
0
 10
-47.3255
 20
40.8233
 11
-46.75
 21
41.4742
  0
LINE
  8
0
 10
-46.75
 20
41.4742
 11
-46.75
 21
41.2
  0
LINE
  8
0
 10
-46.75
 20
41.2
 11
-39.3998
 21
41.2
  0
LINE
  8
0
 10
-39.3998
 20
41.2
 11
-39.4094
 21
41.1668
  0
LINE
  8
0
 10
-39.4094
 20
41.1668
 11
-39.4251
 21
41.1074
  0
LINE
  8
0
 10
-39.4251
 20
41.1074
 11
-39.4393
 21
41.0477
  0
LINE
  8
0
 10
-39.4393
 20
41.0477
 11
-39.452
 21
40.9877
  0
LINE
  8
0
 10
-39.452
 20
40.9877
 11
-39.4632
 21
40.9274
  0
LINE
  8
0
 10
-39.4632
 20
40.9274
 11
-39.4729
 21
40.8668
  0
LINE
  8
0
 10
-39.4729
 20
40.8668
 11
-39.4812
 21
40.806
  0
LINE
  8
0
 10
-39.4812
 20
40.806
 11
-39.488
 21
40.745
  0
LINE
  8
0
 10
-39.488
 20
40.745
 11
-39.4932
 21
40.6839
  0
LINE
  8
0
 10
-39.4932
 20
40.6839
 11
-39.497
 21
40.6227
  0
LINE
  8
0
 10
-39.497
 20
40.6227
 11
-39.4992
 21
40.5613
  0
LINE
  8
0
 10
-39.4992
 20
40.5613
 11
-39.5
 21
40.5
  0
LINE
  8
0
 10
-39.5
 20
40.5
 11
-39.4992
 21
40.4386
  0
LINE
  8
0
 10
-39.4992
 20
40.4386
 11
-39.497
 21
40.3773
  0
LINE
  8
0
 10
-39.497
 20
40.3773
 11
-39.4932
 21
40.3161
  0
LINE
  8
0
 10
-39.4932
 20
40.3161
 11
-39.488
 21
40.255
  0
LINE
  8
0
 10
-39.488
 20
40.255
 11
-39.4812
 21
40.194
  0
LINE
  8
0
 10
-39.4812
 20
40.194
 11
-39.4729
 21
40.1332
  0
LINE
  8
0
 10
-39.4729
 20
40.1332
 11
-39.4632
 21
40.0726
  0
LINE
  8
0
 10
-39.4632
 20
40.0726
 11
-39.452
 21
40.0123
  0
LINE
  8
0
 10
-39.452
 20
40.0123
 11
-39.4393
 21
39.9522
  0
LINE
  8
0
 10
-39.4393
 20
39.9522
 11
-39.4251
 21
39.8925
  0
LINE
  8
0
 10
-39.4251
 20
39.8925
 11
-39.4094
 21
39.8332
  0
LINE
  8
0
 10
-39.4094
 20
39.8332
 11
-39.3923
 21
39.7743
  0
LINE
  8
0
 10
-39.3923
 20
39.7743
 11
-39.3738
 21
39.7158
  0
LINE
  8
0
 10
-39.3738
 20
39.7158
 11
-39.3539
 21
39.6578
  0
LINE
  8
0
 10
-39.3539
 20
39.6578
 11
-39.3325
 21
39.6003
  0
LINE
  8
0
 10
-39.3325
 20
39.6003
 11
-39.3097
 21
39.5433
  0
LINE
  8
0
 10
-39.3097
 20
39.5433
 11
-39.2855
 21
39.4869
  0
LINE
  8
0
 10
-39.2855
 20
39.4869
 11
-39.26
 21
39.4311
  0
LINE
  8
0
 10
-39.26
 20
39.4311
 11
-39.233
 21
39.376
  0
LINE
  8
0
 10
-39.233
 20
39.376
 11
-39.2048
 21
39.3215
  0
LINE
  8
0
 10
-39.2048
 20
39.3215
 11
-39.1752
 21
39.2677
  0
LINE
  8
0
 10
-39.1752
 20
39.2677
 11
-39.1443
 21
39.2147
  0
LINE
  8
0
 10
-39.1443
 20
39.2147
 11
-39.1121
 21
39.1625
  0
LINE
  8
0
 10
-39.1121
 20
39.1625
 11
-39.0787
 21
39.1111
  0
LINE
  8
0
 10
-39.0787
 20
39.1111
 11
-39.044
 21
39.0605
  0
LINE
  8
0
 10
-39.044
 20
39.0605
 11
-39.008
 21
39.0107
  0
LINE
  8
0
 10
-39.008
 20
39.0107
 11
-38.9709
 21
38.9619
  0
LINE
  8
0
 10
-38.9709
 20
38.9619
 11
-38.9325
 21
38.914
  0
LINE
  8
0
 10
-38.9325
 20
38.914
 11
-38.893
 21
38.8671
  0
LINE
  8
0
 10
-38.893
 20
38.8671
 11
-38.8524
 21
38.8211
  0
LINE
  8
0
 10
-38.8524
 20
38.8211
 11
-38.8106
 21
38.7761
  0
LINE
  8
0
 10
-38.8106
 20
38.7761
 11
-38.7678
 21
38.7322
  0
LINE
  8
0
 10
-38.7678
 20
38.7322
 11
-38.7238
 21
38.6894
  0
LINE
  8
0
 10
-38.7238
 20
38.6894
 11
-38.6789
 21
38.6476
  0
LINE
  8
0
 10
-38.6789
 20
38.6476
 11
-38.6329
 21
38.607
  0
LINE
  8
0
 10
-38.6329
 20
38.607
 11
-38.586
 21
38.5675
  0
LINE
  8
0
 10
-38.586
 20
38.5675
 11
-38.5381
 21
38.5291
  0
LINE
  8
0
 10
-38.5381
 20
38.5291
 11
-38.4892
 21
38.492
  0
LINE
  8
0
 10
-38.4892
 20
38.492
 11
-38.4395
 21
38.456
  0
LINE
  8
0
 10
-38.4395
 20
38.456
 11
-38.3889
 21
38.4213
  0
LINE
  8
0
 10
-38.3889
 20
38.4213
 11
-38.3375
 21
38.3879
  0
LINE
  8
0
 10
-38.3375
 20
38.3879
 11
-38.2852
 21
38.3557
  0
LINE
  8
0
 10
-38.2852
 20
38.3557
 11
-38.2322
 21
38.3248
  0
LINE
  8
0
 10
-38.2322
 20
38.3248
 11
-38.1785
 21
38.2952
  0
LINE
  8
0
 10
-38.1785
 20
38.2952
 11
-38.124
 21
38.2669
  0
LINE
  8
0
 10
-38.124
 20
38.2669
 11
-38.0689
 21
38.24
  0
LINE
  8
0
 10
-38.0689
 20
38.24
 11
-38.0131
 21
38.2145
  0
LINE
  8
0
 10
-38.0131
 20
38.2145
 11
-37.9567
 21
38.1903
  0
LINE
  8
0
 10
-37.9567
 20
38.1903
 11
-37.8997
 21
38.1675
  0
LINE
  8
0
 10
-37.8997
 20
38.1675
 11
-37.8422
 21
38.1461
  0
LINE
  8
0
 10
-37.8422
 20
38.1461
 11
-37.7842
 21
38.1262
  0
LINE
  8
0
 10
-37.7842
 20
38.1262
 11
-37.7257
 21
38.1077
  0
LINE
  8
0
 10
-37.7257
 20
38.1077
 11
-37.6668
 21
38.0906
  0
LINE
  8
0
 10
-37.6668
 20
38.0906
 11
-37.6074
 21
38.0749
  0
LINE
  8
0
 10
-37.6074
 20
38.0749
 11
-37.5477
 21
38.0607
  0
LINE
  8
0
 10
-37.5477
 20
38.0607
 11
-37.4877
 21
38.048
  0
LINE
  8
0
 10
-37.4877
 20
38.048
 11
-37.4274
 21
38.0368
  0
LINE
  8
0
 10
-37.4274
 20
38.0368
 11
-37.3668
 21
38.0271
  0
LINE
  8
0
 10
-37.3668
 20
38.0271
 11
-37.306
 21
38.0188
  0
LINE
  8
0
 10
-37.306
 20
38.0188
 11
-37.245
 21
38.012
  0
LINE
  8
0
 10
-37.245
 20
38.012
 11
-37.1839
 21
38.0068
  0
LINE
  8
0
 10
-37.1839
 20
38.0068
 11
-37.1227
 21
38.003
  0
LINE
  8
0
 10
-37.1227
 20
38.003
 11
-37.0613
 21
38.0007
  0
LINE
  8
0
 10
-37.0613
 20
38.0007
 11
-37
 21
38
  0
LINE
  8
0
 10
-37
 20
38
 11
-36.9386
 21
38.0007
  0
LINE
  8
0
 10
-36.9386
 20
38.0007
 11
-36.8773
 21
38.003
  0
LINE
  8
0
 10
-36.8773
 20
38.003
 11
-36.8161
 21
38.0068
  0
LINE
  8
0
 10
-36.8161
 20
38.0068
 11
-36.755
 21
38.012
  0
LINE
  8
0
 10
-36.755
 20
38.012
 11
-36.694
 21
38.0188
  0
LINE
  8
0
 10
-36.694
 20
38.0188
 11
-36.6332
 21
38.0271
  0
LINE
  8
0
 10
-36.6332
 20
38.0271
 11
-36.5726
 21
38.0368
  0
LINE
  8
0
 10
-36.5726
 20
38.0368
 11
-36.5123
 21
38.048
  0
LINE
  8
0
 10
-36.5123
 20
38.048
 11
-36.4522
 21
38.0607
  0
LINE
  8
0
 10
-36.4522
 20
38.0607
 11
-36.3925
 21
38.0749
  0
LINE
  8
0
 10
-36.3925
 20
38.0749
 11
-36.3332
 21
38.0906
  0
LINE
  8
0
 10
-36.3332
 20
38.0906
 11
-36.2743
 21
38.1077
  0
LINE
  8
0
 10
-36.2743
 20
38.1077
 11
-36.2158
 21
38.1262
  0
LINE
  8
0
 10
-36.2158
 20
38.1262
 11
-36.1578
 21
38.1461
  0
LINE
  8
0
 10
-36.1578
 20
38.1461
 11
-36.1003
 21
38.1675
  0
LINE
  8
0
 10
-36.1003
 20
38.1675
 11
-36.0433
 21
38.1903
  0
LINE
  8
0
 10
-36.0433
 20
38.1903
 11
-35.9869
 21
38.2145
  0
LINE
  8
0
 10
-35.9869
 20
38.2145
 11
-35.9311
 21
38.24
  0
LINE
  8
0
 10
-35.9311
 20
38.24
 11
-35.876
 21
38.2669
  0
LINE
  8
0
 10
-35.876
 20
38.2669
 11
-35.8215
 21
38.2952
  0
LINE
  8
0
 10
-35.8215
 20
38.2952
 11
-35.7677
 21
38.3248
  0
LINE
  8
0
 10
-35.7677
 20
38.3248
 11
-35.7147
 21
38.3557
  0
LINE
  8
0
 10
-35.7147
 20
38.3557
 11
-35.6625
 21
38.3879
  0
LINE
  8
0
 10
-35.6625
 20
38.3879
 11
-35.6111
 21
38.4213
  0
LINE
  8
0
 10
-35.6111
 20
38.4213
 11
-35.5605
 21
38.456
  0
LINE
  8
0
 10
-35.5605
 20
38.456
 11
-35.5107
 21
38.492
  0
LINE
  8
0
 10
-35.5107
 20
38.492
 11
-35.4619
 21
38.5291
  0
LINE
  8
0
 10
-35.4619
 20
38.5291
 11
-35.414
 21
38.5675
  0
LINE
  8
0
 10
-35.414
 20
38.5675
 11
-35.3671
 21
38.607
  0
LINE
  8
0
 10
-35.3671
 20
38.607
 11
-35.3211
 21
38.6476
  0
LINE
  8
0
 10
-35.3211
 20
38.6476
 11
-35.2761
 21
38.6894
  0
LINE
  8
0
 10
-35.2761
 20
38.6894
 11
-35.2322
 21
38.7322
  0
LINE
  8
0
 10
-35.2322
 20
38.7322
 11
-35.1894
 21
38.7761
  0
LINE
  8
0
 10
-35.1894
 20
38.7761
 11
-35.1476
 21
38.8211
  0
LINE
  8
0
 10
-35.1476
 20
38.8211
 11
-35.107
 21
38.8671
  0
LINE
  8
0
 10
-35.107
 20
38.8671
 11
-35.0675
 21
38.914
  0
LINE
  8
0
 10
-35.0675
 20
38.914
 11
-35.0291
 21
38.9619
  0
LINE
  8
0
 10
-35.0291
 20
38.9619
 11
-34.992
 21
39.0107
  0
LINE
  8
0
 10
-34.992
 20
39.0107
 11
-34.956
 21
39.0605
  0
LINE
  8
0
 10
-34.956
 20
39.0605
 11
-34.9213
 21
39.1111
  0
LINE
  8
0
 10
-34.9213
 20
39.1111
 11
-34.8879
 21
39.1625
  0
LINE
  8
0
 10
-34.8879
 20
39.1625
 11
-34.8557
 21
39.2147
  0
LINE
  8
0
 10
-34.8557
 20
39.2147
 11
-34.8248
 21
39.2677
  0
LINE
  8
0
 10
-34.8248
 20
39.2677
 11
-34.7952
 21
39.3215
  0
LINE
  8
0
 10
-34.7952
 20
39.3215
 11
-34.7669
 21
39.376
  0
LINE
  8
0
 10
-34.7669
 20
39.376
 11
-34.74
 21
39.4311
  0
LINE
  8
0
 10
-34.74
 20
39.4311
 11
-34.7145
 21
39.4869
  0
LINE
  8
0
 10
-34.7145
 20
39.4869
 11
-34.6903
 21
39.5433
  0
LINE
  8
0
 10
-34.6903
 20
39.5433
 11
-34.6675
 21
39.6003
  0
LINE
  8
0
 10
-34.6675
 20
39.6003
 11
-34.6461
 21
39.6578
  0
LINE
  8
0
 10
-34.6461
 20
39.6578
 11
-34.6262
 21
39.7158
  0
LINE
  8
0
 10
-34.6262
 20
39.7158
 11
-34.6077
 21
39.7743
  0
LINE
  8
0
 10
-34.6077
 20
39.7743
 11
-34.5906
 21
39.8332
  0
LINE
  8
0
 10
-34.5906
 20
39.8332
 11
-34.5749
 21
39.8925
  0
LINE
  8
0
 10
-34.5749
 20
39.8925
 11
-34.5607
 21
39.9522
  0
LINE
  8
0
 10
-34.5607
 20
39.9522
 11
-34.5506
 21
40
  0
LINE
  8
0
 10
-34.5506
 20
40
 11
-33.5
 21
40
  0
LINE
  8
0
 10
-33.5
 20
40
 11
-33.5
 21
52.7626
  0
LINE
  8
0
 10
-33.5
 20
52.7626
 11
-33.4373
 21
52.8033
  0
LINE
  8
0
 10
-33.4373
 20
52.8033
 11
-32.1314
 21
53.608
  0
LINE
  8
0
 10
-32.1314
 20
53.608
 11
-30.8061
 21
54.3804
  0
LINE
  8
0
 10
-30.8061
 20
54.3804
 11
-29.4623
 21
55.1201
  0
LINE
  8
0
 10
-29.4623
 20
55.1201
 11
-28.1007
 21
55.8265
  0
LINE
  8
0
 10
-28.1007
 20
55.8265
 11
-26.7222
 21
56.4993
  0
LINE
  8
0
 10
-26.7222
 20
56.4993
 11
-25.3276
 21
57.1381
  0
LINE
  8
0
 10
-25.3276
 20
57.1381
 11
-23.9177
 21
57.7425
  0
LINE
  8
0
 10
-23.9177
 20
57.7425
 11
-22.4934
 21
58.312
  0
LINE
  8
0
 10
-22.4934
 20
58.312
 11
-21.0556
 21
58.8465
  0
LINE
  8
0
 10
-21.0556
 20
58.8465
 11
-19.6051
 21
59.3455
  0
LINE
  8
0
 10
-19.6051
 20
59.3455
 11
-18.1428
 21
59.8088
  0
LINE
  8
0
 10
-18.1428
 20
59.8088
 11
-16.6695
 21
60.236
  0
LINE
  8
0
 10
-16.6695
 20
60.236
 11
-15.1862
 21
60.627
  0
LINE
  8
0
 10
-15.1862
 20
60.627
 11
-13.6938
 21
60.9814
  0
LINE
  8
0
 10
-13.6938
 20
60.9814
 11
-12.1931
 21
61.2991
  0
LINE
  8
0
 10
-12.1931
 20
61.2991
 11
-10.6851
 21
61.5798
  0
LINE
  8
0
 10
-10.6851
 20
61.5798
 11
-9.17065
 21
61.8235
  0
LINE
  8
0
 10
-9.17065
 20
61.8235
 11
-7.65067
 21
62.03
  0
LINE
  8
0
 10
-7.65067
 20
62.03
 11
-6.12607
 21
62.199
  0
LINE
  8
0
 10
-6.12607
 20
62.199
 11
-4.59778
 21
62.3306
  0
LINE
  8
0
 10
-4.59778
 20
62.3306
 11
-3.06673
 21
62.4247
  0
LINE
  8
0
 10
-3.06673
 20
62.4247
 11
-1.53381
 21
62.4812
  0
LINE
  8
0
 10
-1.53381
 20
62.4812
 11
0
 21
62.5
  0
LINE
  8
0
 10
0
 20
62.5
 11
1.53381
 21
62.4812
  0
LINE
  8
0
 10
1.53381
 20
62.4812
 11
3.06673
 21
62.4247
  0
LINE
  8
0
 10
3.06673
 20
62.4247
 11
4.59778
 21
62.3306
  0
LINE
  8
0
 10
4.59778
 20
62.3306
 11
6.12607
 21
62.199
  0
LINE
  8
0
 10
6.12607
 20
62.199
 11
7.65067
 21
62.03
  0
LINE
  8
0
 10
7.65067
 20
62.03
 11
9.17065
 21
61.8235
  0
LINE
  8
0
 10
9.17065
 20
61.8235
 11
10.6851
 21
61.5798
  0
LINE
  8
0
 10
10.6851
 20
61.5798
 11
12.1931
 21
61.2991
  0
LINE
  8
0
 10
12.1931
 20
61.2991
 11
13.6938
 21
60.9814
  0
LINE
  8
0
 10
13.6938
 20
60.9814
 11
15.1862
 21
60.627
  0
LINE
  8
0
 10
15.1862
 20
60.627
 11
16.6695
 21
60.236
  0
LINE
  8
0
 10
16.6695
 20
60.236
 11
18.1428
 21
59.8088
  0
LINE
  8
0
 10
18.1428
 20
59.8088
 11
19.6051
 21
59.3455
  0
LINE
  8
0
 10
19.6051
 20
59.3455
 11
21.0556
 21
58.8465
  0
LINE
  8
0
 10
21.0556
 20
58.8465
 11
22.4934
 21
58.312
  0
LINE
  8
0
 10
22.4934
 20
58.312
 11
23.9177
 21
57.7425
  0
LINE
  8
0
 10
23.9177
 20
57.7425
 11
25.3276
 21
57.1381
  0
LINE
  8
0
 10
25.3276
 20
57.1381
 11
26.7222
 21
56.4993
  0
LINE
  8
0
 10
26.7222
 20
56.4993
 11
28.1007
 21
55.8265
  0
LINE
  8
0
 10
28.1007
 20
55.8265
 11
29.4623
 21
55.1201
  0
LINE
  8
0
 10
29.4623
 20
55.1201
 11
30.8061
 21
54.3804
  0
LINE
  8
0
 10
30.8061
 20
54.3804
 11
32.1314
 21
53.608
  0
LINE
  8
0
 10
32.1314
 20
53.608
 11
33.4373
 21
52.8033
  0
LINE
  8
0
 10
33.4373
 20
52.8033
 11
33.5
 21
52.7626
  0
LINE
  8
0
 10
33.5
 20
52.7626
 11
33.5
 21
40
  0
LINE
  8
0
 10
33.5
 20
40
 11
34.5506
 21
40
  0
LINE
  8
0
 10
34.5506
 20
40
 11
34.5607
 21
39.9522
  0
LINE
  8
0
 10
34.5607
 20
39.9522
 11
34.5749
 21
39.8925
  0
LINE
  8
0
 10
34.5749
 20
39.8925
 11
34.5906
 21
39.8332
  0
LINE
  8
0
 10
34.5906
 20
39.8332
 11
34.6077
 21
39.7743
  0
LINE
  8
0
 10
34.6077
 20
39.7743
 11
34.6262
 21
39.7158
  0
LINE
  8
0
 10
34.6262
 20
39.7158
 11
34.6461
 21
39.6578
  0
LINE
  8
0
 10
34.6461
 20
39.6578
 11
34.6675
 21
39.6003
  0
LINE
  8
0
 10
34.6675
 20
39.6003
 11
34.6903
 21
39.5433
  0
LINE
  8
0
 10
34.6903
 20
39.5433
 11
34.7145
 21
39.4869
  0
LINE
  8
0
 10
34.7145
 20
39.4869
 11
34.74
 21
39.4311
  0
LINE
  8
0
 10
34.74
 20
39.4311
 11
34.7669
 21
39.376
  0
LINE
  8
0
 10
34.7669
 20
39.376
 11
34.7952
 21
39.3215
  0
LINE
  8
0
 10
34.7952
 20
39.3215
 11
34.8248
 21
39.2677
  0
LINE
  8
0
 10
34.8248
 20
39.2677
 11
34.8557
 21
39.2147
  0
LINE
  8
0
 10
34.8557
 20
39.2147
 11
34.8879
 21
39.1625
  0
LINE
  8
0
 10
34.8879
 20
39.1625
 11
34.9213
 21
39.1111
  0
LINE
  8
0
 10
34.9213
 20
39.1111
 11
34.956
 21
39.0605
  0
LINE
  8
0
 10
34.956
 20
39.0605
 11
34.992
 21
39.0107
  0
LINE
  8
0
 10
34.992
 20
39.0107
 11
35.0291
 21
38.9619
  0
LINE
  8
0
 10
35.0291
 20
38.9619
 11
35.0675
 21
38.914
  0
LINE
  8
0
 10
35.0675
 20
38.914
 11
35.107
 21
38.8671
  0
LINE
  8
0
 10
35.107
 20
38.8671
 11
35.1476
 21
38.8211
  0
LINE
  8
0
 10
35.1476
 20
38.8211
 11
35.1894
 21
38.7761
  0
LINE
  8
0
 10
35.1894
 20
38.7761
 11
35.2322
 21
38.7322
  0
LINE
  8
0
 10
35.2322
 20
38.7322
 11
35.2761
 21
38.6894
  0
LINE
  8
0
 10
35.2761
 20
38.6894
 11
35.3211
 21
38.6476
  0
LINE
  8
0
 10
35.3211
 20
38.6476
 11
35.3671
 21
38.607
  0
LINE
  8
0
 10
35.3671
 20
38.607
 11
35.414
 21
38.5675
  0
LINE
  8
0
 10
35.414
 20
38.5675
 11
35.4619
 21
38.5291
  0
LINE
  8
0
 10
35.4619
 20
38.5291
 11
35.5107
 21
38.492
  0
LINE
  8
0
 10
35.5107
 20
38.492
 11
35.5605
 21
38.456
  0
LINE
  8
0
 10
35.5605
 20
38.456
 11
35.6111
 21
38.4213
  0
LINE
  8
0
 10
35.6111
 20
38.4213
 11
35.6625
 21
38.3879
  0
LINE
  8
0
 10
35.6625
 20
38.3879
 11
35.7147
 21
38.3557
  0
LINE
  8
0
 10
35.7147
 20
38.3557
 11
35.7677
 21
38.3248
  0
LINE
  8
0
 10
35.7677
 20
38.3248
 11
35.8215
 21
38.2952
  0
LINE
  8
0
 10
35.8215
 20
38.2952
 11
35.876
 21
38.2669
  0
LINE
  8
0
 10
35.876
 20
38.2669
 11
35.9311
 21
38.24
  0
LINE
  8
0
 10
35.9311
 20
38.24
 11
35.9869
 21
38.2145
  0
LINE
  8
0
 10
35.9869
 20
38.2145
 11
36.0433
 21
38.1903
  0
LINE
  8
0
 10
36.0433
 20
38.1903
 11
36.1003
 21
38.1675
  0
LINE
  8
0
 10
36.1003
 20
38.1675
 11
36.1578
 21
38.1461
  0
LINE
  8
0
 10
36.1578
 20
38.1461
 11
36.2158
 21
38.1262
  0
LINE
  8
0
 10
36.2158
 20
38.1262
 11
36.2743
 21
38.1077
  0
LINE
  8
0
 10
36.2743
 20
38.1077
 11
36.3332
 21
38.0906
  0
LINE
  8
0
 10
36.3332
 20
38.0906
 11
36.3925
 21
38.0749
  0
LINE
  8
0
 10
36.3925
 20
38.0749
 11
36.4522
 21
38.0607
  0
LINE
  8
0
 10
36.4522
 20
38.0607
 11
36.5123
 21
38.048
  0
LINE
  8
0
 10
36.5123
 20
38.048
 11
36.5726
 21
38.0368
  0
LINE
  8
0
 10
36.5726
 20
38.0368
 11
36.6332
 21
38.0271
  0
LINE
  8
0
 10
36.6332
 20
38.0271
 11
36.694
 21
38.0188
  0
LINE
  8
0
 10
36.694
 20
38.0188
 11
36.755
 21
38.012
  0
LINE
  8
0
 10
36.755
 20
38.012
 11
36.8161
 21
38.0068
  0
LINE
  8
0
 10
36.8161
 20
38.0068
 11
36.8773
 21
38.003
  0
LINE
  8
0
 10
36.8773
 20
38.003
 11
36.9386
 21
38.0007
  0
LINE
  8
0
 10
36.9386
 20
38.0007
 11
37
 21
38
  0
LINE
  8
0
 10
37
 20
38
 11
37.0613
 21
38.0007
  0
LINE
  8
0
 10
37.0613
 20
38.0007
 11
37.1227
 21
38.003
  0
LINE
  8
0
 10
37.1227
 20
38.003
 11
37.1839
 21
38.0068
  0
LINE
  8
0
 10
37.1839
 20
38.0068
 11
37.245
 21
38.012
  0
LINE
  8
0
 10
37.245
 20
38.012
 11
37.306
 21
38.0188
  0
LINE
  8
0
 10
37.306
 20
38.0188
 11
37.3668
 21
38.0271
  0
LINE
  8
0
 10
37.3668
 20
38.0271
 11
37.4274
 21
38.0368
  0
LINE
  8
0
 10
37.4274
 20
38.0368
 11
37.4877
 21
38.048
  0
LINE
  8
0
 10
37.4877
 20
38.048
 11
37.5477
 21
38.0607
  0
LINE
  8
0
 10
37.5477
 20
38.0607
 11
37.6074
 21
38.0749
  0
LINE
  8
0
 10
37.6074
 20
38.0749
 11
37.6668
 21
38.0906
  0
LINE
  8
0
 10
37.6668
 20
38.0906
 11
37.7257
 21
38.1077
  0
LINE
  8
0
 10
37.7257
 20
38.1077
 11
37.7842
 21
38.1262
  0
LINE
  8
0
 10
37.7842
 20
38.1262
 11
37.8422
 21
38.1461
  0
LINE
  8
0
 10
37.8422
 20
38.1461
 11
37.8997
 21
38.1675
  0
LINE
  8
0
 10
37.8997
 20
38.1675
 11
37.9567
 21
38.1903
  0
LINE
  8
0
 10
37.9567
 20
38.1903
 11
38.0131
 21
38.2145
  0
LINE
  8
0
 10
38.0131
 20
38.2145
 11
38.0689
 21
38.24
  0
LINE
  8
0
 10
38.0689
 20
38.24
 11
38.124
 21
38.2669
  0
LINE
  8
0
 10
38.124
 20
38.2669
 11
38.1785
 21
38.2952
  0
LINE
  8
0
 10
38.1785
 20
38.2952
 11
38.2322
 21
38.3248
  0
LINE
  8
0
 10
38.2322
 20
38.3248
 11
38.2852
 21
38.3557
  0
LINE
  8
0
 10
38.2852
 20
38.3557
 11
38.3375
 21
38.3879
  0
LINE
  8
0
 10
38.3375
 20
38.3879
 11
38.3889
 21
38.4213
  0
LINE
  8
0
 10
38.3889
 20
38.4213
 11
38.4395
 21
38.456
  0
LINE
  8
0
 10
38.4395
 20
38.456
 11
38.4892
 21
38.492
  0
LINE
  8
0
 10
38.4892
 20
38.492
 11
38.5381
 21
38.5291
  0
LINE
  8
0
 10
38.5381
 20
38.5291
 11
38.586
 21
38.5675
  0
LINE
  8
0
 10
38.586
 20
38.5675
 11
38.6329
 21
38.607
  0
LINE
  8
0
 10
38.6329
 20
38.607
 11
38.6789
 21
38.6476
  0
LINE
  8
0
 10
38.6789
 20
38.6476
 11
38.7238
 21
38.6894
  0
LINE
  8
0
 10
38.7238
 20
38.6894
 11
38.7678
 21
38.7322
  0
LINE
  8
0
 10
38.7678
 20
38.7322
 11
38.8106
 21
38.7761
  0
LINE
  8
0
 10
38.8106
 20
38.7761
 11
38.8524
 21
38.8211
  0
LINE
  8
0
 10
38.8524
 20
38.8211
 11
38.893
 21
38.8671
  0
LINE
  8
0
 10
38.893
 20
38.8671
 11
38.9325
 21
38.914
  0
LINE
  8
0
 10
38.9325
 20
38.914
 11
38.9709
 21
38.9619
  0
LINE
  8
0
 10
38.9709
 20
38.9619
 11
39.008
 21
39.0107
  0
LINE
  8
0
 10
39.008
 20
39.0107
 11
39.044
 21
39.0605
  0
LINE
  8
0
 10
39.044
 20
39.0605
 11
39.0787
 21
39.1111
  0
LINE
  8
0
 10
39.0787
 20
39.1111
 11
39.1121
 21
39.1625
  0
LINE
  8
0
 10
39.1121
 20
39.1625
 11
39.1443
 21
39.2147
  0
LINE
  8
0
 10
39.1443
 20
39.2147
 11
39.1752
 21
39.2677
  0
LINE
  8
0
 10
39.1752
 20
39.2677
 11
39.2048
 21
39.3215
  0
LINE
  8
0
 10
39.2048
 20
39.3215
 11
39.233
 21
39.376
  0
LINE
  8
0
 10
39.233
 20
39.376
 11
39.26
 21
39.4311
  0
LINE
  8
0
 10
39.26
 20
39.4311
 11
39.2855
 21
39.4869
  0
LINE
  8
0
 10
39.2855
 20
39.4869
 11
39.3097
 21
39.5433
  0
LINE
  8
0
 10
39.3097
 20
39.5433
 11
39.3325
 21
39.6003
  0
LINE
  8
0
 10
39.3325
 20
39.6003
 11
39.3539
 21
39.6578
  0
LINE
  8
0
 10
39.3539
 20
39.6578
 11
39.3738
 21
39.7158
  0
LINE
  8
0
 10
39.3738
 20
39.7158
 11
39.3923
 21
39.7743
  0
LINE
  8
0
 10
39.3923
 20
39.7743
 11
39.4094
 21
39.8332
  0
LINE
  8
0
 10
39.4094
 20
39.8332
 11
39.4251
 21
39.8925
  0
LINE
  8
0
 10
39.4251
 20
39.8925
 11
39.4393
 21
39.9522
  0
LINE
  8
0
 10
39.4393
 20
39.9522
 11
39.452
 21
40.0123
  0
LINE
  8
0
 10
39.452
 20
40.0123
 11
39.4632
 21
40.0726
  0
LINE
  8
0
 10
39.4632
 20
40.0726
 11
39.4729
 21
40.1332
  0
LINE
  8
0
 10
39.4729
 20
40.1332
 11
39.4812
 21
40.194
  0
LINE
  8
0
 10
39.4812
 20
40.194
 11
39.488
 21
40.255
  0
LINE
  8
0
 10
39.488
 20
40.255
 11
39.4932
 21
40.3161
  0
LINE
  8
0
 10
39.4932
 20
40.3161
 11
39.497
 21
40.3773
  0
LINE
  8
0
 10
39.497
 20
40.3773
 11
39.4992
 21
40.4386
  0
LINE
  8
0
 10
39.4992
 20
40.4386
 11
39.5
 21
40.5
  0
LINE
  8
0
 10
39.5
 20
40.5
 11
39.4992
 21
40.5613
  0
LINE
  8
0
 10
39.4992
 20
40.5613
 11
39.497
 21
40.6227
  0
LINE
  8
0
 10
39.497
 20
40.6227
 11
39.4932
 21
40.6839
  0
LINE
  8
0
 10
39.4932
 20
40.6839
 11
39.488
 21
40.745
  0
LINE
  8
0
 10
39.488
 20
40.745
 11
39.4812
 21
40.806
  0
LINE
  8
0
 10
39.4812
 20
40.806
 11
39.4729
 21
40.8668
  0
LINE
  8
0
 10
39.4729
 20
40.8668
 11
39.4632
 21
40.9274
  0
LINE
  8
0
 10
39.4632
 20
40.9274
 11
39.452
 21
40.9877
  0
LINE
  8
0
 10
39.452
 20
40.9877
 11
39.4393
 21
41.0477
  0
LINE
  8
0
 10
39.4393
 20
41.0477
 11
39.4251
 21
41.1074
  0
LINE
  8
0
 10
39.4251
 20
41.1074
 11
39.4094
 21
41.1668
  0
LINE
  8
0
 10
39.4094
 20
41.1668
 11
39.3998
 21
41.2
  0
LINE
  8
0
 10
39.3998
 20
41.2
 11
46.75
 21
41.2
  0
LINE
  8
0
 10
46.75
 20
41.2
 11
46.75
 21
41.4742
  0
LINE
  8
0
 10
46.75
 20
41.4742
 11
47.3255
 21
40.8233
  0
LINE
  8
0
 10
47.3255
 20
40.8233
 11
48.3131
 21
39.6496
  0
LINE
  8
0
 10
48.3131
 20
39.6496
 11
49.2717
 21
38.452
  0
LINE
  8
0
 10
49.2717
 20
38.452
 11
50.2005
 21
37.2312
  0
LINE
  8
0
 10
50.2005
 20
37.2312
 11
51
 21
36.125
  0
LINE
  8
0
 10
51
 20
36.125
 11
51
 21
-36.125
  0
LINE
  8
0
 10
51
 20
-36.125
 11
50.2005
 21
-37.2312
  0
LINE
  8
0
 10
50.2005
 20
-37.2312
 11
49.2717
 21
-38.452
  0
LINE
  8
0
 10
49.2717
 20
-38.452
 11
48.3131
 21
-39.6496
  0
LINE
  8
0
 10
48.3131
 20
-39.6496
 11
47.3255
 21
-40.8233
  0
LINE
  8
0
 10
47.3255
 20
-40.8233
 11
46.75
 21
-41.4742
  0
LINE
  8
0
 10
46.75
 20
-41.4742
 11
46.75
 21
-41.2
  0
LINE
  8
0
 10
46.75
 20
-41.2
 11
39.3998
 21
-41.2
  0
LINE
  8
0
 10
39.3998
 20
-41.2
 11
39.4094
 21
-41.1668
  0
LINE
  8
0
 10
39.4094
 20
-41.1668
 11
39.4251
 21
-41.1074
  0
LINE
  8
0
 10
39.4251
 20
-41.1074
 11
39.4393
 21
-41.0477
  0
LINE
  8
0
 10
39.4393
 20
-41.0477
 11
39.452
 21
-40.9877
  0
LINE
  8
0
 10
39.452
 20
-40.9877
 11
39.4632
 21
-40.9274
  0
LINE
  8
0
 10
39.4632
 20
-40.9274
 11
39.4729
 21
-40.8668
  0
LINE
  8
0
 10
39.4729
 20
-40.8668
 11
39.4812
 21
-40.806
  0
LINE
  8
0
 10
39.4812
 20
-40.806
 11
39.488
 21
-40.745
  0
LINE
  8
0
 10
39.488
 20
-40.745
 11
39.4932
 21
-40.6839
  0
LINE
  8
0
 10
39.4932
 20
-40.6839
 11
39.497
 21
-40.6227
  0
LINE
  8
0
 10
39.497
 20
-40.6227
 11
39.4992
 21
-40.5613
  0
LINE
  8
0
 10
39.4992
 20
-40.5613
 11
39.5
 21
-40.5
  0
LINE
  8
0
 10
39.5
 20
-40.5
 11
39.4992
 21
-40.4386
  0
LINE
  8
0
 10
39.4992
 20
-40.4386
 11
39.497
 21
-40.3773
  0
LINE
  8
0
 10
39.497
 20
-40.3773
 11
39.4932
 21
-40.3161
  0
LINE
  8
0
 10
39.4932
 20
-40.3161
 11
39.488
 21
-40.255
  0
LINE
  8
0
 10
39.488
 20
-40.255
 11
39.4812
 21
-40.194
  0
LINE
  8
0
 10
39.4812
 20
-40.194
 11
39.4729
 21
-40.1332
  0
LINE
  8
0
 10
39.4729
 20
-40.1332
 11
39.4632
 21
-40.0726
  0
LINE
  8
0
 10
39.4632
 20
-40.0726
 11
39.452
 21
-40.0123
  0
LINE
  8
0
 10
39.452
 20
-40.0123
 11
39.4393
 21
-39.9522
  0
LINE
  8
0
 10
39.4393
 20
-39.9522
 11
39.4251
 21
-39.8925
  0
LINE
  8
0
 10
39.4251
 20
-39.8925
 11
39.4094
 21
-39.8332
  0
LINE
  8
0
 10
39.4094
 20
-39.8332
 11
39.3923
 21
-39.7743
  0
LINE
  8
0
 10
39.3923
 20
-39.7743
 11
39.3738
 21
-39.7158
  0
LINE
  8
0
 10
39.3738
 20
-39.7158
 11
39.3539
 21
-39.6578
  0
LINE
  8
0
 10
39.3539
 20
-39.6578
 11
39.3325
 21
-39.6003
  0
LINE
  8
0
 10
39.3325
 20
-39.6003
 11
39.3097
 21
-39.5433
  0
LINE
  8
0
 10
39.3097
 20
-39.5433
 11
39.2855
 21
-39.4869
  0
LINE
  8
0
 10
39.2855
 20
-39.4869
 11
39.26
 21
-39.4311
  0
LINE
  8
0
 10
39.26
 20
-39.4311
 11
39.233
 21
-39.376
  0
LINE
  8
0
 10
39.233
 20
-39.376
 11
39.2048
 21
-39.3215
  0
LINE
  8
0
 10
39.2048
 20
-39.3215
 11
39.1752
 21
-39.2677
  0
LINE
  8
0
 10
39.1752
 20
-39.2677
 11
39.1443
 21
-39.2147
  0
LINE
  8
0
 10
39.1443
 20
-39.2147
 11
39.1121
 21
-39.1625
  0
LINE
  8
0
 10
39.1121
 20
-39.1625
 11
39.0787
 21
-39.1111
  0
LINE
  8
0
 10
39.0787
 20
-39.1111
 11
39.044
 21
-39.0605
  0
LINE
  8
0
 10
39.044
 20
-39.0605
 11
39.008
 21
-39.0107
  0
LINE
  8
0
 10
39.008
 20
-39.0107
 11
38.9709
 21
-38.9619
  0
LINE
  8
0
 10
38.9709
 20
-38.9619
 11
38.9325
 21
-38.914
  0
LINE
  8
0
 10
38.9325
 20
-38.914
 11
38.893
 21
-38.8671
  0
LINE
  8
0
 10
38.893
 20
-38.8671
 11
38.8524
 21
-38.8211
  0
LINE
  8
0
 10
38.8524
 20
-38.8211
 11
38.8106
 21
-38.7761
  0
LINE
  8
0
 10
38.8106
 20
-38.7761
 11
38.7678
 21
-38.7322
  0
LINE
  8
0
 10
38.7678
 20
-38.7322
 11
38.7238
 21
-38.6894
  0
LINE
  8
0
 10
38.7238
 20
-38.6894
 11
38.6789
 21
-38.6476
  0
LINE
  8
0
 10
38.6789
 20
-38.6476
 11
38.6329
 21
-38.607
  0
LINE
  8
0
 10
38.6329
 20
-38.607
 11
38.586
 21
-38.5675
  0
LINE
  8
0
 10
38.586
 20
-38.5675
 11
38.5381
 21
-38.5291
  0
LINE
  8
0
 10
38.5381
 20
-38.5291
 11
38.4892
 21
-38.492
  0
LINE
  8
0
 10
38.4892
 20
-38.492
 11
38.4395
 21
-38.456
  0
LINE
  8
0
 10
38.4395
 20
-38.456
 11
38.3889
 21
-38.4213
  0
LINE
  8
0
 10
38.3889
 20
-38.4213
 11
38.3375
 21
-38.3879
  0
LINE
  8
0
 10
38.3375
 20
-38.3879
 11
38.2852
 21
-38.3557
  0
LINE
  8
0
 10
38.2852
 20
-38.3557
 11
38.2322
 21
-38.3248
  0
LINE
  8
0
 10
38.2322
 20
-38.3248
 11
38.1785
 21
-38.2952
  0
LINE
  8
0
 10
38.1785
 20
-38.2952
 11
38.124
 21
-38.2669
  0
LINE
  8
0
 10
38.124
 20
-38.2669
 11
38.0689
 21
-38.24
  0
LINE
  8
0
 10
38.0689
 20
-38.24
 11
38.0131
 21
-38.2145
  0
LINE
  8
0
 10
38.0131
 20
-38.2145
 11
37.9567
 21
-38.1903
  0
LINE
  8
0
 10
37.9567
 20
-38.1903
 11
37.8997
 21
-38.1675
  0
LINE
  8
0
 10
37.8997
 20
-38.1675
 11
37.8422
 21
-38.1461
  0
LINE
  8
0
 10
37.8422
 20
-38.1461
 11
37.7842
 21
-38.1262
  0
LINE
  8
0
 10
37.7842
 20
-38.1262
 11
37.7257
 21
-38.1077
  0
LINE
  8
0
 10
37.7257
 20
-38.1077
 11
37.6668
 21
-38.0906
  0
LINE
  8
0
 10
37.6668
 20
-38.0906
 11
37.6074
 21
-38.0749
  0
LINE
  8
0
 10
37.6074
 20
-38.0749
 11
37.5477
 21
-38.0607
  0
LINE
  8
0
 10
37.5477
 20
-38.0607
 11
37.4877
 21
-38.048
  0
LINE
  8
0
 10
37.4877
 20
-38.048
 11
37.4274
 21
-38.0368
  0
LINE
  8
0
 10
37.4274
 20
-38.0368
 11
37.3668
 21
-38.0271
  0
LINE
  8
0
 10
37.3668
 20
-38.0271
 11
37.306
 21
-38.0188
  0
LINE
  8
0
 10
37.306
 20
-38.0188
 11
37.245
 21
-38.012
  0
LINE
  8
0
 10
37.245
 20
-38.012
 11
37.1839
 21
-38.0068
  0
LINE
  8
0
 10
37.1839
 20
-38.0068
 11
37.1227
 21
-38.003
  0
LINE
  8
0
 10
37.1227
 20
-38.003
 11
37.0613
 21
-38.0007
  0
LINE
  8
0
 10
37.0613
 20
-38.0007
 11
37
 21
-38
  0
LINE
  8
0
 10
37
 20
-38
 11
36.9386
 21
-38.0007
  0
LINE
  8
0
 10
36.9386
 20
-38.0007
 11
36.8773
 21
-38.003
  0
LINE
  8
0
 10
36.8773
 20
-38.003
 11
36.8161
 21
-38.0068
  0
LINE
  8
0
 10
36.8161
 20
-38.0068
 11
36.755
 21
-38.012
  0
LINE
  8
0
 10
36.755
 20
-38.012
 11
36.694
 21
-38.0188
  0
LINE
  8
0
 10
36.694
 20
-38.0188
 11
36.6332
 21
-38.0271
  0
LINE
  8
0
 10
36.6332
 20
-38.0271
 11
36.5726
 21
-38.0368
  0
LINE
  8
0
 10
36.5726
 20
-38.0368
 11
36.5123
 21
-38.048
  0
LINE
  8
0
 10
36.5123
 20
-38.048
 11
36.4522
 21
-38.0607
  0
LINE
  8
0
 10
36.4522
 20
-38.0607
 11
36.3925
 21
-38.0749
  0
LINE
  8
0
 10
36.3925
 20
-38.0749
 11
36.3332
 21
-38.0906
  0
LINE
  8
0
 10
36.3332
 20
-38.0906
 11
36.2743
 21
-38.1077
  0
LINE
  8
0
 10
36.2743
 20
-38.1077
 11
36.2158
 21
-38.1262
  0
LINE
  8
0
 10
36.2158
 20
-38.1262
 11
36.1578
 21
-38.1461
  0
LINE
  8
0
 10
36.1578
 20
-38.1461
 11
36.1003
 21
-38.1675
  0
LINE
  8
0
 10
36.1003
 20
-38.1675
 11
36.0433
 21
-38.1903
  0
LINE
  8
0
 10
36.0433
 20
-38.1903
 11
35.9869
 21
-38.2145
  0
LINE
  8
0
 10
35.9869
 20
-38.2145
 11
35.9311
 21
-38.24
  0
LINE
  8
0
 10
35.9311
 20
-38.24
 11
35.876
 21
-38.2669
  0
LINE
  8
0
 10
35.876
 20
-38.2669
 11
35.8215
 21
-38.2952
  0
LINE
  8
0
 10
35.8215
 20
-38.2952
 11
35.7677
 21
-38.3248
  0
LINE
  8
0
 10
35.7677
 20
-38.3248
 11
35.7147
 21
-38.3557
  0
LINE
  8
0
 10
35.7147
 20
-38.3557
 11
35.6625
 21
-38.3879
  0
LINE
  8
0
 10
35.6625
 20
-38.3879
 11
35.6111
 21
-38.4213
  0
LINE
  8
0
 10
35.6111
 20
-38.4213
 11
35.5605
 21
-38.456
  0
LINE
  8
0
 10
35.5605
 20
-38.456
 11
35.5107
 21
-38.492
  0
LINE
  8
0
 10
35.5107
 20
-38.492
 11
35.4619
 21
-38.5291
  0
LINE
  8
0
 10
35.4619
 20
-38.5291
 11
35.414
 21
-38.5675
  0
LINE
  8
0
 10
35.414
 20
-38.5675
 11
35.3671
 21
-38.607
  0
LINE
  8
0
 10
35.3671
 20
-38.607
 11
35.3211
 21
-38.6476
  0
LINE
  8
0
 10
35.3211
 20
-38.6476
 11
35.2761
 21
-38.6894
  0
LINE
  8
0
 10
35.2761
 20
-38.6894
 11
35.2322
 21
-38.7322
  0
LINE
  8
0
 10
35.2322
 20
-38.7322
 11
35.1894
 21
-38.7761
  0
LINE
  8
0
 10
35.1894
 20
-38.7761
 11
35.1476
 21
-38.8211
  0
LINE
  8
0
 10
35.1476
 20
-38.8211
 11
35.107
 21
-38.8671
  0
LINE
  8
0
 10
35.107
 20
-38.8671
 11
35.0675
 21
-38.914
  0
LINE
  8
0
 10
35.0675
 20
-38.914
 11
35.0291
 21
-38.9619
  0
LINE
  8
0
 10
35.0291
 20
-38.9619
 11
34.992
 21
-39.0107
  0
LINE
  8
0
 10
34.992
 20
-39.0107
 11
34.956
 21
-39.0605
  0
LINE
  8
0
 10
34.956
 20
-39.0605
 11
34.9213
 21
-39.1111
  0
LINE
  8
0
 10
34.9213
 20
-39.1111
 11
34.8879
 21
-39.1625
  0
LINE
  8
0
 10
34.8879
 20
-39.1625
 11
34.8557
 21
-39.2147
  0
LINE
  8
0
 10
34.8557
 20
-39.2147
 11
34.8248
 21
-39.2677
  0
LINE
  8
0
 10
34.8248
 20
-39.2677
 11
34.7952
 21
-39.3215
  0
LINE
  8
0
 10
34.7952
 20
-39.3215
 11
34.7669
 21
-39.376
  0
LINE
  8
0
 10
34.7669
 20
-39.376
 11
34.74
 21
-39.4311
  0
LINE
  8
0
 10
34.74
 20
-39.4311
 11
34.7145
 21
-39.4869
  0
LINE
  8
0
 10
34.7145
 20
-39.4869
 11
34.6903
 21
-39.5433
  0
LINE
  8
0
 10
34.6903
 20
-39.5433
 11
34.6675
 21
-39.6003
  0
LINE
  8
0
 10
34.6675
 20
-39.6003
 11
34.6461
 21
-39.6578
  0
LINE
  8
0
 10
34.6461
 20
-39.6578
 11
34.6262
 21
-39.7158
  0
LINE
  8
0
 10
34.6262
 20
-39.7158
 11
34.6077
 21
-39.7743
  0
LINE
  8
0
 10
34.6077
 20
-39.7743
 11
34.5906
 21
-39.8332
  0
LINE
  8
0
 10
34.5906
 20
-39.8332
 11
34.5749
 21
-39.8925
  0
LINE
  8
0
 10
34.5749
 20
-39.8925
 11
34.5607
 21
-39.9522
  0
LINE
  8
0
 10
34.5607
 20
-39.9522
 11
34.5506
 21
-40
  0
LINE
  8
0
 10
34.5506
 20
-40
 11
33.5
 21
-40
  0
LINE
  8
0
 10
33.5
 20
-40
 11
33.5
 21
-52.7626
  0
LINE
  8
0
 10
33.5
 20
-52.7626
 11
33.4373
 21
-52.8033
  0
LINE
  8
0
 10
33.4373
 20
-52.8033
 11
32.1314
 21
-53.608
  0
LINE
  8
0
 10
32.1314
 20
-53.608
 11
30.8061
 21
-54.3804
  0
LINE
  8
0
 10
30.8061
 20
-54.3804
 11
29.4623
 21
-55.1201
  0
LINE
  8
0
 10
29.4623
 20
-55.1201
 11
28.1007
 21
-55.8265
  0
LINE
  8
0
 10
28.1007
 20
-55.8265
 11
26.7222
 21
-56.4993
  0
LINE
  8
0
 10
26.7222
 20
-56.4993
 11
25.3276
 21
-57.1381
  0
LINE
  8
0
 10
25.3276
 20
-57.1381
 11
23.9177
 21
-57.7425
  0
LINE
  8
0
 10
23.9177
 20
-57.7425
 11
22.4934
 21
-58.312
  0
LINE
  8
0
 10
22.4934
 20
-58.312
 11
21.0556
 21
-58.8465
  0
LINE
  8
0
 10
21.0556
 20
-58.8465
 11
19.6051
 21
-59.3455
  0
LINE
  8
0
 10
19.6051
 20
-59.3455
 11
18.1428
 21
-59.8088
  0
LINE
  8
0
 10
18.1428
 20
-59.8088
 11
16.6695
 21
-60.236
  0
LINE
  8
0
 10
16.6695
 20
-60.236
 11
15.1862
 21
-60.627
  0
LINE
  8
0
 10
15.1862
 20
-60.627
 11
13.6938
 21
-60.9814
  0
LINE
  8
0
 10
13.6938
 20
-60.9814
 11
12.1931
 21
-61.2991
  0
LINE
  8
0
 10
12.1931
 20
-61.2991
 11
10.6851
 21
-61.5798
  0
LINE
  8
0
 10
10.6851
 20
-61.5798
 11
9.17065
 21
-61.8235
  0
LINE
  8
0
 10
9.17065
 20
-61.8235
 11
7.65067
 21
-62.03
  0
LINE
  8
0
 10
7.65067
 20
-62.03
 11
6.12607
 21
-62.199
  0
LINE
  8
0
 10
6.12607
 20
-62.199
 11
4.59778
 21
-62.3306
  0
LINE
  8
0
 10
4.59778
 20
-62.3306
 11
3.06673
 21
-62.4247
  0
LINE
  8
0
 10
3.06673
 20
-62.4247
 11
1.53381
 21
-62.4812
  0
LINE
  8
0
 10
1.53381
 20
-62.4812
 11
0
 21
-62.5
  0
LINE
  8
0
 10
0
 20
-62.5
 11
-1.53381
 21
-62.4812
  0
LINE
  8
0
 10
35.1
 20
51.7083
 11
35.988
 21
51.099
  0
LINE
  8
0
 10
35.988
 20
51.099
 11
37.2312
 21
50.2005
  0
LINE
  8
0
 10
37.2312
 20
50.2005
 11
38.452
 21
49.2717
  0
LINE
  8
0
 10
38.452
 20
49.2717
 11
39.6496
 21
48.3131
  0
LINE
  8
0
 10
39.6496
 20
48.3131
 11
40.8233
 21
47.3255
  0
LINE
  8
0
 10
40.8233
 20
47.3255
 11
41.9724
 21
46.3094
  0
LINE
  8
0
 10
41.9724
 20
46.3094
 11
43.0963
 21
45.2654
  0
LINE
  8
0
 10
43.0963
 20
45.2654
 11
44.1942
 21
44.1942
  0
LINE
  8
0
 10
44.1942
 20
44.1942
 11
45.2654
 21
43.0963
  0
LINE
  8
0
 10
45.2654
 20
43.0963
 11
45.5407
 21
42.8
  0
LINE
  8
0
 10
45.5407
 20
42.8
 11
38.25
 21
42.8
  0
LINE
  8
0
 10
38.25
 20
42.8
 11
38.25
 21
42.6649
  0
LINE
  8
0
 10
38.25
 20
42.6649
 11
38.2322
 21
42.6752
  0
LINE
  8
0
 10
38.2322
 20
42.6752
 11
38.1785
 21
42.7048
  0
LINE
  8
0
 10
38.1785
 20
42.7048
 11
38.124
 21
42.733
  0
LINE
  8
0
 10
38.124
 20
42.733
 11
38.0689
 21
42.76
  0
LINE
  8
0
 10
38.0689
 20
42.76
 11
38.0131
 21
42.7855
  0
LINE
  8
0
 10
38.0131
 20
42.7855
 11
37.9567
 21
42.8097
  0
LINE
  8
0
 10
37.9567
 20
42.8097
 11
37.8997
 21
42.8325
  0
LINE
  8
0
 10
37.8997
 20
42.8325
 11
37.8422
 21
42.8539
  0
LINE
  8
0
 10
37.8422
 20
42.8539
 11
37.7842
 21
42.8738
  0
LINE
  8
0
 10
37.7842
 20
42.8738
 11
37.7257
 21
42.8923
  0
LINE
  8
0
 10
37.7257
 20
42.8923
 11
37.6668
 21
42.9094
  0
LINE
  8
0
 10
37.6668
 20
42.9094
 11
37.6074
 21
42.9251
  0
LINE
  8
0
 10
37.6074
 20
42.9251
 11
37.5477
 21
42.9393
  0
LINE
  8
0
 10
37.5477
 20
42.9393
 11
37.4877
 21
42.952
  0
LINE
  8
0
 10
37.4877
 20
42.952
 11
37.4274
 21
42.9632
  0
LINE
  8
0
 10
37.4274
 20
42.9632
 11
37.3668
 21
42.9729
  0
LINE
  8
0
 10
37.3668
 20
42.9729
 11
37.306
 21
42.9812
  0
LINE
  8
0
 10
37.306
 20
42.9812
 11
37.245
 21
42.988
  0
LINE
  8
0
 10
37.245
 20
42.988
 11
37.1839
 21
42.9932
  0
LINE
  8
0
 10
37.1839
 20
42.9932
 11
37.1227
 21
42.997
  0
LINE
  8
0
 10
37.1227
 20
42.997
 11
37.0613
 21
42.9992
  0
LINE
  8
0
 10
37.0613
 20
42.9992
 11
37
 21
43
  0
LINE
  8
0
 10
37
 20
43
 11
36.9386
 21
42.9992
  0
LINE
  8
0
 10
36.9386
 20
42.9992
 11
36.8773
 21
42.997
  0
LINE
  8
0
 10
36.8773
 20
42.997
 11
36.8161
 21
42.9932
  0
LINE
  8
0
 10
36.8161
 20
42.9932
 11
36.755
 21
42.988
  0
LINE
  8
0
 10
36.755
 20
42.988
 11
36.694
 21
42.9812
  0
LINE
  8
0
 10
36.694
 20
42.9812
 11
36.6332
 21
42.9729
  0
LINE
  8
0
 10
36.6332
 20
42.9729
 11
36.5726
 21
42.9632
  0
LINE
  8
0
 10
36.5726
 20
42.9632
 11
36.5123
 21
42.952
  0
LINE
  8
0
 10
36.5123
 20
42.952
 11
36.4522
 21
42.9393
  0
LINE
  8
0
 10
36.4522
 20
42.9393
 11
36.3925
 21
42.9251
  0
LINE
  8
0
 10
36.3925
 20
42.9251
 11
36.3332
 21
42.9094
  0
LINE
  8
0
 10
36.3332
 20
42.9094
 11
36.2743
 21
42.8923
  0
LINE
  8
0
 10
36.2743
 20
42.8923
 11
36.2158
 21
42.8738
  0
LINE
  8
0
 10
36.2158
 20
42.8738
 11
36.1578
 21
42.8539
  0
LINE
  8
0
 10
36.1578
 20
42.8539
 11
36.1003
 21
42.8325
  0
LINE
  8
0
 10
36.1003
 20
42.8325
 11
36.0433
 21
42.8097
  0
LINE
  8
0
 10
36.0433
 20
42.8097
 11
35.9869
 21
42.7855
  0
LINE
  8
0
 10
35.9869
 20
42.7855
 11
35.9311
 21
42.76
  0
LINE
  8
0
 10
35.9311
 20
42.76
 11
35.876
 21
42.733
  0
LINE
  8
0
 10
35.876
 20
42.733
 11
35.8215
 21
42.7048
  0
LINE
  8
0
 10
35.8215
 20
42.7048
 11
35.7677
 21
42.6752
  0
LINE
  8
0
 10
35.7677
 20
42.6752
 11
35.7147
 21
42.6443
  0
LINE
  8
0
 10
35.7147
 20
42.6443
 11
35.6625
 21
42.6121
  0
LINE
  8
0
 10
35.6625
 20
42.6121
 11
35.6111
 21
42.5787
  0
LINE
  8
0
 10
35.6111
 20
42.5787
 11
35.5605
 21
42.544
  0
LINE
  8
0
 10
35.5605
 20
42.544
 11
35.5107
 21
42.508
  0
LINE
  8
0
 10
35.5107
 20
42.508
 11
35.4619
 21
42.4709
  0
LINE
  8
0
 10
35.4619
 20
42.4709
 11
35.414
 21
42.4325
  0
LINE
  8
0
 10
35.414
 20
42.4325
 11
35.3671
 21
42.393
  0
LINE
  8
0
 10
35.3671
 20
42.393
 11
35.3211
 21
42.3524
  0
LINE
  8
0
 10
35.3211
 20
42.3524
 11
35.2761
 21
42.3106
  0
LINE
  8
0
 10
35.2761
 20
42.3106
 11
35.2322
 21
42.2678
  0
LINE
  8
0
 10
35.2322
 20
42.2678
 11
35.1894
 21
42.2238
  0
LINE
  8
0
 10
35.1894
 20
42.2238
 11
35.1476
 21
42.1789
  0
LINE
  8
0
 10
35.1476
 20
42.1789
 11
35.107
 21
42.1329
  0
LINE
  8
0
 10
35.107
 20
42.1329
 11
35.1
 21
42.1246
  0
LINE
  8
0
 10
35.1
 20
42.1246
 11
35.1
 21
51.7083
  0
LINE
  8
0
 10
-35.107
 20
42.1329
 11
-35.1476
 21
42.1789
  0
LINE
  8
0
 10
-35.1476
 20
42.1789
 11
-35.1894
 21
42.2238
  0
LINE
  8
0
 10
-35.1894
 20
42.2238
 11
-35.2322
 21
42.2678
  0
LINE
  8
0
 10
-35.2322
 20
42.2678
 11
-35.2761
 21
42.3106
  0
LINE
  8
0
 10
-35.2761
 20
42.3106
 11
-35.3211
 21
42.3524
  0
LINE
  8
0
 10
-35.3211
 20
42.3524
 11
-35.3671
 21
42.393
  0
LINE
  8
0
 10
-35.3671
 20
42.393
 11
-35.414
 21
42.4325
  0
LINE
  8
0
 10
-35.414
 20
42.4325
 11
-35.4619
 21
42.4709
  0
LINE
  8
0
 10
-35.4619
 20
42.4709
 11
-35.5107
 21
42.508
  0
LINE
  8
0
 10
-35.5107
 20
42.508
 11
-35.5605
 21
42.544
  0
LINE
  8
0
 10
-35.5605
 20
42.544
 11
-35.6111
 21
42.5787
  0
LINE
  8
0
 10
-35.6111
 20
42.5787
 11
-35.6625
 21
42.6121
  0
LINE
  8
0
 10
-35.6625
 20
42.6121
 11
-35.7147
 21
42.6443
  0
LINE
  8
0
 10
-35.7147
 20
42.6443
 11
-35.7677
 21
42.6752
  0
LINE
  8
0
 10
-35.7677
 20
42.6752
 11
-35.8215
 21
42.7048
  0
LINE
  8
0
 10
-35.8215
 20
42.7048
 11
-35.876
 21
42.733
  0
LINE
  8
0
 10
-35.876
 20
42.733
 11
-35.9311
 21
42.76
  0
LINE
  8
0
 10
-35.9311
 20
42.76
 11
-35.9869
 21
42.7855
  0
LINE
  8
0
 10
-35.9869
 20
42.7855
 11
-36.0433
 21
42.8097
  0
LINE
  8
0
 10
-36.0433
 20
42.8097
 11
-36.1003
 21
42.8325
  0
LINE
  8
0
 10
-36.1003
 20
42.8325
 11
-36.1578
 21
42.8539
  0
LINE
  8
0
 10
-36.1578
 20
42.8539
 11
-36.2158
 21
42.8738
  0
LINE
  8
0
 10
-36.2158
 20
42.8738
 11
-36.2743
 21
42.8923
  0
LINE
  8
0
 10
-36.2743
 20
42.8923
 11
-36.3332
 21
42.9094
  0
LINE
  8
0
 10
-36.3332
 20
42.9094
 11
-36.3925
 21
42.9251
  0
LINE
  8
0
 10
-36.3925
 20
42.9251
 11
-36.4522
 21
42.9393
  0
LINE
  8
0
 10
-36.4522
 20
42.9393
 11
-36.5123
 21
42.952
  0
LINE
  8
0
 10
-36.5123
 20
42.952
 11
-36.5726
 21
42.9632
  0
LINE
  8
0
 10
-36.5726
 20
42.9632
 11
-36.6332
 21
42.9729
  0
LINE
  8
0
 10
-36.6332
 20
42.9729
 11
-36.694
 21
42.9812
  0
LINE
  8
0
 10
-36.694
 20
42.9812
 11
-36.755
 21
42.988
  0
LINE
  8
0
 10
-36.755
 20
42.988
 11
-36.8161
 21
42.9932
  0
LINE
  8
0
 10
-36.8161
 20
42.9932
 11
-36.8773
 21
42.997
  0
LINE
  8
0
 10
-36.8773
 20
42.997
 11
-36.9386
 21
42.9992
  0
LINE
  8
0
 10
-36.9386
 20
42.9992
 11
-37
 21
43
  0
LINE
  8
0
 10
-37
 20
43
 11
-37.0613
 21
42.9992
  0
LINE
  8
0
 10
-37.0613
 20
42.9992
 11
-37.1227
 21
42.997
  0
LINE
  8
0
 10
-37.1227
 20
42.997
 11
-37.1839
 21
42.9932
  0
LINE
  8
0
 10
-37.1839
 20
42.9932
 11
-37.245
 21
42.988
  0
LINE
  8
0
 10
-37.245
 20
42.988
 11
-37.306
 21
42.9812
  0
LINE
  8
0
 10
-37.306
 20
42.9812
 11
-37.3668
 21
42.9729
  0
LINE
  8
0
 10
-37.3668
 20
42.9729
 11
-37.4274
 21
42.9632
  0
LINE
  8
0
 10
-37.4274
 20
42.9632
 11
-37.4877
 21
42.952
  0
LINE
  8
0
 10
-37.4877
 20
42.952
 11
-37.5477
 21
42.9393
  0
LINE
  8
0
 10
-37.5477
 20
42.9393
 11
-37.6074
 21
42.9251
  0
LINE
  8
0
 10
-37.6074
 20
42.9251
 11
-37.6668
 21
42.9094
  0
LINE
  8
0
 10
-37.6668
 20
42.9094
 11
-37.7257
 21
42.8923
  0
LINE
  8
0
 10
-37.7257
 20
42.8923
 11
-37.7842
 21
42.8738
  0
LINE
  8
0
 10
-37.7842
 20
42.8738
 11
-37.8422
 21
42.8539
  0
LINE
  8
0
 10
-37.8422
 20
42.8539
 11
-37.8997
 21
42.8325
  0
LINE
  8
0
 10
-37.8997
 20
42.8325
 11
-37.9567
 21
42.8097
  0
LINE
  8
0
 10
-37.9567
 20
42.8097
 11
-38.0131
 21
42.7855
  0
LINE
  8
0
 10
-38.0131
 20
42.7855
 11
-38.0689
 21
42.76
  0
LINE
  8
0
 10
-38.0689
 20
42.76
 11
-38.124
 21
42.733
  0
LINE
  8
0
 10
-38.124
 20
42.733
 11
-38.1785
 21
42.7048
  0
LINE
  8
0
 10
-38.1785
 20
42.7048
 11
-38.2322
 21
42.6752
  0
LINE
  8
0
 10
-38.2322
 20
42.6752
 11
-38.25
 21
42.6649
  0
LINE
  8
0
 10
-38.25
 20
42.6649
 11
-38.25
 21
42.8
  0
LINE
  8
0
 10
-38.25
 20
42.8
 11
-45.5407
 21
42.8
  0
LINE
  8
0
 10
-45.5407
 20
42.8
 11
-45.2654
 21
43.0963
  0
LINE
  8
0
 10
-45.2654
 20
43.0963
 11
-44.1942
 21
44.1942
  0
LINE
  8
0
 10
-44.1942
 20
44.1942
 11
-43.0963
 21
45.2654
  0
LINE
  8
0
 10
-43.0963
 20
45.2654
 11
-41.9724
 21
46.3094
  0
LINE
  8
0
 10
-41.9724
 20
46.3094
 11
-40.8233
 21
47.3255
  0
LINE
  8
0
 10
-40.8233
 20
47.3255
 11
-39.6496
 21
48.3131
  0
LINE
  8
0
 10
-39.6496
 20
48.3131
 11
-38.452
 21
49.2717
  0
LINE
  8
0
 10
-38.452
 20
49.2717
 11
-37.2312
 21
50.2005
  0
LINE
  8
0
 10
-37.2312
 20
50.2005
 11
-35.988
 21
51.099
  0
LINE
  8
0
 10
-35.988
 20
51.099
 11
-35.1
 21
51.7083
  0
LINE
  8
0
 10
-35.1
 20
51.7083
 11
-35.1
 21
42.1246
  0
LINE
  8
0
 10
-35.1
 20
42.1246
 11
-35.107
 21
42.1329
  0
LINE
  8
0
 10
36.9607
 20
38.9005
 11
36.9215
 21
38.9019
  0
LINE
  8
0
 10
36.9215
 20
38.9019
 11
36.8823
 21
38.9043
  0
LINE
  8
0
 10
36.8823
 20
38.9043
 11
36.8432
 21
38.9077
  0
LINE
  8
0
 10
36.8432
 20
38.9077
 11
36.8041
 21
38.912
  0
LINE
  8
0
 10
36.8041
 20
38.912
 11
36.7652
 21
38.9173
  0
LINE
  8
0
 10
36.7652
 20
38.9173
 11
36.7265
 21
38.9236
  0
LINE
  8
0
 10
36.7265
 20
38.9236
 11
36.6879
 21
38.9307
  0
LINE
  8
0
 10
36.6879
 20
38.9307
 11
36.6494
 21
38.9389
  0
LINE
  8
0
 10
36.6494
 20
38.9389
 11
36.6112
 21
38.948
  0
LINE
  8
0
 10
36.6112
 20
38.948
 11
36.5733
 21
38.9579
  0
LINE
  8
0
 10
36.5733
 20
38.9579
 11
36.5355
 21
38.9689
  0
LINE
  8
0
 10
36.5355
 20
38.9689
 11
36.4981
 21
38.9807
  0
LINE
  8
0
 10
36.4981
 20
38.9807
 11
36.461
 21
38.9935
  0
LINE
  8
0
 10
36.461
 20
38.9935
 11
36.4242
 21
39.0072
  0
LINE
  8
0
 10
36.4242
 20
39.0072
 11
36.3877
 21
39.0218
  0
LINE
  8
0
 10
36.3877
 20
39.0218
 11
36.3516
 21
39.0373
  0
LINE
  8
0
 10
36.3516
 20
39.0373
 11
36.3159
 21
39.0536
  0
LINE
  8
0
 10
36.3159
 20
39.0536
 11
36.2806
 21
39.0708
  0
LINE
  8
0
 10
36.2806
 20
39.0708
 11
36.2458
 21
39.0889
  0
LINE
  8
0
 10
36.2458
 20
39.0889
 11
36.2114
 21
39.1078
  0
LINE
  8
0
 10
36.2114
 20
39.1078
 11
36.1774
 21
39.1276
  0
LINE
  8
0
 10
36.1774
 20
39.1276
 11
36.144
 21
39.1482
  0
LINE
  8
0
 10
36.144
 20
39.1482
 11
36.1111
 21
39.1696
  0
LINE
  8
0
 10
36.1111
 20
39.1696
 11
36.0787
 21
39.1919
  0
LINE
  8
0
 10
36.0787
 20
39.1919
 11
36.0469
 21
39.2149
  0
LINE
  8
0
 10
36.0469
 20
39.2149
 11
36.0156
 21
39.2386
  0
LINE
  8
0
 10
36.0156
 20
39.2386
 11
35.985
 21
39.2632
  0
LINE
  8
0
 10
35.985
 20
39.2632
 11
35.9549
 21
39.2885
  0
LINE
  8
0
 10
35.9549
 20
39.2885
 11
35.9255
 21
39.3145
  0
LINE
  8
0
 10
35.9255
 20
39.3145
 11
35.8967
 21
39.3412
  0
LINE
  8
0
 10
35.8967
 20
39.3412
 11
35.8686
 21
39.3686
  0
LINE
  8
0
 10
35.8686
 20
39.3686
 11
35.8412
 21
39.3967
  0
LINE
  8
0
 10
35.8412
 20
39.3967
 11
35.8145
 21
39.4255
  0
LINE
  8
0
 10
35.8145
 20
39.4255
 11
35.7885
 21
39.4549
  0
LINE
  8
0
 10
35.7885
 20
39.4549
 11
35.7632
 21
39.485
  0
LINE
  8
0
 10
35.7632
 20
39.485
 11
35.7386
 21
39.5156
  0
LINE
  8
0
 10
35.7386
 20
39.5156
 11
35.7149
 21
39.5469
  0
LINE
  8
0
 10
35.7149
 20
39.5469
 11
35.6919
 21
39.5787
  0
LINE
  8
0
 10
35.6919
 20
39.5787
 11
35.6696
 21
39.6111
  0
LINE
  8
0
 10
35.6696
 20
39.6111
 11
35.6482
 21
39.644
  0
LINE
  8
0
 10
35.6482
 20
39.644
 11
35.6276
 21
39.6774
  0
LINE
  8
0
 10
35.6276
 20
39.6774
 11
35.6078
 21
39.7114
  0
LINE
  8
0
 10
35.6078
 20
39.7114
 11
35.5889
 21
39.7458
  0
LINE
  8
0
 10
35.5889
 20
39.7458
 11
35.5708
 21
39.7806
  0
LINE
  8
0
 10
35.5708
 20
39.7806
 11
35.5536
 21
39.8159
  0
LINE
  8
0
 10
35.5536
 20
39.8159
 11
35.5373
 21
39.8516
  0
LINE
  8
0
 10
35.5373
 20
39.8516
 11
35.5218
 21
39.8877
  0
LINE
  8
0
 10
35.5218
 20
39.8877
 11
35.5072
 21
39.9242
  0
LINE
  8
0
 10
35.5072
 20
39.9242
 11
35.4935
 21
39.961
  0
LINE
  8
0
 10
35.4935
 20
39.961
 11
35.4807
 21
39.9981
  0
LINE
  8
0
 10
35.4807
 20
39.9981
 11
35.4689
 21
40.0355
  0
LINE
  8
0
 10
35.4689
 20
40.0355
 11
35.4579
 21
40.0733
  0
LINE
  8
0
 10
35.4579
 20
40.0733
 11
35.448
 21
40.1112
  0
LINE
  8
0
 10
35.448
 20
40.1112
 11
35.4389
 21
40.1494
  0
LINE
  8
0
 10
35.4389
 20
40.1494
 11
35.4307
 21
40.1879
  0
LINE
  8
0
 10
35.4307
 20
40.1879
 11
35.4236
 21
40.2265
  0
LINE
  8
0
 10
35.4236
 20
40.2265
 11
35.4173
 21
40.2652
  0
LINE
  8
0
 10
35.4173
 20
40.2652
 11
35.412
 21
40.3041
  0
LINE
  8
0
 10
35.412
 20
40.3041
 11
35.4077
 21
40.3432
  0
LINE
  8
0
 10
35.4077
 20
40.3432
 11
35.4043
 21
40.3823
  0
LINE
  8
0
 10
35.4043
 20
40.3823
 11
35.4019
 21
40.4215
  0
LINE
  8
0
 10
35.4019
 20
40.4215
 11
35.4005
 21
40.4607
  0
LINE
  8
0
 10
35.4005
 20
40.4607
 11
35.4
 21
40.5
  0
LINE
  8
0
 10
35.4
 20
40.5
 11
35.4005
 21
40.5393
  0
LINE
  8
0
 10
35.4005
 20
40.5393
 11
35.4019
 21
40.5785
  0
LINE
  8
0
 10
35.4019
 20
40.5785
 11
35.4043
 21
40.6177
  0
LINE
  8
0
 10
35.4043
 20
40.6177
 11
35.4077
 21
40.6568
  0
LINE
  8
0
 10
35.4077
 20
40.6568
 11
35.412
 21
40.6958
  0
LINE
  8
0
 10
35.412
 20
40.6958
 11
35.4173
 21
40.7348
  0
LINE
  8
0
 10
35.4173
 20
40.7348
 11
35.4236
 21
40.7735
  0
LINE
  8
0
 10
35.4236
 20
40.7735
 11
35.4307
 21
40.8121
  0
LINE
  8
0
 10
35.4307
 20
40.8121
 11
35.4389
 21
40.8506
  0
LINE
  8
0
 10
35.4389
 20
40.8506
 11
35.448
 21
40.8888
  0
LINE
  8
0
 10
35.448
 20
40.8888
 11
35.4579
 21
40.9267
  0
LINE
  8
0
 10
35.4579
 20
40.9267
 11
35.4689
 21
40.9644
  0
LINE
  8
0
 10
35.4689
 20
40.9644
 11
35.4807
 21
41.0019
  0
LINE
  8
0
 10
35.4807
 20
41.0019
 11
35.4935
 21
41.039
  0
LINE
  8
0
 10
35.4935
 20
41.039
 11
35.5072
 21
41.0758
  0
LINE
  8
0
 10
35.5072
 20
41.0758
 11
35.5218
 21
41.1123
  0
LINE
  8
0
 10
35.5218
 20
41.1123
 11
35.5373
 21
41.1484
  0
LINE
  8
0
 10
35.5373
 20
41.1484
 11
35.5536
 21
41.1841
  0
LINE
  8
0
 10
35.5536
 20
41.1841
 11
35.5708
 21
41.2194
  0
LINE
  8
0
 10
35.5708
 20
41.2194
 11
35.5889
 21
41.2542
  0
LINE
  8
0
 10
35.5889
 20
41.2542
 11
35.6078
 21
41.2886
  0
LINE
  8
0
 10
35.6078
 20
41.2886
 11
35.6276
 21
41.3226
  0
LINE
  8
0
 10
35.6276
 20
41.3226
 11
35.6482
 21
41.356
  0
LINE
  8
0
 10
35.6482
 20
41.356
 11
35.6696
 21
41.3889
  0
LINE
  8
0
 10
35.6696
 20
41.3889
 11
35.6919
 21
41.4213
  0
LINE
  8
0
 10
35.6919
 20
41.4213
 11
35.7149
 21
41.4531
  0
LINE
  8
0
 10
35.7149
 20
41.4531
 11
35.7386
 21
41.4844
  0
LINE
  8
0
 10
35.7386
 20
41.4844
 11
35.7632
 21
41.515
  0
LINE
  8
0
 10
35.7632
 20
41.515
 11
35.7885
 21
41.5451
  0
LINE
  8
0
 10
35.7885
 20
41.5451
 11
35.8145
 21
41.5745
  0
LINE
  8
0
 10
35.8145
 20
41.5745
 11
35.8412
 21
41.6033
  0
LINE
  8
0
 10
35.8412
 20
41.6033
 11
35.8686
 21
41.6314
  0
LINE
  8
0
 10
35.8686
 20
41.6314
 11
35.8967
 21
41.6588
  0
LINE
  8
0
 10
35.8967
 20
41.6588
 11
35.9255
 21
41.6855
  0
LINE
  8
0
 10
35.9255
 20
41.6855
 11
35.9549
 21
41.7115
  0
LINE
  8
0
 10
35.9549
 20
41.7115
 11
35.985
 21
41.7368
  0
LINE
  8
0
 10
35.985
 20
41.7368
 11
36.0156
 21
41.7614
  0
LINE
  8
0
 10
36.0156
 20
41.7614
 11
36.0469
 21
41.7851
  0
LINE
  8
0
 10
36.0469
 20
41.7851
 11
36.0787
 21
41.8081
  0
LINE
  8
0
 10
36.0787
 20
41.8081
 11
36.1111
 21
41.8304
  0
LINE
  8
0
 10
36.1111
 20
41.8304
 11
36.144
 21
41.8518
  0
LINE
  8
0
 10
36.144
 20
41.8518
 11
36.1774
 21
41.8724
  0
LINE
  8
0
 10
36.1774
 20
41.8724
 11
36.2114
 21
41.8921
  0
LINE
  8
0
 10
36.2114
 20
41.8921
 11
36.2458
 21
41.9111
  0
LINE
  8
0
 10
36.2458
 20
41.9111
 11
36.2806
 21
41.9292
  0
LINE
  8
0
 10
36.2806
 20
41.9292
 11
36.3159
 21
41.9464
  0
LINE
  8
0
 10
36.3159
 20
41.9464
 11
36.3516
 21
41.9627
  0
LINE
  8
0
 10
36.3516
 20
41.9627
 11
36.3877
 21
41.9782
  0
LINE
  8
0
 10
36.3877
 20
41.9782
 11
36.4242
 21
41.9928
  0
LINE
  8
0
 10
36.4242
 20
41.9928
 11
36.461
 21
42.0065
  0
LINE
  8
0
 10
36.461
 20
42.0065
 11
36.4981
 21
42.0192
  0
LINE
  8
0
 10
36.4981
 20
42.0192
 11
36.5355
 21
42.0311
  0
LINE
  8
0
 10
36.5355
 20
42.0311
 11
36.5733
 21
42.042
  0
LINE
  8
0
 10
36.5733
 20
42.042
 11
36.6112
 21
42.052
  0
LINE
  8
0
 10
36.6112
 20
42.052
 11
36.6494
 21
42.0611
  0
LINE
  8
0
 10
36.6494
 20
42.0611
 11
36.6879
 21
42.0692
  0
LINE
  8
0
 10
36.6879
 20
42.0692
 11
36.7265
 21
42.0764
  0
LINE
  8
0
 10
36.7265
 20
42.0764
 11
36.7652
 21
42.0827
  0
LINE
  8
0
 10
36.7652
 20
42.0827
 11
36.8041
 21
42.088
  0
LINE
  8
0
 10
36.8041
 20
42.088
 11
36.8432
 21
42.0923
  0
LINE
  8
0
 10
36.8432
 20
42.0923
 11
36.8823
 21
42.0957
  0
LINE
  8
0
 10
36.8823
 20
42.0957
 11
36.9215
 21
42.0981
  0
LINE
  8
0
 10
36.9215
 20
42.0981
 11
36.9607
 21
42.0995
  0
LINE
  8
0
 10
36.9607
 20
42.0995
 11
37
 21
42.1
  0
LINE
  8
0
 10
37
 20
42.1
 11
37.0393
 21
42.0995
  0
LINE
  8
0
 10
37.0393
 20
42.0995
 11
37.0785
 21
42.0981
  0
LINE
  8
0
 10
37.0785
 20
42.0981
 11
37.1177
 21
42.0957
  0
LINE
  8
0
 10
37.1177
 20
42.0957
 11
37.1568
 21
42.0923
  0
LINE
  8
0
 10
37.1568
 20
42.0923
 11
37.1958
 21
42.088
  0
LINE
  8
0
 10
37.1958
 20
42.088
 11
37.2348
 21
42.0827
  0
LINE
  8
0
 10
37.2348
 20
42.0827
 11
37.2735
 21
42.0764
  0
LINE
  8
0
 10
37.2735
 20
42.0764
 11
37.3121
 21
42.0692
  0
LINE
  8
0
 10
37.3121
 20
42.0692
 11
37.3506
 21
42.0611
  0
LINE
  8
0
 10
37.3506
 20
42.0611
 11
37.3888
 21
42.052
  0
LINE
  8
0
 10
37.3888
 20
42.052
 11
37.4267
 21
42.042
  0
LINE
  8
0
 10
37.4267
 20
42.042
 11
37.4644
 21
42.0311
  0
LINE
  8
0
 10
37.4644
 20
42.0311
 11
37.5019
 21
42.0192
  0
LINE
  8
0
 10
37.5019
 20
42.0192
 11
37.539
 21
42.0065
  0
LINE
  8
0
 10
37.539
 20
42.0065
 11
37.5758
 21
41.9928
  0
LINE
  8
0
 10
37.5758
 20
41.9928
 11
37.6123
 21
41.9782
  0
LINE
  8
0
 10
37.6123
 20
41.9782
 11
37.6484
 21
41.9627
  0
LINE
  8
0
 10
37.6484
 20
41.9627
 11
37.6841
 21
41.9464
  0
LINE
  8
0
 10
37.6841
 20
41.9464
 11
37.7194
 21
41.9292
  0
LINE
  8
0
 10
37.7194
 20
41.9292
 11
37.7542
 21
41.9111
  0
LINE
  8
0
 10
37.7542
 20
41.9111
 11
37.7886
 21
41.8921
  0
LINE
  8
0
 10
37.7886
 20
41.8921
 11
37.8226
 21
41.8724
  0
LINE
  8
0
 10
37.8226
 20
41.8724
 11
37.856
 21
41.8518
  0
LINE
  8
0
 10
37.856
 20
41.8518
 11
37.8889
 21
41.8304
  0
LINE
  8
0
 10
37.8889
 20
41.8304
 11
37.9213
 21
41.8081
  0
LINE
  8
0
 10
37.9213
 20
41.8081
 11
37.9531
 21
41.7851
  0
LINE
  8
0
 10
37.9531
 20
41.7851
 11
37.9844
 21
41.7614
  0
LINE
  8
0
 10
37.9844
 20
41.7614
 11
38.015
 21
41.7368
  0
LINE
  8
0
 10
38.015
 20
41.7368
 11
38.0451
 21
41.7115
  0
LINE
  8
0
 10
38.0451
 20
41.7115
 11
38.0745
 21
41.6855
  0
LINE
  8
0
 10
38.0745
 20
41.6855
 11
38.1033
 21
41.6588
  0
LINE
  8
0
 10
38.1033
 20
41.6588
 11
38.1314
 21
41.6314
  0
LINE
  8
0
 10
38.1314
 20
41.6314
 11
38.1588
 21
41.6033
  0
LINE
  8
0
 10
38.1588
 20
41.6033
 11
38.1855
 21
41.5745
  0
LINE
  8
0
 10
38.1855
 20
41.5745
 11
38.2115
 21
41.5451
  0
LINE
  8
0
 10
38.2115
 20
41.5451
 11
38.2368
 21
41.515
  0
LINE
  8
0
 10
38.2368
 20
41.515
 11
38.25
 21
41.4986
  0
LINE
  8
0
 10
38.25
 20
41.4986
 11
38.25
 21
41.2
  0
LINE
  8
0
 10
38.25
 20
41.2
 11
38.4386
 21
41.2
  0
LINE
  8
0
 10
38.4386
 20
41.2
 11
38.4464
 21
41.1841
  0
LINE
  8
0
 10
38.4464
 20
41.1841
 11
38.4627
 21
41.1484
  0
LINE
  8
0
 10
38.4627
 20
41.1484
 11
38.4782
 21
41.1123
  0
LINE
  8
0
 10
38.4782
 20
41.1123
 11
38.4928
 21
41.0758
  0
LINE
  8
0
 10
38.4928
 20
41.0758
 11
38.5065
 21
41.039
  0
LINE
  8
0
 10
38.5065
 20
41.039
 11
38.5192
 21
41.0019
  0
LINE
  8
0
 10
38.5192
 20
41.0019
 11
38.5311
 21
40.9644
  0
LINE
  8
0
 10
38.5311
 20
40.9644
 11
38.542
 21
40.9267
  0
LINE
  8
0
 10
38.542
 20
40.9267
 11
38.552
 21
40.8888
  0
LINE
  8
0
 10
38.552
 20
40.8888
 11
38.5611
 21
40.8506
  0
LINE
  8
0
 10
38.5611
 20
40.8506
 11
38.5692
 21
40.8121
  0
LINE
  8
0
 10
38.5692
 20
40.8121
 11
38.5764
 21
40.7735
  0
LINE
  8
0
 10
38.5764
 20
40.7735
 11
38.5827
 21
40.7348
  0
LINE
  8
0
 10
38.5827
 20
40.7348
 11
38.588
 21
40.6958
  0
LINE
  8
0
 10
38.588
 20
40.6958
 11
38.5923
 21
40.6568
  0
LINE
  8
0
 10
38.5923
 20
40.6568
 11
38.5957
 21
40.6177
  0
LINE
  8
0
 10
38.5957
 20
40.6177
 11
38.5981
 21
40.5785
  0
LINE
  8
0
 10
38.5981
 20
40.5785
 11
38.5995
 21
40.5393
  0
LINE
  8
0
 10
38.5995
 20
40.5393
 11
38.6
 21
40.5
  0
LINE
  8
0
 10
38.6
 20
40.5
 11
38.5995
 21
40.4607
  0
LINE
  8
0
 10
38.5995
 20
40.4607
 11
38.5981
 21
40.4215
  0
LINE
  8
0
 10
38.5981
 20
40.4215
 11
38.5957
 21
40.3823
  0
LINE
  8
0
 10
38.5957
 20
40.3823
 11
38.5923
 21
40.3432
  0
LINE
  8
0
 10
38.5923
 20
40.3432
 11
38.588
 21
40.3041
  0
LINE
  8
0
 10
38.588
 20
40.3041
 11
38.5827
 21
40.2652
  0
LINE
  8
0
 10
38.5827
 20
40.2652
 11
38.5764
 21
40.2265
  0
LINE
  8
0
 10
38.5764
 20
40.2265
 11
38.5692
 21
40.1879
  0
LINE
  8
0
 10
38.5692
 20
40.1879
 11
38.5611
 21
40.1494
  0
LINE
  8
0
 10
38.5611
 20
40.1494
 11
38.552
 21
40.1112
  0
LINE
  8
0
 10
38.552
 20
40.1112
 11
38.542
 21
40.0733
  0
LINE
  8
0
 10
38.542
 20
40.0733
 11
38.5311
 21
40.0355
  0
LINE
  8
0
 10
38.5311
 20
40.0355
 11
38.5192
 21
39.9981
  0
LINE
  8
0
 10
38.5192
 20
39.9981
 11
38.5065
 21
39.961
  0
LINE
  8
0
 10
38.5065
 20
39.961
 11
38.4928
 21
39.9242
  0
LINE
  8
0
 10
38.4928
 20
39.9242
 11
38.4782
 21
39.8877
  0
LINE
  8
0
 10
38.4782
 20
39.8877
 11
38.4627
 21
39.8516
  0
LINE
  8
0
 10
38.4627
 20
39.8516
 11
38.4464
 21
39.8159
  0
LINE
  8
0
 10
38.4464
 20
39.8159
 11
38.4292
 21
39.7806
  0
LINE
  8
0
 10
38.4292
 20
39.7806
 11
38.4111
 21
39.7458
  0
LINE
  8
0
 10
38.4111
 20
39.7458
 11
38.3921
 21
39.7114
  0
LINE
  8
0
 10
38.3921
 20
39.7114
 11
38.3724
 21
39.6774
  0
LINE
  8
0
 10
38.3724
 20
39.6774
 11
38.3518
 21
39.644
  0
LINE
  8
0
 10
38.3518
 20
39.644
 11
38.3304
 21
39.6111
  0
LINE
  8
0
 10
38.3304
 20
39.6111
 11
38.3081
 21
39.5787
  0
LINE
  8
0
 10
38.3081
 20
39.5787
 11
38.2851
 21
39.5469
  0
LINE
  8
0
 10
38.2851
 20
39.5469
 11
38.2614
 21
39.5156
  0
LINE
  8
0
 10
38.2614
 20
39.5156
 11
38.2368
 21
39.485
  0
LINE
  8
0
 10
38.2368
 20
39.485
 11
38.2115
 21
39.4549
  0
LINE
  8
0
 10
38.2115
 20
39.4549
 11
38.1855
 21
39.4255
  0
LINE
  8
0
 10
38.1855
 20
39.4255
 11
38.1588
 21
39.3967
  0
LINE
  8
0
 10
38.1588
 20
39.3967
 11
38.1314
 21
39.3686
  0
LINE
  8
0
 10
38.1314
 20
39.3686
 11
38.1033
 21
39.3412
  0
LINE
  8
0
 10
38.1033
 20
39.3412
 11
38.0745
 21
39.3145
  0
LINE
  8
0
 10
38.0745
 20
39.3145
 11
38.0451
 21
39.2885
  0
LINE
  8
0
 10
38.0451
 20
39.2885
 11
38.015
 21
39.2632
  0
LINE
  8
0
 10
38.015
 20
39.2632
 11
37.9844
 21
39.2386
  0
LINE
  8
0
 10
37.9844
 20
39.2386
 11
37.9531
 21
39.2149
  0
LINE
  8
0
 10
37.9531
 20
39.2149
 11
37.9213
 21
39.1919
  0
LINE
  8
0
 10
37.9213
 20
39.1919
 11
37.8889
 21
39.1696
  0
LINE
  8
0
 10
37.8889
 20
39.1696
 11
37.856
 21
39.1482
  0
LINE
  8
0
 10
37.856
 20
39.1482
 11
37.8226
 21
39.1276
  0
LINE
  8
0
 10
37.8226
 20
39.1276
 11
37.7886
 21
39.1078
  0
LINE
  8
0
 10
37.7886
 20
39.1078
 11
37.7542
 21
39.0889
  0
LINE
  8
0
 10
37.7542
 20
39.0889
 11
37.7194
 21
39.0708
  0
LINE
  8
0
 10
37.7194
 20
39.0708
 11
37.6841
 21
39.0536
  0
LINE
  8
0
 10
37.6841
 20
39.0536
 11
37.6484
 21
39.0373
  0
LINE
  8
0
 10
37.6484
 20
39.0373
 11
37.6123
 21
39.0218
  0
LINE
  8
0
 10
37.6123
 20
39.0218
 11
37.5758
 21
39.0072
  0
LINE
  8
0
 10
37.5758
 20
39.0072
 11
37.539
 21
38.9935
  0
LINE
  8
0
 10
37.539
 20
38.9935
 11
37.5019
 21
38.9807
  0
LINE
  8
0
 10
37.5019
 20
38.9807
 11
37.4644
 21
38.9689
  0
LINE
  8
0
 10
37.4644
 20
38.9689
 11
37.4267
 21
38.9579
  0
LINE
  8
0
 10
37.4267
 20
38.9579
 11
37.3888
 21
38.948
  0
LINE
  8
0
 10
37.3888
 20
38.948
 11
37.3506
 21
38.9389
  0
LINE
  8
0
 10
37.3506
 20
38.9389
 11
37.3121
 21
38.9307
  0
LINE
  8
0
 10
37.3121
 20
38.9307
 11
37.2735
 21
38.9236
  0
LINE
  8
0
 10
37.2735
 20
38.9236
 11
37.2348
 21
38.9173
  0
LINE
  8
0
 10
37.2348
 20
38.9173
 11
37.1958
 21
38.912
  0
LINE
  8
0
 10
37.1958
 20
38.912
 11
37.1568
 21
38.9077
  0
LINE
  8
0
 10
37.1568
 20
38.9077
 11
37.1177
 21
38.9043
  0
LINE
  8
0
 10
37.1177
 20
38.9043
 11
37.0785
 21
38.9019
  0
LINE
  8
0
 10
37.0785
 20
38.9019
 11
37.0393
 21
38.9005
  0
LINE
  8
0
 10
37.0393
 20
38.9005
 11
37
 21
38.9
  0
LINE
  8
0
 10
37
 20
38.9
 11
36.9607
 21
38.9005
  0
LINE
  8
0
 10
-37.0393
 20
38.9005
 11
-37.0785
 21
38.9019
  0
LINE
  8
0
 10
-37.0785
 20
38.9019
 11
-37.1177
 21
38.9043
  0
LINE
  8
0
 10
-37.1177
 20
38.9043
 11
-37.1568
 21
38.9077
  0
LINE
  8
0
 10
-37.1568
 20
38.9077
 11
-37.1958
 21
38.912
  0
LINE
  8
0
 10
-37.1958
 20
38.912
 11
-37.2348
 21
38.9173
  0
LINE
  8
0
 10
-37.2348
 20
38.9173
 11
-37.2735
 21
38.9236
  0
LINE
  8
0
 10
-37.2735
 20
38.9236
 11
-37.3121
 21
38.9307
  0
LINE
  8
0
 10
-37.3121
 20
38.9307
 11
-37.3506
 21
38.9389
  0
LINE
  8
0
 10
-37.3506
 20
38.9389
 11
-37.3888
 21
38.948
  0
LINE
  8
0
 10
-37.3888
 20
38.948
 11
-37.4267
 21
38.9579
  0
LINE
  8
0
 10
-37.4267
 20
38.9579
 11
-37.4644
 21
38.9689
  0
LINE
  8
0
 10
-37.4644
 20
38.9689
 11
-37.5019
 21
38.9807
  0
LINE
  8
0
 10
-37.5019
 20
38.9807
 11
-37.539
 21
38.9935
  0
LINE
  8
0
 10
-37.539
 20
38.9935
 11
-37.5758
 21
39.0072
  0
LINE
  8
0
 10
-37.5758
 20
39.0072
 11
-37.6123
 21
39.0218
  0
LINE
  8
0
 10
-37.6123
 20
39.0218
 11
-37.6484
 21
39.0373
  0
LINE
  8
0
 10
-37.6484
 20
39.0373
 11
-37.6841
 21
39.0536
  0
LINE
  8
0
 10
-37.6841
 20
39.0536
 11
-37.7194
 21
39.0708
  0
LINE
  8
0
 10
-37.7194
 20
39.0708
 11
-37.7542
 21
39.0889
  0
LINE
  8
0
 10
-37.7542
 20
39.0889
 11
-37.7886
 21
39.1078
  0
LINE
  8
0
 10
-37.7886
 20
39.1078
 11
-37.8226
 21
39.1276
  0
LINE
  8
0
 10
-37.8226
 20
39.1276
 11
-37.856
 21
39.1482
  0
LINE
  8
0
 10
-37.856
 20
39.1482
 11
-37.8889
 21
39.1696
  0
LINE
  8
0
 10
-37.8889
 20
39.1696
 11
-37.9213
 21
39.1919
  0
LINE
  8
0
 10
-37.9213
 20
39.1919
 11
-37.9531
 21
39.2149
  0
LINE
  8
0
 10
-37.9531
 20
39.2149
 11
-37.9844
 21
39.2386
  0
LINE
  8
0
 10
-37.9844
 20
39.2386
 11
-38.015
 21
39.2632
  0
LINE
  8
0
 10
-38.015
 20
39.2632
 11
-38.0451
 21
39.2885
  0
LINE
  8
0
 10
-38.0451
 20
39.2885
 11
-38.0745
 21
39.3145
  0
LINE
  8
0
 10
-38.0745
 20
39.3145
 11
-38.1033
 21
39.3412
  0
LINE
  8
0
 10
-38.1033
 20
39.3412
 11
-38.1314
 21
39.3686
  0
LINE
  8
0
 10
-38.1314
 20
39.3686
 11
-38.1588
 21
39.3967
  0
LINE
  8
0
 10
-38.1588
 20
39.3967
 11
-38.1855
 21
39.4255
  0
LINE
  8
0
 10
-38.1855
 20
39.4255
 11
-38.2115
 21
39.4549
  0
LINE
  8
0
 10
-38.2115
 20
39.4549
 11
-38.2368
 21
39.485
  0
LINE
  8
0
 10
-38.2368
 20
39.485
 11
-38.2614
 21
39.5156
  0
LINE
  8
0
 10
-38.2614
 20
39.5156
 11
-38.2851
 21
39.5469
  0
LINE
  8
0
 10
-38.2851
 20
39.5469
 11
-38.3081
 21
39.5787
  0
LINE
  8
0
 10
-38.3081
 20
39.5787
 11
-38.3304
 21
39.6111
  0
LINE
  8
0
 10
-38.3304
 20
39.6111
 11
-38.3518
 21
39.644
  0
LINE
  8
0
 10
-38.3518
 20
39.644
 11
-38.3724
 21
39.6774
  0
LINE
  8
0
 10
-38.3724
 20
39.6774
 11
-38.3921
 21
39.7114
  0
LINE
  8
0
 10
-38.3921
 20
39.7114
 11
-38.4111
 21
39.7458
  0
LINE
  8
0
 10
-38.4111
 20
39.7458
 11
-38.4292
 21
39.7806
  0
LINE
  8
0
 10
-38.4292
 20
39.7806
 11
-38.4464
 21
39.8159
  0
LINE
  8
0
 10
-38.4464
 20
39.8159
 11
-38.4627
 21
39.8516
  0
LINE
  8
0
 10
-38.4627
 20
39.8516
 11
-38.4782
 21
39.8877
  0
LINE
  8
0
 10
-38.4782
 20
39.8877
 11
-38.4928
 21
39.9242
  0
LINE
  8
0
 10
-38.4928
 20
39.9242
 11
-38.5065
 21
39.961
  0
LINE
  8
0
 10
-38.5065
 20
39.961
 11
-38.5192
 21
39.9981
  0
LINE
  8
0
 10
-38.5192
 20
39.9981
 11
-38.5311
 21
40.0355
  0
LINE
  8
0
 10
-38.5311
 20
40.0355
 11
-38.542
 21
40.0733
  0
LINE
  8
0
 10
-38.542
 20
40.0733
 11
-38.552
 21
40.1112
  0
LINE
  8
0
 10
-38.552
 20
40.1112
 11
-38.5611
 21
40.1494
  0
LINE
  8
0
 10
-38.5611
 20
40.1494
 11
-38.5692
 21
40.1879
  0
LINE
  8
0
 10
-38.5692
 20
40.1879
 11
-38.5764
 21
40.2265
  0
LINE
  8
0
 10
-38.5764
 20
40.2265
 11
-38.5827
 21
40.2652
  0
LINE
  8
0
 10
-38.5827
 20
40.2652
 11
-38.588
 21
40.3041
  0
LINE
  8
0
 10
-38.588
 20
40.3041
 11
-38.5923
 21
40.3432
  0
LINE
  8
0
 10
-38.5923
 20
40.3432
 11
-38.5957
 21
40.3823
  0
LINE
  8
0
 10
-38.5957
 20
40.3823
 11
-38.5981
 21
40.4215
  0
LINE
  8
0
 10
-38.5981
 20
40.4215
 11
-38.5995
 21
40.4607
  0
LINE
  8
0
 10
-38.5995
 20
40.4607
 11
-38.6
 21
40.5
  0
LINE
  8
0
 10
-38.6
 20
40.5
 11
-38.5995
 21
40.5393
  0
LINE
  8
0
 10
-38.5995
 20
40.5393
 11
-38.5981
 21
40.5785
  0
LINE
  8
0
 10
-38.5981
 20
40.5785
 11
-38.5957
 21
40.6177
  0
LINE
  8
0
 10
-38.5957
 20
40.6177
 11
-38.5923
 21
40.6568
  0
LINE
  8
0
 10
-38.5923
 20
40.6568
 11
-38.588
 21
40.6958
  0
LINE
  8
0
 10
-38.588
 20
40.6958
 11
-38.5827
 21
40.7348
  0
LINE
  8
0
 10
-38.5827
 20
40.7348
 11
-38.5764
 21
40.7735
  0
LINE
  8
0
 10
-38.5764
 20
40.7735
 11
-38.5692
 21
40.8121
  0
LINE
  8
0
 10
-38.5692
 20
40.8121
 11
-38.5611
 21
40.8506
  0
LINE
  8
0
 10
-38.5611
 20
40.8506
 11
-38.552
 21
40.8888
  0
LINE
  8
0
 10
-38.552
 20
40.8888
 11
-38.542
 21
40.9267
  0
LINE
  8
0
 10
-38.542
 20
40.9267
 11
-38.5311
 21
40.9644
  0
LINE
  8
0
 10
-38.5311
 20
40.9644
 11
-38.5192
 21
41.0019
  0
LINE
  8
0
 10
-38.5192
 20
41.0019
 11
-38.5065
 21
41.039
  0
LINE
  8
0
 10
-38.5065
 20
41.039
 11
-38.4928
 21
41.0758
  0
LINE
  8
0
 10
-38.4928
 20
41.0758
 11
-38.4782
 21
41.1123
  0
LINE
  8
0
 10
-38.4782
 20
41.1123
 11
-38.4627
 21
41.1484
  0
LINE
  8
0
 10
-38.4627
 20
41.1484
 11
-38.4464
 21
41.1841
  0
LINE
  8
0
 10
-38.4464
 20
41.1841
 11
-38.4386
 21
41.2
  0
LINE
  8
0
 10
-38.4386
 20
41.2
 11
-38.25
 21
41.2
  0
LINE
  8
0
 10
-38.25
 20
41.2
 11
-38.25
 21
41.4986
  0
LINE
  8
0
 10
-38.25
 20
41.4986
 11
-38.2368
 21
41.515
  0
LINE
  8
0
 10
-38.2368
 20
41.515
 11
-38.2115
 21
41.5451
  0
LINE
  8
0
 10
-38.2115
 20
41.5451
 11
-38.1855
 21
41.5745
  0
LINE
  8
0
 10
-38.1855
 20
41.5745
 11
-38.1588
 21
41.6033
  0
LINE
  8
0
 10
-38.1588
 20
41.6033
 11
-38.1314
 21
41.6314
  0
LINE
  8
0
 10
-38.1314
 20
41.6314
 11
-38.1033
 21
41.6588
  0
LINE
  8
0
 10
-38.1033
 20
41.6588
 11
-38.0745
 21
41.6855
  0
LINE
  8
0
 10
-38.0745
 20
41.6855
 11
-38.0451
 21
41.7115
  0
LINE
  8
0
 10
-38.0451
 20
41.7115
 11
-38.015
 21
41.7368
  0
LINE
  8
0
 10
-38.015
 20
41.7368
 11
-37.9844
 21
41.7614
  0
LINE
  8
0
 10
-37.9844
 20
41.7614
 11
-37.9531
 21
41.7851
  0
LINE
  8
0
 10
-37.9531
 20
41.7851
 11
-37.9213
 21
41.8081
  0
LINE
  8
0
 10
-37.9213
 20
41.8081
 11
-37.8889
 21
41.8304
  0
LINE
  8
0
 10
-37.8889
 20
41.8304
 11
-37.856
 21
41.8518
  0
LINE
  8
0
 10
-37.856
 20
41.8518
 11
-37.8226
 21
41.8724
  0
LINE
  8
0
 10
-37.8226
 20
41.8724
 11
-37.7886
 21
41.8921
  0
LINE
  8
0
 10
-37.7886
 20
41.8921
 11
-37.7542
 21
41.9111
  0
LINE
  8
0
 10
-37.7542
 20
41.9111
 11
-37.7194
 21
41.9292
  0
LINE
  8
0
 10
-37.7194
 20
41.9292
 11
-37.6841
 21
41.9464
  0
LINE
  8
0
 10
-37.6841
 20
41.9464
 11
-37.6484
 21
41.9627
  0
LINE
  8
0
 10
-37.6484
 20
41.9627
 11
-37.6123
 21
41.9782
  0
LINE
  8
0
 10
-37.6123
 20
41.9782
 11
-37.5758
 21
41.9928
  0
LINE
  8
0
 10
-37.5758
 20
41.9928
 11
-37.539
 21
42.0065
  0
LINE
  8
0
 10
-37.539
 20
42.0065
 11
-37.5019
 21
42.0192
  0
LINE
  8
0
 10
-37.5019
 20
42.0192
 11
-37.4644
 21
42.0311
  0
LINE
  8
0
 10
-37.4644
 20
42.0311
 11
-37.4267
 21
42.042
  0
LINE
  8
0
 10
-37.4267
 20
42.042
 11
-37.3888
 21
42.052
  0
LINE
  8
0
 10
-37.3888
 20
42.052
 11
-37.3506
 21
42.0611
  0
LINE
  8
0
 10
-37.3506
 20
42.0611
 11
-37.3121
 21
42.0692
  0
LINE
  8
0
 10
-37.3121
 20
42.0692
 11
-37.2735
 21
42.0764
  0
LINE
  8
0
 10
-37.2735
 20
42.0764
 11
-37.2348
 21
42.0827
  0
LINE
  8
0
 10
-37.2348
 20
42.0827
 11
-37.1958
 21
42.088
  0
LINE
  8
0
 10
-37.1958
 20
42.088
 11
-37.1568
 21
42.0923
  0
LINE
  8
0
 10
-37.1568
 20
42.0923
 11
-37.1177
 21
42.0957
  0
LINE
  8
0
 10
-37.1177
 20
42.0957
 11
-37.0785
 21
42.0981
  0
LINE
  8
0
 10
-37.0785
 20
42.0981
 11
-37.0393
 21
42.0995
  0
LINE
  8
0
 10
-37.0393
 20
42.0995
 11
-37
 21
42.1
  0
LINE
  8
0
 10
-37
 20
42.1
 11
-36.9607
 21
42.0995
  0
LINE
  8
0
 10
-36.9607
 20
42.0995
 11
-36.9215
 21
42.0981
  0
LINE
  8
0
 10
-36.9215
 20
42.0981
 11
-36.8823
 21
42.0957
  0
LINE
  8
0
 10
-36.8823
 20
42.0957
 11
-36.8432
 21
42.0923
  0
LINE
  8
0
 10
-36.8432
 20
42.0923
 11
-36.8041
 21
42.088
  0
LINE
  8
0
 10
-36.8041
 20
42.088
 11
-36.7652
 21
42.0827
  0
LINE
  8
0
 10
-36.7652
 20
42.0827
 11
-36.7265
 21
42.0764
  0
LINE
  8
0
 10
-36.7265
 20
42.0764
 11
-36.6879
 21
42.0692
  0
LINE
  8
0
 10
-36.6879
 20
42.0692
 11
-36.6494
 21
42.0611
  0
LINE
  8
0
 10
-36.6494
 20
42.0611
 11
-36.6112
 21
42.052
  0
LINE
  8
0
 10
-36.6112
 20
42.052
 11
-36.5733
 21
42.042
  0
LINE
  8
0
 10
-36.5733
 20
42.042
 11
-36.5355
 21
42.0311
  0
LINE
  8
0
 10
-36.5355
 20
42.0311
 11
-36.4981
 21
42.0192
  0
LINE
  8
0
 10
-36.4981
 20
42.0192
 11
-36.461
 21
42.0065
  0
LINE
  8
0
 10
-36.461
 20
42.0065
 11
-36.4242
 21
41.9928
  0
LINE
  8
0
 10
-36.4242
 20
41.9928
 11
-36.3877
 21
41.9782
  0
LINE
  8
0
 10
-36.3877
 20
41.9782
 11
-36.3516
 21
41.9627
  0
LINE
  8
0
 10
-36.3516
 20
41.9627
 11
-36.3159
 21
41.9464
  0
LINE
  8
0
 10
-36.3159
 20
41.9464
 11
-36.2806
 21
41.9292
  0
LINE
  8
0
 10
-36.2806
 20
41.9292
 11
-36.2458
 21
41.9111
  0
LINE
  8
0
 10
-36.2458
 20
41.9111
 11
-36.2114
 21
41.8921
  0
LINE
  8
0
 10
-36.2114
 20
41.8921
 11
-36.1774
 21
41.8724
  0
LINE
  8
0
 10
-36.1774
 20
41.8724
 11
-36.144
 21
41.8518
  0
LINE
  8
0
 10
-36.144
 20
41.8518
 11
-36.1111
 21
41.8304
  0
LINE
  8
0
 10
-36.1111
 20
41.8304
 11
-36.0787
 21
41.8081
  0
LINE
  8
0
 10
-36.0787
 20
41.8081
 11
-36.0469
 21
41.7851
  0
LINE
  8
0
 10
-36.0469
 20
41.7851
 11
-36.0156
 21
41.7614
  0
LINE
  8
0
 10
-36.0156
 20
41.7614
 11
-35.985
 21
41.7368
  0
LINE
  8
0
 10
-35.985
 20
41.7368
 11
-35.9549
 21
41.7115
  0
LINE
  8
0
 10
-35.9549
 20
41.7115
 11
-35.9255
 21
41.6855
  0
LINE
  8
0
 10
-35.9255
 20
41.6855
 11
-35.8967
 21
41.6588
  0
LINE
  8
0
 10
-35.8967
 20
41.6588
 11
-35.8686
 21
41.6314
  0
LINE
  8
0
 10
-35.8686
 20
41.6314
 11
-35.8412
 21
41.6033
  0
LINE
  8
0
 10
-35.8412
 20
41.6033
 11
-35.8145
 21
41.5745
  0
LINE
  8
0
 10
-35.8145
 20
41.5745
 11
-35.7885
 21
41.5451
  0
LINE
  8
0
 10
-35.7885
 20
41.5451
 11
-35.7632
 21
41.515
  0
LINE
  8
0
 10
-35.7632
 20
41.515
 11
-35.7386
 21
41.4844
  0
LINE
  8
0
 10
-35.7386
 20
41.4844
 11
-35.7149
 21
41.4531
  0
LINE
  8
0
 10
-35.7149
 20
41.4531
 11
-35.6919
 21
41.4213
  0
LINE
  8
0
 10
-35.6919
 20
41.4213
 11
-35.6696
 21
41.3889
  0
LINE
  8
0
 10
-35.6696
 20
41.3889
 11
-35.6482
 21
41.356
  0
LINE
  8
0
 10
-35.6482
 20
41.356
 11
-35.6276
 21
41.3226
  0
LINE
  8
0
 10
-35.6276
 20
41.3226
 11
-35.6078
 21
41.2886
  0
LINE
  8
0
 10
-35.6078
 20
41.2886
 11
-35.5889
 21
41.2542
  0
LINE
  8
0
 10
-35.5889
 20
41.2542
 11
-35.5708
 21
41.2194
  0
LINE
  8
0
 10
-35.5708
 20
41.2194
 11
-35.5536
 21
41.1841
  0
LINE
  8
0
 10
-35.5536
 20
41.1841
 11
-35.5373
 21
41.1484
  0
LINE
  8
0
 10
-35.5373
 20
41.1484
 11
-35.5218
 21
41.1123
  0
LINE
  8
0
 10
-35.5218
 20
41.1123
 11
-35.5072
 21
41.0758
  0
LINE
  8
0
 10
-35.5072
 20
41.0758
 11
-35.4935
 21
41.039
  0
LINE
  8
0
 10
-35.4935
 20
41.039
 11
-35.4807
 21
41.0019
  0
LINE
  8
0
 10
-35.4807
 20
41.0019
 11
-35.4689
 21
40.9644
  0
LINE
  8
0
 10
-35.4689
 20
40.9644
 11
-35.4579
 21
40.9267
  0
LINE
  8
0
 10
-35.4579
 20
40.9267
 11
-35.448
 21
40.8888
  0
LINE
  8
0
 10
-35.448
 20
40.8888
 11
-35.4389
 21
40.8506
  0
LINE
  8
0
 10
-35.4389
 20
40.8506
 11
-35.4307
 21
40.8121
  0
LINE
  8
0
 10
-35.4307
 20
40.8121
 11
-35.4236
 21
40.7735
  0
LINE
  8
0
 10
-35.4236
 20
40.7735
 11
-35.4173
 21
40.7348
  0
LINE
  8
0
 10
-35.4173
 20
40.7348
 11
-35.412
 21
40.6958
  0
LINE
  8
0
 10
-35.412
 20
40.6958
 11
-35.4077
 21
40.6568
  0
LINE
  8
0
 10
-35.4077
 20
40.6568
 11
-35.4043
 21
40.6177
  0
LINE
  8
0
 10
-35.4043
 20
40.6177
 11
-35.4019
 21
40.5785
  0
LINE
  8
0
 10
-35.4019
 20
40.5785
 11
-35.4005
 21
40.5393
  0
LINE
  8
0
 10
-35.4005
 20
40.5393
 11
-35.4
 21
40.5
  0
LINE
  8
0
 10
-35.4
 20
40.5
 11
-35.4005
 21
40.4607
  0
LINE
  8
0
 10
-35.4005
 20
40.4607
 11
-35.4019
 21
40.4215
  0
LINE
  8
0
 10
-35.4019
 20
40.4215
 11
-35.4043
 21
40.3823
  0
LINE
  8
0
 10
-35.4043
 20
40.3823
 11
-35.4077
 21
40.3432
  0
LINE
  8
0
 10
-35.4077
 20
40.3432
 11
-35.412
 21
40.3041
  0
LINE
  8
0
 10
-35.412
 20
40.3041
 11
-35.4173
 21
40.2652
  0
LINE
  8
0
 10
-35.4173
 20
40.2652
 11
-35.4236
 21
40.2265
  0
LINE
  8
0
 10
-35.4236
 20
40.2265
 11
-35.4307
 21
40.1879
  0
LINE
  8
0
 10
-35.4307
 20
40.1879
 11
-35.4389
 21
40.1494
  0
LINE
  8
0
 10
-35.4389
 20
40.1494
 11
-35.448
 21
40.1112
  0
LINE
  8
0
 10
-35.448
 20
40.1112
 11
-35.4579
 21
40.0733
  0
LINE
  8
0
 10
-35.4579
 20
40.0733
 11
-35.4689
 21
40.0355
  0
LINE
  8
0
 10
-35.4689
 20
40.0355
 11
-35.4807
 21
39.9981
  0
LINE
  8
0
 10
-35.4807
 20
39.9981
 11
-35.4935
 21
39.961
  0
LINE
  8
0
 10
-35.4935
 20
39.961
 11
-35.5072
 21
39.9242
  0
LINE
  8
0
 10
-35.5072
 20
39.9242
 11
-35.5218
 21
39.8877
  0
LINE
  8
0
 10
-35.5218
 20
39.8877
 11
-35.5373
 21
39.8516
  0
LINE
  8
0
 10
-35.5373
 20
39.8516
 11
-35.5536
 21
39.8159
  0
LINE
  8
0
 10
-35.5536
 20
39.8159
 11
-35.5708
 21
39.7806
  0
LINE
  8
0
 10
-35.5708
 20
39.7806
 11
-35.5889
 21
39.7458
  0
LINE
  8
0
 10
-35.5889
 20
39.7458
 11
-35.6078
 21
39.7114
  0
LINE
  8
0
 10
-35.6078
 20
39.7114
 11
-35.6276
 21
39.6774
  0
LINE
  8
0
 10
-35.6276
 20
39.6774
 11
-35.6482
 21
39.644
  0
LINE
  8
0
 10
-35.6482
 20
39.644
 11
-35.6696
 21
39.6111
  0
LINE
  8
0
 10
-35.6696
 20
39.6111
 11
-35.6919
 21
39.5787
  0
LINE
  8
0
 10
-35.6919
 20
39.5787
 11
-35.7149
 21
39.5469
  0
LINE
  8
0
 10
-35.7149
 20
39.5469
 11
-35.7386
 21
39.5156
  0
LINE
  8
0
 10
-35.7386
 20
39.5156
 11
-35.7632
 21
39.485
  0
LINE
  8
0
 10
-35.7632
 20
39.485
 11
-35.7885
 21
39.4549
  0
LINE
  8
0
 10
-35.7885
 20
39.4549
 11
-35.8145
 21
39.4255
  0
LINE
  8
0
 10
-35.8145
 20
39.4255
 11
-35.8412
 21
39.3967
  0
LINE
  8
0
 10
-35.8412
 20
39.3967
 11
-35.8686
 21
39.3686
  0
LINE
  8
0
 10
-35.8686
 20
39.3686
 11
-35.8967
 21
39.3412
  0
LINE
  8
0
 10
-35.8967
 20
39.3412
 11
-35.9255
 21
39.3145
  0
LINE
  8
0
 10
-35.9255
 20
39.3145
 11
-35.9549
 21
39.2885
  0
LINE
  8
0
 10
-35.9549
 20
39.2885
 11
-35.985
 21
39.2632
  0
LINE
  8
0
 10
-35.985
 20
39.2632
 11
-36.0156
 21
39.2386
  0
LINE
  8
0
 10
-36.0156
 20
39.2386
 11
-36.0469
 21
39.2149
  0
LINE
  8
0
 10
-36.0469
 20
39.2149
 11
-36.0787
 21
39.1919
  0
LINE
  8
0
 10
-36.0787
 20
39.1919
 11
-36.1111
 21
39.1696
  0
LINE
  8
0
 10
-36.1111
 20
39.1696
 11
-36.144
 21
39.1482
  0
LINE
  8
0
 10
-36.144
 20
39.1482
 11
-36.1774
 21
39.1276
  0
LINE
  8
0
 10
-36.1774
 20
39.1276
 11
-36.2114
 21
39.1078
  0
LINE
  8
0
 10
-36.2114
 20
39.1078
 11
-36.2458
 21
39.0889
  0
LINE
  8
0
 10
-36.2458
 20
39.0889
 11
-36.2806
 21
39.0708
  0
LINE
  8
0
 10
-36.2806
 20
39.0708
 11
-36.3159
 21
39.0536
  0
LINE
  8
0
 10
-36.3159
 20
39.0536
 11
-36.3516
 21
39.0373
  0
LINE
  8
0
 10
-36.3516
 20
39.0373
 11
-36.3877
 21
39.0218
  0
LINE
  8
0
 10
-36.3877
 20
39.0218
 11
-36.4242
 21
39.0072
  0
LINE
  8
0
 10
-36.4242
 20
39.0072
 11
-36.461
 21
38.9935
  0
LINE
  8
0
 10
-36.461
 20
38.9935
 11
-36.4981
 21
38.9807
  0
LINE
  8
0
 10
-36.4981
 20
38.9807
 11
-36.5355
 21
38.9689
  0
LINE
  8
0
 10
-36.5355
 20
38.9689
 11
-36.5733
 21
38.9579
  0
LINE
  8
0
 10
-36.5733
 20
38.9579
 11
-36.6112
 21
38.948
  0
LINE
  8
0
 10
-36.6112
 20
38.948
 11
-36.6494
 21
38.9389
  0
LINE
  8
0
 10
-36.6494
 20
38.9389
 11
-36.6879
 21
38.9307
  0
LINE
  8
0
 10
-36.6879
 20
38.9307
 11
-36.7265
 21
38.9236
  0
LINE
  8
0
 10
-36.7265
 20
38.9236
 11
-36.7652
 21
38.9173
  0
LINE
  8
0
 10
-36.7652
 20
38.9173
 11
-36.8041
 21
38.912
  0
LINE
  8
0
 10
-36.8041
 20
38.912
 11
-36.8432
 21
38.9077
  0
LINE
  8
0
 10
-36.8432
 20
38.9077
 11
-36.8823
 21
38.9043
  0
LINE
  8
0
 10
-36.8823
 20
38.9043
 11
-36.9215
 21
38.9019
  0
LINE
  8
0
 10
-36.9215
 20
38.9019
 11
-36.9607
 21
38.9005
  0
LINE
  8
0
 10
-36.9607
 20
38.9005
 11
-37
 21
38.9
  0
LINE
  8
0
 10
-37
 20
38.9
 11
-37.0393
 21
38.9005
  0
LINE
  8
0
 10
-37.0393
 20
-42.0995
 11
-37.0785
 21
-42.0981
  0
LINE
  8
0
 10
-37.0785
 20
-42.0981
 11
-37.1177
 21
-42.0957
  0
LINE
  8
0
 10
-37.1177
 20
-42.0957
 11
-37.1568
 21
-42.0923
  0
LINE
  8
0
 10
-37.1568
 20
-42.0923
 11
-37.1958
 21
-42.088
  0
LINE
  8
0
 10
-37.1958
 20
-42.088
 11
-37.2348
 21
-42.0827
  0
LINE
  8
0
 10
-37.2348
 20
-42.0827
 11
-37.2735
 21
-42.0764
  0
LINE
  8
0
 10
-37.2735
 20
-42.0764
 11
-37.3121
 21
-42.0692
  0
LINE
  8
0
 10
-37.3121
 20
-42.0692
 11
-37.3506
 21
-42.0611
  0
LINE
  8
0
 10
-37.3506
 20
-42.0611
 11
-37.3888
 21
-42.052
  0
LINE
  8
0
 10
-37.3888
 20
-42.052
 11
-37.4267
 21
-42.042
  0
LINE
  8
0
 10
-37.4267
 20
-42.042
 11
-37.4644
 21
-42.0311
  0
LINE
  8
0
 10
-37.4644
 20
-42.0311
 11
-37.5019
 21
-42.0192
  0
LINE
  8
0
 10
-37.5019
 20
-42.0192
 11
-37.539
 21
-42.0065
  0
LINE
  8
0
 10
-37.539
 20
-42.0065
 11
-37.5758
 21
-41.9928
  0
LINE
  8
0
 10
-37.5758
 20
-41.9928
 11
-37.6123
 21
-41.9782
  0
LINE
  8
0
 10
-37.6123
 20
-41.9782
 11
-37.6484
 21
-41.9627
  0
LINE
  8
0
 10
-37.6484
 20
-41.9627
 11
-37.6841
 21
-41.9464
  0
LINE
  8
0
 10
-37.6841
 20
-41.9464
 11
-37.7194
 21
-41.9292
  0
LINE
  8
0
 10
-37.7194
 20
-41.9292
 11
-37.7542
 21
-41.9111
  0
LINE
  8
0
 10
-37.7542
 20
-41.9111
 11
-37.7886
 21
-41.8921
  0
LINE
  8
0
 10
-37.7886
 20
-41.8921
 11
-37.8226
 21
-41.8724
  0
LINE
  8
0
 10
-37.8226
 20
-41.8724
 11
-37.856
 21
-41.8518
  0
LINE
  8
0
 10
-37.856
 20
-41.8518
 11
-37.8889
 21
-41.8304
  0
LINE
  8
0
 10
-37.8889
 20
-41.8304
 11
-37.9213
 21
-41.8081
  0
LINE
  8
0
 10
-37.9213
 20
-41.8081
 11
-37.9531
 21
-41.7851
  0
LINE
  8
0
 10
-37.9531
 20
-41.7851
 11
-37.9844
 21
-41.7614
  0
LINE
  8
0
 10
-37.9844
 20
-41.7614
 11
-38.015
 21
-41.7368
  0
LINE
  8
0
 10
-38.015
 20
-41.7368
 11
-38.0451
 21
-41.7115
  0
LINE
  8
0
 10
-38.0451
 20
-41.7115
 11
-38.0745
 21
-41.6855
  0
LINE
  8
0
 10
-38.0745
 20
-41.6855
 11
-38.1033
 21
-41.6588
  0
LINE
  8
0
 10
-38.1033
 20
-41.6588
 11
-38.1314
 21
-41.6314
  0
LINE
  8
0
 10
-38.1314
 20
-41.6314
 11
-38.1588
 21
-41.6033
  0
LINE
  8
0
 10
-38.1588
 20
-41.6033
 11
-38.1855
 21
-41.5745
  0
LINE
  8
0
 10
-38.1855
 20
-41.5745
 11
-38.2115
 21
-41.5451
  0
LINE
  8
0
 10
-38.2115
 20
-41.5451
 11
-38.2368
 21
-41.515
  0
LINE
  8
0
 10
-38.2368
 20
-41.515
 11
-38.25
 21
-41.4986
  0
LINE
  8
0
 10
-38.25
 20
-41.4986
 11
-38.25
 21
-41.2
  0
LINE
  8
0
 10
-38.25
 20
-41.2
 11
-38.4386
 21
-41.2
  0
LINE
  8
0
 10
-38.4386
 20
-41.2
 11
-38.4464
 21
-41.1841
  0
LINE
  8
0
 10
-38.4464
 20
-41.1841
 11
-38.4627
 21
-41.1484
  0
LINE
  8
0
 10
-38.4627
 20
-41.1484
 11
-38.4782
 21
-41.1123
  0
LINE
  8
0
 10
-38.4782
 20
-41.1123
 11
-38.4928
 21
-41.0758
  0
LINE
  8
0
 10
-38.4928
 20
-41.0758
 11
-38.5065
 21
-41.039
  0
LINE
  8
0
 10
-38.5065
 20
-41.039
 11
-38.5192
 21
-41.0019
  0
LINE
  8
0
 10
-38.5192
 20
-41.0019
 11
-38.5311
 21
-40.9644
  0
LINE
  8
0
 10
-38.5311
 20
-40.9644
 11
-38.542
 21
-40.9267
  0
LINE
  8
0
 10
-38.542
 20
-40.9267
 11
-38.552
 21
-40.8888
  0
LINE
  8
0
 10
-38.552
 20
-40.8888
 11
-38.5611
 21
-40.8506
  0
LINE
  8
0
 10
-38.5611
 20
-40.8506
 11
-38.5692
 21
-40.8121
  0
LINE
  8
0
 10
-38.5692
 20
-40.8121
 11
-38.5764
 21
-40.7735
  0
LINE
  8
0
 10
-38.5764
 20
-40.7735
 11
-38.5827
 21
-40.7348
  0
LINE
  8
0
 10
-38.5827
 20
-40.7348
 11
-38.588
 21
-40.6958
  0
LINE
  8
0
 10
-38.588
 20
-40.6958
 11
-38.5923
 21
-40.6568
  0
LINE
  8
0
 10
-38.5923
 20
-40.6568
 11
-38.5957
 21
-40.6177
  0
LINE
  8
0
 10
-38.5957
 20
-40.6177
 11
-38.5981
 21
-40.5785
  0
LINE
  8
0
 10
-38.5981
 20
-40.5785
 11
-38.5995
 21
-40.5393
  0
LINE
  8
0
 10
-38.5995
 20
-40.5393
 11
-38.6
 21
-40.5
  0
LINE
  8
0
 10
-38.6
 20
-40.5
 11
-38.5995
 21
-40.4607
  0
LINE
  8
0
 10
-38.5995
 20
-40.4607
 11
-38.5981
 21
-40.4215
  0
LINE
  8
0
 10
-38.5981
 20
-40.4215
 11
-38.5957
 21
-40.3823
  0
LINE
  8
0
 10
-38.5957
 20
-40.3823
 11
-38.5923
 21
-40.3432
  0
LINE
  8
0
 10
-38.5923
 20
-40.3432
 11
-38.588
 21
-40.3041
  0
LINE
  8
0
 10
-38.588
 20
-40.3041
 11
-38.5827
 21
-40.2652
  0
LINE
  8
0
 10
-38.5827
 20
-40.2652
 11
-38.5764
 21
-40.2265
  0
LINE
  8
0
 10
-38.5764
 20
-40.2265
 11
-38.5692
 21
-40.1879
  0
LINE
  8
0
 10
-38.5692
 20
-40.1879
 11
-38.5611
 21
-40.1494
  0
LINE
  8
0
 10
-38.5611
 20
-40.1494
 11
-38.552
 21
-40.1112
  0
LINE
  8
0
 10
-38.552
 20
-40.1112
 11
-38.542
 21
-40.0733
  0
LINE
  8
0
 10
-38.542
 20
-40.0733
 11
-38.5311
 21
-40.0355
  0
LINE
  8
0
 10
-38.5311
 20
-40.0355
 11
-38.5192
 21
-39.9981
  0
LINE
  8
0
 10
-38.5192
 20
-39.9981
 11
-38.5065
 21
-39.961
  0
LINE
  8
0
 10
-38.5065
 20
-39.961
 11
-38.4928
 21
-39.9242
  0
LINE
  8
0
 10
-38.4928
 20
-39.9242
 11
-38.4782
 21
-39.8877
  0
LINE
  8
0
 10
-38.4782
 20
-39.8877
 11
-38.4627
 21
-39.8516
  0
LINE
  8
0
 10
-38.4627
 20
-39.8516
 11
-38.4464
 21
-39.8159
  0
LINE
  8
0
 10
-38.4464
 20
-39.8159
 11
-38.4292
 21
-39.7806
  0
LINE
  8
0
 10
-38.4292
 20
-39.7806
 11
-38.4111
 21
-39.7458
  0
LINE
  8
0
 10
-38.4111
 20
-39.7458
 11
-38.3921
 21
-39.7114
  0
LINE
  8
0
 10
-38.3921
 20
-39.7114
 11
-38.3724
 21
-39.6774
  0
LINE
  8
0
 10
-38.3724
 20
-39.6774
 11
-38.3518
 21
-39.644
  0
LINE
  8
0
 10
-38.3518
 20
-39.644
 11
-38.3304
 21
-39.6111
  0
LINE
  8
0
 10
-38.3304
 20
-39.6111
 11
-38.3081
 21
-39.5787
  0
LINE
  8
0
 10
-38.3081
 20
-39.5787
 11
-38.2851
 21
-39.5469
  0
LINE
  8
0
 10
-38.2851
 20
-39.5469
 11
-38.2614
 21
-39.5156
  0
LINE
  8
0
 10
-38.2614
 20
-39.5156
 11
-38.2368
 21
-39.485
  0
LINE
  8
0
 10
-38.2368
 20
-39.485
 11
-38.2115
 21
-39.4549
  0
LINE
  8
0
 10
-38.2115
 20
-39.4549
 11
-38.1855
 21
-39.4255
  0
LINE
  8
0
 10
-38.1855
 20
-39.4255
 11
-38.1588
 21
-39.3967
  0
LINE
  8
0
 10
-38.1588
 20
-39.3967
 11
-38.1314
 21
-39.3686
  0
LINE
  8
0
 10
-38.1314
 20
-39.3686
 11
-38.1033
 21
-39.3412
  0
LINE
  8
0
 10
-38.1033
 20
-39.3412
 11
-38.0745
 21
-39.3145
  0
LINE
  8
0
 10
-38.0745
 20
-39.3145
 11
-38.0451
 21
-39.2885
  0
LINE
  8
0
 10
-38.0451
 20
-39.2885
 11
-38.015
 21
-39.2632
  0
LINE
  8
0
 10
-38.015
 20
-39.2632
 11
-37.9844
 21
-39.2386
  0
LINE
  8
0
 10
-37.9844
 20
-39.2386
 11
-37.9531
 21
-39.2149
  0
LINE
  8
0
 10
-37.9531
 20
-39.2149
 11
-37.9213
 21
-39.1919
  0
LINE
  8
0
 10
-37.9213
 20
-39.1919
 11
-37.8889
 21
-39.1696
  0
LINE
  8
0
 10
-37.8889
 20
-39.1696
 11
-37.856
 21
-39.1482
  0
LINE
  8
0
 10
-37.856
 20
-39.1482
 11
-37.8226
 21
-39.1276
  0
LINE
  8
0
 10
-37.8226
 20
-39.1276
 11
-37.7886
 21
-39.1078
  0
LINE
  8
0
 10
-37.7886
 20
-39.1078
 11
-37.7542
 21
-39.0889
  0
LINE
  8
0
 10
-37.7542
 20
-39.0889
 11
-37.7194
 21
-39.0708
  0
LINE
  8
0
 10
-37.7194
 20
-39.0708
 11
-37.6841
 21
-39.0536
  0
LINE
  8
0
 10
-37.6841
 20
-39.0536
 11
-37.6484
 21
-39.0373
  0
LINE
  8
0
 10
-37.6484
 20
-39.0373
 11
-37.6123
 21
-39.0218
  0
LINE
  8
0
 10
-37.6123
 20
-39.0218
 11
-37.5758
 21
-39.0072
  0
LINE
  8
0
 10
-37.5758
 20
-39.0072
 11
-37.539
 21
-38.9935
  0
LINE
  8
0
 10
-37.539
 20
-38.9935
 11
-37.5019
 21
-38.9807
  0
LINE
  8
0
 10
-37.5019
 20
-38.9807
 11
-37.4644
 21
-38.9689
  0
LINE
  8
0
 10
-37.4644
 20
-38.9689
 11
-37.4267
 21
-38.9579
  0
LINE
  8
0
 10
-37.4267
 20
-38.9579
 11
-37.3888
 21
-38.948
  0
LINE
  8
0
 10
-37.3888
 20
-38.948
 11
-37.3506
 21
-38.9389
  0
LINE
  8
0
 10
-37.3506
 20
-38.9389
 11
-37.3121
 21
-38.9307
  0
LINE
  8
0
 10
-37.3121
 20
-38.9307
 11
-37.2735
 21
-38.9236
  0
LINE
  8
0
 10
-37.2735
 20
-38.9236
 11
-37.2348
 21
-38.9173
  0
LINE
  8
0
 10
-37.2348
 20
-38.9173
 11
-37.1958
 21
-38.912
  0
LINE
  8
0
 10
-37.1958
 20
-38.912
 11
-37.1568
 21
-38.9077
  0
LINE
  8
0
 10
-37.1568
 20
-38.9077
 11
-37.1177
 21
-38.9043
  0
LINE
  8
0
 10
-37.1177
 20
-38.9043
 11
-37.0785
 21
-38.9019
  0
LINE
  8
0
 10
-37.0785
 20
-38.9019
 11
-37.0393
 21
-38.9005
  0
LINE
  8
0
 10
-37.0393
 20
-38.9005
 11
-37
 21
-38.9
  0
LINE
  8
0
 10
-37
 20
-38.9
 11
-36.9607
 21
-38.9005
  0
LINE
  8
0
 10
-36.9607
 20
-38.9005
 11
-36.9215
 21
-38.9019
  0
LINE
  8
0
 10
-36.9215
 20
-38.9019
 11
-36.8823
 21
-38.9043
  0
LINE
  8
0
 10
-36.8823
 20
-38.9043
 11
-36.8432
 21
-38.9077
  0
LINE
  8
0
 10
-36.8432
 20
-38.9077
 11
-36.8041
 21
-38.912
  0
LINE
  8
0
 10
-36.8041
 20
-38.912
 11
-36.7652
 21
-38.9173
  0
LINE
  8
0
 10
-36.7652
 20
-38.9173
 11
-36.7265
 21
-38.9236
  0
LINE
  8
0
 10
-36.7265
 20
-38.9236
 11
-36.6879
 21
-38.9307
  0
LINE
  8
0
 10
-36.6879
 20
-38.9307
 11
-36.6494
 21
-38.9389
  0
LINE
  8
0
 10
-36.6494
 20
-38.9389
 11
-36.6112
 21
-38.948
  0
LINE
  8
0
 10
-36.6112
 20
-38.948
 11
-36.5733
 21
-38.9579
  0
LINE
  8
0
 10
-36.5733
 20
-38.9579
 11
-36.5355
 21
-38.9689
  0
LINE
  8
0
 10
-36.5355
 20
-38.9689
 11
-36.4981
 21
-38.9807
  0
LINE
  8
0
 10
-36.4981
 20
-38.9807
 11
-36.461
 21
-38.9935
  0
LINE
  8
0
 10
-36.461
 20
-38.9935
 11
-36.4242
 21
-39.0072
  0
LINE
  8
0
 10
-36.4242
 20
-39.0072
 11
-36.3877
 21
-39.0218
  0
LINE
  8
0
 10
-36.3877
 20
-39.0218
 11
-36.3516
 21
-39.0373
  0
LINE
  8
0
 10
-36.3516
 20
-39.0373
 11
-36.3159
 21
-39.0536
  0
LINE
  8
0
 10
-36.3159
 20
-39.0536
 11
-36.2806
 21
-39.0708
  0
LINE
  8
0
 10
-36.2806
 20
-39.0708
 11
-36.2458
 21
-39.0889
  0
LINE
  8
0
 10
-36.2458
 20
-39.0889
 11
-36.2114
 21
-39.1078
  0
LINE
  8
0
 10
-36.2114
 20
-39.1078
 11
-36.1774
 21
-39.1276
  0
LINE
  8
0
 10
-36.1774
 20
-39.1276
 11
-36.144
 21
-39.1482
  0
LINE
  8
0
 10
-36.144
 20
-39.1482
 11
-36.1111
 21
-39.1696
  0
LINE
  8
0
 10
-36.1111
 20
-39.1696
 11
-36.0787
 21
-39.1919
  0
LINE
  8
0
 10
-36.0787
 20
-39.1919
 11
-36.0469
 21
-39.2149
  0
LINE
  8
0
 10
-36.0469
 20
-39.2149
 11
-36.0156
 21
-39.2386
  0
LINE
  8
0
 10
-36.0156
 20
-39.2386
 11
-35.985
 21
-39.2632
  0
LINE
  8
0
 10
-35.985
 20
-39.2632
 11
-35.9549
 21
-39.2885
  0
LINE
  8
0
 10
-35.9549
 20
-39.2885
 11
-35.9255
 21
-39.3145
  0
LINE
  8
0
 10
-35.9255
 20
-39.3145
 11
-35.8967
 21
-39.3412
  0
LINE
  8
0
 10
-35.8967
 20
-39.3412
 11
-35.8686
 21
-39.3686
  0
LINE
  8
0
 10
-35.8686
 20
-39.3686
 11
-35.8412
 21
-39.3967
  0
LINE
  8
0
 10
-35.8412
 20
-39.3967
 11
-35.8145
 21
-39.4255
  0
LINE
  8
0
 10
-35.8145
 20
-39.4255
 11
-35.7885
 21
-39.4549
  0
LINE
  8
0
 10
-35.7885
 20
-39.4549
 11
-35.7632
 21
-39.485
  0
LINE
  8
0
 10
-35.7632
 20
-39.485
 11
-35.7386
 21
-39.5156
  0
LINE
  8
0
 10
-35.7386
 20
-39.5156
 11
-35.7149
 21
-39.5469
  0
LINE
  8
0
 10
-35.7149
 20
-39.5469
 11
-35.6919
 21
-39.5787
  0
LINE
  8
0
 10
-35.6919
 20
-39.5787
 11
-35.6696
 21
-39.6111
  0
LINE
  8
0
 10
-35.6696
 20
-39.6111
 11
-35.6482
 21
-39.644
  0
LINE
  8
0
 10
-35.6482
 20
-39.644
 11
-35.6276
 21
-39.6774
  0
LINE
  8
0
 10
-35.6276
 20
-39.6774
 11
-35.6078
 21
-39.7114
  0
LINE
  8
0
 10
-35.6078
 20
-39.7114
 11
-35.5889
 21
-39.7458
  0
LINE
  8
0
 10
-35.5889
 20
-39.7458
 11
-35.5708
 21
-39.7806
  0
LINE
  8
0
 10
-35.5708
 20
-39.7806
 11
-35.5536
 21
-39.8159
  0
LINE
  8
0
 10
-35.5536
 20
-39.8159
 11
-35.5373
 21
-39.8516
  0
LINE
  8
0
 10
-35.5373
 20
-39.8516
 11
-35.5218
 21
-39.8877
  0
LINE
  8
0
 10
-35.5218
 20
-39.8877
 11
-35.5072
 21
-39.9242
  0
LINE
  8
0
 10
-35.5072
 20
-39.9242
 11
-35.4935
 21
-39.961
  0
LINE
  8
0
 10
-35.4935
 20
-39.961
 11
-35.4807
 21
-39.9981
  0
LINE
  8
0
 10
-35.4807
 20
-39.9981
 11
-35.4689
 21
-40.0355
  0
LINE
  8
0
 10
-35.4689
 20
-40.0355
 11
-35.4579
 21
-40.0733
  0
LINE
  8
0
 10
-35.4579
 20
-40.0733
 11
-35.448
 21
-40.1112
  0
LINE
  8
0
 10
-35.448
 20
-40.1112
 11
-35.4389
 21
-40.1494
  0
LINE
  8
0
 10
-35.4389
 20
-40.1494
 11
-35.4307
 21
-40.1879
  0
LINE
  8
0
 10
-35.4307
 20
-40.1879
 11
-35.4236
 21
-40.2265
  0
LINE
  8
0
 10
-35.4236
 20
-40.2265
 11
-35.4173
 21
-40.2652
  0
LINE
  8
0
 10
-35.4173
 20
-40.2652
 11
-35.412
 21
-40.3041
  0
LINE
  8
0
 10
-35.412
 20
-40.3041
 11
-35.4077
 21
-40.3432
  0
LINE
  8
0
 10
-35.4077
 20
-40.3432
 11
-35.4043
 21
-40.3823
  0
LINE
  8
0
 10
-35.4043
 20
-40.3823
 11
-35.4019
 21
-40.4215
  0
LINE
  8
0
 10
-35.4019
 20
-40.4215
 11
-35.4005
 21
-40.4607
  0
LINE
  8
0
 10
-35.4005
 20
-40.4607
 11
-35.4
 21
-40.5
  0
LINE
  8
0
 10
-35.4
 20
-40.5
 11
-35.4005
 21
-40.5393
  0
LINE
  8
0
 10
-35.4005
 20
-40.5393
 11
-35.4019
 21
-40.5785
  0
LINE
  8
0
 10
-35.4019
 20
-40.5785
 11
-35.4043
 21
-40.6177
  0
LINE
  8
0
 10
-35.4043
 20
-40.6177
 11
-35.4077
 21
-40.6568
  0
LINE
  8
0
 10
-35.4077
 20
-40.6568
 11
-35.412
 21
-40.6958
  0
LINE
  8
0
 10
-35.412
 20
-40.6958
 11
-35.4173
 21
-40.7348
  0
LINE
  8
0
 10
-35.4173
 20
-40.7348
 11
-35.4236
 21
-40.7735
  0
LINE
  8
0
 10
-35.4236
 20
-40.7735
 11
-35.4307
 21
-40.8121
  0
LINE
  8
0
 10
-35.4307
 20
-40.8121
 11
-35.4389
 21
-40.8506
  0
LINE
  8
0
 10
-35.4389
 20
-40.8506
 11
-35.448
 21
-40.8888
  0
LINE
  8
0
 10
-35.448
 20
-40.8888
 11
-35.4579
 21
-40.9267
  0
LINE
  8
0
 10
-35.4579
 20
-40.9267
 11
-35.4689
 21
-40.9644
  0
LINE
  8
0
 10
-35.4689
 20
-40.9644
 11
-35.4807
 21
-41.0019
  0
LINE
  8
0
 10
-35.4807
 20
-41.0019
 11
-35.4935
 21
-41.039
  0
LINE
  8
0
 10
-35.4935
 20
-41.039
 11
-35.5072
 21
-41.0758
  0
LINE
  8
0
 10
-35.5072
 20
-41.0758
 11
-35.5218
 21
-41.1123
  0
LINE
  8
0
 10
-35.5218
 20
-41.1123
 11
-35.5373
 21
-41.1484
  0
LINE
  8
0
 10
-35.5373
 20
-41.1484
 11
-35.5536
 21
-41.1841
  0
LINE
  8
0
 10
-35.5536
 20
-41.1841
 11
-35.5708
 21
-41.2194
  0
LINE
  8
0
 10
-35.5708
 20
-41.2194
 11
-35.5889
 21
-41.2542
  0
LINE
  8
0
 10
-35.5889
 20
-41.2542
 11
-35.6078
 21
-41.2886
  0
LINE
  8
0
 10
-35.6078
 20
-41.2886
 11
-35.6276
 21
-41.3226
  0
LINE
  8
0
 10
-35.6276
 20
-41.3226
 11
-35.6482
 21
-41.356
  0
LINE
  8
0
 10
-35.6482
 20
-41.356
 11
-35.6696
 21
-41.3889
  0
LINE
  8
0
 10
-35.6696
 20
-41.3889
 11
-35.6919
 21
-41.4213
  0
LINE
  8
0
 10
-35.6919
 20
-41.4213
 11
-35.7149
 21
-41.4531
  0
LINE
  8
0
 10
-35.7149
 20
-41.4531
 11
-35.7386
 21
-41.4844
  0
LINE
  8
0
 10
-35.7386
 20
-41.4844
 11
-35.7632
 21
-41.515
  0
LINE
  8
0
 10
-35.7632
 20
-41.515
 11
-35.7885
 21
-41.5451
  0
LINE
  8
0
 10
-35.7885
 20
-41.5451
 11
-35.8145
 21
-41.5745
  0
LINE
  8
0
 10
-35.8145
 20
-41.5745
 11
-35.8412
 21
-41.6033
  0
LINE
  8
0
 10
-35.8412
 20
-41.6033
 11
-35.8686
 21
-41.6314
  0
LINE
  8
0
 10
-35.8686
 20
-41.6314
 11
-35.8967
 21
-41.6588
  0
LINE
  8
0
 10
-35.8967
 20
-41.6588
 11
-35.9255
 21
-41.6855
  0
LINE
  8
0
 10
-35.9255
 20
-41.6855
 11
-35.9549
 21
-41.7115
  0
LINE
  8
0
 10
-35.9549
 20
-41.7115
 11
-35.985
 21
-41.7368
  0
LINE
  8
0
 10
-35.985
 20
-41.7368
 11
-36.0156
 21
-41.7614
  0
LINE
  8
0
 10
-36.0156
 20
-41.7614
 11
-36.0469
 21
-41.7851
  0
LINE
  8
0
 10
-36.0469
 20
-41.7851
 11
-36.0787
 21
-41.8081
  0
LINE
  8
0
 10
-36.0787
 20
-41.8081
 11
-36.1111
 21
-41.8304
  0
LINE
  8
0
 10
-36.1111
 20
-41.8304
 11
-36.144
 21
-41.8518
  0
LINE
  8
0
 10
-36.144
 20
-41.8518
 11
-36.1774
 21
-41.8724
  0
LINE
  8
0
 10
-36.1774
 20
-41.8724
 11
-36.2114
 21
-41.8921
  0
LINE
  8
0
 10
-36.2114
 20
-41.8921
 11
-36.2458
 21
-41.9111
  0
LINE
  8
0
 10
-36.2458
 20
-41.9111
 11
-36.2806
 21
-41.9292
  0
LINE
  8
0
 10
-36.2806
 20
-41.9292
 11
-36.3159
 21
-41.9464
  0
LINE
  8
0
 10
-36.3159
 20
-41.9464
 11
-36.3516
 21
-41.9627
  0
LINE
  8
0
 10
-36.3516
 20
-41.9627
 11
-36.3877
 21
-41.9782
  0
LINE
  8
0
 10
-36.3877
 20
-41.9782
 11
-36.4242
 21
-41.9928
  0
LINE
  8
0
 10
-36.4242
 20
-41.9928
 11
-36.461
 21
-42.0065
  0
LINE
  8
0
 10
-36.461
 20
-42.0065
 11
-36.4981
 21
-42.0192
  0
LINE
  8
0
 10
-36.4981
 20
-42.0192
 11
-36.5355
 21
-42.0311
  0
LINE
  8
0
 10
-36.5355
 20
-42.0311
 11
-36.5733
 21
-42.042
  0
LINE
  8
0
 10
-36.5733
 20
-42.042
 11
-36.6112
 21
-42.052
  0
LINE
  8
0
 10
-36.6112
 20
-42.052
 11
-36.6494
 21
-42.0611
  0
LINE
  8
0
 10
-36.6494
 20
-42.0611
 11
-36.6879
 21
-42.0692
  0
LINE
  8
0
 10
-36.6879
 20
-42.0692
 11
-36.7265
 21
-42.0764
  0
LINE
  8
0
 10
-36.7265
 20
-42.0764
 11
-36.7652
 21
-42.0827
  0
LINE
  8
0
 10
-36.7652
 20
-42.0827
 11
-36.8041
 21
-42.088
  0
LINE
  8
0
 10
-36.8041
 20
-42.088
 11
-36.8432
 21
-42.0923
  0
LINE
  8
0
 10
-36.8432
 20
-42.0923
 11
-36.8823
 21
-42.0957
  0
LINE
  8
0
 10
-36.8823
 20
-42.0957
 11
-36.9215
 21
-42.0981
  0
LINE
  8
0
 10
-36.9215
 20
-42.0981
 11
-36.9607
 21
-42.0995
  0
LINE
  8
0
 10
-36.9607
 20
-42.0995
 11
-37
 21
-42.1
  0
LINE
  8
0
 10
-37
 20
-42.1
 11
-37.0393
 21
-42.0995
  0
LINE
  8
0
 10
36.9607
 20
-42.0995
 11
36.9215
 21
-42.0981
  0
LINE
  8
0
 10
36.9215
 20
-42.0981
 11
36.8823
 21
-42.0957
  0
LINE
  8
0
 10
36.8823
 20
-42.0957
 11
36.8432
 21
-42.0923
  0
LINE
  8
0
 10
36.8432
 20
-42.0923
 11
36.8041
 21
-42.088
  0
LINE
  8
0
 10
36.8041
 20
-42.088
 11
36.7652
 21
-42.0827
  0
LINE
  8
0
 10
36.7652
 20
-42.0827
 11
36.7265
 21
-42.0764
  0
LINE
  8
0
 10
36.7265
 20
-42.0764
 11
36.6879
 21
-42.0692
  0
LINE
  8
0
 10
36.6879
 20
-42.0692
 11
36.6494
 21
-42.0611
  0
LINE
  8
0
 10
36.6494
 20
-42.0611
 11
36.6112
 21
-42.052
  0
LINE
  8
0
 10
36.6112
 20
-42.052
 11
36.5733
 21
-42.042
  0
LINE
  8
0
 10
36.5733
 20
-42.042
 11
36.5355
 21
-42.0311
  0
LINE
  8
0
 10
36.5355
 20
-42.0311
 11
36.4981
 21
-42.0192
  0
LINE
  8
0
 10
36.4981
 20
-42.0192
 11
36.461
 21
-42.0065
  0
LINE
  8
0
 10
36.461
 20
-42.0065
 11
36.4242
 21
-41.9928
  0
LINE
  8
0
 10
36.4242
 20
-41.9928
 11
36.3877
 21
-41.9782
  0
LINE
  8
0
 10
36.3877
 20
-41.9782
 11
36.3516
 21
-41.9627
  0
LINE
  8
0
 10
36.3516
 20
-41.9627
 11
36.3159
 21
-41.9464
  0
LINE
  8
0
 10
36.3159
 20
-41.9464
 11
36.2806
 21
-41.9292
  0
LINE
  8
0
 10
36.2806
 20
-41.9292
 11
36.2458
 21
-41.9111
  0
LINE
  8
0
 10
36.2458
 20
-41.9111
 11
36.2114
 21
-41.8921
  0
LINE
  8
0
 10
36.2114
 20
-41.8921
 11
36.1774
 21
-41.8724
  0
LINE
  8
0
 10
36.1774
 20
-41.8724
 11
36.144
 21
-41.8518
  0
LINE
  8
0
 10
36.144
 20
-41.8518
 11
36.1111
 21
-41.8304
  0
LINE
  8
0
 10
36.1111
 20
-41.8304
 11
36.0787
 21
-41.8081
  0
LINE
  8
0
 10
36.0787
 20
-41.8081
 11
36.0469
 21
-41.7851
  0
LINE
  8
0
 10
36.0469
 20
-41.7851
 11
36.0156
 21
-41.7614
  0
LINE
  8
0
 10
36.0156
 20
-41.7614
 11
35.985
 21
-41.7368
  0
LINE
  8
0
 10
35.985
 20
-41.7368
 11
35.9549
 21
-41.7115
  0
LINE
  8
0
 10
35.9549
 20
-41.7115
 11
35.9255
 21
-41.6855
  0
LINE
  8
0
 10
35.9255
 20
-41.6855
 11
35.8967
 21
-41.6588
  0
LINE
  8
0
 10
35.8967
 20
-41.6588
 11
35.8686
 21
-41.6314
  0
LINE
  8
0
 10
35.8686
 20
-41.6314
 11
35.8412
 21
-41.6033
  0
LINE
  8
0
 10
35.8412
 20
-41.6033
 11
35.8145
 21
-41.5745
  0
LINE
  8
0
 10
35.8145
 20
-41.5745
 11
35.7885
 21
-41.5451
  0
LINE
  8
0
 10
35.7885
 20
-41.5451
 11
35.7632
 21
-41.515
  0
LINE
  8
0
 10
35.7632
 20
-41.515
 11
35.7386
 21
-41.4844
  0
LINE
  8
0
 10
35.7386
 20
-41.4844
 11
35.7149
 21
-41.4531
  0
LINE
  8
0
 10
35.7149
 20
-41.4531
 11
35.6919
 21
-41.4213
  0
LINE
  8
0
 10
35.6919
 20
-41.4213
 11
35.6696
 21
-41.3889
  0
LINE
  8
0
 10
35.6696
 20
-41.3889
 11
35.6482
 21
-41.356
  0
LINE
  8
0
 10
35.6482
 20
-41.356
 11
35.6276
 21
-41.3226
  0
LINE
  8
0
 10
35.6276
 20
-41.3226
 11
35.6078
 21
-41.2886
  0
LINE
  8
0
 10
35.6078
 20
-41.2886
 11
35.5889
 21
-41.2542
  0
LINE
  8
0
 10
35.5889
 20
-41.2542
 11
35.5708
 21
-41.2194
  0
LINE
  8
0
 10
35.5708
 20
-41.2194
 11
35.5536
 21
-41.1841
  0
LINE
  8
0
 10
35.5536
 20
-41.1841
 11
35.5373
 21
-41.1484
  0
LINE
  8
0
 10
35.5373
 20
-41.1484
 11
35.5218
 21
-41.1123
  0
LINE
  8
0
 10
35.5218
 20
-41.1123
 11
35.5072
 21
-41.0758
  0
LINE
  8
0
 10
35.5072
 20
-41.0758
 11
35.4935
 21
-41.039
  0
LINE
  8
0
 10
35.4935
 20
-41.039
 11
35.4807
 21
-41.0019
  0
LINE
  8
0
 10
35.4807
 20
-41.0019
 11
35.4689
 21
-40.9644
  0
LINE
  8
0
 10
35.4689
 20
-40.9644
 11
35.4579
 21
-40.9267
  0
LINE
  8
0
 10
35.4579
 20
-40.9267
 11
35.448
 21
-40.8888
  0
LINE
  8
0
 10
35.448
 20
-40.8888
 11
35.4389
 21
-40.8506
  0
LINE
  8
0
 10
35.4389
 20
-40.8506
 11
35.4307
 21
-40.8121
  0
LINE
  8
0
 10
35.4307
 20
-40.8121
 11
35.4236
 21
-40.7735
  0
LINE
  8
0
 10
35.4236
 20
-40.7735
 11
35.4173
 21
-40.7348
  0
LINE
  8
0
 10
35.4173
 20
-40.7348
 11
35.412
 21
-40.6958
  0
LINE
  8
0
 10
35.412
 20
-40.6958
 11
35.4077
 21
-40.6568
  0
LINE
  8
0
 10
35.4077
 20
-40.6568
 11
35.4043
 21
-40.6177
  0
LINE
  8
0
 10
35.4043
 20
-40.6177
 11
35.4019
 21
-40.5785
  0
LINE
  8
0
 10
35.4019
 20
-40.5785
 11
35.4005
 21
-40.5393
  0
LINE
  8
0
 10
35.4005
 20
-40.5393
 11
35.4
 21
-40.5
  0
LINE
  8
0
 10
35.4
 20
-40.5
 11
35.4005
 21
-40.4607
  0
LINE
  8
0
 10
35.4005
 20
-40.4607
 11
35.4019
 21
-40.4215
  0
LINE
  8
0
 10
35.4019
 20
-40.4215
 11
35.4043
 21
-40.3823
  0
LINE
  8
0
 10
35.4043
 20
-40.3823
 11
35.4077
 21
-40.3432
  0
LINE
  8
0
 10
35.4077
 20
-40.3432
 11
35.412
 21
-40.3041
  0
LINE
  8
0
 10
35.412
 20
-40.3041
 11
35.4173
 21
-40.2652
  0
LINE
  8
0
 10
35.4173
 20
-40.2652
 11
35.4236
 21
-40.2265
  0
LINE
  8
0
 10
35.4236
 20
-40.2265
 11
35.4307
 21
-40.1879
  0
LINE
  8
0
 10
35.4307
 20
-40.1879
 11
35.4389
 21
-40.1494
  0
LINE
  8
0
 10
35.4389
 20
-40.1494
 11
35.448
 21
-40.1112
  0
LINE
  8
0
 10
35.448
 20
-40.1112
 11
35.4579
 21
-40.0733
  0
LINE
  8
0
 10
35.4579
 20
-40.0733
 11
35.4689
 21
-40.0355
  0
LINE
  8
0
 10
35.4689
 20
-40.0355
 11
35.4807
 21
-39.9981
  0
LINE
  8
0
 10
35.4807
 20
-39.9981
 11
35.4935
 21
-39.961
  0
LINE
  8
0
 10
35.4935
 20
-39.961
 11
35.5072
 21
-39.9242
  0
LINE
  8
0
 10
35.5072
 20
-39.9242
 11
35.5218
 21
-39.8877
  0
LINE
  8
0
 10
35.5218
 20
-39.8877
 11
35.5373
 21
-39.8516
  0
LINE
  8
0
 10
35.5373
 20
-39.8516
 11
35.5536
 21
-39.8159
  0
LINE
  8
0
 10
35.5536
 20
-39.8159
 11
35.5708
 21
-39.7806
  0
LINE
  8
0
 10
35.5708
 20
-39.7806
 11
35.5889
 21
-39.7458
  0
LINE
  8
0
 10
35.5889
 20
-39.7458
 11
35.6078
 21
-39.7114
  0
LINE
  8
0
 10
35.6078
 20
-39.7114
 11
35.6276
 21
-39.6774
  0
LINE
  8
0
 10
35.6276
 20
-39.6774
 11
35.6482
 21
-39.644
  0
LINE
  8
0
 10
35.6482
 20
-39.644
 11
35.6696
 21
-39.6111
  0
LINE
  8
0
 10
35.6696
 20
-39.6111
 11
35.6919
 21
-39.5787
  0
LINE
  8
0
 10
35.6919
 20
-39.5787
 11
35.7149
 21
-39.5469
  0
LINE
  8
0
 10
35.7149
 20
-39.5469
 11
35.7386
 21
-39.5156
  0
LINE
  8
0
 10
35.7386
 20
-39.5156
 11
35.7632
 21
-39.485
  0
LINE
  8
0
 10
35.7632
 20
-39.485
 11
35.7885
 21
-39.4549
  0
LINE
  8
0
 10
35.7885
 20
-39.4549
 11
35.8145
 21
-39.4255
  0
LINE
  8
0
 10
35.8145
 20
-39.4255
 11
35.8412
 21
-39.3967
  0
LINE
  8
0
 10
35.8412
 20
-39.3967
 11
35.8686
 21
-39.3686
  0
LINE
  8
0
 10
35.8686
 20
-39.3686
 11
35.8967
 21
-39.3412
  0
LINE
  8
0
 10
35.8967
 20
-39.3412
 11
35.9255
 21
-39.3145
  0
LINE
  8
0
 10
35.9255
 20
-39.3145
 11
35.9549
 21
-39.2885
  0
LINE
  8
0
 10
35.9549
 20
-39.2885
 11
35.985
 21
-39.2632
  0
LINE
  8
0
 10
35.985
 20
-39.2632
 11
36.0156
 21
-39.2386
  0
LINE
  8
0
 10
36.0156
 20
-39.2386
 11
36.0469
 21
-39.2149
  0
LINE
  8
0
 10
36.0469
 20
-39.2149
 11
36.0787
 21
-39.1919
  0
LINE
  8
0
 10
36.0787
 20
-39.1919
 11
36.1111
 21
-39.1696
  0
LINE
  8
0
 10
36.1111
 20
-39.1696
 11
36.144
 21
-39.1482
  0
LINE
  8
0
 10
36.144
 20
-39.1482
 11
36.1774
 21
-39.1276
  0
LINE
  8
0
 10
36.1774
 20
-39.1276
 11
36.2114
 21
-39.1078
  0
LINE
  8
0
 10
36.2114
 20
-39.1078
 11
36.2458
 21
-39.0889
  0
LINE
  8
0
 10
36.2458
 20
-39.0889
 11
36.2806
 21
-39.0708
  0
LINE
  8
0
 10
36.2806
 20
-39.0708
 11
36.3159
 21
-39.0536
  0
LINE
  8
0
 10
36.3159
 20
-39.0536
 11
36.3516
 21
-39.0373
  0
LINE
  8
0
 10
36.3516
 20
-39.0373
 11
36.3877
 21
-39.0218
  0
LINE
  8
0
 10
36.3877
 20
-39.0218
 11
36.4242
 21
-39.0072
  0
LINE
  8
0
 10
36.4242
 20
-39.0072
 11
36.461
 21
-38.9935
  0
LINE
  8
0
 10
36.461
 20
-38.9935
 11
36.4981
 21
-38.9807
  0
LINE
  8
0
 10
36.4981
 20
-38.9807
 11
36.5355
 21
-38.9689
  0
LINE
  8
0
 10
36.5355
 20
-38.9689
 11
36.5733
 21
-38.9579
  0
LINE
  8
0
 10
36.5733
 20
-38.9579
 11
36.6112
 21
-38.948
  0
LINE
  8
0
 10
36.6112
 20
-38.948
 11
36.6494
 21
-38.9389
  0
LINE
  8
0
 10
36.6494
 20
-38.9389
 11
36.6879
 21
-38.9307
  0
LINE
  8
0
 10
36.6879
 20
-38.9307
 11
36.7265
 21
-38.9236
  0
LINE
  8
0
 10
36.7265
 20
-38.9236
 11
36.7652
 21
-38.9173
  0
LINE
  8
0
 10
36.7652
 20
-38.9173
 11
36.8041
 21
-38.912
  0
LINE
  8
0
 10
36.8041
 20
-38.912
 11
36.8432
 21
-38.9077
  0
LINE
  8
0
 10
36.8432
 20
-38.9077
 11
36.8823
 21
-38.9043
  0
LINE
  8
0
 10
36.8823
 20
-38.9043
 11
36.9215
 21
-38.9019
  0
LINE
  8
0
 10
36.9215
 20
-38.9019
 11
36.9607
 21
-38.9005
  0
LINE
  8
0
 10
36.9607
 20
-38.9005
 11
37
 21
-38.9
  0
LINE
  8
0
 10
37
 20
-38.9
 11
37.0393
 21
-38.9005
  0
LINE
  8
0
 10
37.0393
 20
-38.9005
 11
37.0785
 21
-38.9019
  0
LINE
  8
0
 10
37.0785
 20
-38.9019
 11
37.1177
 21
-38.9043
  0
LINE
  8
0
 10
37.1177
 20
-38.9043
 11
37.1568
 21
-38.9077
  0
LINE
  8
0
 10
37.1568
 20
-38.9077
 11
37.1958
 21
-38.912
  0
LINE
  8
0
 10
37.1958
 20
-38.912
 11
37.2348
 21
-38.9173
  0
LINE
  8
0
 10
37.2348
 20
-38.9173
 11
37.2735
 21
-38.9236
  0
LINE
  8
0
 10
37.2735
 20
-38.9236
 11
37.3121
 21
-38.9307
  0
LINE
  8
0
 10
37.3121
 20
-38.9307
 11
37.3506
 21
-38.9389
  0
LINE
  8
0
 10
37.3506
 20
-38.9389
 11
37.3888
 21
-38.948
  0
LINE
  8
0
 10
37.3888
 20
-38.948
 11
37.4267
 21
-38.9579
  0
LINE
  8
0
 10
37.4267
 20
-38.9579
 11
37.4644
 21
-38.9689
  0
LINE
  8
0
 10
37.4644
 20
-38.9689
 11
37.5019
 21
-38.9807
  0
LINE
  8
0
 10
37.5019
 20
-38.9807
 11
37.539
 21
-38.9935
  0
LINE
  8
0
 10
37.539
 20
-38.9935
 11
37.5758
 21
-39.0072
  0
LINE
  8
0
 10
37.5758
 20
-39.0072
 11
37.6123
 21
-39.0218
  0
LINE
  8
0
 10
37.6123
 20
-39.0218
 11
37.6484
 21
-39.0373
  0
LINE
  8
0
 10
37.6484
 20
-39.0373
 11
37.6841
 21
-39.0536
  0
LINE
  8
0
 10
37.6841
 20
-39.0536
 11
37.7194
 21
-39.0708
  0
LINE
  8
0
 10
37.7194
 20
-39.0708
 11
37.7542
 21
-39.0889
  0
LINE
  8
0
 10
37.7542
 20
-39.0889
 11
37.7886
 21
-39.1078
  0
LINE
  8
0
 10
37.7886
 20
-39.1078
 11
37.8226
 21
-39.1276
  0
LINE
  8
0
 10
37.8226
 20
-39.1276
 11
37.856
 21
-39.1482
  0
LINE
  8
0
 10
37.856
 20
-39.1482
 11
37.8889
 21
-39.1696
  0
LINE
  8
0
 10
37.8889
 20
-39.1696
 11
37.9213
 21
-39.1919
  0
LINE
  8
0
 10
37.9213
 20
-39.1919
 11
37.9531
 21
-39.2149
  0
LINE
  8
0
 10
37.9531
 20
-39.2149
 11
37.9844
 21
-39.2386
  0
LINE
  8
0
 10
37.9844
 20
-39.2386
 11
38.015
 21
-39.2632
  0
LINE
  8
0
 10
38.015
 20
-39.2632
 11
38.0451
 21
-39.2885
  0
LINE
  8
0
 10
38.0451
 20
-39.2885
 11
38.0745
 21
-39.3145
  0
LINE
  8
0
 10
38.0745
 20
-39.3145
 11
38.1033
 21
-39.3412
  0
LINE
  8
0
 10
38.1033
 20
-39.3412
 11
38.1314
 21
-39.3686
  0
LINE
  8
0
 10
38.1314
 20
-39.3686
 11
38.1588
 21
-39.3967
  0
LINE
  8
0
 10
38.1588
 20
-39.3967
 11
38.1855
 21
-39.4255
  0
LINE
  8
0
 10
38.1855
 20
-39.4255
 11
38.2115
 21
-39.4549
  0
LINE
  8
0
 10
38.2115
 20
-39.4549
 11
38.2368
 21
-39.485
  0
LINE
  8
0
 10
38.2368
 20
-39.485
 11
38.2614
 21
-39.5156
  0
LINE
  8
0
 10
38.2614
 20
-39.5156
 11
38.2851
 21
-39.5469
  0
LINE
  8
0
 10
38.2851
 20
-39.5469
 11
38.3081
 21
-39.5787
  0
LINE
  8
0
 10
38.3081
 20
-39.5787
 11
38.3304
 21
-39.6111
  0
LINE
  8
0
 10
38.3304
 20
-39.6111
 11
38.3518
 21
-39.644
  0
LINE
  8
0
 10
38.3518
 20
-39.644
 11
38.3724
 21
-39.6774
  0
LINE
  8
0
 10
38.3724
 20
-39.6774
 11
38.3921
 21
-39.7114
  0
LINE
  8
0
 10
38.3921
 20
-39.7114
 11
38.4111
 21
-39.7458
  0
LINE
  8
0
 10
38.4111
 20
-39.7458
 11
38.4292
 21
-39.7806
  0
LINE
  8
0
 10
38.4292
 20
-39.7806
 11
38.4464
 21
-39.8159
  0
LINE
  8
0
 10
38.4464
 20
-39.8159
 11
38.4627
 21
-39.8516
  0
LINE
  8
0
 10
38.4627
 20
-39.8516
 11
38.4782
 21
-39.8877
  0
LINE
  8
0
 10
38.4782
 20
-39.8877
 11
38.4928
 21
-39.9242
  0
LINE
  8
0
 10
38.4928
 20
-39.9242
 11
38.5065
 21
-39.961
  0
LINE
  8
0
 10
38.5065
 20
-39.961
 11
38.5192
 21
-39.9981
  0
LINE
  8
0
 10
38.5192
 20
-39.9981
 11
38.5311
 21
-40.0355
  0
LINE
  8
0
 10
38.5311
 20
-40.0355
 11
38.542
 21
-40.0733
  0
LINE
  8
0
 10
38.542
 20
-40.0733
 11
38.552
 21
-40.1112
  0
LINE
  8
0
 10
38.552
 20
-40.1112
 11
38.5611
 21
-40.1494
  0
LINE
  8
0
 10
38.5611
 20
-40.1494
 11
38.5692
 21
-40.1879
  0
LINE
  8
0
 10
38.5692
 20
-40.1879
 11
38.5764
 21
-40.2265
  0
LINE
  8
0
 10
38.5764
 20
-40.2265
 11
38.5827
 21
-40.2652
  0
LINE
  8
0
 10
38.5827
 20
-40.2652
 11
38.588
 21
-40.3041
  0
LINE
  8
0
 10
38.588
 20
-40.3041
 11
38.5923
 21
-40.3432
  0
LINE
  8
0
 10
38.5923
 20
-40.3432
 11
38.5957
 21
-40.3823
  0
LINE
  8
0
 10
38.5957
 20
-40.3823
 11
38.5981
 21
-40.4215
  0
LINE
  8
0
 10
38.5981
 20
-40.4215
 11
38.5995
 21
-40.4607
  0
LINE
  8
0
 10
38.5995
 20
-40.4607
 11
38.6
 21
-40.5
  0
LINE
  8
0
 10
38.6
 20
-40.5
 11
38.5995
 21
-40.5393
  0
LINE
  8
0
 10
38.5995
 20
-40.5393
 11
38.5981
 21
-40.5785
  0
LINE
  8
0
 10
38.5981
 20
-40.5785
 11
38.5957
 21
-40.6177
  0
LINE
  8
0
 10
38.5957
 20
-40.6177
 11
38.5923
 21
-40.6568
  0
LINE
  8
0
 10
38.5923
 20
-40.6568
 11
38.588
 21
-40.6958
  0
LINE
  8
0
 10
38.588
 20
-40.6958
 11
38.5827
 21
-40.7348
  0
LINE
  8
0
 10
38.5827
 20
-40.7348
 11
38.5764
 21
-40.7735
  0
LINE
  8
0
 10
38.5764
 20
-40.7735
 11
38.5692
 21
-40.8121
  0
LINE
  8
0
 10
38.5692
 20
-40.8121
 11
38.5611
 21
-40.8506
  0
LINE
  8
0
 10
38.5611
 20
-40.8506
 11
38.552
 21
-40.8888
  0
LINE
  8
0
 10
38.552
 20
-40.8888
 11
38.542
 21
-40.9267
  0
LINE
  8
0
 10
38.542
 20
-40.9267
 11
38.5311
 21
-40.9644
  0
LINE
  8
0
 10
38.5311
 20
-40.9644
 11
38.5192
 21
-41.0019
  0
LINE
  8
0
 10
38.5192
 20
-41.0019
 11
38.5065
 21
-41.039
  0
LINE
  8
0
 10
38.5065
 20
-41.039
 11
38.4928
 21
-41.0758
  0
LINE
  8
0
 10
38.4928
 20
-41.0758
 11
38.4782
 21
-41.1123
  0
LINE
  8
0
 10
38.4782
 20
-41.1123
 11
38.4627
 21
-41.1484
  0
LINE
  8
0
 10
38.4627
 20
-41.1484
 11
38.4464
 21
-41.1841
  0
LINE
  8
0
 10
38.4464
 20
-41.1841
 11
38.4386
 21
-41.2
  0
LINE
  8
0
 10
38.4386
 20
-41.2
 11
38.25
 21
-41.2
  0
LINE
  8
0
 10
38.25
 20
-41.2
 11
38.25
 21
-41.4986
  0
LINE
  8
0
 10
38.25
 20
-41.4986
 11
38.2368
 21
-41.515
  0
LINE
  8
0
 10
38.2368
 20
-41.515
 11
38.2115
 21
-41.5451
  0
LINE
  8
0
 10
38.2115
 20
-41.5451
 11
38.1855
 21
-41.5745
  0
LINE
  8
0
 10
38.1855
 20
-41.5745
 11
38.1588
 21
-41.6033
  0
LINE
  8
0
 10
38.1588
 20
-41.6033
 11
38.1314
 21
-41.6314
  0
LINE
  8
0
 10
38.1314
 20
-41.6314
 11
38.1033
 21
-41.6588
  0
LINE
  8
0
 10
38.1033
 20
-41.6588
 11
38.0745
 21
-41.6855
  0
LINE
  8
0
 10
38.0745
 20
-41.6855
 11
38.0451
 21
-41.7115
  0
LINE
  8
0
 10
38.0451
 20
-41.7115
 11
38.015
 21
-41.7368
  0
LINE
  8
0
 10
38.015
 20
-41.7368
 11
37.9844
 21
-41.7614
  0
LINE
  8
0
 10
37.9844
 20
-41.7614
 11
37.9531
 21
-41.7851
  0
LINE
  8
0
 10
37.9531
 20
-41.7851
 11
37.9213
 21
-41.8081
  0
LINE
  8
0
 10
37.9213
 20
-41.8081
 11
37.8889
 21
-41.8304
  0
LINE
  8
0
 10
37.8889
 20
-41.8304
 11
37.856
 21
-41.8518
  0
LINE
  8
0
 10
37.856
 20
-41.8518
 11
37.8226
 21
-41.8724
  0
LINE
  8
0
 10
37.8226
 20
-41.8724
 11
37.7886
 21
-41.8921
  0
LINE
  8
0
 10
37.7886
 20
-41.8921
 11
37.7542
 21
-41.9111
  0
LINE
  8
0
 10
37.7542
 20
-41.9111
 11
37.7194
 21
-41.9292
  0
LINE
  8
0
 10
37.7194
 20
-41.9292
 11
37.6841
 21
-41.9464
  0
LINE
  8
0
 10
37.6841
 20
-41.9464
 11
37.6484
 21
-41.9627
  0
LINE
  8
0
 10
37.6484
 20
-41.9627
 11
37.6123
 21
-41.9782
  0
LINE
  8
0
 10
37.6123
 20
-41.9782
 11
37.5758
 21
-41.9928
  0
LINE
  8
0
 10
37.5758
 20
-41.9928
 11
37.539
 21
-42.0065
  0
LINE
  8
0
 10
37.539
 20
-42.0065
 11
37.5019
 21
-42.0192
  0
LINE
  8
0
 10
37.5019
 20
-42.0192
 11
37.4644
 21
-42.0311
  0
LINE
  8
0
 10
37.4644
 20
-42.0311
 11
37.4267
 21
-42.042
  0
LINE
  8
0
 10
37.4267
 20
-42.042
 11
37.3888
 21
-42.052
  0
LINE
  8
0
 10
37.3888
 20
-42.052
 11
37.3506
 21
-42.0611
  0
LINE
  8
0
 10
37.3506
 20
-42.0611
 11
37.3121
 21
-42.0692
  0
LINE
  8
0
 10
37.3121
 20
-42.0692
 11
37.2735
 21
-42.0764
  0
LINE
  8
0
 10
37.2735
 20
-42.0764
 11
37.2348
 21
-42.0827
  0
LINE
  8
0
 10
37.2348
 20
-42.0827
 11
37.1958
 21
-42.088
  0
LINE
  8
0
 10
37.1958
 20
-42.088
 11
37.1568
 21
-42.0923
  0
LINE
  8
0
 10
37.1568
 20
-42.0923
 11
37.1177
 21
-42.0957
  0
LINE
  8
0
 10
37.1177
 20
-42.0957
 11
37.0785
 21
-42.0981
  0
LINE
  8
0
 10
37.0785
 20
-42.0981
 11
37.0393
 21
-42.0995
  0
LINE
  8
0
 10
37.0393
 20
-42.0995
 11
37
 21
-42.1
  0
LINE
  8
0
 10
37
 20
-42.1
 11
36.9607
 21
-42.0995
  0
LINE
  8
0
 10
-35.988
 20
-51.099
 11
-37.2312
 21
-50.2005
  0
LINE
  8
0
 10
-37.2312
 20
-50.2005
 11
-38.452
 21
-49.2717
  0
LINE
  8
0
 10
-38.452
 20
-49.2717
 11
-39.6496
 21
-48.3131
  0
LINE
  8
0
 10
-39.6496
 20
-48.3131
 11
-40.8233
 21
-47.3255
  0
LINE
  8
0
 10
-40.8233
 20
-47.3255
 11
-41.9724
 21
-46.3094
  0
LINE
  8
0
 10
-41.9724
 20
-46.3094
 11
-43.0963
 21
-45.2654
  0
LINE
  8
0
 10
-43.0963
 20
-45.2654
 11
-44.1942
 21
-44.1942
  0
LINE
  8
0
 10
-44.1942
 20
-44.1942
 11
-45.2654
 21
-43.0963
  0
LINE
  8
0
 10
-45.2654
 20
-43.0963
 11
-45.5407
 21
-42.8
  0
LINE
  8
0
 10
-45.5407
 20
-42.8
 11
-38.25
 21
-42.8
  0
LINE
  8
0
 10
-38.25
 20
-42.8
 11
-38.25
 21
-42.6649
  0
LINE
  8
0
 10
-38.25
 20
-42.6649
 11
-38.2322
 21
-42.6752
  0
LINE
  8
0
 10
-38.2322
 20
-42.6752
 11
-38.1785
 21
-42.7048
  0
LINE
  8
0
 10
-38.1785
 20
-42.7048
 11
-38.124
 21
-42.733
  0
LINE
  8
0
 10
-38.124
 20
-42.733
 11
-38.0689
 21
-42.76
  0
LINE
  8
0
 10
-38.0689
 20
-42.76
 11
-38.0131
 21
-42.7855
  0
LINE
  8
0
 10
-38.0131
 20
-42.7855
 11
-37.9567
 21
-42.8097
  0
LINE
  8
0
 10
-37.9567
 20
-42.8097
 11
-37.8997
 21
-42.8325
  0
LINE
  8
0
 10
-37.8997
 20
-42.8325
 11
-37.8422
 21
-42.8539
  0
LINE
  8
0
 10
-37.8422
 20
-42.8539
 11
-37.7842
 21
-42.8738
  0
LINE
  8
0
 10
-37.7842
 20
-42.8738
 11
-37.7257
 21
-42.8923
  0
LINE
  8
0
 10
-37.7257
 20
-42.8923
 11
-37.6668
 21
-42.9094
  0
LINE
  8
0
 10
-37.6668
 20
-42.9094
 11
-37.6074
 21
-42.9251
  0
LINE
  8
0
 10
-37.6074
 20
-42.9251
 11
-37.5477
 21
-42.9393
  0
LINE
  8
0
 10
-37.5477
 20
-42.9393
 11
-37.4877
 21
-42.952
  0
LINE
  8
0
 10
-37.4877
 20
-42.952
 11
-37.4274
 21
-42.9632
  0
LINE
  8
0
 10
-37.4274
 20
-42.9632
 11
-37.3668
 21
-42.9729
  0
LINE
  8
0
 10
-37.3668
 20
-42.9729
 11
-37.306
 21
-42.9812
  0
LINE
  8
0
 10
-37.306
 20
-42.9812
 11
-37.245
 21
-42.988
  0
LINE
  8
0
 10
-37.245
 20
-42.988
 11
-37.1839
 21
-42.9932
  0
LINE
  8
0
 10
-37.1839
 20
-42.9932
 11
-37.1227
 21
-42.997
  0
LINE
  8
0
 10
-37.1227
 20
-42.997
 11
-37.0613
 21
-42.9992
  0
LINE
  8
0
 10
-37.0613
 20
-42.9992
 11
-37
 21
-43
  0
LINE
  8
0
 10
-37
 20
-43
 11
-36.9386
 21
-42.9992
  0
LINE
  8
0
 10
-36.9386
 20
-42.9992
 11
-36.8773
 21
-42.997
  0
LINE
  8
0
 10
-36.8773
 20
-42.997
 11
-36.8161
 21
-42.9932
  0
LINE
  8
0
 10
-36.8161
 20
-42.9932
 11
-36.755
 21
-42.988
  0
LINE
  8
0
 10
-36.755
 20
-42.988
 11
-36.694
 21
-42.9812
  0
LINE
  8
0
 10
-36.694
 20
-42.9812
 11
-36.6332
 21
-42.9729
  0
LINE
  8
0
 10
-36.6332
 20
-42.9729
 11
-36.5726
 21
-42.9632
  0
LINE
  8
0
 10
-36.5726
 20
-42.9632
 11
-36.5123
 21
-42.952
  0
LINE
  8
0
 10
-36.5123
 20
-42.952
 11
-36.4522
 21
-42.9393
  0
LINE
  8
0
 10
-36.4522
 20
-42.9393
 11
-36.3925
 21
-42.9251
  0
LINE
  8
0
 10
-36.3925
 20
-42.9251
 11
-36.3332
 21
-42.9094
  0
LINE
  8
0
 10
-36.3332
 20
-42.9094
 11
-36.2743
 21
-42.8923
  0
LINE
  8
0
 10
-36.2743
 20
-42.8923
 11
-36.2158
 21
-42.8738
  0
LINE
  8
0
 10
-36.2158
 20
-42.8738
 11
-36.1578
 21
-42.8539
  0
LINE
  8
0
 10
-36.1578
 20
-42.8539
 11
-36.1003
 21
-42.8325
  0
LINE
  8
0
 10
-36.1003
 20
-42.8325
 11
-36.0433
 21
-42.8097
  0
LINE
  8
0
 10
-36.0433
 20
-42.8097
 11
-35.9869
 21
-42.7855
  0
LINE
  8
0
 10
-35.9869
 20
-42.7855
 11
-35.9311
 21
-42.76
  0
LINE
  8
0
 10
-35.9311
 20
-42.76
 11
-35.876
 21
-42.733
  0
LINE
  8
0
 10
-35.876
 20
-42.733
 11
-35.8215
 21
-42.7048
  0
LINE
  8
0
 10
-35.8215
 20
-42.7048
 11
-35.7677
 21
-42.6752
  0
LINE
  8
0
 10
-35.7677
 20
-42.6752
 11
-35.7147
 21
-42.6443
  0
LINE
  8
0
 10
-35.7147
 20
-42.6443
 11
-35.6625
 21
-42.6121
  0
LINE
  8
0
 10
-35.6625
 20
-42.6121
 11
-35.6111
 21
-42.5787
  0
LINE
  8
0
 10
-35.6111
 20
-42.5787
 11
-35.5605
 21
-42.544
  0
LINE
  8
0
 10
-35.5605
 20
-42.544
 11
-35.5107
 21
-42.508
  0
LINE
  8
0
 10
-35.5107
 20
-42.508
 11
-35.4619
 21
-42.4709
  0
LINE
  8
0
 10
-35.4619
 20
-42.4709
 11
-35.414
 21
-42.4325
  0
LINE
  8
0
 10
-35.414
 20
-42.4325
 11
-35.3671
 21
-42.393
  0
LINE
  8
0
 10
-35.3671
 20
-42.393
 11
-35.3211
 21
-42.3524
  0
LINE
  8
0
 10
-35.3211
 20
-42.3524
 11
-35.2761
 21
-42.3106
  0
LINE
  8
0
 10
-35.2761
 20
-42.3106
 11
-35.2322
 21
-42.2678
  0
LINE
  8
0
 10
-35.2322
 20
-42.2678
 11
-35.1894
 21
-42.2238
  0
LINE
  8
0
 10
-35.1894
 20
-42.2238
 11
-35.1476
 21
-42.1789
  0
LINE
  8
0
 10
-35.1476
 20
-42.1789
 11
-35.107
 21
-42.1329
  0
LINE
  8
0
 10
-35.107
 20
-42.1329
 11
-35.1
 21
-42.1246
  0
LINE
  8
0
 10
-35.1
 20
-42.1246
 11
-35.1
 21
-51.7083
  0
LINE
  8
0
 10
-35.1
 20
-51.7083
 11
-35.988
 21
-51.099
  0
LINE
  8
0
 10
35.1
 20
-42.1246
 11
35.107
 21
-42.1329
  0
LINE
  8
0
 10
35.107
 20
-42.1329
 11
35.1476
 21
-42.1789
  0
LINE
  8
0
 10
35.1476
 20
-42.1789
 11
35.1894
 21
-42.2238
  0
LINE
  8
0
 10
35.1894
 20
-42.2238
 11
35.2322
 21
-42.2678
  0
LINE
  8
0
 10
35.2322
 20
-42.2678
 11
35.2761
 21
-42.3106
  0
LINE
  8
0
 10
35.2761
 20
-42.3106
 11
35.3211
 21
-42.3524
  0
LINE
  8
0
 10
35.3211
 20
-42.3524
 11
35.3671
 21
-42.393
  0
LINE
  8
0
 10
35.3671
 20
-42.393
 11
35.414
 21
-42.4325
  0
LINE
  8
0
 10
35.414
 20
-42.4325
 11
35.4619
 21
-42.4709
  0
LINE
  8
0
 10
35.4619
 20
-42.4709
 11
35.5107
 21
-42.508
  0
LINE
  8
0
 10
35.5107
 20
-42.508
 11
35.5605
 21
-42.544
  0
LINE
  8
0
 10
35.5605
 20
-42.544
 11
35.6111
 21
-42.5787
  0
LINE
  8
0
 10
35.6111
 20
-42.5787
 11
35.6625
 21
-42.6121
  0
LINE
  8
0
 10
35.6625
 20
-42.6121
 11
35.7147
 21
-42.6443
  0
LINE
  8
0
 10
35.7147
 20
-42.6443
 11
35.7677
 21
-42.6752
  0
LINE
  8
0
 10
35.7677
 20
-42.6752
 11
35.8215
 21
-42.7048
  0
LINE
  8
0
 10
35.8215
 20
-42.7048
 11
35.876
 21
-42.733
  0
LINE
  8
0
 10
35.876
 20
-42.733
 11
35.9311
 21
-42.76
  0
LINE
  8
0
 10
35.9311
 20
-42.76
 11
35.9869
 21
-42.7855
  0
LINE
  8
0
 10
35.9869
 20
-42.7855
 11
36.0433
 21
-42.8097
  0
LINE
  8
0
 10
36.0433
 20
-42.8097
 11
36.1003
 21
-42.8325
  0
LINE
  8
0
 10
36.1003
 20
-42.8325
 11
36.1578
 21
-42.8539
  0
LINE
  8
0
 10
36.1578
 20
-42.8539
 11
36.2158
 21
-42.8738
  0
LINE
  8
0
 10
36.2158
 20
-42.8738
 11
36.2743
 21
-42.8923
  0
LINE
  8
0
 10
36.2743
 20
-42.8923
 11
36.3332
 21
-42.9094
  0
LINE
  8
0
 10
36.3332
 20
-42.9094
 11
36.3925
 21
-42.9251
  0
LINE
  8
0
 10
36.3925
 20
-42.9251
 11
36.4522
 21
-42.9393
  0
LINE
  8
0
 10
36.4522
 20
-42.9393
 11
36.5123
 21
-42.952
  0
LINE
  8
0
 10
36.5123
 20
-42.952
 11
36.5726
 21
-42.9632
  0
LINE
  8
0
 10
36.5726
 20
-42.9632
 11
36.6332
 21
-42.9729
  0
LINE
  8
0
 10
36.6332
 20
-42.9729
 11
36.694
 21
-42.9812
  0
LINE
  8
0
 10
36.694
 20
-42.9812
 11
36.755
 21
-42.988
  0
LINE
  8
0
 10
36.755
 20
-42.988
 11
36.8161
 21
-42.9932
  0
LINE
  8
0
 10
36.8161
 20
-42.9932
 11
36.8773
 21
-42.997
  0
LINE
  8
0
 10
36.8773
 20
-42.997
 11
36.9386
 21
-42.9992
  0
LINE
  8
0
 10
36.9386
 20
-42.9992
 11
37
 21
-43
  0
LINE
  8
0
 10
37
 20
-43
 11
37.0613
 21
-42.9992
  0
LINE
  8
0
 10
37.0613
 20
-42.9992
 11
37.1227
 21
-42.997
  0
LINE
  8
0
 10
37.1227
 20
-42.997
 11
37.1839
 21
-42.9932
  0
LINE
  8
0
 10
37.1839
 20
-42.9932
 11
37.245
 21
-42.988
  0
LINE
  8
0
 10
37.245
 20
-42.988
 11
37.306
 21
-42.9812
  0
LINE
  8
0
 10
37.306
 20
-42.9812
 11
37.3668
 21
-42.9729
  0
LINE
  8
0
 10
37.3668
 20
-42.9729
 11
37.4274
 21
-42.9632
  0
LINE
  8
0
 10
37.4274
 20
-42.9632
 11
37.4877
 21
-42.952
  0
LINE
  8
0
 10
37.4877
 20
-42.952
 11
37.5477
 21
-42.9393
  0
LINE
  8
0
 10
37.5477
 20
-42.9393
 11
37.6074
 21
-42.9251
  0
LINE
  8
0
 10
37.6074
 20
-42.9251
 11
37.6668
 21
-42.9094
  0
LINE
  8
0
 10
37.6668
 20
-42.9094
 11
37.7257
 21
-42.8923
  0
LINE
  8
0
 10
37.7257
 20
-42.8923
 11
37.7842
 21
-42.8738
  0
LINE
  8
0
 10
37.7842
 20
-42.8738
 11
37.8422
 21
-42.8539
  0
LINE
  8
0
 10
37.8422
 20
-42.8539
 11
37.8997
 21
-42.8325
  0
LINE
  8
0
 10
37.8997
 20
-42.8325
 11
37.9567
 21
-42.8097
  0
LINE
  8
0
 10
37.9567
 20
-42.8097
 11
38.0131
 21
-42.7855
  0
LINE
  8
0
 10
38.0131
 20
-42.7855
 11
38.0689
 21
-42.76
  0
LINE
  8
0
 10
38.0689
 20
-42.76
 11
38.124
 21
-42.733
  0
LINE
  8
0
 10
38.124
 20
-42.733
 11
38.1785
 21
-42.7048
  0
LINE
  8
0
 10
38.1785
 20
-42.7048
 11
38.2322
 21
-42.6752
  0
LINE
  8
0
 10
38.2322
 20
-42.6752
 11
38.25
 21
-42.6649
  0
LINE
  8
0
 10
38.25
 20
-42.6649
 11
38.25
 21
-42.8
  0
LINE
  8
0
 10
38.25
 20
-42.8
 11
45.5407
 21
-42.8
  0
LINE
  8
0
 10
45.5407
 20
-42.8
 11
45.2654
 21
-43.0963
  0
LINE
  8
0
 10
45.2654
 20
-43.0963
 11
44.1942
 21
-44.1942
  0
LINE
  8
0
 10
44.1942
 20
-44.1942
 11
43.0963
 21
-45.2654
  0
LINE
  8
0
 10
43.0963
 20
-45.2654
 11
41.9724
 21
-46.3094
  0
LINE
  8
0
 10
41.9724
 20
-46.3094
 11
40.8233
 21
-47.3255
  0
LINE
  8
0
 10
40.8233
 20
-47.3255
 11
39.6496
 21
-48.3131
  0
LINE
  8
0
 10
39.6496
 20
-48.3131
 11
38.452
 21
-49.2717
  0
LINE
  8
0
 10
38.452
 20
-49.2717
 11
37.2312
 21
-50.2005
  0
LINE
  8
0
 10
37.2312
 20
-50.2005
 11
35.988
 21
-51.099
  0
LINE
  8
0
 10
35.988
 20
-51.099
 11
35.1
 21
-51.7083
  0
LINE
  8
0
 10
35.1
 20
-51.7083
 11
35.1
 21
-42.1246
  0
ENDSEC
  0
SECTION
  2
OBJECTS
  0
DICTIONARY
  0
ENDSEC
  0
EOF
