M48
; DRILL file {KiCad 8.0.5} date 2024-10-28T11:28:30-0700
; FORMAT={-:-/ absolute / inch / decimal}
; #@! TF.CreationDate,2024-10-28T11:28:30-07:00
; #@! TF.GenerationSoftware,Kicad,Pcbnew,8.0.5
; #@! TF.FileFunction,Plated,1,2,PTH
FMAT,2
INCH
; #@! TA.AperFunction,Plated,PTH,ViaDrill
T1C0.0098
; #@! TA.AperFunction,Plated,PTH,ComponentDrill
T2C0.0098
; #@! TA.AperFunction,Plated,PTH,ViaDrill
T3C0.0138
; #@! TA.AperFunction,Plated,PTH,ComponentDrill
T4C0.0315
; #@! TA.AperFunction,Plated,PTH,ComponentDrill
T5C0.1181
%
G90
G05
T1
X3.8917Y-4.687
X3.9612Y-4.6358
X4.0138Y-4.8051
X4.061Y-4.7087
T2
X3.9222Y-4.6663
X3.9222Y-4.7205
X3.9222Y-4.7746
X3.9764Y-4.6663
X3.9764Y-4.7205
X3.9764Y-4.7746
X4.0305Y-4.6663
X4.0305Y-4.7205
X4.0305Y-4.7746
T3
X3.5433Y-4.7677
X3.5698Y-5.0638
X3.5699Y-5.0896
X3.623Y-5.0522
X3.624Y-5.0768
X3.628Y-4.7992
X3.6513Y-5.0888
X3.6772Y-4.4764
X3.6811Y-5.094
X3.7008Y-4.498
X3.7185Y-4.9055
X3.7205Y-4.4331
X3.7237Y-5.0678
X3.7368Y-4.6873
X3.7441Y-4.4547
X3.7559Y-4.5945
X3.7604Y-4.687
X3.7745Y-4.5302
X3.8346Y-4.4941
X3.8535Y-4.9224
X3.8567Y-4.8894
X3.8831Y-4.9228
X3.8976Y-4.5138
X3.9035Y-4.4843
X3.9161Y-4.916
X3.9272Y-4.5492
X3.9472Y-4.9812
X3.9565Y-4.9526
X3.9606Y-4.5443
X3.9606Y-5.0374
X3.9641Y-4.891
X3.9823Y-4.9191
X4.0111Y-4.5388
X4.0197Y-4.4803
X4.0374Y-4.5079
X4.0525Y-4.4806
X4.079Y-4.508
X4.1004Y-4.4823
X4.1122Y-4.4311
X4.122Y-4.8898
X4.122Y-4.9232
X4.148Y-4.6248
X4.1618Y-4.7069
X4.1696Y-4.6504
X4.1713Y-4.4547
X4.1909Y-4.5571
X4.2047Y-4.9232
X4.2049Y-4.6721
X4.2146Y-5.0827
X4.2461Y-5.0886
X4.2598Y-4.6319
X4.2695Y-4.8612
X4.2717Y-4.8012
X4.28Y-5.0886
X4.3041Y-5.0896
X4.3047Y-4.9577
X4.3307Y-4.9843
X4.3819Y-4.6319
T4
X3.6215Y-4.4474
X3.6772Y-4.3917
X3.7328Y-4.3361
X3.8957Y-4.3957
X3.9744Y-4.3957
X4.2593Y-4.4168
X4.315Y-4.4724
X4.3706Y-4.5281
T5
X3.937Y-3.8661
M30
