%TF.GenerationSoftware,KiCad,Pcbnew,8.0.5*%
%TF.CreationDate,2024-10-30T18:42:26-07:00*%
%TF.ProjectId,card,63617264-2e6b-4696-9361-645f70636258,v0.5*%
%TF.SameCoordinates,Original*%
%TF.FileFunction,Paste,Top*%
%TF.FilePolarity,Positive*%
%FSLAX46Y46*%
G04 Gerber Fmt 4.6, Leading zero omitted, Abs format (unit mm)*
G04 Created by KiCad (PCBNEW 8.0.5) date 2024-10-30 18:42:26*
%MOMM*%
%LPD*%
G01*
G04 APERTURE LIST*
G04 Aperture macros list*
%AMRoundRect*
0 Rectangle with rounded corners*
0 $1 Rounding radius*
0 $2 $3 $4 $5 $6 $7 $8 $9 X,Y pos of 4 corners*
0 Add a 4 corners polygon primitive as box body*
4,1,4,$2,$3,$4,$5,$6,$7,$8,$9,$2,$3,0*
0 Add four circle primitives for the rounded corners*
1,1,$1+$1,$2,$3*
1,1,$1+$1,$4,$5*
1,1,$1+$1,$6,$7*
1,1,$1+$1,$8,$9*
0 Add four rect primitives between the rounded corners*
20,1,$1+$1,$2,$3,$4,$5,0*
20,1,$1+$1,$4,$5,$6,$7,0*
20,1,$1+$1,$6,$7,$8,$9,0*
20,1,$1+$1,$8,$9,$2,$3,0*%
%AMFreePoly0*
4,1,18,-0.437500,0.050000,-0.433694,0.069134,-0.422855,0.085355,-0.406634,0.096194,-0.387500,0.100000,0.387500,0.100000,0.437500,0.050000,0.437500,-0.050000,0.433694,-0.069134,0.422855,-0.085355,0.406634,-0.096194,0.387500,-0.100000,-0.387500,-0.100000,-0.406634,-0.096194,-0.422855,-0.085355,-0.433694,-0.069134,-0.437500,-0.050000,-0.437500,0.050000,-0.437500,0.050000,$1*%
%AMFreePoly1*
4,1,18,-0.437500,0.050000,-0.433694,0.069134,-0.422855,0.085355,-0.406634,0.096194,-0.387500,0.100000,0.387500,0.100000,0.406634,0.096194,0.422855,0.085355,0.433694,0.069134,0.437500,0.050000,0.437500,-0.050000,0.387500,-0.100000,-0.387500,-0.100000,-0.406634,-0.096194,-0.422855,-0.085355,-0.433694,-0.069134,-0.437500,-0.050000,-0.437500,0.050000,-0.437500,0.050000,$1*%
%AMFreePoly2*
4,1,18,-0.100000,0.387500,-0.050000,0.437500,0.050000,0.437500,0.069134,0.433694,0.085355,0.422855,0.096194,0.406634,0.100000,0.387500,0.100000,-0.387500,0.096194,-0.406634,0.085355,-0.422855,0.069134,-0.433694,0.050000,-0.437500,-0.050000,-0.437500,-0.069134,-0.433694,-0.085355,-0.422855,-0.096194,-0.406634,-0.100000,-0.387500,-0.100000,0.387500,-0.100000,0.387500,$1*%
%AMFreePoly3*
4,1,18,-0.100000,0.387500,-0.096194,0.406634,-0.085355,0.422855,-0.069134,0.433694,-0.050000,0.437500,0.050000,0.437500,0.100000,0.387500,0.100000,-0.387500,0.096194,-0.406634,0.085355,-0.422855,0.069134,-0.433694,0.050000,-0.437500,-0.050000,-0.437500,-0.069134,-0.433694,-0.085355,-0.422855,-0.096194,-0.406634,-0.100000,-0.387500,-0.100000,0.387500,-0.100000,0.387500,$1*%
%AMFreePoly4*
4,1,18,-0.437500,0.050000,-0.433694,0.069134,-0.422855,0.085355,-0.406634,0.096194,-0.387500,0.100000,0.387500,0.100000,0.406634,0.096194,0.422855,0.085355,0.433694,0.069134,0.437500,0.050000,0.437500,-0.050000,0.433694,-0.069134,0.422855,-0.085355,0.406634,-0.096194,0.387500,-0.100000,-0.387500,-0.100000,-0.437500,-0.050000,-0.437500,0.050000,-0.437500,0.050000,$1*%
%AMFreePoly5*
4,1,18,-0.437500,0.050000,-0.387500,0.100000,0.387500,0.100000,0.406634,0.096194,0.422855,0.085355,0.433694,0.069134,0.437500,0.050000,0.437500,-0.050000,0.433694,-0.069134,0.422855,-0.085355,0.406634,-0.096194,0.387500,-0.100000,-0.387500,-0.100000,-0.406634,-0.096194,-0.422855,-0.085355,-0.433694,-0.069134,-0.437500,-0.050000,-0.437500,0.050000,-0.437500,0.050000,$1*%
%AMFreePoly6*
4,1,18,-0.100000,0.387500,-0.096194,0.406634,-0.085355,0.422855,-0.069134,0.433694,-0.050000,0.437500,0.050000,0.437500,0.069134,0.433694,0.085355,0.422855,0.096194,0.406634,0.100000,0.387500,0.100000,-0.387500,0.050000,-0.437500,-0.050000,-0.437500,-0.069134,-0.433694,-0.085355,-0.422855,-0.096194,-0.406634,-0.100000,-0.387500,-0.100000,0.387500,-0.100000,0.387500,$1*%
%AMFreePoly7*
4,1,18,-0.100000,0.387500,-0.096194,0.406634,-0.085355,0.422855,-0.069134,0.433694,-0.050000,0.437500,0.050000,0.437500,0.069134,0.433694,0.085355,0.422855,0.096194,0.406634,0.100000,0.387500,0.100000,-0.387500,0.096194,-0.406634,0.085355,-0.422855,0.069134,-0.433694,0.050000,-0.437500,-0.050000,-0.437500,-0.100000,-0.387500,-0.100000,0.387500,-0.100000,0.387500,$1*%
G04 Aperture macros list end*
%ADD10RoundRect,0.135000X-0.135000X-0.185000X0.135000X-0.185000X0.135000X0.185000X-0.135000X0.185000X0*%
%ADD11RoundRect,0.140000X0.140000X0.170000X-0.140000X0.170000X-0.140000X-0.170000X0.140000X-0.170000X0*%
%ADD12RoundRect,0.250000X-0.475000X0.250000X-0.475000X-0.250000X0.475000X-0.250000X0.475000X0.250000X0*%
%ADD13RoundRect,0.140000X-0.170000X0.140000X-0.170000X-0.140000X0.170000X-0.140000X0.170000X0.140000X0*%
%ADD14RoundRect,0.237500X0.287500X0.237500X-0.287500X0.237500X-0.287500X-0.237500X0.287500X-0.237500X0*%
%ADD15RoundRect,0.140000X-0.140000X-0.170000X0.140000X-0.170000X0.140000X0.170000X-0.140000X0.170000X0*%
%ADD16R,0.530000X0.470000*%
%ADD17R,0.254000X0.482600*%
%ADD18R,0.381000X0.254000*%
%ADD19RoundRect,0.150000X0.512500X0.150000X-0.512500X0.150000X-0.512500X-0.150000X0.512500X-0.150000X0*%
%ADD20RoundRect,0.140000X0.170000X-0.140000X0.170000X0.140000X-0.170000X0.140000X-0.170000X-0.140000X0*%
%ADD21R,1.200000X1.400000*%
%ADD22RoundRect,0.250000X0.350000X-0.350000X0.350000X0.350000X-0.350000X0.350000X-0.350000X-0.350000X0*%
%ADD23FreePoly0,90.000000*%
%ADD24RoundRect,0.050000X0.050000X-0.387500X0.050000X0.387500X-0.050000X0.387500X-0.050000X-0.387500X0*%
%ADD25FreePoly1,90.000000*%
%ADD26FreePoly2,90.000000*%
%ADD27RoundRect,0.050000X0.387500X-0.050000X0.387500X0.050000X-0.387500X0.050000X-0.387500X-0.050000X0*%
%ADD28FreePoly3,90.000000*%
%ADD29FreePoly4,90.000000*%
%ADD30FreePoly5,90.000000*%
%ADD31FreePoly6,90.000000*%
%ADD32FreePoly7,90.000000*%
%ADD33R,1.050000X0.650000*%
%ADD34RoundRect,0.237500X-0.250000X-0.237500X0.250000X-0.237500X0.250000X0.237500X-0.250000X0.237500X0*%
%ADD35R,0.600000X1.100000*%
%ADD36RoundRect,0.135000X0.135000X0.185000X-0.135000X0.185000X-0.135000X-0.185000X0.135000X-0.185000X0*%
%ADD37RoundRect,0.150000X0.150000X-0.650000X0.150000X0.650000X-0.150000X0.650000X-0.150000X-0.650000X0*%
%ADD38R,1.700000X0.700000*%
%ADD39RoundRect,0.135000X-0.185000X0.135000X-0.185000X-0.135000X0.185000X-0.135000X0.185000X0.135000X0*%
G04 APERTURE END LIST*
D10*
%TO.C,R3*%
X92450000Y-97525000D03*
X93470000Y-97525000D03*
%TD*%
D11*
%TO.C,C4*%
X92870000Y-103680000D03*
X91910000Y-103680000D03*
%TD*%
D12*
%TO.C,C11*%
X100775000Y-107550000D03*
X100775000Y-109450000D03*
%TD*%
D13*
%TO.C,C19*%
X105550000Y-91624200D03*
X105550000Y-92584200D03*
%TD*%
D11*
%TO.C,C1*%
X98810000Y-107650000D03*
X97850000Y-107650000D03*
%TD*%
D14*
%TO.C,D1*%
X106675000Y-106000000D03*
X104925000Y-106000000D03*
%TD*%
D15*
%TO.C,C6*%
X101020000Y-106300000D03*
X101980000Y-106300000D03*
%TD*%
D10*
%TO.C,R10*%
X98690000Y-90674200D03*
X99710000Y-90674200D03*
%TD*%
D16*
%TO.C,C16*%
X95400000Y-100240000D03*
X95400000Y-99210000D03*
%TD*%
D17*
%TO.C,U4*%
X104849999Y-90524200D03*
X104350000Y-90524200D03*
X103850001Y-90524200D03*
X103350000Y-90524200D03*
X102850000Y-90524200D03*
X102349999Y-90524200D03*
X101850000Y-90524200D03*
X101350001Y-90524200D03*
X100849999Y-90524200D03*
D18*
X100788600Y-89712101D03*
X100788600Y-89212100D03*
X100788600Y-88712100D03*
X100788600Y-88212099D03*
D17*
X100849999Y-87400000D03*
X101350001Y-87400000D03*
X101850000Y-87400000D03*
X102349999Y-87400000D03*
X102850000Y-87400000D03*
X103350000Y-87400000D03*
X103850001Y-87400000D03*
X104350000Y-87400000D03*
X104849999Y-87400000D03*
X105350001Y-87400000D03*
D18*
X105411400Y-88212099D03*
X105411400Y-88712100D03*
X105411400Y-89212100D03*
X105411400Y-89712101D03*
D17*
X105350001Y-90524200D03*
%TD*%
D19*
%TO.C,U2*%
X104975000Y-109450000D03*
X104975000Y-108500000D03*
X104975000Y-107550000D03*
X102700000Y-107550000D03*
X102700000Y-109450000D03*
%TD*%
D11*
%TO.C,C5*%
X95130000Y-106400000D03*
X94170000Y-106400000D03*
%TD*%
D12*
%TO.C,C12*%
X107200000Y-107600000D03*
X107200000Y-109500000D03*
%TD*%
D13*
%TO.C,C13*%
X107200000Y-102100000D03*
X107200000Y-103060000D03*
%TD*%
D20*
%TO.C,C20*%
X106500000Y-91054200D03*
X106500000Y-90094200D03*
%TD*%
D21*
%TO.C,Y1*%
X110300000Y-102825000D03*
X110300000Y-100625000D03*
X108600000Y-100625000D03*
X108600000Y-102825000D03*
%TD*%
D20*
%TO.C,C3*%
X99280000Y-96540000D03*
X99280000Y-95580000D03*
%TD*%
D10*
%TO.C,R4*%
X91690000Y-106400000D03*
X92710000Y-106400000D03*
%TD*%
D13*
%TO.C,C18*%
X101950000Y-91644200D03*
X101950000Y-92604200D03*
%TD*%
D10*
%TO.C,R6*%
X91890000Y-101675000D03*
X92910000Y-101675000D03*
%TD*%
%TO.C,R7*%
X91880000Y-102700000D03*
X92900000Y-102700000D03*
%TD*%
D22*
%TO.C,U1*%
X99300000Y-102400000D03*
X100700000Y-102400000D03*
X99300000Y-101000000D03*
X100700000Y-101000000D03*
D23*
X97200000Y-105137500D03*
D24*
X97600000Y-105137500D03*
X98000000Y-105137500D03*
X98400000Y-105137500D03*
X98800000Y-105137500D03*
X99200000Y-105137500D03*
X99600000Y-105137500D03*
X100000000Y-105137500D03*
X100400000Y-105137500D03*
X100800000Y-105137500D03*
X101200000Y-105137500D03*
X101600000Y-105137500D03*
X102000000Y-105137500D03*
X102400000Y-105137500D03*
D25*
X102800000Y-105137500D03*
D26*
X103437500Y-104500000D03*
D27*
X103437500Y-104100000D03*
X103437500Y-103700000D03*
X103437500Y-103300000D03*
X103437500Y-102900000D03*
X103437500Y-102500000D03*
X103437500Y-102100000D03*
X103437500Y-101700000D03*
X103437500Y-101300000D03*
X103437500Y-100900000D03*
X103437500Y-100500000D03*
X103437500Y-100100000D03*
X103437500Y-99700000D03*
X103437500Y-99300000D03*
D28*
X103437500Y-98900000D03*
D29*
X102800000Y-98262500D03*
D24*
X102400000Y-98262500D03*
X102000000Y-98262500D03*
X101600000Y-98262500D03*
X101200000Y-98262500D03*
X100800000Y-98262500D03*
X100400000Y-98262500D03*
X100000000Y-98262500D03*
X99600000Y-98262500D03*
X99200000Y-98262500D03*
X98800000Y-98262500D03*
X98400000Y-98262500D03*
X98000000Y-98262500D03*
X97600000Y-98262500D03*
D30*
X97200000Y-98262500D03*
D31*
X96562500Y-98900000D03*
D27*
X96562500Y-99300000D03*
X96562500Y-99700000D03*
X96562500Y-100100000D03*
X96562500Y-100500000D03*
X96562500Y-100900000D03*
X96562500Y-101300000D03*
X96562500Y-101700000D03*
X96562500Y-102100000D03*
X96562500Y-102500000D03*
X96562500Y-102900000D03*
X96562500Y-103300000D03*
X96562500Y-103700000D03*
X96562500Y-104100000D03*
D32*
X96562500Y-104500000D03*
%TD*%
D16*
%TO.C,C15*%
X94400000Y-100240000D03*
X94400000Y-99210000D03*
%TD*%
D20*
%TO.C,C8*%
X100280000Y-96540000D03*
X100280000Y-95580000D03*
%TD*%
D15*
%TO.C,C17*%
X94400000Y-97525000D03*
X95360000Y-97525000D03*
%TD*%
D20*
%TO.C,C9*%
X104600000Y-98525000D03*
X104600000Y-97565000D03*
%TD*%
%TO.C,C14*%
X107200000Y-101225000D03*
X107200000Y-100265000D03*
%TD*%
D10*
%TO.C,R5*%
X108640000Y-105650000D03*
X109660000Y-105650000D03*
%TD*%
D33*
%TO.C,SW2*%
X113135000Y-109125000D03*
X108985000Y-109125000D03*
X113135000Y-106975000D03*
X109010000Y-106975000D03*
%TD*%
D15*
%TO.C,C10*%
X105220000Y-103250000D03*
X106180000Y-103250000D03*
%TD*%
D20*
%TO.C,C21*%
X106500000Y-89204200D03*
X106500000Y-88244200D03*
%TD*%
D34*
%TO.C,R1*%
X104887500Y-104500000D03*
X106712500Y-104500000D03*
%TD*%
D35*
%TO.C,Y2*%
X104450000Y-92124200D03*
X103050000Y-92124200D03*
%TD*%
D15*
%TO.C,C2*%
X105320000Y-101125000D03*
X106280000Y-101125000D03*
%TD*%
D36*
%TO.C,R2*%
X106210000Y-102100000D03*
X105190000Y-102100000D03*
%TD*%
D20*
%TO.C,C7*%
X97200000Y-96925000D03*
X97200000Y-95965000D03*
%TD*%
D37*
%TO.C,U3*%
X85185000Y-104210000D03*
X86455000Y-104210000D03*
X87725000Y-104210000D03*
X88995000Y-104210000D03*
X88995000Y-97010000D03*
X87725000Y-97010000D03*
X86455000Y-97010000D03*
X85185000Y-97010000D03*
%TD*%
D33*
%TO.C,SW1*%
X89950000Y-108600000D03*
X85800000Y-108600000D03*
X89950000Y-106450000D03*
X85825000Y-106450000D03*
%TD*%
D38*
%TO.C,L1*%
X92500000Y-100425000D03*
X92500000Y-99025000D03*
%TD*%
D15*
%TO.C,C22*%
X104120000Y-86274200D03*
X105080000Y-86274200D03*
%TD*%
D10*
%TO.C,R9*%
X98690000Y-89674200D03*
X99710000Y-89674200D03*
%TD*%
D39*
%TO.C,R8*%
X106500000Y-86364200D03*
X106500000Y-87384200D03*
%TD*%
M02*
