%TF.GenerationSoftware,KiCad,Pcbnew,8.0.5*%
%TF.CreationDate,2024-10-30T18:42:26-07:00*%
%TF.ProjectId,card,63617264-2e6b-4696-9361-645f70636258,v0.5*%
%TF.SameCoordinates,Original*%
%TF.FileFunction,Legend,Bot*%
%TF.FilePolarity,Positive*%
%FSLAX46Y46*%
G04 Gerber Fmt 4.6, Leading zero omitted, Abs format (unit mm)*
G04 Created by KiCad (PCBNEW 8.0.5) date 2024-10-30 18:42:26*
%MOMM*%
%LPD*%
G01*
G04 APERTURE LIST*
%ADD10C,0.150000*%
%ADD11C,0.100000*%
%ADD12C,0.120000*%
G04 APERTURE END LIST*
D10*
X113424819Y-76781666D02*
X114139104Y-76781666D01*
X114139104Y-76781666D02*
X114281961Y-76734047D01*
X114281961Y-76734047D02*
X114377200Y-76638809D01*
X114377200Y-76638809D02*
X114424819Y-76495952D01*
X114424819Y-76495952D02*
X114424819Y-76400714D01*
X113424819Y-77734047D02*
X113424819Y-77257857D01*
X113424819Y-77257857D02*
X113901009Y-77210238D01*
X113901009Y-77210238D02*
X113853390Y-77257857D01*
X113853390Y-77257857D02*
X113805771Y-77353095D01*
X113805771Y-77353095D02*
X113805771Y-77591190D01*
X113805771Y-77591190D02*
X113853390Y-77686428D01*
X113853390Y-77686428D02*
X113901009Y-77734047D01*
X113901009Y-77734047D02*
X113996247Y-77781666D01*
X113996247Y-77781666D02*
X114234342Y-77781666D01*
X114234342Y-77781666D02*
X114329580Y-77734047D01*
X114329580Y-77734047D02*
X114377200Y-77686428D01*
X114377200Y-77686428D02*
X114424819Y-77591190D01*
X114424819Y-77591190D02*
X114424819Y-77353095D01*
X114424819Y-77353095D02*
X114377200Y-77257857D01*
X114377200Y-77257857D02*
X114329580Y-77210238D01*
D11*
X89495238Y-92877657D02*
X89590476Y-92830038D01*
X89590476Y-92830038D02*
X89685714Y-92734800D01*
X89685714Y-92734800D02*
X89828571Y-92591942D01*
X89828571Y-92591942D02*
X89923809Y-92544323D01*
X89923809Y-92544323D02*
X90019047Y-92544323D01*
X89971428Y-92782419D02*
X90066666Y-92734800D01*
X90066666Y-92734800D02*
X90161904Y-92639561D01*
X90161904Y-92639561D02*
X90209523Y-92449085D01*
X90209523Y-92449085D02*
X90209523Y-92115752D01*
X90209523Y-92115752D02*
X90161904Y-91925276D01*
X90161904Y-91925276D02*
X90066666Y-91830038D01*
X90066666Y-91830038D02*
X89971428Y-91782419D01*
X89971428Y-91782419D02*
X89780952Y-91782419D01*
X89780952Y-91782419D02*
X89685714Y-91830038D01*
X89685714Y-91830038D02*
X89590476Y-91925276D01*
X89590476Y-91925276D02*
X89542857Y-92115752D01*
X89542857Y-92115752D02*
X89542857Y-92449085D01*
X89542857Y-92449085D02*
X89590476Y-92639561D01*
X89590476Y-92639561D02*
X89685714Y-92734800D01*
X89685714Y-92734800D02*
X89780952Y-92782419D01*
X89780952Y-92782419D02*
X89971428Y-92782419D01*
X88542857Y-92782419D02*
X88876190Y-92306228D01*
X89114285Y-92782419D02*
X89114285Y-91782419D01*
X89114285Y-91782419D02*
X88733333Y-91782419D01*
X88733333Y-91782419D02*
X88638095Y-91830038D01*
X88638095Y-91830038D02*
X88590476Y-91877657D01*
X88590476Y-91877657D02*
X88542857Y-91972895D01*
X88542857Y-91972895D02*
X88542857Y-92115752D01*
X88542857Y-92115752D02*
X88590476Y-92210990D01*
X88590476Y-92210990D02*
X88638095Y-92258609D01*
X88638095Y-92258609D02*
X88733333Y-92306228D01*
X88733333Y-92306228D02*
X89114285Y-92306228D01*
X87590476Y-92782419D02*
X88161904Y-92782419D01*
X87876190Y-92782419D02*
X87876190Y-91782419D01*
X87876190Y-91782419D02*
X87971428Y-91925276D01*
X87971428Y-91925276D02*
X88066666Y-92020514D01*
X88066666Y-92020514D02*
X88161904Y-92068133D01*
D12*
%TO.C,J5*%
X112970000Y-81500000D02*
X112970000Y-82770000D01*
X112970000Y-82770000D02*
X111700000Y-82770000D01*
X109540000Y-80060000D02*
X109540000Y-80457071D01*
X108780000Y-80060000D02*
X108780000Y-80457071D01*
X107000000Y-80060000D02*
X107000000Y-80457071D01*
X106240000Y-80060000D02*
X106240000Y-80457071D01*
X104460000Y-80060000D02*
X104460000Y-80457071D01*
X103700000Y-80060000D02*
X103700000Y-80457071D01*
X101920000Y-80060000D02*
X101920000Y-80457071D01*
X101160000Y-80060000D02*
X101160000Y-80457071D01*
X112080000Y-80060000D02*
X112080000Y-80390000D01*
X111320000Y-80060000D02*
X111320000Y-80390000D01*
X100210000Y-80060000D02*
X113030000Y-80060000D01*
X110430000Y-77400000D02*
X110430000Y-80060000D01*
X107890000Y-77400000D02*
X107890000Y-80060000D01*
X105350000Y-77400000D02*
X105350000Y-80060000D01*
X102810000Y-77400000D02*
X102810000Y-80060000D01*
X100210000Y-77400000D02*
X100210000Y-80060000D01*
X113030000Y-80060000D02*
X113030000Y-77400000D01*
X112080000Y-71400000D02*
X112080000Y-77400000D01*
X112020000Y-71400000D02*
X112020000Y-77400000D01*
X111900000Y-71400000D02*
X111900000Y-77400000D01*
X111780000Y-71400000D02*
X111780000Y-77400000D01*
X111660000Y-71400000D02*
X111660000Y-77400000D01*
X111540000Y-71400000D02*
X111540000Y-77400000D01*
X111420000Y-71400000D02*
X111420000Y-77400000D01*
X109540000Y-71400000D02*
X109540000Y-77400000D01*
X107000000Y-71400000D02*
X107000000Y-77400000D01*
X104460000Y-71400000D02*
X104460000Y-77400000D01*
X101920000Y-71400000D02*
X101920000Y-77400000D01*
X113030000Y-77400000D02*
X100210000Y-77400000D01*
X111320000Y-71400000D02*
X112080000Y-71400000D01*
X111320000Y-77400000D02*
X111320000Y-71400000D01*
X108780000Y-71400000D02*
X109540000Y-71400000D01*
X108780000Y-77400000D02*
X108780000Y-71400000D01*
X106240000Y-71400000D02*
X107000000Y-71400000D01*
X106240000Y-77400000D02*
X106240000Y-71400000D01*
X103700000Y-71400000D02*
X104460000Y-71400000D01*
X103700000Y-77400000D02*
X103700000Y-71400000D01*
X101160000Y-71400000D02*
X101920000Y-71400000D01*
X101160000Y-77400000D02*
X101160000Y-71400000D01*
%TO.C,QR1*%
D11*
X92450000Y-83325000D02*
X84450000Y-83325000D01*
X84450000Y-91325000D01*
X92450000Y-91325000D01*
X92450000Y-83325000D01*
G36*
X92450000Y-83325000D02*
G01*
X84450000Y-83325000D01*
X84450000Y-91325000D01*
X92450000Y-91325000D01*
X92450000Y-83325000D01*
G37*
%TD*%
M02*
