%TF.GenerationSoftware,KiCad,Pcbnew,8.0.5*%
%TF.CreationDate,2024-10-28T11:27:35-07:00*%
%TF.ProjectId,card,63617264-2e6b-4696-9361-645f70636258,rev?*%
%TF.SameCoordinates,Original*%
%TF.FileFunction,Soldermask,Top*%
%TF.FilePolarity,Negative*%
%FSLAX46Y46*%
G04 Gerber Fmt 4.6, Leading zero omitted, Abs format (unit mm)*
G04 Created by KiCad (PCBNEW 8.0.5) date 2024-10-28 11:27:35*
%MOMM*%
%LPD*%
G01*
G04 APERTURE LIST*
G04 Aperture macros list*
%AMRoundRect*
0 Rectangle with rounded corners*
0 $1 Rounding radius*
0 $2 $3 $4 $5 $6 $7 $8 $9 X,Y pos of 4 corners*
0 Add a 4 corners polygon primitive as box body*
4,1,4,$2,$3,$4,$5,$6,$7,$8,$9,$2,$3,0*
0 Add four circle primitives for the rounded corners*
1,1,$1+$1,$2,$3*
1,1,$1+$1,$4,$5*
1,1,$1+$1,$6,$7*
1,1,$1+$1,$8,$9*
0 Add four rect primitives between the rounded corners*
20,1,$1+$1,$2,$3,$4,$5,0*
20,1,$1+$1,$4,$5,$6,$7,0*
20,1,$1+$1,$6,$7,$8,$9,0*
20,1,$1+$1,$8,$9,$2,$3,0*%
%AMHorizOval*
0 Thick line with rounded ends*
0 $1 width*
0 $2 $3 position (X,Y) of the first rounded end (center of the circle)*
0 $4 $5 position (X,Y) of the second rounded end (center of the circle)*
0 Add line between two ends*
20,1,$1,$2,$3,$4,$5,0*
0 Add two circle primitives to create the rounded ends*
1,1,$1,$2,$3*
1,1,$1,$4,$5*%
%AMRotRect*
0 Rectangle, with rotation*
0 The origin of the aperture is its center*
0 $1 length*
0 $2 width*
0 $3 Rotation angle, in degrees counterclockwise*
0 Add horizontal line*
21,1,$1,$2,0,0,$3*%
%AMFreePoly0*
4,1,18,-0.437500,0.050000,-0.433694,0.069134,-0.422855,0.085355,-0.406634,0.096194,-0.387500,0.100000,0.387500,0.100000,0.437500,0.050000,0.437500,-0.050000,0.433694,-0.069134,0.422855,-0.085355,0.406634,-0.096194,0.387500,-0.100000,-0.387500,-0.100000,-0.406634,-0.096194,-0.422855,-0.085355,-0.433694,-0.069134,-0.437500,-0.050000,-0.437500,0.050000,-0.437500,0.050000,$1*%
%AMFreePoly1*
4,1,18,-0.437500,0.050000,-0.433694,0.069134,-0.422855,0.085355,-0.406634,0.096194,-0.387500,0.100000,0.387500,0.100000,0.406634,0.096194,0.422855,0.085355,0.433694,0.069134,0.437500,0.050000,0.437500,-0.050000,0.387500,-0.100000,-0.387500,-0.100000,-0.406634,-0.096194,-0.422855,-0.085355,-0.433694,-0.069134,-0.437500,-0.050000,-0.437500,0.050000,-0.437500,0.050000,$1*%
%AMFreePoly2*
4,1,18,-0.100000,0.387500,-0.050000,0.437500,0.050000,0.437500,0.069134,0.433694,0.085355,0.422855,0.096194,0.406634,0.100000,0.387500,0.100000,-0.387500,0.096194,-0.406634,0.085355,-0.422855,0.069134,-0.433694,0.050000,-0.437500,-0.050000,-0.437500,-0.069134,-0.433694,-0.085355,-0.422855,-0.096194,-0.406634,-0.100000,-0.387500,-0.100000,0.387500,-0.100000,0.387500,$1*%
%AMFreePoly3*
4,1,18,-0.100000,0.387500,-0.096194,0.406634,-0.085355,0.422855,-0.069134,0.433694,-0.050000,0.437500,0.050000,0.437500,0.100000,0.387500,0.100000,-0.387500,0.096194,-0.406634,0.085355,-0.422855,0.069134,-0.433694,0.050000,-0.437500,-0.050000,-0.437500,-0.069134,-0.433694,-0.085355,-0.422855,-0.096194,-0.406634,-0.100000,-0.387500,-0.100000,0.387500,-0.100000,0.387500,$1*%
%AMFreePoly4*
4,1,18,-0.437500,0.050000,-0.433694,0.069134,-0.422855,0.085355,-0.406634,0.096194,-0.387500,0.100000,0.387500,0.100000,0.406634,0.096194,0.422855,0.085355,0.433694,0.069134,0.437500,0.050000,0.437500,-0.050000,0.433694,-0.069134,0.422855,-0.085355,0.406634,-0.096194,0.387500,-0.100000,-0.387500,-0.100000,-0.437500,-0.050000,-0.437500,0.050000,-0.437500,0.050000,$1*%
%AMFreePoly5*
4,1,18,-0.437500,0.050000,-0.387500,0.100000,0.387500,0.100000,0.406634,0.096194,0.422855,0.085355,0.433694,0.069134,0.437500,0.050000,0.437500,-0.050000,0.433694,-0.069134,0.422855,-0.085355,0.406634,-0.096194,0.387500,-0.100000,-0.387500,-0.100000,-0.406634,-0.096194,-0.422855,-0.085355,-0.433694,-0.069134,-0.437500,-0.050000,-0.437500,0.050000,-0.437500,0.050000,$1*%
%AMFreePoly6*
4,1,18,-0.100000,0.387500,-0.096194,0.406634,-0.085355,0.422855,-0.069134,0.433694,-0.050000,0.437500,0.050000,0.437500,0.069134,0.433694,0.085355,0.422855,0.096194,0.406634,0.100000,0.387500,0.100000,-0.387500,0.050000,-0.437500,-0.050000,-0.437500,-0.069134,-0.433694,-0.085355,-0.422855,-0.096194,-0.406634,-0.100000,-0.387500,-0.100000,0.387500,-0.100000,0.387500,$1*%
%AMFreePoly7*
4,1,18,-0.100000,0.387500,-0.096194,0.406634,-0.085355,0.422855,-0.069134,0.433694,-0.050000,0.437500,0.050000,0.437500,0.069134,0.433694,0.085355,0.422855,0.096194,0.406634,0.100000,0.387500,0.100000,-0.387500,0.096194,-0.406634,0.085355,-0.422855,0.069134,-0.433694,0.050000,-0.437500,-0.050000,-0.437500,-0.100000,-0.387500,-0.100000,0.387500,-0.100000,0.387500,$1*%
%AMFreePoly8*
4,1,6,1.000000,0.000000,0.500000,-0.750000,-0.500000,-0.750000,-0.500000,0.750000,0.500000,0.750000,1.000000,0.000000,1.000000,0.000000,$1*%
%AMFreePoly9*
4,1,6,0.500000,-0.750000,-0.650000,-0.750000,-0.150000,0.000000,-0.650000,0.750000,0.500000,0.750000,0.500000,-0.750000,0.500000,-0.750000,$1*%
G04 Aperture macros list end*
%ADD10C,0.100000*%
%ADD11RoundRect,0.135000X-0.135000X-0.185000X0.135000X-0.185000X0.135000X0.185000X-0.135000X0.185000X0*%
%ADD12RoundRect,0.140000X0.140000X0.170000X-0.140000X0.170000X-0.140000X-0.170000X0.140000X-0.170000X0*%
%ADD13RoundRect,0.250000X-0.475000X0.250000X-0.475000X-0.250000X0.475000X-0.250000X0.475000X0.250000X0*%
%ADD14RoundRect,0.237500X0.287500X0.237500X-0.287500X0.237500X-0.287500X-0.237500X0.287500X-0.237500X0*%
%ADD15RoundRect,0.140000X-0.140000X-0.170000X0.140000X-0.170000X0.140000X0.170000X-0.140000X0.170000X0*%
%ADD16RotRect,1.350000X1.350000X225.000000*%
%ADD17HorizOval,1.350000X0.000000X0.000000X0.000000X0.000000X0*%
%ADD18R,0.530000X0.470000*%
%ADD19RoundRect,0.150000X0.512500X0.150000X-0.512500X0.150000X-0.512500X-0.150000X0.512500X-0.150000X0*%
%ADD20RoundRect,0.140000X-0.170000X0.140000X-0.170000X-0.140000X0.170000X-0.140000X0.170000X0.140000X0*%
%ADD21R,1.200000X1.400000*%
%ADD22RoundRect,0.140000X0.170000X-0.140000X0.170000X0.140000X-0.170000X0.140000X-0.170000X-0.140000X0*%
%ADD23R,1.350000X1.350000*%
%ADD24O,1.350000X1.350000*%
%ADD25C,6.000000*%
%ADD26FreePoly0,90.000000*%
%ADD27RoundRect,0.050000X0.050000X-0.387500X0.050000X0.387500X-0.050000X0.387500X-0.050000X-0.387500X0*%
%ADD28FreePoly1,90.000000*%
%ADD29FreePoly2,90.000000*%
%ADD30RoundRect,0.050000X0.387500X-0.050000X0.387500X0.050000X-0.387500X0.050000X-0.387500X-0.050000X0*%
%ADD31FreePoly3,90.000000*%
%ADD32FreePoly4,90.000000*%
%ADD33FreePoly5,90.000000*%
%ADD34FreePoly6,90.000000*%
%ADD35FreePoly7,90.000000*%
%ADD36RoundRect,0.153000X1.547000X1.547000X-1.547000X1.547000X-1.547000X-1.547000X1.547000X-1.547000X0*%
%ADD37R,1.050000X0.650000*%
%ADD38RoundRect,0.237500X-0.250000X-0.237500X0.250000X-0.237500X0.250000X0.237500X-0.250000X0.237500X0*%
%ADD39FreePoly8,0.000000*%
%ADD40FreePoly9,0.000000*%
%ADD41RoundRect,0.135000X0.135000X0.185000X-0.135000X0.185000X-0.135000X-0.185000X0.135000X-0.185000X0*%
%ADD42RoundRect,0.150000X0.150000X-0.650000X0.150000X0.650000X-0.150000X0.650000X-0.150000X-0.650000X0*%
%ADD43R,1.700000X0.700000*%
%ADD44RotRect,1.350000X1.350000X315.000000*%
%ADD45HorizOval,1.350000X0.000000X0.000000X0.000000X0.000000X0*%
G04 APERTURE END LIST*
D10*
%TO.C,A1*%
X102025000Y-132200000D02*
X90075000Y-132200000D01*
X90075000Y-130200000D01*
X102025000Y-130200000D01*
X102025000Y-132200000D01*
G36*
X102025000Y-132200000D02*
G01*
X90075000Y-132200000D01*
X90075000Y-130200000D01*
X102025000Y-130200000D01*
X102025000Y-132200000D01*
G37*
X109925000Y-132200000D02*
X103225000Y-132200000D01*
X103225000Y-130200000D01*
X109925000Y-130200000D01*
X109925000Y-132200000D01*
G36*
X109925000Y-132200000D02*
G01*
X103225000Y-132200000D01*
X103225000Y-130200000D01*
X109925000Y-130200000D01*
X109925000Y-132200000D01*
G37*
%TD*%
D11*
%TO.C,R3*%
X93450000Y-115725000D03*
X94470000Y-115725000D03*
%TD*%
D12*
%TO.C,C4*%
X93870000Y-121880000D03*
X92910000Y-121880000D03*
%TD*%
D13*
%TO.C,C11*%
X101775000Y-125750000D03*
X101775000Y-127650000D03*
%TD*%
D12*
%TO.C,C1*%
X99810000Y-125850000D03*
X98850000Y-125850000D03*
%TD*%
D14*
%TO.C,D1*%
X107675000Y-124200000D03*
X105925000Y-124200000D03*
%TD*%
D15*
%TO.C,C6*%
X102020000Y-124500000D03*
X102980000Y-124500000D03*
%TD*%
D16*
%TO.C,J2*%
X111014214Y-115014214D03*
D17*
X109600000Y-113600000D03*
X108185787Y-112185787D03*
%TD*%
D18*
%TO.C,C16*%
X96400000Y-118440000D03*
X96400000Y-117410000D03*
%TD*%
D19*
%TO.C,U2*%
X105975000Y-127650000D03*
X105975000Y-126700000D03*
X105975000Y-125750000D03*
X103700000Y-125750000D03*
X103700000Y-127650000D03*
%TD*%
D12*
%TO.C,C5*%
X96130000Y-124600000D03*
X95170000Y-124600000D03*
%TD*%
D13*
%TO.C,C12*%
X108200000Y-125800000D03*
X108200000Y-127700000D03*
%TD*%
D20*
%TO.C,C13*%
X108200000Y-120300000D03*
X108200000Y-121260000D03*
%TD*%
D21*
%TO.C,Y1*%
X111300000Y-121025000D03*
X111300000Y-118825000D03*
X109600000Y-118825000D03*
X109600000Y-121025000D03*
%TD*%
D22*
%TO.C,C3*%
X100280000Y-114740000D03*
X100280000Y-113780000D03*
%TD*%
D11*
%TO.C,R4*%
X92690000Y-124600000D03*
X93710000Y-124600000D03*
%TD*%
D23*
%TO.C,J3*%
X100950000Y-111650000D03*
D24*
X98950000Y-111650000D03*
%TD*%
D25*
%TO.C,A1*%
X100000000Y-98200000D03*
%TD*%
D11*
%TO.C,R6*%
X92890000Y-119875000D03*
X93910000Y-119875000D03*
%TD*%
%TO.C,R7*%
X92880000Y-120900000D03*
X93900000Y-120900000D03*
%TD*%
D26*
%TO.C,U1*%
X98200000Y-123337500D03*
D27*
X98600000Y-123337500D03*
X99000000Y-123337500D03*
X99400000Y-123337500D03*
X99800000Y-123337500D03*
X100200000Y-123337500D03*
X100600000Y-123337500D03*
X101000000Y-123337500D03*
X101400000Y-123337500D03*
X101800000Y-123337500D03*
X102200000Y-123337500D03*
X102600000Y-123337500D03*
X103000000Y-123337500D03*
X103400000Y-123337500D03*
D28*
X103800000Y-123337500D03*
D29*
X104437500Y-122700000D03*
D30*
X104437500Y-122300000D03*
X104437500Y-121900000D03*
X104437500Y-121500000D03*
X104437500Y-121100000D03*
X104437500Y-120700000D03*
X104437500Y-120300000D03*
X104437500Y-119900000D03*
X104437500Y-119500000D03*
X104437500Y-119100000D03*
X104437500Y-118700000D03*
X104437500Y-118300000D03*
X104437500Y-117900000D03*
X104437500Y-117500000D03*
D31*
X104437500Y-117100000D03*
D32*
X103800000Y-116462500D03*
D27*
X103400000Y-116462500D03*
X103000000Y-116462500D03*
X102600000Y-116462500D03*
X102200000Y-116462500D03*
X101800000Y-116462500D03*
X101400000Y-116462500D03*
X101000000Y-116462500D03*
X100600000Y-116462500D03*
X100200000Y-116462500D03*
X99800000Y-116462500D03*
X99400000Y-116462500D03*
X99000000Y-116462500D03*
X98600000Y-116462500D03*
D33*
X98200000Y-116462500D03*
D34*
X97562500Y-117100000D03*
D30*
X97562500Y-117500000D03*
X97562500Y-117900000D03*
X97562500Y-118300000D03*
X97562500Y-118700000D03*
X97562500Y-119100000D03*
X97562500Y-119500000D03*
X97562500Y-119900000D03*
X97562500Y-120300000D03*
X97562500Y-120700000D03*
X97562500Y-121100000D03*
X97562500Y-121500000D03*
X97562500Y-121900000D03*
X97562500Y-122300000D03*
D35*
X97562500Y-122700000D03*
D36*
X101000000Y-119900000D03*
%TD*%
D18*
%TO.C,C15*%
X95400000Y-118440000D03*
X95400000Y-117410000D03*
%TD*%
D22*
%TO.C,C8*%
X101280000Y-114740000D03*
X101280000Y-113780000D03*
%TD*%
D15*
%TO.C,C17*%
X95400000Y-115725000D03*
X96360000Y-115725000D03*
%TD*%
D22*
%TO.C,C9*%
X105600000Y-116725000D03*
X105600000Y-115765000D03*
%TD*%
%TO.C,C14*%
X108200000Y-119425000D03*
X108200000Y-118465000D03*
%TD*%
D11*
%TO.C,R5*%
X109640000Y-123850000D03*
X110660000Y-123850000D03*
%TD*%
D37*
%TO.C,SW2*%
X114135000Y-127325000D03*
X109985000Y-127325000D03*
X114135000Y-125175000D03*
X110010000Y-125175000D03*
%TD*%
D15*
%TO.C,C10*%
X106220000Y-121450000D03*
X107180000Y-121450000D03*
%TD*%
D38*
%TO.C,R1*%
X105887500Y-122700000D03*
X107712500Y-122700000D03*
%TD*%
D15*
%TO.C,C2*%
X106320000Y-119325000D03*
X107280000Y-119325000D03*
%TD*%
D39*
%TO.C,JP1*%
X95650000Y-128800000D03*
D40*
X97100000Y-128800000D03*
%TD*%
D41*
%TO.C,R2*%
X107210000Y-120300000D03*
X106190000Y-120300000D03*
%TD*%
D22*
%TO.C,C7*%
X98200000Y-115125000D03*
X98200000Y-114165000D03*
%TD*%
D42*
%TO.C,U3*%
X86185000Y-122410000D03*
X87455000Y-122410000D03*
X88725000Y-122410000D03*
X89995000Y-122410000D03*
X89995000Y-115210000D03*
X88725000Y-115210000D03*
X87455000Y-115210000D03*
X86185000Y-115210000D03*
%TD*%
D37*
%TO.C,SW1*%
X90950000Y-126800000D03*
X86800000Y-126800000D03*
X90950000Y-124650000D03*
X86825000Y-124650000D03*
%TD*%
D43*
%TO.C,L1*%
X93500000Y-118625000D03*
X93500000Y-117225000D03*
%TD*%
D44*
%TO.C,J1*%
X94814214Y-110135786D03*
D45*
X93400000Y-111550000D03*
X91985787Y-112964213D03*
%TD*%
M02*
