M48
; DRILL file {KiCad 8.0.5} date 2024-10-30T18:42:29-0700
; FORMAT={-:-/ absolute / inch / decimal}
; #@! TF.CreationDate,2024-10-30T18:42:29-07:00
; #@! TF.GenerationSoftware,Kicad,Pcbnew,8.0.5
; #@! TF.FileFunction,Plated,1,2,PTH
FMAT,2
INCH
; #@! TA.AperFunction,Plated,PTH,ViaDrill
T1C0.0098
; #@! TA.AperFunction,Plated,PTH,ComponentDrill
T2C0.0098
; #@! TA.AperFunction,Plated,PTH,ViaDrill
T3C0.0138
; #@! TA.AperFunction,Plated,PTH,ComponentDrill
T4C0.0315
; #@! TA.AperFunction,Plated,PTH,ComponentDrill
T5C0.0394
; #@! TA.AperFunction,Plated,PTH,ComponentDrill
T6C0.1181
%
G90
G05
T1
X3.8524Y-3.9705
X3.9219Y-3.9193
X3.9744Y-4.0886
X4.0217Y-3.9921
T2
X3.8829Y-3.9498
X3.8829Y-4.0039
X3.8829Y-4.0581
X3.937Y-3.9498
X3.937Y-4.0039
X3.937Y-4.0581
X3.9911Y-3.9498
X3.9911Y-4.0039
X3.9911Y-4.0581
T3
X3.3307Y-3.6299
X3.4685Y-4.2756
X3.4961Y-4.2756
X3.5039Y-4.0512
X3.5837Y-4.3356
X3.5846Y-4.3602
X3.5886Y-4.0827
X3.612Y-4.3723
X3.6378Y-3.7598
X3.6417Y-4.3775
X3.6614Y-3.3268
X3.6614Y-3.7815
X3.6791Y-4.189
X3.6811Y-3.7165
X3.6844Y-4.3513
X3.6974Y-3.9708
X3.7047Y-3.7382
X3.7165Y-3.878
X3.721Y-3.9705
X3.7352Y-3.8137
X3.7362Y-3.3268
X3.7953Y-3.7776
X3.8142Y-4.2059
X3.8173Y-4.1728
X3.8437Y-4.2063
X3.8583Y-3.7972
X3.8642Y-3.7677
X3.8767Y-4.1995
X3.8878Y-3.8327
X3.9079Y-4.2647
X3.9172Y-4.2361
X3.9213Y-3.8278
X3.9213Y-4.3209
X3.9247Y-4.1745
X3.9429Y-4.2026
X3.9717Y-3.8223
X3.9764Y-3.3268
X3.9803Y-3.7638
X3.9897Y-3.6291
X3.998Y-3.7913
X4.0132Y-3.7641
X4.0335Y-3.3268
X4.0397Y-3.7915
X4.061Y-3.7657
X4.0728Y-3.7146
X4.0827Y-4.1732
X4.0827Y-4.2067
X4.1083Y-3.5367
X4.1087Y-3.9083
X4.1224Y-3.9904
X4.1299Y-3.4682
X4.1303Y-3.9338
X4.1319Y-3.7382
X4.1516Y-3.8406
X4.1654Y-4.2067
X4.1655Y-3.9555
X4.1752Y-4.3661
X4.1831Y-3.628
X4.2067Y-4.372
X4.2205Y-3.9154
X4.2244Y-3.4734
X4.2301Y-4.1447
X4.2323Y-4.0846
X4.2382Y-3.3268
X4.2406Y-4.3721
X4.2648Y-4.3731
X4.2654Y-4.2412
X4.2913Y-4.2677
X4.313Y-3.3268
X4.3425Y-3.9154
T4
X3.5821Y-3.7309
X3.6378Y-3.6752
X3.6935Y-3.6195
X3.8563Y-3.6791
X3.935Y-3.6791
X4.2199Y-3.7002
X4.2756Y-3.7559
X4.3313Y-3.8116
T5
X3.3984Y-3.2087
X3.4984Y-3.2087
X3.5984Y-3.2087
X3.6984Y-3.2087
X3.7984Y-3.2087
X3.9976Y-3.2087
X4.0976Y-3.2087
X4.1976Y-3.2087
X4.2976Y-3.2087
X4.3976Y-3.2087
T6
X3.8976Y-3.1496
M30
