%TF.GenerationSoftware,KiCad,Pcbnew,8.0.5*%
%TF.CreationDate,2024-10-28T09:22:43-07:00*%
%TF.ProjectId,card,63617264-2e6b-4696-9361-645f70636258,rev?*%
%TF.SameCoordinates,Original*%
%TF.FileFunction,Copper,L1,Top*%
%TF.FilePolarity,Positive*%
%FSLAX46Y46*%
G04 Gerber Fmt 4.6, Leading zero omitted, Abs format (unit mm)*
G04 Created by KiCad (PCBNEW 8.0.5) date 2024-10-28 09:22:43*
%MOMM*%
%LPD*%
G01*
G04 APERTURE LIST*
G04 Aperture macros list*
%AMRoundRect*
0 Rectangle with rounded corners*
0 $1 Rounding radius*
0 $2 $3 $4 $5 $6 $7 $8 $9 X,Y pos of 4 corners*
0 Add a 4 corners polygon primitive as box body*
4,1,4,$2,$3,$4,$5,$6,$7,$8,$9,$2,$3,0*
0 Add four circle primitives for the rounded corners*
1,1,$1+$1,$2,$3*
1,1,$1+$1,$4,$5*
1,1,$1+$1,$6,$7*
1,1,$1+$1,$8,$9*
0 Add four rect primitives between the rounded corners*
20,1,$1+$1,$2,$3,$4,$5,0*
20,1,$1+$1,$4,$5,$6,$7,0*
20,1,$1+$1,$6,$7,$8,$9,0*
20,1,$1+$1,$8,$9,$2,$3,0*%
%AMFreePoly0*
4,1,18,-0.437500,0.050000,-0.433694,0.069134,-0.422855,0.085355,-0.406634,0.096194,-0.387500,0.100000,0.387500,0.100000,0.437500,0.050000,0.437500,-0.050000,0.433694,-0.069134,0.422855,-0.085355,0.406634,-0.096194,0.387500,-0.100000,-0.387500,-0.100000,-0.406634,-0.096194,-0.422855,-0.085355,-0.433694,-0.069134,-0.437500,-0.050000,-0.437500,0.050000,-0.437500,0.050000,$1*%
%AMFreePoly1*
4,1,18,-0.437500,0.050000,-0.433694,0.069134,-0.422855,0.085355,-0.406634,0.096194,-0.387500,0.100000,0.387500,0.100000,0.406634,0.096194,0.422855,0.085355,0.433694,0.069134,0.437500,0.050000,0.437500,-0.050000,0.387500,-0.100000,-0.387500,-0.100000,-0.406634,-0.096194,-0.422855,-0.085355,-0.433694,-0.069134,-0.437500,-0.050000,-0.437500,0.050000,-0.437500,0.050000,$1*%
%AMFreePoly2*
4,1,18,-0.100000,0.387500,-0.050000,0.437500,0.050000,0.437500,0.069134,0.433694,0.085355,0.422855,0.096194,0.406634,0.100000,0.387500,0.100000,-0.387500,0.096194,-0.406634,0.085355,-0.422855,0.069134,-0.433694,0.050000,-0.437500,-0.050000,-0.437500,-0.069134,-0.433694,-0.085355,-0.422855,-0.096194,-0.406634,-0.100000,-0.387500,-0.100000,0.387500,-0.100000,0.387500,$1*%
%AMFreePoly3*
4,1,18,-0.100000,0.387500,-0.096194,0.406634,-0.085355,0.422855,-0.069134,0.433694,-0.050000,0.437500,0.050000,0.437500,0.100000,0.387500,0.100000,-0.387500,0.096194,-0.406634,0.085355,-0.422855,0.069134,-0.433694,0.050000,-0.437500,-0.050000,-0.437500,-0.069134,-0.433694,-0.085355,-0.422855,-0.096194,-0.406634,-0.100000,-0.387500,-0.100000,0.387500,-0.100000,0.387500,$1*%
%AMFreePoly4*
4,1,18,-0.437500,0.050000,-0.433694,0.069134,-0.422855,0.085355,-0.406634,0.096194,-0.387500,0.100000,0.387500,0.100000,0.406634,0.096194,0.422855,0.085355,0.433694,0.069134,0.437500,0.050000,0.437500,-0.050000,0.433694,-0.069134,0.422855,-0.085355,0.406634,-0.096194,0.387500,-0.100000,-0.387500,-0.100000,-0.437500,-0.050000,-0.437500,0.050000,-0.437500,0.050000,$1*%
%AMFreePoly5*
4,1,18,-0.437500,0.050000,-0.387500,0.100000,0.387500,0.100000,0.406634,0.096194,0.422855,0.085355,0.433694,0.069134,0.437500,0.050000,0.437500,-0.050000,0.433694,-0.069134,0.422855,-0.085355,0.406634,-0.096194,0.387500,-0.100000,-0.387500,-0.100000,-0.406634,-0.096194,-0.422855,-0.085355,-0.433694,-0.069134,-0.437500,-0.050000,-0.437500,0.050000,-0.437500,0.050000,$1*%
%AMFreePoly6*
4,1,18,-0.100000,0.387500,-0.096194,0.406634,-0.085355,0.422855,-0.069134,0.433694,-0.050000,0.437500,0.050000,0.437500,0.069134,0.433694,0.085355,0.422855,0.096194,0.406634,0.100000,0.387500,0.100000,-0.387500,0.050000,-0.437500,-0.050000,-0.437500,-0.069134,-0.433694,-0.085355,-0.422855,-0.096194,-0.406634,-0.100000,-0.387500,-0.100000,0.387500,-0.100000,0.387500,$1*%
%AMFreePoly7*
4,1,18,-0.100000,0.387500,-0.096194,0.406634,-0.085355,0.422855,-0.069134,0.433694,-0.050000,0.437500,0.050000,0.437500,0.069134,0.433694,0.085355,0.422855,0.096194,0.406634,0.100000,0.387500,0.100000,-0.387500,0.096194,-0.406634,0.085355,-0.422855,0.069134,-0.433694,0.050000,-0.437500,-0.050000,-0.437500,-0.100000,-0.387500,-0.100000,0.387500,-0.100000,0.387500,$1*%
%AMFreePoly8*
4,1,6,1.000000,0.000000,0.500000,-0.750000,-0.500000,-0.750000,-0.500000,0.750000,0.500000,0.750000,1.000000,0.000000,1.000000,0.000000,$1*%
%AMFreePoly9*
4,1,6,0.500000,-0.750000,-0.650000,-0.750000,-0.150000,0.000000,-0.650000,0.750000,0.500000,0.750000,0.500000,-0.750000,0.500000,-0.750000,$1*%
G04 Aperture macros list end*
%ADD10C,0.300000*%
%TA.AperFunction,NonConductor*%
%ADD11C,0.300000*%
%TD*%
%TA.AperFunction,NonConductor*%
%ADD12C,0.200000*%
%TD*%
%ADD13C,0.200000*%
%TA.AperFunction,NonConductor*%
%ADD14C,0.100000*%
%TD*%
%TA.AperFunction,SMDPad,CuDef*%
%ADD15RoundRect,0.135000X-0.135000X-0.185000X0.135000X-0.185000X0.135000X0.185000X-0.135000X0.185000X0*%
%TD*%
%TA.AperFunction,SMDPad,CuDef*%
%ADD16RoundRect,0.140000X0.140000X0.170000X-0.140000X0.170000X-0.140000X-0.170000X0.140000X-0.170000X0*%
%TD*%
%TA.AperFunction,SMDPad,CuDef*%
%ADD17RoundRect,0.250000X-0.475000X0.250000X-0.475000X-0.250000X0.475000X-0.250000X0.475000X0.250000X0*%
%TD*%
%TA.AperFunction,SMDPad,CuDef*%
%ADD18RoundRect,0.237500X0.287500X0.237500X-0.287500X0.237500X-0.287500X-0.237500X0.287500X-0.237500X0*%
%TD*%
%TA.AperFunction,SMDPad,CuDef*%
%ADD19RoundRect,0.140000X-0.140000X-0.170000X0.140000X-0.170000X0.140000X0.170000X-0.140000X0.170000X0*%
%TD*%
%TA.AperFunction,SMDPad,CuDef*%
%ADD20R,0.530000X0.470000*%
%TD*%
%TA.AperFunction,SMDPad,CuDef*%
%ADD21RoundRect,0.150000X0.512500X0.150000X-0.512500X0.150000X-0.512500X-0.150000X0.512500X-0.150000X0*%
%TD*%
%TA.AperFunction,SMDPad,CuDef*%
%ADD22RoundRect,0.140000X-0.170000X0.140000X-0.170000X-0.140000X0.170000X-0.140000X0.170000X0.140000X0*%
%TD*%
%TA.AperFunction,SMDPad,CuDef*%
%ADD23R,1.200000X1.400000*%
%TD*%
%TA.AperFunction,SMDPad,CuDef*%
%ADD24RoundRect,0.140000X0.170000X-0.140000X0.170000X0.140000X-0.170000X0.140000X-0.170000X-0.140000X0*%
%TD*%
%TA.AperFunction,SMDPad,CuDef*%
%ADD25R,0.350000X1.450000*%
%TD*%
%TA.AperFunction,ComponentPad*%
%ADD26C,6.000000*%
%TD*%
%TA.AperFunction,SMDPad,CuDef*%
%ADD27FreePoly0,90.000000*%
%TD*%
%TA.AperFunction,SMDPad,CuDef*%
%ADD28RoundRect,0.050000X0.050000X-0.387500X0.050000X0.387500X-0.050000X0.387500X-0.050000X-0.387500X0*%
%TD*%
%TA.AperFunction,SMDPad,CuDef*%
%ADD29FreePoly1,90.000000*%
%TD*%
%TA.AperFunction,SMDPad,CuDef*%
%ADD30FreePoly2,90.000000*%
%TD*%
%TA.AperFunction,SMDPad,CuDef*%
%ADD31RoundRect,0.050000X0.387500X-0.050000X0.387500X0.050000X-0.387500X0.050000X-0.387500X-0.050000X0*%
%TD*%
%TA.AperFunction,SMDPad,CuDef*%
%ADD32FreePoly3,90.000000*%
%TD*%
%TA.AperFunction,SMDPad,CuDef*%
%ADD33FreePoly4,90.000000*%
%TD*%
%TA.AperFunction,SMDPad,CuDef*%
%ADD34FreePoly5,90.000000*%
%TD*%
%TA.AperFunction,SMDPad,CuDef*%
%ADD35FreePoly6,90.000000*%
%TD*%
%TA.AperFunction,SMDPad,CuDef*%
%ADD36FreePoly7,90.000000*%
%TD*%
%TA.AperFunction,ComponentPad*%
%ADD37C,0.600000*%
%TD*%
%TA.AperFunction,SMDPad,CuDef*%
%ADD38RoundRect,0.153000X1.547000X1.547000X-1.547000X1.547000X-1.547000X-1.547000X1.547000X-1.547000X0*%
%TD*%
%TA.AperFunction,SMDPad,CuDef*%
%ADD39R,1.050000X0.650000*%
%TD*%
%TA.AperFunction,SMDPad,CuDef*%
%ADD40RoundRect,0.237500X-0.250000X-0.237500X0.250000X-0.237500X0.250000X0.237500X-0.250000X0.237500X0*%
%TD*%
%TA.AperFunction,SMDPad,CuDef*%
%ADD41FreePoly8,0.000000*%
%TD*%
%TA.AperFunction,SMDPad,CuDef*%
%ADD42FreePoly9,0.000000*%
%TD*%
%TA.AperFunction,SMDPad,CuDef*%
%ADD43RoundRect,0.135000X0.135000X0.185000X-0.135000X0.185000X-0.135000X-0.185000X0.135000X-0.185000X0*%
%TD*%
%TA.AperFunction,SMDPad,CuDef*%
%ADD44RoundRect,0.150000X0.150000X-0.650000X0.150000X0.650000X-0.150000X0.650000X-0.150000X-0.650000X0*%
%TD*%
%TA.AperFunction,SMDPad,CuDef*%
%ADD45R,1.700000X0.700000*%
%TD*%
%TA.AperFunction,ViaPad*%
%ADD46C,0.600000*%
%TD*%
%TA.AperFunction,Conductor*%
%ADD47C,0.150000*%
%TD*%
%TA.AperFunction,Conductor*%
%ADD48C,0.300000*%
%TD*%
%TA.AperFunction,Conductor*%
%ADD49C,0.200000*%
%TD*%
%TA.AperFunction,Conductor*%
%ADD50C,0.600000*%
%TD*%
G04 APERTURE END LIST*
D10*
D11*
X115778328Y-120199998D02*
X115778328Y-119271426D01*
X115778328Y-119271426D02*
X116349757Y-119771426D01*
X116349757Y-119771426D02*
X116349757Y-119557141D01*
X116349757Y-119557141D02*
X116421185Y-119414284D01*
X116421185Y-119414284D02*
X116492614Y-119342855D01*
X116492614Y-119342855D02*
X116635471Y-119271426D01*
X116635471Y-119271426D02*
X116992614Y-119271426D01*
X116992614Y-119271426D02*
X117135471Y-119342855D01*
X117135471Y-119342855D02*
X117206900Y-119414284D01*
X117206900Y-119414284D02*
X117278328Y-119557141D01*
X117278328Y-119557141D02*
X117278328Y-119985712D01*
X117278328Y-119985712D02*
X117206900Y-120128569D01*
X117206900Y-120128569D02*
X117135471Y-120199998D01*
X116278328Y-117985713D02*
X117278328Y-117985713D01*
X115706900Y-118342855D02*
X116778328Y-118699998D01*
X116778328Y-118699998D02*
X116778328Y-117771427D01*
X117135471Y-117199999D02*
X117206900Y-117128570D01*
X117206900Y-117128570D02*
X117278328Y-117199999D01*
X117278328Y-117199999D02*
X117206900Y-117271427D01*
X117206900Y-117271427D02*
X117135471Y-117199999D01*
X117135471Y-117199999D02*
X117278328Y-117199999D01*
X115778328Y-116199998D02*
X115778328Y-116057141D01*
X115778328Y-116057141D02*
X115849757Y-115914284D01*
X115849757Y-115914284D02*
X115921185Y-115842856D01*
X115921185Y-115842856D02*
X116064042Y-115771427D01*
X116064042Y-115771427D02*
X116349757Y-115699998D01*
X116349757Y-115699998D02*
X116706900Y-115699998D01*
X116706900Y-115699998D02*
X116992614Y-115771427D01*
X116992614Y-115771427D02*
X117135471Y-115842856D01*
X117135471Y-115842856D02*
X117206900Y-115914284D01*
X117206900Y-115914284D02*
X117278328Y-116057141D01*
X117278328Y-116057141D02*
X117278328Y-116199998D01*
X117278328Y-116199998D02*
X117206900Y-116342856D01*
X117206900Y-116342856D02*
X117135471Y-116414284D01*
X117135471Y-116414284D02*
X116992614Y-116485713D01*
X116992614Y-116485713D02*
X116706900Y-116557141D01*
X116706900Y-116557141D02*
X116349757Y-116557141D01*
X116349757Y-116557141D02*
X116064042Y-116485713D01*
X116064042Y-116485713D02*
X115921185Y-116414284D01*
X115921185Y-116414284D02*
X115849757Y-116342856D01*
X115849757Y-116342856D02*
X115778328Y-116199998D01*
X115778328Y-114771427D02*
X115778328Y-114628570D01*
X115778328Y-114628570D02*
X115849757Y-114485713D01*
X115849757Y-114485713D02*
X115921185Y-114414285D01*
X115921185Y-114414285D02*
X116064042Y-114342856D01*
X116064042Y-114342856D02*
X116349757Y-114271427D01*
X116349757Y-114271427D02*
X116706900Y-114271427D01*
X116706900Y-114271427D02*
X116992614Y-114342856D01*
X116992614Y-114342856D02*
X117135471Y-114414285D01*
X117135471Y-114414285D02*
X117206900Y-114485713D01*
X117206900Y-114485713D02*
X117278328Y-114628570D01*
X117278328Y-114628570D02*
X117278328Y-114771427D01*
X117278328Y-114771427D02*
X117206900Y-114914285D01*
X117206900Y-114914285D02*
X117135471Y-114985713D01*
X117135471Y-114985713D02*
X116992614Y-115057142D01*
X116992614Y-115057142D02*
X116706900Y-115128570D01*
X116706900Y-115128570D02*
X116349757Y-115128570D01*
X116349757Y-115128570D02*
X116064042Y-115057142D01*
X116064042Y-115057142D02*
X115921185Y-114985713D01*
X115921185Y-114985713D02*
X115849757Y-114914285D01*
X115849757Y-114914285D02*
X115778328Y-114771427D01*
X115778328Y-113342856D02*
X115778328Y-113199999D01*
X115778328Y-113199999D02*
X115849757Y-113057142D01*
X115849757Y-113057142D02*
X115921185Y-112985714D01*
X115921185Y-112985714D02*
X116064042Y-112914285D01*
X116064042Y-112914285D02*
X116349757Y-112842856D01*
X116349757Y-112842856D02*
X116706900Y-112842856D01*
X116706900Y-112842856D02*
X116992614Y-112914285D01*
X116992614Y-112914285D02*
X117135471Y-112985714D01*
X117135471Y-112985714D02*
X117206900Y-113057142D01*
X117206900Y-113057142D02*
X117278328Y-113199999D01*
X117278328Y-113199999D02*
X117278328Y-113342856D01*
X117278328Y-113342856D02*
X117206900Y-113485714D01*
X117206900Y-113485714D02*
X117135471Y-113557142D01*
X117135471Y-113557142D02*
X116992614Y-113628571D01*
X116992614Y-113628571D02*
X116706900Y-113699999D01*
X116706900Y-113699999D02*
X116349757Y-113699999D01*
X116349757Y-113699999D02*
X116064042Y-113628571D01*
X116064042Y-113628571D02*
X115921185Y-113557142D01*
X115921185Y-113557142D02*
X115849757Y-113485714D01*
X115849757Y-113485714D02*
X115778328Y-113342856D01*
X115778328Y-111914285D02*
X115778328Y-111771428D01*
X115778328Y-111771428D02*
X115849757Y-111628571D01*
X115849757Y-111628571D02*
X115921185Y-111557143D01*
X115921185Y-111557143D02*
X116064042Y-111485714D01*
X116064042Y-111485714D02*
X116349757Y-111414285D01*
X116349757Y-111414285D02*
X116706900Y-111414285D01*
X116706900Y-111414285D02*
X116992614Y-111485714D01*
X116992614Y-111485714D02*
X117135471Y-111557143D01*
X117135471Y-111557143D02*
X117206900Y-111628571D01*
X117206900Y-111628571D02*
X117278328Y-111771428D01*
X117278328Y-111771428D02*
X117278328Y-111914285D01*
X117278328Y-111914285D02*
X117206900Y-112057143D01*
X117206900Y-112057143D02*
X117135471Y-112128571D01*
X117135471Y-112128571D02*
X116992614Y-112200000D01*
X116992614Y-112200000D02*
X116706900Y-112271428D01*
X116706900Y-112271428D02*
X116349757Y-112271428D01*
X116349757Y-112271428D02*
X116064042Y-112200000D01*
X116064042Y-112200000D02*
X115921185Y-112128571D01*
X115921185Y-112128571D02*
X115849757Y-112057143D01*
X115849757Y-112057143D02*
X115778328Y-111914285D01*
X117278328Y-109628572D02*
X116278328Y-109628572D01*
X116421185Y-109628572D02*
X116349757Y-109557143D01*
X116349757Y-109557143D02*
X116278328Y-109414286D01*
X116278328Y-109414286D02*
X116278328Y-109200000D01*
X116278328Y-109200000D02*
X116349757Y-109057143D01*
X116349757Y-109057143D02*
X116492614Y-108985715D01*
X116492614Y-108985715D02*
X117278328Y-108985715D01*
X116492614Y-108985715D02*
X116349757Y-108914286D01*
X116349757Y-108914286D02*
X116278328Y-108771429D01*
X116278328Y-108771429D02*
X116278328Y-108557143D01*
X116278328Y-108557143D02*
X116349757Y-108414286D01*
X116349757Y-108414286D02*
X116492614Y-108342857D01*
X116492614Y-108342857D02*
X117278328Y-108342857D01*
X117278328Y-107628572D02*
X116278328Y-107628572D01*
X116421185Y-107628572D02*
X116349757Y-107557143D01*
X116349757Y-107557143D02*
X116278328Y-107414286D01*
X116278328Y-107414286D02*
X116278328Y-107200000D01*
X116278328Y-107200000D02*
X116349757Y-107057143D01*
X116349757Y-107057143D02*
X116492614Y-106985715D01*
X116492614Y-106985715D02*
X117278328Y-106985715D01*
X116492614Y-106985715D02*
X116349757Y-106914286D01*
X116349757Y-106914286D02*
X116278328Y-106771429D01*
X116278328Y-106771429D02*
X116278328Y-106557143D01*
X116278328Y-106557143D02*
X116349757Y-106414286D01*
X116349757Y-106414286D02*
X116492614Y-106342857D01*
X116492614Y-106342857D02*
X117278328Y-106342857D01*
D12*
X110425000Y-132200000D02*
X117236420Y-132200000D01*
X117236420Y-98200000D02*
X115500000Y-98200000D01*
X116650000Y-132200000D02*
X116650000Y-121464284D01*
X116650000Y-104935715D02*
X116650000Y-98200000D01*
X116650000Y-132200000D02*
X116063579Y-131073496D01*
X116650000Y-132200000D02*
X117236421Y-131073496D01*
X116650000Y-98200000D02*
X117236421Y-99326504D01*
X116650000Y-98200000D02*
X116063579Y-99326504D01*
D13*
D12*
X102857143Y-135252219D02*
X102285715Y-135252219D01*
X102571429Y-135252219D02*
X102571429Y-134252219D01*
X102571429Y-134252219D02*
X102476191Y-134395076D01*
X102476191Y-134395076D02*
X102380953Y-134490314D01*
X102380953Y-134490314D02*
X102285715Y-134537933D01*
X103285715Y-135156980D02*
X103333334Y-135204600D01*
X103333334Y-135204600D02*
X103285715Y-135252219D01*
X103285715Y-135252219D02*
X103238096Y-135204600D01*
X103238096Y-135204600D02*
X103285715Y-135156980D01*
X103285715Y-135156980D02*
X103285715Y-135252219D01*
X103714286Y-134347457D02*
X103761905Y-134299838D01*
X103761905Y-134299838D02*
X103857143Y-134252219D01*
X103857143Y-134252219D02*
X104095238Y-134252219D01*
X104095238Y-134252219D02*
X104190476Y-134299838D01*
X104190476Y-134299838D02*
X104238095Y-134347457D01*
X104238095Y-134347457D02*
X104285714Y-134442695D01*
X104285714Y-134442695D02*
X104285714Y-134537933D01*
X104285714Y-134537933D02*
X104238095Y-134680790D01*
X104238095Y-134680790D02*
X103666667Y-135252219D01*
X103666667Y-135252219D02*
X104285714Y-135252219D01*
X105476191Y-135252219D02*
X105476191Y-134585552D01*
X105476191Y-134680790D02*
X105523810Y-134633171D01*
X105523810Y-134633171D02*
X105619048Y-134585552D01*
X105619048Y-134585552D02*
X105761905Y-134585552D01*
X105761905Y-134585552D02*
X105857143Y-134633171D01*
X105857143Y-134633171D02*
X105904762Y-134728409D01*
X105904762Y-134728409D02*
X105904762Y-135252219D01*
X105904762Y-134728409D02*
X105952381Y-134633171D01*
X105952381Y-134633171D02*
X106047619Y-134585552D01*
X106047619Y-134585552D02*
X106190476Y-134585552D01*
X106190476Y-134585552D02*
X106285715Y-134633171D01*
X106285715Y-134633171D02*
X106333334Y-134728409D01*
X106333334Y-134728409D02*
X106333334Y-135252219D01*
X106809524Y-135252219D02*
X106809524Y-134585552D01*
X106809524Y-134680790D02*
X106857143Y-134633171D01*
X106857143Y-134633171D02*
X106952381Y-134585552D01*
X106952381Y-134585552D02*
X107095238Y-134585552D01*
X107095238Y-134585552D02*
X107190476Y-134633171D01*
X107190476Y-134633171D02*
X107238095Y-134728409D01*
X107238095Y-134728409D02*
X107238095Y-135252219D01*
X107238095Y-134728409D02*
X107285714Y-134633171D01*
X107285714Y-134633171D02*
X107380952Y-134585552D01*
X107380952Y-134585552D02*
X107523809Y-134585552D01*
X107523809Y-134585552D02*
X107619048Y-134633171D01*
X107619048Y-134633171D02*
X107666667Y-134728409D01*
X107666667Y-134728409D02*
X107666667Y-135252219D01*
D14*
X102025000Y-130700000D02*
X102025000Y-134486420D01*
X103225000Y-130700000D02*
X103225000Y-134486420D01*
X102025000Y-133900000D02*
X103225000Y-133900000D01*
X102025000Y-133900000D02*
X103225000Y-133900000D01*
X102025000Y-133900000D02*
X102468505Y-133669126D01*
X102025000Y-133900000D02*
X102468505Y-134130874D01*
X103225000Y-133900000D02*
X102781495Y-134130874D01*
X103225000Y-133900000D02*
X102781495Y-133669126D01*
D13*
D12*
X92152381Y-135852219D02*
X91580953Y-135852219D01*
X91866667Y-135852219D02*
X91866667Y-134852219D01*
X91866667Y-134852219D02*
X91771429Y-134995076D01*
X91771429Y-134995076D02*
X91676191Y-135090314D01*
X91676191Y-135090314D02*
X91580953Y-135137933D01*
X92628572Y-135852219D02*
X92819048Y-135852219D01*
X92819048Y-135852219D02*
X92914286Y-135804600D01*
X92914286Y-135804600D02*
X92961905Y-135756980D01*
X92961905Y-135756980D02*
X93057143Y-135614123D01*
X93057143Y-135614123D02*
X93104762Y-135423647D01*
X93104762Y-135423647D02*
X93104762Y-135042695D01*
X93104762Y-135042695D02*
X93057143Y-134947457D01*
X93057143Y-134947457D02*
X93009524Y-134899838D01*
X93009524Y-134899838D02*
X92914286Y-134852219D01*
X92914286Y-134852219D02*
X92723810Y-134852219D01*
X92723810Y-134852219D02*
X92628572Y-134899838D01*
X92628572Y-134899838D02*
X92580953Y-134947457D01*
X92580953Y-134947457D02*
X92533334Y-135042695D01*
X92533334Y-135042695D02*
X92533334Y-135280790D01*
X92533334Y-135280790D02*
X92580953Y-135376028D01*
X92580953Y-135376028D02*
X92628572Y-135423647D01*
X92628572Y-135423647D02*
X92723810Y-135471266D01*
X92723810Y-135471266D02*
X92914286Y-135471266D01*
X92914286Y-135471266D02*
X93009524Y-135423647D01*
X93009524Y-135423647D02*
X93057143Y-135376028D01*
X93057143Y-135376028D02*
X93104762Y-135280790D01*
X93533334Y-135756980D02*
X93580953Y-135804600D01*
X93580953Y-135804600D02*
X93533334Y-135852219D01*
X93533334Y-135852219D02*
X93485715Y-135804600D01*
X93485715Y-135804600D02*
X93533334Y-135756980D01*
X93533334Y-135756980D02*
X93533334Y-135852219D01*
X94152381Y-135280790D02*
X94057143Y-135233171D01*
X94057143Y-135233171D02*
X94009524Y-135185552D01*
X94009524Y-135185552D02*
X93961905Y-135090314D01*
X93961905Y-135090314D02*
X93961905Y-135042695D01*
X93961905Y-135042695D02*
X94009524Y-134947457D01*
X94009524Y-134947457D02*
X94057143Y-134899838D01*
X94057143Y-134899838D02*
X94152381Y-134852219D01*
X94152381Y-134852219D02*
X94342857Y-134852219D01*
X94342857Y-134852219D02*
X94438095Y-134899838D01*
X94438095Y-134899838D02*
X94485714Y-134947457D01*
X94485714Y-134947457D02*
X94533333Y-135042695D01*
X94533333Y-135042695D02*
X94533333Y-135090314D01*
X94533333Y-135090314D02*
X94485714Y-135185552D01*
X94485714Y-135185552D02*
X94438095Y-135233171D01*
X94438095Y-135233171D02*
X94342857Y-135280790D01*
X94342857Y-135280790D02*
X94152381Y-135280790D01*
X94152381Y-135280790D02*
X94057143Y-135328409D01*
X94057143Y-135328409D02*
X94009524Y-135376028D01*
X94009524Y-135376028D02*
X93961905Y-135471266D01*
X93961905Y-135471266D02*
X93961905Y-135661742D01*
X93961905Y-135661742D02*
X94009524Y-135756980D01*
X94009524Y-135756980D02*
X94057143Y-135804600D01*
X94057143Y-135804600D02*
X94152381Y-135852219D01*
X94152381Y-135852219D02*
X94342857Y-135852219D01*
X94342857Y-135852219D02*
X94438095Y-135804600D01*
X94438095Y-135804600D02*
X94485714Y-135756980D01*
X94485714Y-135756980D02*
X94533333Y-135661742D01*
X94533333Y-135661742D02*
X94533333Y-135471266D01*
X94533333Y-135471266D02*
X94485714Y-135376028D01*
X94485714Y-135376028D02*
X94438095Y-135328409D01*
X94438095Y-135328409D02*
X94342857Y-135280790D01*
X95438095Y-134852219D02*
X94961905Y-134852219D01*
X94961905Y-134852219D02*
X94914286Y-135328409D01*
X94914286Y-135328409D02*
X94961905Y-135280790D01*
X94961905Y-135280790D02*
X95057143Y-135233171D01*
X95057143Y-135233171D02*
X95295238Y-135233171D01*
X95295238Y-135233171D02*
X95390476Y-135280790D01*
X95390476Y-135280790D02*
X95438095Y-135328409D01*
X95438095Y-135328409D02*
X95485714Y-135423647D01*
X95485714Y-135423647D02*
X95485714Y-135661742D01*
X95485714Y-135661742D02*
X95438095Y-135756980D01*
X95438095Y-135756980D02*
X95390476Y-135804600D01*
X95390476Y-135804600D02*
X95295238Y-135852219D01*
X95295238Y-135852219D02*
X95057143Y-135852219D01*
X95057143Y-135852219D02*
X94961905Y-135804600D01*
X94961905Y-135804600D02*
X94914286Y-135756980D01*
X96104762Y-134852219D02*
X96200000Y-134852219D01*
X96200000Y-134852219D02*
X96295238Y-134899838D01*
X96295238Y-134899838D02*
X96342857Y-134947457D01*
X96342857Y-134947457D02*
X96390476Y-135042695D01*
X96390476Y-135042695D02*
X96438095Y-135233171D01*
X96438095Y-135233171D02*
X96438095Y-135471266D01*
X96438095Y-135471266D02*
X96390476Y-135661742D01*
X96390476Y-135661742D02*
X96342857Y-135756980D01*
X96342857Y-135756980D02*
X96295238Y-135804600D01*
X96295238Y-135804600D02*
X96200000Y-135852219D01*
X96200000Y-135852219D02*
X96104762Y-135852219D01*
X96104762Y-135852219D02*
X96009524Y-135804600D01*
X96009524Y-135804600D02*
X95961905Y-135756980D01*
X95961905Y-135756980D02*
X95914286Y-135661742D01*
X95914286Y-135661742D02*
X95866667Y-135471266D01*
X95866667Y-135471266D02*
X95866667Y-135233171D01*
X95866667Y-135233171D02*
X95914286Y-135042695D01*
X95914286Y-135042695D02*
X95961905Y-134947457D01*
X95961905Y-134947457D02*
X96009524Y-134899838D01*
X96009524Y-134899838D02*
X96104762Y-134852219D01*
X97057143Y-134852219D02*
X97152381Y-134852219D01*
X97152381Y-134852219D02*
X97247619Y-134899838D01*
X97247619Y-134899838D02*
X97295238Y-134947457D01*
X97295238Y-134947457D02*
X97342857Y-135042695D01*
X97342857Y-135042695D02*
X97390476Y-135233171D01*
X97390476Y-135233171D02*
X97390476Y-135471266D01*
X97390476Y-135471266D02*
X97342857Y-135661742D01*
X97342857Y-135661742D02*
X97295238Y-135756980D01*
X97295238Y-135756980D02*
X97247619Y-135804600D01*
X97247619Y-135804600D02*
X97152381Y-135852219D01*
X97152381Y-135852219D02*
X97057143Y-135852219D01*
X97057143Y-135852219D02*
X96961905Y-135804600D01*
X96961905Y-135804600D02*
X96914286Y-135756980D01*
X96914286Y-135756980D02*
X96866667Y-135661742D01*
X96866667Y-135661742D02*
X96819048Y-135471266D01*
X96819048Y-135471266D02*
X96819048Y-135233171D01*
X96819048Y-135233171D02*
X96866667Y-135042695D01*
X96866667Y-135042695D02*
X96914286Y-134947457D01*
X96914286Y-134947457D02*
X96961905Y-134899838D01*
X96961905Y-134899838D02*
X97057143Y-134852219D01*
X98580953Y-135852219D02*
X98580953Y-135185552D01*
X98580953Y-135280790D02*
X98628572Y-135233171D01*
X98628572Y-135233171D02*
X98723810Y-135185552D01*
X98723810Y-135185552D02*
X98866667Y-135185552D01*
X98866667Y-135185552D02*
X98961905Y-135233171D01*
X98961905Y-135233171D02*
X99009524Y-135328409D01*
X99009524Y-135328409D02*
X99009524Y-135852219D01*
X99009524Y-135328409D02*
X99057143Y-135233171D01*
X99057143Y-135233171D02*
X99152381Y-135185552D01*
X99152381Y-135185552D02*
X99295238Y-135185552D01*
X99295238Y-135185552D02*
X99390477Y-135233171D01*
X99390477Y-135233171D02*
X99438096Y-135328409D01*
X99438096Y-135328409D02*
X99438096Y-135852219D01*
X99914286Y-135852219D02*
X99914286Y-135185552D01*
X99914286Y-135280790D02*
X99961905Y-135233171D01*
X99961905Y-135233171D02*
X100057143Y-135185552D01*
X100057143Y-135185552D02*
X100200000Y-135185552D01*
X100200000Y-135185552D02*
X100295238Y-135233171D01*
X100295238Y-135233171D02*
X100342857Y-135328409D01*
X100342857Y-135328409D02*
X100342857Y-135852219D01*
X100342857Y-135328409D02*
X100390476Y-135233171D01*
X100390476Y-135233171D02*
X100485714Y-135185552D01*
X100485714Y-135185552D02*
X100628571Y-135185552D01*
X100628571Y-135185552D02*
X100723810Y-135233171D01*
X100723810Y-135233171D02*
X100771429Y-135328409D01*
X100771429Y-135328409D02*
X100771429Y-135852219D01*
D14*
X90075000Y-132700000D02*
X90075000Y-136086420D01*
X109925000Y-132700000D02*
X109925000Y-136086420D01*
X90075000Y-135500000D02*
X90690477Y-135500000D01*
X101709524Y-135500000D02*
X109925000Y-135500000D01*
X90075000Y-135500000D02*
X90518505Y-135269126D01*
X90075000Y-135500000D02*
X90518505Y-135730874D01*
X109925000Y-135500000D02*
X109481495Y-135730874D01*
X109925000Y-135500000D02*
X109481495Y-135269126D01*
D13*
D12*
X104361905Y-132752219D02*
X104171429Y-132752219D01*
X104171429Y-132752219D02*
X104076191Y-132799838D01*
X104076191Y-132799838D02*
X104028572Y-132847457D01*
X104028572Y-132847457D02*
X103933334Y-132990314D01*
X103933334Y-132990314D02*
X103885715Y-133180790D01*
X103885715Y-133180790D02*
X103885715Y-133561742D01*
X103885715Y-133561742D02*
X103933334Y-133656980D01*
X103933334Y-133656980D02*
X103980953Y-133704600D01*
X103980953Y-133704600D02*
X104076191Y-133752219D01*
X104076191Y-133752219D02*
X104266667Y-133752219D01*
X104266667Y-133752219D02*
X104361905Y-133704600D01*
X104361905Y-133704600D02*
X104409524Y-133656980D01*
X104409524Y-133656980D02*
X104457143Y-133561742D01*
X104457143Y-133561742D02*
X104457143Y-133323647D01*
X104457143Y-133323647D02*
X104409524Y-133228409D01*
X104409524Y-133228409D02*
X104361905Y-133180790D01*
X104361905Y-133180790D02*
X104266667Y-133133171D01*
X104266667Y-133133171D02*
X104076191Y-133133171D01*
X104076191Y-133133171D02*
X103980953Y-133180790D01*
X103980953Y-133180790D02*
X103933334Y-133228409D01*
X103933334Y-133228409D02*
X103885715Y-133323647D01*
X104885715Y-133656980D02*
X104933334Y-133704600D01*
X104933334Y-133704600D02*
X104885715Y-133752219D01*
X104885715Y-133752219D02*
X104838096Y-133704600D01*
X104838096Y-133704600D02*
X104885715Y-133656980D01*
X104885715Y-133656980D02*
X104885715Y-133752219D01*
X105266667Y-132752219D02*
X105933333Y-132752219D01*
X105933333Y-132752219D02*
X105504762Y-133752219D01*
X107076191Y-133752219D02*
X107076191Y-133085552D01*
X107076191Y-133180790D02*
X107123810Y-133133171D01*
X107123810Y-133133171D02*
X107219048Y-133085552D01*
X107219048Y-133085552D02*
X107361905Y-133085552D01*
X107361905Y-133085552D02*
X107457143Y-133133171D01*
X107457143Y-133133171D02*
X107504762Y-133228409D01*
X107504762Y-133228409D02*
X107504762Y-133752219D01*
X107504762Y-133228409D02*
X107552381Y-133133171D01*
X107552381Y-133133171D02*
X107647619Y-133085552D01*
X107647619Y-133085552D02*
X107790476Y-133085552D01*
X107790476Y-133085552D02*
X107885715Y-133133171D01*
X107885715Y-133133171D02*
X107933334Y-133228409D01*
X107933334Y-133228409D02*
X107933334Y-133752219D01*
X108409524Y-133752219D02*
X108409524Y-133085552D01*
X108409524Y-133180790D02*
X108457143Y-133133171D01*
X108457143Y-133133171D02*
X108552381Y-133085552D01*
X108552381Y-133085552D02*
X108695238Y-133085552D01*
X108695238Y-133085552D02*
X108790476Y-133133171D01*
X108790476Y-133133171D02*
X108838095Y-133228409D01*
X108838095Y-133228409D02*
X108838095Y-133752219D01*
X108838095Y-133228409D02*
X108885714Y-133133171D01*
X108885714Y-133133171D02*
X108980952Y-133085552D01*
X108980952Y-133085552D02*
X109123809Y-133085552D01*
X109123809Y-133085552D02*
X109219048Y-133133171D01*
X109219048Y-133133171D02*
X109266667Y-133228409D01*
X109266667Y-133228409D02*
X109266667Y-133752219D01*
D14*
X103225000Y-132700000D02*
X103225000Y-133886420D01*
X109925000Y-132700000D02*
X109925000Y-133886420D01*
X103225000Y-133300000D02*
X103668505Y-133069126D01*
X103225000Y-133300000D02*
X103668505Y-133530874D01*
X109925000Y-133300000D02*
X109481495Y-133530874D01*
X109925000Y-133300000D02*
X109481495Y-133069126D01*
D13*
D12*
X92504762Y-133952219D02*
X91933334Y-133952219D01*
X92219048Y-133952219D02*
X92219048Y-132952219D01*
X92219048Y-132952219D02*
X92123810Y-133095076D01*
X92123810Y-133095076D02*
X92028572Y-133190314D01*
X92028572Y-133190314D02*
X91933334Y-133237933D01*
X93457143Y-133952219D02*
X92885715Y-133952219D01*
X93171429Y-133952219D02*
X93171429Y-132952219D01*
X93171429Y-132952219D02*
X93076191Y-133095076D01*
X93076191Y-133095076D02*
X92980953Y-133190314D01*
X92980953Y-133190314D02*
X92885715Y-133237933D01*
X93885715Y-133856980D02*
X93933334Y-133904600D01*
X93933334Y-133904600D02*
X93885715Y-133952219D01*
X93885715Y-133952219D02*
X93838096Y-133904600D01*
X93838096Y-133904600D02*
X93885715Y-133856980D01*
X93885715Y-133856980D02*
X93885715Y-133952219D01*
X94409524Y-133952219D02*
X94600000Y-133952219D01*
X94600000Y-133952219D02*
X94695238Y-133904600D01*
X94695238Y-133904600D02*
X94742857Y-133856980D01*
X94742857Y-133856980D02*
X94838095Y-133714123D01*
X94838095Y-133714123D02*
X94885714Y-133523647D01*
X94885714Y-133523647D02*
X94885714Y-133142695D01*
X94885714Y-133142695D02*
X94838095Y-133047457D01*
X94838095Y-133047457D02*
X94790476Y-132999838D01*
X94790476Y-132999838D02*
X94695238Y-132952219D01*
X94695238Y-132952219D02*
X94504762Y-132952219D01*
X94504762Y-132952219D02*
X94409524Y-132999838D01*
X94409524Y-132999838D02*
X94361905Y-133047457D01*
X94361905Y-133047457D02*
X94314286Y-133142695D01*
X94314286Y-133142695D02*
X94314286Y-133380790D01*
X94314286Y-133380790D02*
X94361905Y-133476028D01*
X94361905Y-133476028D02*
X94409524Y-133523647D01*
X94409524Y-133523647D02*
X94504762Y-133571266D01*
X94504762Y-133571266D02*
X94695238Y-133571266D01*
X94695238Y-133571266D02*
X94790476Y-133523647D01*
X94790476Y-133523647D02*
X94838095Y-133476028D01*
X94838095Y-133476028D02*
X94885714Y-133380790D01*
X95790476Y-132952219D02*
X95314286Y-132952219D01*
X95314286Y-132952219D02*
X95266667Y-133428409D01*
X95266667Y-133428409D02*
X95314286Y-133380790D01*
X95314286Y-133380790D02*
X95409524Y-133333171D01*
X95409524Y-133333171D02*
X95647619Y-133333171D01*
X95647619Y-133333171D02*
X95742857Y-133380790D01*
X95742857Y-133380790D02*
X95790476Y-133428409D01*
X95790476Y-133428409D02*
X95838095Y-133523647D01*
X95838095Y-133523647D02*
X95838095Y-133761742D01*
X95838095Y-133761742D02*
X95790476Y-133856980D01*
X95790476Y-133856980D02*
X95742857Y-133904600D01*
X95742857Y-133904600D02*
X95647619Y-133952219D01*
X95647619Y-133952219D02*
X95409524Y-133952219D01*
X95409524Y-133952219D02*
X95314286Y-133904600D01*
X95314286Y-133904600D02*
X95266667Y-133856980D01*
X97028572Y-133952219D02*
X97028572Y-133285552D01*
X97028572Y-133380790D02*
X97076191Y-133333171D01*
X97076191Y-133333171D02*
X97171429Y-133285552D01*
X97171429Y-133285552D02*
X97314286Y-133285552D01*
X97314286Y-133285552D02*
X97409524Y-133333171D01*
X97409524Y-133333171D02*
X97457143Y-133428409D01*
X97457143Y-133428409D02*
X97457143Y-133952219D01*
X97457143Y-133428409D02*
X97504762Y-133333171D01*
X97504762Y-133333171D02*
X97600000Y-133285552D01*
X97600000Y-133285552D02*
X97742857Y-133285552D01*
X97742857Y-133285552D02*
X97838096Y-133333171D01*
X97838096Y-133333171D02*
X97885715Y-133428409D01*
X97885715Y-133428409D02*
X97885715Y-133952219D01*
X98361905Y-133952219D02*
X98361905Y-133285552D01*
X98361905Y-133380790D02*
X98409524Y-133333171D01*
X98409524Y-133333171D02*
X98504762Y-133285552D01*
X98504762Y-133285552D02*
X98647619Y-133285552D01*
X98647619Y-133285552D02*
X98742857Y-133333171D01*
X98742857Y-133333171D02*
X98790476Y-133428409D01*
X98790476Y-133428409D02*
X98790476Y-133952219D01*
X98790476Y-133428409D02*
X98838095Y-133333171D01*
X98838095Y-133333171D02*
X98933333Y-133285552D01*
X98933333Y-133285552D02*
X99076190Y-133285552D01*
X99076190Y-133285552D02*
X99171429Y-133333171D01*
X99171429Y-133333171D02*
X99219048Y-133428409D01*
X99219048Y-133428409D02*
X99219048Y-133952219D01*
D14*
X90075000Y-132700000D02*
X90075000Y-133886420D01*
X102025000Y-132700000D02*
X102025000Y-133886420D01*
X90075000Y-133300000D02*
X91042858Y-133300000D01*
X100157143Y-133300000D02*
X102025000Y-133300000D01*
X90075000Y-133300000D02*
X90518505Y-133069126D01*
X90075000Y-133300000D02*
X90518505Y-133530874D01*
X102025000Y-133300000D02*
X101581495Y-133530874D01*
X102025000Y-133300000D02*
X101581495Y-133069126D01*
D10*
D11*
X88614286Y-96178328D02*
X89542858Y-96178328D01*
X89542858Y-96178328D02*
X89042858Y-96749757D01*
X89042858Y-96749757D02*
X89257143Y-96749757D01*
X89257143Y-96749757D02*
X89400001Y-96821185D01*
X89400001Y-96821185D02*
X89471429Y-96892614D01*
X89471429Y-96892614D02*
X89542858Y-97035471D01*
X89542858Y-97035471D02*
X89542858Y-97392614D01*
X89542858Y-97392614D02*
X89471429Y-97535471D01*
X89471429Y-97535471D02*
X89400001Y-97606900D01*
X89400001Y-97606900D02*
X89257143Y-97678328D01*
X89257143Y-97678328D02*
X88828572Y-97678328D01*
X88828572Y-97678328D02*
X88685715Y-97606900D01*
X88685715Y-97606900D02*
X88614286Y-97535471D01*
X90471429Y-96178328D02*
X90614286Y-96178328D01*
X90614286Y-96178328D02*
X90757143Y-96249757D01*
X90757143Y-96249757D02*
X90828572Y-96321185D01*
X90828572Y-96321185D02*
X90900000Y-96464042D01*
X90900000Y-96464042D02*
X90971429Y-96749757D01*
X90971429Y-96749757D02*
X90971429Y-97106900D01*
X90971429Y-97106900D02*
X90900000Y-97392614D01*
X90900000Y-97392614D02*
X90828572Y-97535471D01*
X90828572Y-97535471D02*
X90757143Y-97606900D01*
X90757143Y-97606900D02*
X90614286Y-97678328D01*
X90614286Y-97678328D02*
X90471429Y-97678328D01*
X90471429Y-97678328D02*
X90328572Y-97606900D01*
X90328572Y-97606900D02*
X90257143Y-97535471D01*
X90257143Y-97535471D02*
X90185714Y-97392614D01*
X90185714Y-97392614D02*
X90114286Y-97106900D01*
X90114286Y-97106900D02*
X90114286Y-96749757D01*
X90114286Y-96749757D02*
X90185714Y-96464042D01*
X90185714Y-96464042D02*
X90257143Y-96321185D01*
X90257143Y-96321185D02*
X90328572Y-96249757D01*
X90328572Y-96249757D02*
X90471429Y-96178328D01*
X92757142Y-97678328D02*
X92757142Y-96678328D01*
X92757142Y-96821185D02*
X92828571Y-96749757D01*
X92828571Y-96749757D02*
X92971428Y-96678328D01*
X92971428Y-96678328D02*
X93185714Y-96678328D01*
X93185714Y-96678328D02*
X93328571Y-96749757D01*
X93328571Y-96749757D02*
X93400000Y-96892614D01*
X93400000Y-96892614D02*
X93400000Y-97678328D01*
X93400000Y-96892614D02*
X93471428Y-96749757D01*
X93471428Y-96749757D02*
X93614285Y-96678328D01*
X93614285Y-96678328D02*
X93828571Y-96678328D01*
X93828571Y-96678328D02*
X93971428Y-96749757D01*
X93971428Y-96749757D02*
X94042857Y-96892614D01*
X94042857Y-96892614D02*
X94042857Y-97678328D01*
X94757142Y-97678328D02*
X94757142Y-96678328D01*
X94757142Y-96821185D02*
X94828571Y-96749757D01*
X94828571Y-96749757D02*
X94971428Y-96678328D01*
X94971428Y-96678328D02*
X95185714Y-96678328D01*
X95185714Y-96678328D02*
X95328571Y-96749757D01*
X95328571Y-96749757D02*
X95400000Y-96892614D01*
X95400000Y-96892614D02*
X95400000Y-97678328D01*
X95400000Y-96892614D02*
X95471428Y-96749757D01*
X95471428Y-96749757D02*
X95614285Y-96678328D01*
X95614285Y-96678328D02*
X95828571Y-96678328D01*
X95828571Y-96678328D02*
X95971428Y-96749757D01*
X95971428Y-96749757D02*
X96042857Y-96892614D01*
X96042857Y-96892614D02*
X96042857Y-97678328D01*
D12*
X85000000Y-97700000D02*
X85000000Y-96613580D01*
X115000000Y-97700000D02*
X115000000Y-96613580D01*
X85000000Y-97200000D02*
X87350001Y-97200000D01*
X97450000Y-97200000D02*
X115000000Y-97200000D01*
X85000000Y-97200000D02*
X86126504Y-96613579D01*
X85000000Y-97200000D02*
X86126504Y-97786421D01*
X115000000Y-97200000D02*
X113873496Y-97786421D01*
X115000000Y-97200000D02*
X113873496Y-96613579D01*
D10*
D11*
X82978328Y-116985713D02*
X82978328Y-116057141D01*
X82978328Y-116057141D02*
X83549757Y-116557141D01*
X83549757Y-116557141D02*
X83549757Y-116342856D01*
X83549757Y-116342856D02*
X83621185Y-116199999D01*
X83621185Y-116199999D02*
X83692614Y-116128570D01*
X83692614Y-116128570D02*
X83835471Y-116057141D01*
X83835471Y-116057141D02*
X84192614Y-116057141D01*
X84192614Y-116057141D02*
X84335471Y-116128570D01*
X84335471Y-116128570D02*
X84406900Y-116199999D01*
X84406900Y-116199999D02*
X84478328Y-116342856D01*
X84478328Y-116342856D02*
X84478328Y-116771427D01*
X84478328Y-116771427D02*
X84406900Y-116914284D01*
X84406900Y-116914284D02*
X84335471Y-116985713D01*
X82978328Y-115128570D02*
X82978328Y-114985713D01*
X82978328Y-114985713D02*
X83049757Y-114842856D01*
X83049757Y-114842856D02*
X83121185Y-114771428D01*
X83121185Y-114771428D02*
X83264042Y-114699999D01*
X83264042Y-114699999D02*
X83549757Y-114628570D01*
X83549757Y-114628570D02*
X83906900Y-114628570D01*
X83906900Y-114628570D02*
X84192614Y-114699999D01*
X84192614Y-114699999D02*
X84335471Y-114771428D01*
X84335471Y-114771428D02*
X84406900Y-114842856D01*
X84406900Y-114842856D02*
X84478328Y-114985713D01*
X84478328Y-114985713D02*
X84478328Y-115128570D01*
X84478328Y-115128570D02*
X84406900Y-115271428D01*
X84406900Y-115271428D02*
X84335471Y-115342856D01*
X84335471Y-115342856D02*
X84192614Y-115414285D01*
X84192614Y-115414285D02*
X83906900Y-115485713D01*
X83906900Y-115485713D02*
X83549757Y-115485713D01*
X83549757Y-115485713D02*
X83264042Y-115414285D01*
X83264042Y-115414285D02*
X83121185Y-115342856D01*
X83121185Y-115342856D02*
X83049757Y-115271428D01*
X83049757Y-115271428D02*
X82978328Y-115128570D01*
X84478328Y-112842857D02*
X83478328Y-112842857D01*
X83621185Y-112842857D02*
X83549757Y-112771428D01*
X83549757Y-112771428D02*
X83478328Y-112628571D01*
X83478328Y-112628571D02*
X83478328Y-112414285D01*
X83478328Y-112414285D02*
X83549757Y-112271428D01*
X83549757Y-112271428D02*
X83692614Y-112200000D01*
X83692614Y-112200000D02*
X84478328Y-112200000D01*
X83692614Y-112200000D02*
X83549757Y-112128571D01*
X83549757Y-112128571D02*
X83478328Y-111985714D01*
X83478328Y-111985714D02*
X83478328Y-111771428D01*
X83478328Y-111771428D02*
X83549757Y-111628571D01*
X83549757Y-111628571D02*
X83692614Y-111557142D01*
X83692614Y-111557142D02*
X84478328Y-111557142D01*
X84478328Y-110842857D02*
X83478328Y-110842857D01*
X83621185Y-110842857D02*
X83549757Y-110771428D01*
X83549757Y-110771428D02*
X83478328Y-110628571D01*
X83478328Y-110628571D02*
X83478328Y-110414285D01*
X83478328Y-110414285D02*
X83549757Y-110271428D01*
X83549757Y-110271428D02*
X83692614Y-110200000D01*
X83692614Y-110200000D02*
X84478328Y-110200000D01*
X83692614Y-110200000D02*
X83549757Y-110128571D01*
X83549757Y-110128571D02*
X83478328Y-109985714D01*
X83478328Y-109985714D02*
X83478328Y-109771428D01*
X83478328Y-109771428D02*
X83549757Y-109628571D01*
X83549757Y-109628571D02*
X83692614Y-109557142D01*
X83692614Y-109557142D02*
X84478328Y-109557142D01*
D12*
X84500000Y-98200000D02*
X83313580Y-98200000D01*
X84500000Y-128200000D02*
X83313580Y-128200000D01*
X83900000Y-98200000D02*
X83900000Y-108150000D01*
X83900000Y-118249999D02*
X83900000Y-128200000D01*
X83900000Y-98200000D02*
X84486421Y-99326504D01*
X83900000Y-98200000D02*
X83313579Y-99326504D01*
X83900000Y-128200000D02*
X83313579Y-127073496D01*
X83900000Y-128200000D02*
X84486421Y-127073496D01*
D15*
%TO.P,R3,1*%
%TO.N,+3V3*%
X93450000Y-115725000D03*
%TO.P,R3,2*%
%TO.N,Net-(U1-VREG_AVDD)*%
X94470000Y-115725000D03*
%TD*%
D16*
%TO.P,C4,1*%
%TO.N,+3V3*%
X93870000Y-121880000D03*
%TO.P,C4,2*%
%TO.N,GND*%
X92910000Y-121880000D03*
%TD*%
D17*
%TO.P,C11,1*%
%TO.N,+3V3*%
X101775000Y-125750000D03*
%TO.P,C11,2*%
%TO.N,GND*%
X101775000Y-127650000D03*
%TD*%
D16*
%TO.P,C1,1*%
%TO.N,+1V1*%
X99810000Y-125850000D03*
%TO.P,C1,2*%
%TO.N,GND*%
X98850000Y-125850000D03*
%TD*%
D18*
%TO.P,D1,1,K*%
%TO.N,GND*%
X107675000Y-124200000D03*
%TO.P,D1,2,A*%
%TO.N,Net-(D1-A)*%
X105925000Y-124200000D03*
%TD*%
D19*
%TO.P,C6,1*%
%TO.N,+3V3*%
X102020000Y-124500000D03*
%TO.P,C6,2*%
%TO.N,GND*%
X102980000Y-124500000D03*
%TD*%
D20*
%TO.P,C16,1*%
%TO.N,+3V3*%
X96400000Y-118440000D03*
%TO.P,C16,2*%
%TO.N,GND*%
X96400000Y-117410000D03*
%TD*%
D21*
%TO.P,U2,1,IN*%
%TO.N,+5V*%
X105975000Y-127650000D03*
%TO.P,U2,2,GND*%
%TO.N,GND*%
X105975000Y-126700000D03*
%TO.P,U2,3,EN*%
%TO.N,+5V*%
X105975000Y-125750000D03*
%TO.P,U2,4,NC*%
%TO.N,unconnected-(U2-NC-Pad4)*%
X103700000Y-125750000D03*
%TO.P,U2,5,OUT*%
%TO.N,+3V3*%
X103700000Y-127650000D03*
%TD*%
D16*
%TO.P,C5,1*%
%TO.N,+3V3*%
X96130000Y-124600000D03*
%TO.P,C5,2*%
%TO.N,GND*%
X95170000Y-124600000D03*
%TD*%
D17*
%TO.P,C12,1*%
%TO.N,GND*%
X108200000Y-125800000D03*
%TO.P,C12,2*%
%TO.N,+5V*%
X108200000Y-127700000D03*
%TD*%
D22*
%TO.P,C13,1*%
%TO.N,Net-(U1-XIN)*%
X108200000Y-120300000D03*
%TO.P,C13,2*%
%TO.N,GND*%
X108200000Y-121260000D03*
%TD*%
D23*
%TO.P,Y1,1,1*%
%TO.N,Net-(U1-XIN)*%
X111300000Y-121025000D03*
%TO.P,Y1,2,2*%
%TO.N,GND*%
X111300000Y-118825000D03*
%TO.P,Y1,3,3*%
%TO.N,Net-(C14-Pad1)*%
X109600000Y-118825000D03*
%TO.P,Y1,4,4*%
%TO.N,GND*%
X109600000Y-121025000D03*
%TD*%
D24*
%TO.P,C3,1*%
%TO.N,+1V1*%
X100280000Y-114740000D03*
%TO.P,C3,2*%
%TO.N,GND*%
X100280000Y-113780000D03*
%TD*%
D15*
%TO.P,R4,1*%
%TO.N,Net-(R4-Pad1)*%
X92690000Y-124600000D03*
%TO.P,R4,2*%
%TO.N,GND*%
X93710000Y-124600000D03*
%TD*%
D25*
%TO.P,A1,1*%
%TO.N,N/C*%
X109250000Y-130925000D03*
%TO.P,A1,3,GND*%
%TO.N,GND*%
X108750000Y-130925000D03*
%TO.P,A1,5,GND*%
X108250000Y-130925000D03*
%TO.P,A1,7,USB_DM*%
%TO.N,Net-(A1-USB_DM)*%
X107750000Y-130925000D03*
%TO.P,A1,9,USB_DP*%
%TO.N,Net-(A1-USB_DP)*%
X107250000Y-130925000D03*
%TO.P,A1,11*%
%TO.N,N/C*%
X106750000Y-130925000D03*
%TO.P,A1,13,5v*%
%TO.N,+5V*%
X106250000Y-130925000D03*
%TO.P,A1,15*%
%TO.N,N/C*%
X105750000Y-130925000D03*
%TO.P,A1,17*%
X105250000Y-130925000D03*
%TO.P,A1,19*%
X104750000Y-130925000D03*
%TO.P,A1,21*%
X104250000Y-130925000D03*
%TO.P,A1,23*%
X103750000Y-130925000D03*
D26*
%TO.P,A1,24*%
X100000000Y-98200000D03*
D25*
%TO.P,A1,33*%
X101250000Y-130925000D03*
%TO.P,A1,35*%
X100750000Y-130925000D03*
%TO.P,A1,37*%
X100250000Y-130925000D03*
%TO.P,A1,39*%
X99750000Y-130925000D03*
%TO.P,A1,41*%
X99250000Y-130925000D03*
%TO.P,A1,43*%
X98750000Y-130925000D03*
%TO.P,A1,45*%
X98250000Y-130925000D03*
%TO.P,A1,47*%
X97750000Y-130925000D03*
%TO.P,A1,49*%
X97250000Y-130925000D03*
%TO.P,A1,51*%
X96750000Y-130925000D03*
%TO.P,A1,53*%
X96250000Y-130925000D03*
%TO.P,A1,55*%
X95750000Y-130925000D03*
%TO.P,A1,57*%
X95250000Y-130925000D03*
%TO.P,A1,59*%
X94750000Y-130925000D03*
%TO.P,A1,61*%
X94250000Y-130925000D03*
%TO.P,A1,63*%
X93750000Y-130925000D03*
%TO.P,A1,65*%
X93250000Y-130925000D03*
%TO.P,A1,67,XIO_A*%
%TO.N,Net-(A1-XIO_A)*%
X92750000Y-130925000D03*
%TO.P,A1,69*%
%TO.N,N/C*%
X92250000Y-130925000D03*
%TO.P,A1,71,GND*%
%TO.N,GND*%
X91750000Y-130925000D03*
%TO.P,A1,73,GND*%
X91250000Y-130925000D03*
%TO.P,A1,75*%
%TO.N,N/C*%
X90750000Y-130925000D03*
%TD*%
D15*
%TO.P,R6,1*%
%TO.N,Net-(A1-USB_DM)*%
X92890000Y-119875000D03*
%TO.P,R6,2*%
%TO.N,Net-(U1-USB_DM)*%
X93910000Y-119875000D03*
%TD*%
%TO.P,R7,1*%
%TO.N,Net-(A1-USB_DP)*%
X92880000Y-120900000D03*
%TO.P,R7,2*%
%TO.N,Net-(U1-USB_DP)*%
X93900000Y-120900000D03*
%TD*%
D27*
%TO.P,U1,1,IOVDD*%
%TO.N,+3V3*%
X98200000Y-123337500D03*
D28*
%TO.P,U1,2,GPIO0*%
%TO.N,Net-(A1-UART_TX)*%
X98600000Y-123337500D03*
%TO.P,U1,3,GPIO1*%
%TO.N,Net-(A1-UART_RX)*%
X99000000Y-123337500D03*
%TO.P,U1,4,GPIO2*%
%TO.N,Net-(A1-TP92)*%
X99400000Y-123337500D03*
%TO.P,U1,5,GPIO3*%
%TO.N,Net-(A1-TP91)*%
X99800000Y-123337500D03*
%TO.P,U1,6,DVDD*%
%TO.N,+1V1*%
X100200000Y-123337500D03*
%TO.P,U1,7,GPIO4*%
%TO.N,Net-(A1-TP90)*%
X100600000Y-123337500D03*
%TO.P,U1,8,GPIO5*%
%TO.N,Net-(A1-TP89)*%
X101000000Y-123337500D03*
%TO.P,U1,9,GPIO6*%
%TO.N,unconnected-(U1-GPIO6-Pad9)*%
X101400000Y-123337500D03*
%TO.P,U1,10,GPIO7*%
%TO.N,unconnected-(U1-GPIO7-Pad10)*%
X101800000Y-123337500D03*
%TO.P,U1,11,IOVDD*%
%TO.N,+3V3*%
X102200000Y-123337500D03*
%TO.P,U1,12,GPIO8*%
%TO.N,unconnected-(U1-GPIO8-Pad12)*%
X102600000Y-123337500D03*
%TO.P,U1,13,GPIO9*%
%TO.N,unconnected-(U1-GPIO9-Pad13)*%
X103000000Y-123337500D03*
%TO.P,U1,14,GPIO10*%
%TO.N,unconnected-(U1-GPIO10-Pad14)*%
X103400000Y-123337500D03*
D29*
%TO.P,U1,15,GPIO11*%
%TO.N,unconnected-(U1-GPIO11-Pad15)*%
X103800000Y-123337500D03*
D30*
%TO.P,U1,16,GPIO12*%
%TO.N,Net-(U1-GPIO12)*%
X104437500Y-122700000D03*
D31*
%TO.P,U1,17,GPIO13*%
%TO.N,unconnected-(U1-GPIO13-Pad17)*%
X104437500Y-122300000D03*
%TO.P,U1,18,GPIO14*%
%TO.N,unconnected-(U1-GPIO14-Pad18)*%
X104437500Y-121900000D03*
%TO.P,U1,19,GPIO15*%
%TO.N,unconnected-(U1-GPIO15-Pad19)*%
X104437500Y-121500000D03*
%TO.P,U1,20,IOVDD*%
%TO.N,+3V3*%
X104437500Y-121100000D03*
%TO.P,U1,21,XIN*%
%TO.N,Net-(U1-XIN)*%
X104437500Y-120700000D03*
%TO.P,U1,22,XOUT*%
%TO.N,Net-(U1-XOUT)*%
X104437500Y-120300000D03*
%TO.P,U1,23,DVDD*%
%TO.N,+1V1*%
X104437500Y-119900000D03*
%TO.P,U1,24,SWCLK*%
%TO.N,Net-(A1-TP87)*%
X104437500Y-119500000D03*
%TO.P,U1,25,SWD*%
%TO.N,Net-(A1-TP88)*%
X104437500Y-119100000D03*
%TO.P,U1,26,RUN*%
%TO.N,Net-(A1-XIO_A)*%
X104437500Y-118700000D03*
%TO.P,U1,27,GPIO16*%
%TO.N,unconnected-(U1-GPIO16-Pad27)*%
X104437500Y-118300000D03*
%TO.P,U1,28,GPIO17*%
%TO.N,unconnected-(U1-GPIO17-Pad28)*%
X104437500Y-117900000D03*
%TO.P,U1,29,GPIO18*%
%TO.N,unconnected-(U1-GPIO18-Pad29)*%
X104437500Y-117500000D03*
D32*
%TO.P,U1,30,IOVDD*%
%TO.N,+3V3*%
X104437500Y-117100000D03*
D33*
%TO.P,U1,31,GPIO19*%
%TO.N,unconnected-(U1-GPIO19-Pad31)*%
X103800000Y-116462500D03*
D28*
%TO.P,U1,32,GPIO20*%
%TO.N,unconnected-(U1-GPIO20-Pad32)*%
X103400000Y-116462500D03*
%TO.P,U1,33,GPIO21*%
%TO.N,unconnected-(U1-GPIO21-Pad33)*%
X103000000Y-116462500D03*
%TO.P,U1,34,GPIO22*%
%TO.N,unconnected-(U1-GPIO22-Pad34)*%
X102600000Y-116462500D03*
%TO.P,U1,35,GPIO23*%
%TO.N,unconnected-(U1-GPIO23-Pad35)*%
X102200000Y-116462500D03*
%TO.P,U1,36,GPIO24*%
%TO.N,unconnected-(U1-GPIO24-Pad36)*%
X101800000Y-116462500D03*
%TO.P,U1,37,GPIO25*%
%TO.N,unconnected-(U1-GPIO25-Pad37)*%
X101400000Y-116462500D03*
%TO.P,U1,38,IOVDD*%
%TO.N,+3V3*%
X101000000Y-116462500D03*
%TO.P,U1,39,DVDD*%
%TO.N,+1V1*%
X100600000Y-116462500D03*
%TO.P,U1,40,GPIO26_ADC0*%
%TO.N,unconnected-(U1-GPIO26_ADC0-Pad40)*%
X100200000Y-116462500D03*
%TO.P,U1,41,GPIO27_ADC1*%
%TO.N,unconnected-(U1-GPIO27_ADC1-Pad41)*%
X99800000Y-116462500D03*
%TO.P,U1,42,GPIO28_ADC2*%
%TO.N,unconnected-(U1-GPIO28_ADC2-Pad42)*%
X99400000Y-116462500D03*
%TO.P,U1,43,GPIO29_ADC3*%
%TO.N,unconnected-(U1-GPIO29_ADC3-Pad43)*%
X99000000Y-116462500D03*
%TO.P,U1,44,ADC_AVDD*%
%TO.N,+3V3*%
X98600000Y-116462500D03*
D34*
%TO.P,U1,45,IOVDD*%
X98200000Y-116462500D03*
D35*
%TO.P,U1,46,VREG_AVDD*%
%TO.N,Net-(U1-VREG_AVDD)*%
X97562500Y-117100000D03*
D31*
%TO.P,U1,47,VREG_PGND*%
%TO.N,GND*%
X97562500Y-117500000D03*
%TO.P,U1,48,VREG_LX*%
%TO.N,/VREG_LX*%
X97562500Y-117900000D03*
%TO.P,U1,49,VREG_VIN*%
%TO.N,+3V3*%
X97562500Y-118300000D03*
%TO.P,U1,50,VREG_FB*%
%TO.N,+1V1*%
X97562500Y-118700000D03*
%TO.P,U1,51,USB_DM*%
%TO.N,Net-(U1-USB_DM)*%
X97562500Y-119100000D03*
%TO.P,U1,52,USB_DP*%
%TO.N,Net-(U1-USB_DP)*%
X97562500Y-119500000D03*
%TO.P,U1,53,USB_OTP_VDD*%
%TO.N,+3V3*%
X97562500Y-119900000D03*
%TO.P,U1,54,QSPI_IOVDD*%
X97562500Y-120300000D03*
%TO.P,U1,55,QSPI_SD3*%
%TO.N,Net-(U1-QSPI_SD3)*%
X97562500Y-120700000D03*
%TO.P,U1,56,QSPI_SCLK*%
%TO.N,Net-(U1-QSPI_SCLK)*%
X97562500Y-121100000D03*
%TO.P,U1,57,QSPI_SD0*%
%TO.N,Net-(U1-QSPI_SD0)*%
X97562500Y-121500000D03*
%TO.P,U1,58,QSPI_SD2*%
%TO.N,Net-(U1-QSPI_SD2)*%
X97562500Y-121900000D03*
%TO.P,U1,59,QSPI_SD1*%
%TO.N,Net-(U1-QSPI_SD1)*%
X97562500Y-122300000D03*
D36*
%TO.P,U1,60,QSPI_SS*%
%TO.N,/~{USB_BOOT}*%
X97562500Y-122700000D03*
D37*
%TO.P,U1,61,GND*%
%TO.N,GND*%
X99625000Y-121275000D03*
X101000000Y-121275000D03*
X102375000Y-121275000D03*
X99625000Y-119900000D03*
X101000000Y-119900000D03*
D38*
X101000000Y-119900000D03*
D37*
X102375000Y-119900000D03*
X99625000Y-118525000D03*
X101000000Y-118525000D03*
X102375000Y-118525000D03*
%TD*%
D20*
%TO.P,C15,1*%
%TO.N,+1V1*%
X95400000Y-118440000D03*
%TO.P,C15,2*%
%TO.N,GND*%
X95400000Y-117410000D03*
%TD*%
D24*
%TO.P,C8,1*%
%TO.N,+3V3*%
X101280000Y-114740000D03*
%TO.P,C8,2*%
%TO.N,GND*%
X101280000Y-113780000D03*
%TD*%
D19*
%TO.P,C17,1*%
%TO.N,Net-(U1-VREG_AVDD)*%
X95400000Y-115725000D03*
%TO.P,C17,2*%
%TO.N,GND*%
X96360000Y-115725000D03*
%TD*%
D24*
%TO.P,C9,1*%
%TO.N,+3V3*%
X105600000Y-116725000D03*
%TO.P,C9,2*%
%TO.N,GND*%
X105600000Y-115765000D03*
%TD*%
%TO.P,C14,1*%
%TO.N,Net-(C14-Pad1)*%
X108200000Y-119425000D03*
%TO.P,C14,2*%
%TO.N,GND*%
X108200000Y-118465000D03*
%TD*%
D15*
%TO.P,R5,1*%
%TO.N,Net-(A1-XIO_A)*%
X109640000Y-123850000D03*
%TO.P,R5,2*%
%TO.N,Net-(R5-Pad2)*%
X110660000Y-123850000D03*
%TD*%
D39*
%TO.P,SW2,1,1*%
%TO.N,GND*%
X114135000Y-127325000D03*
X109985000Y-127325000D03*
%TO.P,SW2,2,2*%
%TO.N,Net-(R5-Pad2)*%
X114135000Y-125175000D03*
X110010000Y-125175000D03*
%TD*%
D19*
%TO.P,C10,1*%
%TO.N,+3V3*%
X106220000Y-121450000D03*
%TO.P,C10,2*%
%TO.N,GND*%
X107180000Y-121450000D03*
%TD*%
D40*
%TO.P,R1,1*%
%TO.N,Net-(U1-GPIO12)*%
X105887500Y-122700000D03*
%TO.P,R1,2*%
%TO.N,Net-(D1-A)*%
X107712500Y-122700000D03*
%TD*%
D19*
%TO.P,C2,1*%
%TO.N,+1V1*%
X106320000Y-119325000D03*
%TO.P,C2,2*%
%TO.N,GND*%
X107280000Y-119325000D03*
%TD*%
D41*
%TO.P,JP1,1,A*%
%TO.N,+5V*%
X95650000Y-128800000D03*
D42*
%TO.P,JP1,2,B*%
X97100000Y-128800000D03*
%TD*%
D43*
%TO.P,R2,1*%
%TO.N,Net-(C14-Pad1)*%
X107210000Y-120300000D03*
%TO.P,R2,2*%
%TO.N,Net-(U1-XOUT)*%
X106190000Y-120300000D03*
%TD*%
D24*
%TO.P,C7,1*%
%TO.N,+3V3*%
X98200000Y-115125000D03*
%TO.P,C7,2*%
%TO.N,GND*%
X98200000Y-114165000D03*
%TD*%
D44*
%TO.P,U3,1,~{CS}*%
%TO.N,/~{USB_BOOT}*%
X86185000Y-122410000D03*
%TO.P,U3,2,DO(IO1)*%
%TO.N,Net-(U1-QSPI_SD1)*%
X87455000Y-122410000D03*
%TO.P,U3,3,IO2*%
%TO.N,Net-(U1-QSPI_SD2)*%
X88725000Y-122410000D03*
%TO.P,U3,4,GND*%
%TO.N,GND*%
X89995000Y-122410000D03*
%TO.P,U3,5,DI(IO0)*%
%TO.N,Net-(U1-QSPI_SD0)*%
X89995000Y-115210000D03*
%TO.P,U3,6,CLK*%
%TO.N,Net-(U1-QSPI_SCLK)*%
X88725000Y-115210000D03*
%TO.P,U3,7,IO3*%
%TO.N,Net-(U1-QSPI_SD3)*%
X87455000Y-115210000D03*
%TO.P,U3,8,VCC*%
%TO.N,+3V3*%
X86185000Y-115210000D03*
%TD*%
D39*
%TO.P,SW1,1,1*%
%TO.N,Net-(R4-Pad1)*%
X90950000Y-126800000D03*
X86800000Y-126800000D03*
%TO.P,SW1,2,2*%
%TO.N,/~{USB_BOOT}*%
X90950000Y-124650000D03*
X86825000Y-124650000D03*
%TD*%
D45*
%TO.P,L1,1,1*%
%TO.N,+1V1*%
X93500000Y-118625000D03*
%TO.P,L1,2,2*%
%TO.N,/VREG_LX*%
X93500000Y-117225000D03*
%TD*%
D46*
%TO.N,Net-(A1-TP89)*%
X101150000Y-124946232D03*
%TO.N,GND*%
X94450000Y-124600000D03*
X90000000Y-121100000D03*
X100259916Y-126522509D03*
X109325001Y-129275735D03*
X102100000Y-113800000D03*
X106450000Y-115750000D03*
X92150000Y-121900000D03*
X110000000Y-126600000D03*
X108200000Y-117650000D03*
X100600000Y-127950000D03*
X108712371Y-129251553D03*
X104700000Y-125050000D03*
X90672685Y-128619257D03*
X108500000Y-121950000D03*
X97400000Y-114150000D03*
X104700000Y-124200000D03*
X109340143Y-125926050D03*
X90675000Y-129275735D03*
X111300000Y-117650000D03*
X95400000Y-116700000D03*
X95873420Y-115068196D03*
X106800000Y-125050000D03*
%TO.N,Net-(A1-UART_TX)*%
X97960000Y-124190000D03*
%TO.N,Net-(A1-UART_RX)*%
X97880000Y-125030000D03*
X94583083Y-128723033D03*
X93500000Y-129388750D03*
%TO.N,Net-(A1-USB_DP)*%
X93400000Y-113700000D03*
X104450000Y-112550000D03*
X107050000Y-129100000D03*
X94500000Y-112600000D03*
%TO.N,Net-(A1-USB_DM)*%
X95100000Y-113150000D03*
X105950000Y-113150000D03*
X94000000Y-114250000D03*
X107850000Y-129249998D03*
%TO.N,+1V1*%
X100496232Y-125796232D03*
X98850000Y-119050000D03*
X105710156Y-119555000D03*
X100615000Y-117750500D03*
X100600000Y-115425000D03*
X101950000Y-122050000D03*
X94914500Y-119057770D03*
X95514500Y-119050000D03*
X103150000Y-119600000D03*
%TO.N,+5V*%
X92050000Y-128950000D03*
X92024997Y-128324997D03*
%TO.N,unconnected-(U1-GPIO22-Pad34)*%
X102250000Y-111800000D03*
X102934475Y-113808422D03*
%TO.N,Net-(A1-TP92)*%
X98630000Y-125040000D03*
%TO.N,Net-(A1-TP88)*%
X105908551Y-118119305D03*
%TO.N,Net-(A1-XIO_A)*%
X108445157Y-123474999D03*
X105360000Y-117470000D03*
X92744168Y-129255346D03*
%TO.N,Net-(A1-TP87)*%
X106803705Y-118670117D03*
%TO.N,Net-(A1-TP91)*%
X99468063Y-124867083D03*
%TO.N,unconnected-(U1-GPIO19-Pad31)*%
X104150000Y-113850000D03*
X103800000Y-111800000D03*
%TO.N,unconnected-(U1-GPIO20-Pad32)*%
X103607287Y-114504191D03*
X103050000Y-111800000D03*
%TO.N,unconnected-(U1-GPIO24-Pad36)*%
X101000000Y-111800000D03*
X102550000Y-114500000D03*
%TO.N,unconnected-(U1-GPIO25-Pad37)*%
X100100000Y-111750000D03*
X101881662Y-115286092D03*
%TO.N,Net-(A1-TP90)*%
X100688159Y-124232645D03*
%TO.N,unconnected-(U1-GPIO27_ADC1-Pad41)*%
X97950000Y-111700000D03*
X99750000Y-115550000D03*
%TO.N,unconnected-(U1-GPIO28_ADC2-Pad42)*%
X96950000Y-111700000D03*
X99150000Y-113900000D03*
%TO.N,unconnected-(U1-GPIO29_ADC3-Pad43)*%
X99000000Y-114650000D03*
X96050000Y-111700000D03*
%TD*%
D47*
%TO.N,Net-(A1-TP89)*%
X101000000Y-123337500D02*
X101000000Y-123775000D01*
X101000000Y-123775000D02*
X101399514Y-124174514D01*
X101399514Y-124696718D02*
X101150000Y-124946232D01*
X101399514Y-124174514D02*
X101399514Y-124696718D01*
D48*
%TO.N,GND*%
X109365000Y-121260000D02*
X109600000Y-121025000D01*
X109225000Y-128085000D02*
X109985000Y-127325000D01*
X109225000Y-128738924D02*
X109225000Y-128085000D01*
X94450000Y-124600000D02*
X95170000Y-124600000D01*
X108712371Y-129251553D02*
X109225000Y-128738924D01*
X109325001Y-127984999D02*
X109985000Y-127325000D01*
X108200000Y-125800000D02*
X108460000Y-125800000D01*
X107180000Y-121450000D02*
X108010000Y-121450000D01*
X96360000Y-115554776D02*
X95873420Y-115068196D01*
X107300000Y-126700000D02*
X105975000Y-126700000D01*
X108460000Y-125800000D02*
X109985000Y-127325000D01*
X108200000Y-121260000D02*
X109365000Y-121260000D01*
X108250000Y-129713924D02*
X108712371Y-129251553D01*
X108750000Y-129850736D02*
X109325001Y-129275735D01*
X109985000Y-127325000D02*
X109985000Y-126615000D01*
X108750000Y-130925000D02*
X108750000Y-129850736D01*
X97415000Y-114165000D02*
X97400000Y-114150000D01*
X98850000Y-125850000D02*
X99522509Y-126522509D01*
X109985000Y-127325000D02*
X114135000Y-127325000D01*
X108200000Y-125800000D02*
X107550000Y-125800000D01*
X95400000Y-117410000D02*
X95400000Y-116700000D01*
X108200000Y-121955296D02*
X108200000Y-121260000D01*
X104150000Y-124500000D02*
X104275000Y-124625000D01*
X100900000Y-127650000D02*
X100600000Y-127950000D01*
X92170000Y-121880000D02*
X92150000Y-121900000D01*
X104700000Y-124200000D02*
X104700000Y-124550000D01*
X107550000Y-125800000D02*
X106800000Y-125050000D01*
X109214093Y-125800000D02*
X109340143Y-125926050D01*
X100280000Y-113780000D02*
X101280000Y-113780000D01*
X108200000Y-125800000D02*
X107300000Y-126700000D01*
X101280000Y-113780000D02*
X102080000Y-113780000D01*
X107675000Y-124200000D02*
X107650000Y-124200000D01*
X104700000Y-125050000D02*
X104700000Y-124200000D01*
X108200000Y-118465000D02*
X108200000Y-117650000D01*
X104275000Y-124625000D02*
X104700000Y-125050000D01*
X109985000Y-126615000D02*
X110000000Y-126600000D01*
X98200000Y-114165000D02*
X97415000Y-114165000D01*
X111300000Y-118825000D02*
X111300000Y-117650000D01*
X102980000Y-124500000D02*
X104150000Y-124500000D01*
X108010000Y-121450000D02*
X108200000Y-121260000D01*
X106435000Y-115765000D02*
X106450000Y-115750000D01*
X108500000Y-121950000D02*
X108200000Y-121955296D01*
X91750000Y-130925000D02*
X91750000Y-129696572D01*
X91250000Y-129850735D02*
X90675000Y-129275735D01*
X104700000Y-124200000D02*
X104275000Y-124625000D01*
X91250000Y-130925000D02*
X91250000Y-129850735D01*
X102080000Y-113780000D02*
X102100000Y-113800000D01*
X92910000Y-121880000D02*
X92170000Y-121880000D01*
X89995000Y-121105000D02*
X90000000Y-121100000D01*
X99522509Y-126522509D02*
X100259916Y-126522509D01*
X105200000Y-125050000D02*
X106800000Y-125050000D01*
X96360000Y-115725000D02*
X96360000Y-115554776D01*
X104700000Y-124550000D02*
X105200000Y-125050000D01*
X104700000Y-125050000D02*
X105200000Y-125050000D01*
X91750000Y-129696572D02*
X90672685Y-128619257D01*
X109325001Y-129275735D02*
X109325001Y-127984999D01*
X101775000Y-127650000D02*
X100900000Y-127650000D01*
X95400000Y-117410000D02*
X96400000Y-117410000D01*
X105600000Y-115765000D02*
X106435000Y-115765000D01*
X89995000Y-122410000D02*
X89995000Y-121105000D01*
X108250000Y-130925000D02*
X108250000Y-129713924D01*
X108200000Y-125800000D02*
X109214093Y-125800000D01*
X107650000Y-124200000D02*
X106800000Y-125050000D01*
X93710000Y-124600000D02*
X94450000Y-124600000D01*
D47*
%TO.N,Net-(A1-UART_TX)*%
X98600000Y-123775000D02*
X98185000Y-124190000D01*
X98600000Y-123337500D02*
X98600000Y-123775000D01*
X98185000Y-124190000D02*
X97960000Y-124190000D01*
%TO.N,Net-(A1-UART_RX)*%
X93500000Y-129388750D02*
X93917366Y-129388750D01*
X99000000Y-123337500D02*
X99000000Y-123910000D01*
X93917366Y-129388750D02*
X94583083Y-128723033D01*
X99000000Y-123910000D02*
X97880000Y-125030000D01*
D48*
%TO.N,Net-(A1-USB_DP)*%
X91900000Y-115200000D02*
X93400000Y-113700000D01*
X94550000Y-112550000D02*
X94500000Y-112600000D01*
X92880000Y-120900000D02*
X91900000Y-119920000D01*
X91900000Y-119920000D02*
X91900000Y-115200000D01*
X104450000Y-112550000D02*
X94550000Y-112550000D01*
X107250000Y-130925000D02*
X107250000Y-129300000D01*
X107250000Y-129300000D02*
X107050000Y-129100000D01*
%TO.N,Net-(A1-USB_DM)*%
X95100000Y-113150000D02*
X105950000Y-113150000D01*
X107750000Y-130925000D02*
X107750000Y-129349998D01*
X92890000Y-119875000D02*
X92350000Y-119335000D01*
X93986076Y-114250000D02*
X94000000Y-114250000D01*
X92350000Y-119335000D02*
X92350000Y-115886076D01*
X92350000Y-115886076D02*
X93986076Y-114250000D01*
X107750000Y-129349998D02*
X107850000Y-129249998D01*
D49*
%TO.N,+1V1*%
X100496232Y-125796232D02*
X100038159Y-125338159D01*
D48*
X99863768Y-125796232D02*
X99810000Y-125850000D01*
D49*
X100038159Y-125338159D02*
X100038159Y-123963406D01*
D47*
X97065736Y-118700000D02*
X96865736Y-118900000D01*
D49*
X105721786Y-119325000D02*
X106320000Y-119325000D01*
X105146786Y-119900000D02*
X105721786Y-119325000D01*
X100038159Y-123963406D02*
X100200000Y-123801565D01*
X100600000Y-116462500D02*
X100600000Y-115060000D01*
D50*
X93500000Y-118625000D02*
X95215000Y-118625000D01*
D47*
X95860000Y-118900000D02*
X95400000Y-118440000D01*
D49*
X100200000Y-123801565D02*
X100200000Y-123337500D01*
D48*
X100496232Y-125796232D02*
X99863768Y-125796232D01*
D50*
X95400000Y-118935500D02*
X95514500Y-119050000D01*
D49*
X100600000Y-115060000D02*
X100280000Y-114740000D01*
X104437500Y-119900000D02*
X105146786Y-119900000D01*
D50*
X95215000Y-118625000D02*
X95400000Y-118440000D01*
D47*
X97562500Y-118700000D02*
X97065736Y-118700000D01*
D50*
X95400000Y-118440000D02*
X95400000Y-118935500D01*
D47*
X96865736Y-118900000D02*
X95860000Y-118900000D01*
D49*
%TO.N,+3V3*%
X96540000Y-118300000D02*
X96400000Y-118440000D01*
X101000000Y-115975086D02*
X101280000Y-115695086D01*
X95203884Y-121880000D02*
X93870000Y-121880000D01*
X97183884Y-119900000D02*
X95203884Y-121880000D01*
X97562500Y-118300000D02*
X96540000Y-118300000D01*
X97562500Y-119900000D02*
X97183884Y-119900000D01*
X101000000Y-116462500D02*
X101000000Y-115975086D01*
X102200000Y-124320000D02*
X102020000Y-124500000D01*
X102200000Y-123337500D02*
X102200000Y-124320000D01*
X101280000Y-115695086D02*
X101280000Y-114740000D01*
D48*
%TO.N,+5V*%
X92024997Y-128324997D02*
X92749994Y-127600000D01*
D47*
X104850000Y-127187499D02*
X105312501Y-127650000D01*
D48*
X106250000Y-130925000D02*
X106250000Y-129100000D01*
D47*
X105312501Y-125750000D02*
X104850000Y-126212501D01*
D48*
X94829638Y-127979638D02*
X95650000Y-128800000D01*
D47*
X104850000Y-126212501D02*
X104850000Y-127187499D01*
D48*
X92050000Y-128950000D02*
X93020362Y-127979638D01*
X95300000Y-127600000D02*
X95650000Y-127950000D01*
X93020362Y-127979638D02*
X94829638Y-127979638D01*
X92749994Y-127600000D02*
X95300000Y-127600000D01*
X95650000Y-127950000D02*
X95650000Y-128800000D01*
D47*
X105312501Y-127650000D02*
X105975000Y-127650000D01*
X105975000Y-125750000D02*
X105312501Y-125750000D01*
%TO.N,Net-(U1-XIN)*%
X110375000Y-120100000D02*
X111300000Y-121025000D01*
X108200000Y-120300000D02*
X108400000Y-120100000D01*
X105902142Y-120845000D02*
X107655000Y-120845000D01*
X107655000Y-120845000D02*
X108200000Y-120300000D01*
X108400000Y-120100000D02*
X110375000Y-120100000D01*
X104437500Y-120700000D02*
X105757142Y-120700000D01*
X105757142Y-120700000D02*
X105902142Y-120845000D01*
%TO.N,Net-(C14-Pad1)*%
X108085000Y-119425000D02*
X107210000Y-120300000D01*
X108200000Y-119425000D02*
X108085000Y-119425000D01*
X108800000Y-118825000D02*
X108200000Y-119425000D01*
X109600000Y-118825000D02*
X108800000Y-118825000D01*
%TO.N,Net-(U1-VREG_AVDD)*%
X94470000Y-115725000D02*
X95400000Y-115725000D01*
X95400000Y-115725000D02*
X96625000Y-116950000D01*
X96625000Y-116950000D02*
X97412500Y-116950000D01*
X97412500Y-116950000D02*
X97562500Y-117100000D01*
%TO.N,unconnected-(U1-GPIO22-Pad34)*%
X103082287Y-114017713D02*
X103082287Y-115552419D01*
X102600000Y-116034706D02*
X102600000Y-116462500D01*
X103100000Y-114000000D02*
X103082287Y-114017713D01*
X102934475Y-113834475D02*
X103100000Y-114000000D01*
X102934475Y-113808422D02*
X102934475Y-113834475D01*
X103082287Y-115552419D02*
X102600000Y-116034706D01*
%TO.N,Net-(D1-A)*%
X107712500Y-122700000D02*
X107425000Y-122700000D01*
X105937500Y-124200000D02*
X105937500Y-124250000D01*
X107425000Y-122700000D02*
X105925000Y-124200000D01*
%TO.N,Net-(A1-TP92)*%
X99400000Y-124051262D02*
X98630000Y-124821262D01*
X99400000Y-123337500D02*
X99400000Y-124051262D01*
X98630000Y-124821262D02*
X98630000Y-125040000D01*
%TO.N,Net-(U1-XOUT)*%
X104437500Y-120300000D02*
X106190000Y-120300000D01*
%TO.N,/~{USB_BOOT}*%
X90950000Y-124050000D02*
X91900000Y-124050000D01*
X87050000Y-124050000D02*
X90950000Y-124050000D01*
X91900000Y-124050000D02*
X95850000Y-124050000D01*
X86825000Y-124275000D02*
X87050000Y-124050000D01*
X86185000Y-122410000D02*
X86185000Y-123209999D01*
X97200000Y-122700000D02*
X97562500Y-122700000D01*
X86825000Y-124650000D02*
X86825000Y-124275000D01*
X95850000Y-124050000D02*
X97200000Y-122700000D01*
X87025001Y-124050000D02*
X87050000Y-124050000D01*
X90950000Y-124650000D02*
X90950000Y-124050000D01*
X86185000Y-123209999D02*
X87025001Y-124050000D01*
%TO.N,Net-(A1-TP88)*%
X104889558Y-119100000D02*
X105870253Y-118119305D01*
X105870253Y-118119305D02*
X105908551Y-118119305D01*
X104437500Y-119100000D02*
X104889558Y-119100000D01*
%TO.N,Net-(R4-Pad1)*%
X92690000Y-125060000D02*
X90950000Y-126800000D01*
X92690000Y-124600000D02*
X92690000Y-125060000D01*
%TO.N,Net-(R5-Pad2)*%
X110660000Y-123850000D02*
X110660000Y-124525000D01*
X110660000Y-124525000D02*
X110010000Y-125175000D01*
X110010000Y-125175000D02*
X114135000Y-125175000D01*
%TO.N,Net-(A1-XIO_A)*%
X109264999Y-123474999D02*
X109640000Y-123850000D01*
X105360000Y-118205294D02*
X105360000Y-117470000D01*
X92744168Y-129255346D02*
X92744168Y-129865832D01*
X92744168Y-129865832D02*
X92750000Y-129871664D01*
X108445157Y-123474999D02*
X109264999Y-123474999D01*
X104437500Y-118700000D02*
X104865294Y-118700000D01*
X104865294Y-118700000D02*
X105360000Y-118205294D01*
X92750000Y-129871664D02*
X92750000Y-130925000D01*
%TO.N,Net-(U1-QSPI_SD1)*%
X87455000Y-123209999D02*
X87995001Y-123750000D01*
X87455000Y-122410000D02*
X87455000Y-123209999D01*
X97191676Y-122225000D02*
X97360000Y-122225000D01*
X87995001Y-123750000D02*
X95666676Y-123750000D01*
X95666676Y-123750000D02*
X97191676Y-122225000D01*
%TO.N,Net-(U1-QSPI_SD3)*%
X91250000Y-122430000D02*
X91350000Y-122530000D01*
X97019620Y-120700000D02*
X97562500Y-120700000D01*
X87455000Y-115210000D02*
X87455000Y-114410001D01*
X91250000Y-114706250D02*
X91250000Y-122430000D01*
X95189620Y-122530000D02*
X97019620Y-120700000D01*
X87980001Y-113885000D02*
X90428750Y-113885000D01*
X91350000Y-122530000D02*
X95189620Y-122530000D01*
X87455000Y-114410001D02*
X87980001Y-113885000D01*
X90428750Y-113885000D02*
X91250000Y-114706250D01*
%TO.N,Net-(U1-GPIO12)*%
X105887500Y-122700000D02*
X104437500Y-122700000D01*
%TO.N,Net-(A1-TP87)*%
X105743705Y-118670117D02*
X104913822Y-119500000D01*
X104913822Y-119500000D02*
X104437500Y-119500000D01*
X106803705Y-118670117D02*
X105743705Y-118670117D01*
%TO.N,Net-(A1-TP91)*%
X99800000Y-123741946D02*
X99713159Y-123828786D01*
X99713159Y-124621987D02*
X99468063Y-124867083D01*
X99713159Y-123828786D02*
X99713159Y-124621987D01*
X99800000Y-123337500D02*
X99800000Y-123741946D01*
%TO.N,Net-(U1-USB_DM)*%
X97562500Y-119100000D02*
X97100000Y-119100000D01*
X97100000Y-119100000D02*
X96325000Y-119875000D01*
X96325000Y-119875000D02*
X93910000Y-119875000D01*
%TO.N,unconnected-(U1-GPIO19-Pad31)*%
X103800000Y-116462500D02*
X104150000Y-116112500D01*
X104150000Y-116112500D02*
X104150000Y-113850000D01*
%TO.N,Net-(U1-QSPI_SD2)*%
X88965001Y-123450000D02*
X95542412Y-123450000D01*
X88725000Y-122410000D02*
X88725000Y-123209999D01*
X88725000Y-123209999D02*
X88965001Y-123450000D01*
X97092412Y-121900000D02*
X97562500Y-121900000D01*
X95542412Y-123450000D02*
X97092412Y-121900000D01*
%TO.N,unconnected-(U1-GPIO20-Pad32)*%
X103607287Y-114504191D02*
X103400000Y-114711478D01*
X103400000Y-114711478D02*
X103400000Y-116462500D01*
%TO.N,unconnected-(U1-GPIO24-Pad36)*%
X102550000Y-115400000D02*
X102550000Y-114500000D01*
X102150000Y-115800000D02*
X102550000Y-115400000D01*
X102034706Y-115800000D02*
X102150000Y-115800000D01*
X101800000Y-116462500D02*
X101875000Y-116387500D01*
X101875000Y-116387500D02*
X101875000Y-115959706D01*
X101875000Y-115959706D02*
X102034706Y-115800000D01*
%TO.N,Net-(U1-QSPI_SD0)*%
X89995000Y-115210000D02*
X90650000Y-115865000D01*
X97068148Y-121500000D02*
X97562500Y-121500000D01*
X95438148Y-123130000D02*
X97068148Y-121500000D01*
X90650000Y-115865000D02*
X90650000Y-122798528D01*
X90650000Y-122798528D02*
X90981472Y-123130000D01*
D49*
X90000000Y-115400000D02*
X90100000Y-115500000D01*
D47*
X90981472Y-123130000D02*
X95438148Y-123130000D01*
%TO.N,Net-(U1-QSPI_SCLK)*%
X88725000Y-115210000D02*
X88725000Y-114410001D01*
X88725000Y-114410001D02*
X88950001Y-114185000D01*
X95313884Y-122830000D02*
X97043884Y-121100000D01*
X90950000Y-122674264D02*
X91105736Y-122830000D01*
X91105736Y-122830000D02*
X95313884Y-122830000D01*
X90304486Y-114185000D02*
X90950000Y-114830514D01*
X97043884Y-121100000D02*
X97562500Y-121100000D01*
X90950000Y-114830514D02*
X90950000Y-122674264D01*
X88950001Y-114185000D02*
X90304486Y-114185000D01*
%TO.N,Net-(U1-USB_DP)*%
X97562500Y-119500000D02*
X97124264Y-119500000D01*
X95724264Y-120900000D02*
X93900000Y-120900000D01*
X97124264Y-119500000D02*
X95724264Y-120900000D01*
%TO.N,unconnected-(U1-GPIO25-Pad37)*%
X101575000Y-115859706D02*
X101400000Y-116034706D01*
X101881662Y-115286092D02*
X101881662Y-115528780D01*
X101575000Y-115835442D02*
X101575000Y-115859706D01*
X101881662Y-115528780D02*
X101575000Y-115835442D01*
X101400000Y-116034706D02*
X101400000Y-116462500D01*
%TO.N,Net-(A1-TP90)*%
X100600000Y-124144486D02*
X100688159Y-124232645D01*
X100600000Y-123337500D02*
X100600000Y-124144486D01*
%TO.N,unconnected-(U1-GPIO27_ADC1-Pad41)*%
X99800000Y-115600000D02*
X99750000Y-115550000D01*
X99800000Y-116462500D02*
X99800000Y-115600000D01*
%TO.N,unconnected-(U1-GPIO28_ADC2-Pad42)*%
X99225000Y-115167463D02*
X99600000Y-114792463D01*
X99400000Y-116462500D02*
X99400000Y-116025000D01*
X99600000Y-114350000D02*
X99150000Y-113900000D01*
X99225000Y-115850000D02*
X99225000Y-115167463D01*
X99400000Y-116025000D02*
X99225000Y-115850000D01*
X99600000Y-114792463D02*
X99600000Y-114350000D01*
%TO.N,unconnected-(U1-GPIO29_ADC3-Pad43)*%
X98925000Y-116387500D02*
X98925000Y-114725000D01*
X99000000Y-116462500D02*
X98925000Y-116387500D01*
X98925000Y-114725000D02*
X99000000Y-114650000D01*
%TD*%
%TA.AperFunction,Conductor*%
%TO.N,+5V*%
G36*
X105158633Y-126753368D02*
G01*
X105162001Y-126761500D01*
X105162001Y-126894871D01*
X105164914Y-126919990D01*
X105164914Y-126919992D01*
X105210291Y-127022760D01*
X105210293Y-127022763D01*
X105210294Y-127022765D01*
X105244962Y-127057433D01*
X105263083Y-127075554D01*
X105266451Y-127083686D01*
X105263083Y-127091818D01*
X105258750Y-127094540D01*
X105249856Y-127097652D01*
X105249851Y-127097655D01*
X105140709Y-127178207D01*
X105140707Y-127178209D01*
X105060155Y-127287351D01*
X105060154Y-127287352D01*
X105015352Y-127415391D01*
X105012500Y-127445791D01*
X105012500Y-127499999D01*
X105012501Y-127500000D01*
X106937498Y-127500000D01*
X106937499Y-127499999D01*
X106937499Y-127445806D01*
X106937498Y-127445792D01*
X106934647Y-127415391D01*
X106889845Y-127287352D01*
X106889844Y-127287351D01*
X106809292Y-127178209D01*
X106809290Y-127178207D01*
X106700148Y-127097655D01*
X106700147Y-127097654D01*
X106691249Y-127094541D01*
X106684686Y-127088676D01*
X106684192Y-127079888D01*
X106686911Y-127075559D01*
X106739706Y-127022765D01*
X106746510Y-127007354D01*
X106752875Y-127001277D01*
X106757030Y-127000500D01*
X107339562Y-127000500D01*
X107387958Y-126987532D01*
X107396684Y-126988681D01*
X107402042Y-126995664D01*
X107400893Y-127004390D01*
X107397883Y-127007803D01*
X107332436Y-127057433D01*
X107332433Y-127057436D01*
X107241079Y-127177903D01*
X107241077Y-127177907D01*
X107185614Y-127318552D01*
X107175000Y-127406931D01*
X107175000Y-127549999D01*
X107175001Y-127550000D01*
X108049999Y-127550000D01*
X108050000Y-127549999D01*
X108050000Y-126900001D01*
X108049999Y-126900000D01*
X107681931Y-126900000D01*
X107593552Y-126910614D01*
X107514274Y-126941877D01*
X107505473Y-126941727D01*
X107499357Y-126935398D01*
X107499507Y-126926597D01*
X107501920Y-126923050D01*
X107540460Y-126884511D01*
X107671603Y-126753368D01*
X107679735Y-126750000D01*
X108980265Y-126750000D01*
X108988397Y-126753368D01*
X109196632Y-126961603D01*
X109200000Y-126969735D01*
X109200000Y-127221563D01*
X109196632Y-127229695D01*
X109188500Y-127233063D01*
X109180368Y-127229695D01*
X109177802Y-127225782D01*
X109158922Y-127177907D01*
X109158920Y-127177903D01*
X109067566Y-127057436D01*
X109067563Y-127057433D01*
X108947096Y-126966079D01*
X108947092Y-126966077D01*
X108806446Y-126910614D01*
X108806447Y-126910614D01*
X108718068Y-126900000D01*
X108350001Y-126900000D01*
X108350000Y-126900001D01*
X108350000Y-128499999D01*
X108350001Y-128500000D01*
X108718053Y-128500000D01*
X108718068Y-128499999D01*
X108806447Y-128489385D01*
X108908781Y-128449029D01*
X108917581Y-128449179D01*
X108923698Y-128455508D01*
X108924500Y-128459727D01*
X108924500Y-128588500D01*
X108921132Y-128596632D01*
X108913000Y-128600000D01*
X107249999Y-128600000D01*
X107213717Y-128668934D01*
X107206949Y-128674561D01*
X107200301Y-128674612D01*
X107114773Y-128649500D01*
X107114772Y-128649500D01*
X106985228Y-128649500D01*
X106985227Y-128649500D01*
X106860929Y-128685996D01*
X106751954Y-128756030D01*
X106751950Y-128756033D01*
X106667118Y-128853935D01*
X106667118Y-128853936D01*
X106613302Y-128971776D01*
X106594867Y-129100000D01*
X106613302Y-129228223D01*
X106613302Y-129228224D01*
X106613303Y-129228226D01*
X106667118Y-129346063D01*
X106667118Y-129346064D01*
X106751950Y-129443966D01*
X106751954Y-129443969D01*
X106783323Y-129464129D01*
X106788343Y-129471358D01*
X106787283Y-129479159D01*
X106753234Y-129543856D01*
X106746466Y-129549483D01*
X106743057Y-129550000D01*
X103537000Y-129550000D01*
X103528868Y-129546632D01*
X103525500Y-129538500D01*
X103525500Y-129211310D01*
X103512809Y-129147509D01*
X103490894Y-129037334D01*
X103423013Y-128873453D01*
X103324464Y-128725965D01*
X103199035Y-128600536D01*
X103198233Y-128600000D01*
X103051549Y-128501988D01*
X103021122Y-128489385D01*
X102887666Y-128434106D01*
X102887664Y-128434105D01*
X102782901Y-128413266D01*
X102713691Y-128399500D01*
X102536309Y-128399500D01*
X102449913Y-128416685D01*
X102362337Y-128434105D01*
X102362334Y-128434105D01*
X102198450Y-128501988D01*
X102050968Y-128600533D01*
X101925533Y-128725968D01*
X101826988Y-128873450D01*
X101759105Y-129037334D01*
X101759105Y-129037337D01*
X101724500Y-129211310D01*
X101724500Y-129538500D01*
X101721132Y-129546632D01*
X101713000Y-129550000D01*
X97011500Y-129550000D01*
X97003368Y-129546632D01*
X97000000Y-129538500D01*
X97000000Y-128061500D01*
X97003368Y-128053368D01*
X97011500Y-128050000D01*
X100149280Y-128050000D01*
X100157412Y-128053368D01*
X100160663Y-128059864D01*
X100163302Y-128078223D01*
X100163302Y-128078224D01*
X100163303Y-128078226D01*
X100202449Y-128163942D01*
X100217118Y-128196063D01*
X100217118Y-128196064D01*
X100301950Y-128293966D01*
X100301954Y-128293969D01*
X100377572Y-128342566D01*
X100410931Y-128364004D01*
X100483560Y-128385329D01*
X100535227Y-128400500D01*
X100535228Y-128400500D01*
X100664772Y-128400500D01*
X100789069Y-128364004D01*
X100898049Y-128293967D01*
X100982882Y-128196063D01*
X100990670Y-128179007D01*
X100997111Y-128173011D01*
X101005907Y-128173325D01*
X101009262Y-128175654D01*
X101061658Y-128228050D01*
X101174696Y-128285646D01*
X101268481Y-128300500D01*
X102281518Y-128300499D01*
X102281520Y-128300499D01*
X102351353Y-128289439D01*
X102375304Y-128285646D01*
X102488342Y-128228050D01*
X102578050Y-128138342D01*
X102608682Y-128078223D01*
X102619864Y-128056279D01*
X102626557Y-128050563D01*
X102630111Y-128050000D01*
X103007954Y-128050000D01*
X103013751Y-128051796D01*
X103013760Y-128051776D01*
X103013934Y-128051853D01*
X103014457Y-128052015D01*
X103014738Y-128052208D01*
X103117505Y-128097584D01*
X103117513Y-128097586D01*
X103136108Y-128099742D01*
X103142635Y-128100500D01*
X104257364Y-128100499D01*
X104257369Y-128100499D01*
X104257370Y-128100498D01*
X104282491Y-128097585D01*
X104282492Y-128097585D01*
X104385261Y-128052208D01*
X104385261Y-128052207D01*
X104385265Y-128052206D01*
X104385267Y-128052203D01*
X104385543Y-128052015D01*
X104386065Y-128051853D01*
X104386240Y-128051776D01*
X104386248Y-128051796D01*
X104392046Y-128050000D01*
X104499999Y-128050000D01*
X104500000Y-128050000D01*
X104500000Y-127895256D01*
X104500979Y-127890613D01*
X104510085Y-127869991D01*
X104513000Y-127844865D01*
X104513000Y-127800001D01*
X105012501Y-127800001D01*
X105012501Y-127854207D01*
X105015352Y-127884608D01*
X105060154Y-128012647D01*
X105060155Y-128012648D01*
X105140707Y-128121790D01*
X105140709Y-128121792D01*
X105249851Y-128202344D01*
X105249852Y-128202345D01*
X105377891Y-128247147D01*
X105408298Y-128249999D01*
X105824998Y-128249999D01*
X105825000Y-128249998D01*
X105825000Y-127800001D01*
X106125000Y-127800001D01*
X106125000Y-128249998D01*
X106125001Y-128249999D01*
X106541694Y-128249999D01*
X106541707Y-128249998D01*
X106572108Y-128247147D01*
X106700147Y-128202345D01*
X106700148Y-128202344D01*
X106809290Y-128121792D01*
X106809292Y-128121790D01*
X106889844Y-128012648D01*
X106889845Y-128012647D01*
X106934647Y-127884608D01*
X106937499Y-127854208D01*
X106937500Y-127854194D01*
X106937500Y-127850001D01*
X107175000Y-127850001D01*
X107175000Y-127993068D01*
X107185614Y-128081447D01*
X107241077Y-128222092D01*
X107241079Y-128222096D01*
X107332433Y-128342563D01*
X107332436Y-128342566D01*
X107452903Y-128433920D01*
X107452907Y-128433922D01*
X107593553Y-128489385D01*
X107593552Y-128489385D01*
X107681931Y-128499999D01*
X107681947Y-128500000D01*
X108049999Y-128500000D01*
X108050000Y-128499999D01*
X108050000Y-127850001D01*
X108049999Y-127850000D01*
X107175001Y-127850000D01*
X107175000Y-127850001D01*
X106937500Y-127850001D01*
X106937500Y-127800001D01*
X106937499Y-127800000D01*
X106125001Y-127800000D01*
X106125000Y-127800001D01*
X105825000Y-127800001D01*
X105824999Y-127800000D01*
X105012502Y-127800000D01*
X105012501Y-127800001D01*
X104513000Y-127800001D01*
X104512999Y-127455136D01*
X104512999Y-127455135D01*
X104512999Y-127455130D01*
X104512998Y-127455128D01*
X104510085Y-127430009D01*
X104510085Y-127430007D01*
X104500980Y-127409387D01*
X104500000Y-127404742D01*
X104500000Y-126761500D01*
X104503368Y-126753368D01*
X104511500Y-126750000D01*
X105150501Y-126750000D01*
X105158633Y-126753368D01*
G37*
%TD.AperFunction*%
%TD*%
%TA.AperFunction,Conductor*%
%TO.N,/VREG_LX*%
G36*
X94391106Y-116898995D02*
G01*
X94452222Y-116954000D01*
X94651096Y-117132986D01*
X94674451Y-117175037D01*
X94750000Y-117600000D01*
X94750002Y-117600003D01*
X94889998Y-117799999D01*
X94890000Y-117800000D01*
X96710000Y-117800000D01*
X96770000Y-117800000D01*
X97496000Y-117800000D01*
X97548326Y-117821674D01*
X97570000Y-117874000D01*
X97570000Y-117926000D01*
X97548326Y-117978326D01*
X97496000Y-118000000D01*
X96770000Y-118000000D01*
X96742174Y-118027826D01*
X96689848Y-118049500D01*
X96485445Y-118049500D01*
X96480369Y-118050000D01*
X95645329Y-118050000D01*
X95608329Y-118040086D01*
X95573885Y-118020199D01*
X95543187Y-118011974D01*
X95543186Y-118011974D01*
X95459309Y-117989500D01*
X95340691Y-117989500D01*
X95340689Y-117989500D01*
X95226114Y-118020200D01*
X95191671Y-118040086D01*
X95154672Y-118050000D01*
X94600652Y-118050000D01*
X94548326Y-118028326D01*
X94070000Y-117550000D01*
X92744000Y-117550000D01*
X92691674Y-117528326D01*
X92670000Y-117476000D01*
X92670000Y-116954000D01*
X92691674Y-116901674D01*
X92744000Y-116880000D01*
X94341604Y-116880000D01*
X94391106Y-116898995D01*
G37*
%TD.AperFunction*%
%TD*%
%TA.AperFunction,Conductor*%
%TO.N,+1V1*%
G36*
X103174191Y-117718907D02*
G01*
X103210155Y-117768407D01*
X103215000Y-117799000D01*
X103215000Y-122001000D01*
X103196093Y-122059191D01*
X103146593Y-122095155D01*
X103116000Y-122100000D01*
X98914000Y-122100000D01*
X98855809Y-122081093D01*
X98819845Y-122031593D01*
X98815000Y-122001000D01*
X98815000Y-118307681D01*
X99149500Y-118307681D01*
X99149500Y-121492318D01*
X99152443Y-121517687D01*
X99152443Y-121517689D01*
X99152444Y-121517690D01*
X99198276Y-121621490D01*
X99278510Y-121701724D01*
X99382310Y-121747556D01*
X99407682Y-121750499D01*
X99407684Y-121750500D01*
X99407686Y-121750500D01*
X102592316Y-121750500D01*
X102592316Y-121750499D01*
X102617690Y-121747556D01*
X102721490Y-121701724D01*
X102801724Y-121621490D01*
X102847556Y-121517690D01*
X102850500Y-121492314D01*
X102850500Y-118307686D01*
X102847556Y-118282310D01*
X102801724Y-118178510D01*
X102721490Y-118098276D01*
X102617690Y-118052444D01*
X102617689Y-118052443D01*
X102617687Y-118052443D01*
X102592318Y-118049500D01*
X102592314Y-118049500D01*
X99407686Y-118049500D01*
X99407681Y-118049500D01*
X99382312Y-118052443D01*
X99278510Y-118098276D01*
X99198276Y-118178510D01*
X99152443Y-118282312D01*
X99149500Y-118307681D01*
X98815000Y-118307681D01*
X98815000Y-117799000D01*
X98833907Y-117740809D01*
X98883407Y-117704845D01*
X98914000Y-117700000D01*
X103116000Y-117700000D01*
X103174191Y-117718907D01*
G37*
%TD.AperFunction*%
%TD*%
%TA.AperFunction,Conductor*%
%TO.N,+3V3*%
G36*
X93578326Y-115596674D02*
G01*
X93600000Y-115649000D01*
X93600000Y-116345000D01*
X93637387Y-116345000D01*
X93637388Y-116344999D01*
X93666786Y-116342243D01*
X93666791Y-116342242D01*
X93790556Y-116298935D01*
X93896064Y-116221065D01*
X93896065Y-116221064D01*
X93973933Y-116115558D01*
X93977252Y-116106073D01*
X94014990Y-116063840D01*
X94071538Y-116060661D01*
X94099427Y-116078184D01*
X94170859Y-116149616D01*
X94268502Y-116192730D01*
X94292377Y-116195500D01*
X94647622Y-116195499D01*
X94671498Y-116192730D01*
X94769141Y-116149616D01*
X94844616Y-116074141D01*
X94865384Y-116027105D01*
X94906346Y-115987994D01*
X94962968Y-115989302D01*
X95000772Y-116027105D01*
X95016187Y-116062016D01*
X95092984Y-116138813D01*
X95172798Y-116174054D01*
X95211910Y-116215016D01*
X95210602Y-116271638D01*
X95182915Y-116304000D01*
X95167239Y-116314075D01*
X95101951Y-116356033D01*
X95101950Y-116356034D01*
X95017119Y-116453935D01*
X94963302Y-116571776D01*
X94944867Y-116700000D01*
X94963302Y-116828223D01*
X94963302Y-116828224D01*
X94963303Y-116828226D01*
X94988364Y-116883101D01*
X95017119Y-116946065D01*
X95017121Y-116946067D01*
X95032263Y-116963543D01*
X95050148Y-117017282D01*
X95030465Y-117060383D01*
X95030545Y-117060436D01*
X95030217Y-117060925D01*
X95028666Y-117064324D01*
X95026499Y-117066491D01*
X94993233Y-117116277D01*
X94984500Y-117160180D01*
X94984500Y-117191637D01*
X94962826Y-117243963D01*
X94910500Y-117265637D01*
X94858174Y-117243963D01*
X94837642Y-117204591D01*
X94827550Y-117147819D01*
X94810392Y-117099536D01*
X94787037Y-117057485D01*
X94755120Y-117017404D01*
X94754984Y-117017282D01*
X94594054Y-116872445D01*
X94594054Y-116872444D01*
X94495138Y-116783418D01*
X94495133Y-116783415D01*
X94495131Y-116783413D01*
X94446814Y-116753816D01*
X94446812Y-116753815D01*
X94446810Y-116753814D01*
X94437414Y-116750208D01*
X94422814Y-116742649D01*
X94408722Y-116733233D01*
X94364820Y-116724500D01*
X94364819Y-116724500D01*
X92724500Y-116724500D01*
X92672174Y-116702826D01*
X92650500Y-116650500D01*
X92650500Y-116041199D01*
X92672174Y-115988873D01*
X92753674Y-115907373D01*
X92806000Y-115885699D01*
X92858326Y-115907373D01*
X92880000Y-115959699D01*
X92880000Y-115962388D01*
X92882756Y-115991786D01*
X92882757Y-115991791D01*
X92926064Y-116115556D01*
X93003934Y-116221064D01*
X93003935Y-116221065D01*
X93109443Y-116298935D01*
X93233208Y-116342242D01*
X93233213Y-116342243D01*
X93262611Y-116344999D01*
X93262613Y-116345000D01*
X93300000Y-116345000D01*
X93300000Y-115649000D01*
X93321674Y-115596674D01*
X93374000Y-115575000D01*
X93526000Y-115575000D01*
X93578326Y-115596674D01*
G37*
%TD.AperFunction*%
%TA.AperFunction,Conductor*%
G36*
X96845245Y-98522174D02*
G01*
X96865873Y-98562105D01*
X96923648Y-98902152D01*
X97021611Y-99242189D01*
X97021612Y-99242191D01*
X97157017Y-99569090D01*
X97157031Y-99569117D01*
X97163264Y-99580394D01*
X97328192Y-99878808D01*
X97532959Y-100167400D01*
X97768750Y-100431250D01*
X98032600Y-100667041D01*
X98321192Y-100871808D01*
X98321196Y-100871810D01*
X98321203Y-100871814D01*
X98630882Y-101042968D01*
X98630909Y-101042982D01*
X98957808Y-101178387D01*
X98957810Y-101178388D01*
X98957813Y-101178389D01*
X98957816Y-101178390D01*
X99297843Y-101276350D01*
X99297846Y-101276350D01*
X99297848Y-101276351D01*
X99297846Y-101276351D01*
X99479466Y-101307208D01*
X99646700Y-101335623D01*
X100000000Y-101355464D01*
X100353300Y-101335623D01*
X100634141Y-101287906D01*
X100702152Y-101276351D01*
X100702153Y-101276350D01*
X100702157Y-101276350D01*
X101042184Y-101178390D01*
X101079219Y-101163049D01*
X101369090Y-101042982D01*
X101369097Y-101042978D01*
X101369105Y-101042975D01*
X101678808Y-100871808D01*
X101967400Y-100667041D01*
X102231250Y-100431250D01*
X102467041Y-100167400D01*
X102671808Y-99878808D01*
X102842975Y-99569105D01*
X102842978Y-99569097D01*
X102842982Y-99569090D01*
X102978387Y-99242191D01*
X102978388Y-99242189D01*
X102978388Y-99242188D01*
X102978390Y-99242184D01*
X103076350Y-98902157D01*
X103134127Y-98562105D01*
X103164259Y-98514149D01*
X103207081Y-98500500D01*
X114625500Y-98500500D01*
X114677826Y-98522174D01*
X114699500Y-98574500D01*
X114699500Y-124625500D01*
X114677826Y-124677826D01*
X114625500Y-124699500D01*
X113595180Y-124699500D01*
X113573229Y-124703866D01*
X113551277Y-124708233D01*
X113501496Y-124741495D01*
X113501495Y-124741496D01*
X113468233Y-124791277D01*
X113459500Y-124835180D01*
X113459500Y-124875500D01*
X113437826Y-124927826D01*
X113385500Y-124949500D01*
X110759500Y-124949500D01*
X110707174Y-124927826D01*
X110685500Y-124875500D01*
X110685500Y-124849056D01*
X110707174Y-124796730D01*
X110729604Y-124774300D01*
X110777327Y-124726577D01*
X110777330Y-124726575D01*
X110787735Y-124716170D01*
X110787736Y-124716170D01*
X110851170Y-124652736D01*
X110874769Y-124595762D01*
X110885501Y-124569854D01*
X110885501Y-124480145D01*
X110885501Y-124474187D01*
X110885500Y-124474173D01*
X110885500Y-124355349D01*
X110907174Y-124303023D01*
X110929608Y-124287655D01*
X110959141Y-124274616D01*
X111034616Y-124199141D01*
X111077730Y-124101498D01*
X111080500Y-124077623D01*
X111080499Y-123622378D01*
X111077730Y-123598502D01*
X111034616Y-123500859D01*
X110959141Y-123425384D01*
X110861498Y-123382270D01*
X110837623Y-123379500D01*
X110837619Y-123379500D01*
X110482377Y-123379500D01*
X110458504Y-123382269D01*
X110360858Y-123425384D01*
X110285385Y-123500857D01*
X110285384Y-123500858D01*
X110285384Y-123500859D01*
X110276359Y-123521297D01*
X110242270Y-123598501D01*
X110239500Y-123622380D01*
X110239500Y-124077622D01*
X110242269Y-124101495D01*
X110242269Y-124101497D01*
X110242270Y-124101498D01*
X110285384Y-124199141D01*
X110360859Y-124274616D01*
X110390389Y-124287654D01*
X110429502Y-124328615D01*
X110434500Y-124355349D01*
X110434500Y-124400943D01*
X110412826Y-124453269D01*
X110188269Y-124677826D01*
X110135943Y-124699500D01*
X109470180Y-124699500D01*
X109448229Y-124703866D01*
X109426277Y-124708233D01*
X109376496Y-124741495D01*
X109376495Y-124741496D01*
X109343233Y-124791277D01*
X109334500Y-124835180D01*
X109334500Y-125402926D01*
X109312826Y-125455252D01*
X109279787Y-125471806D01*
X109280449Y-125474059D01*
X109204010Y-125496503D01*
X109183162Y-125499500D01*
X109135696Y-125499500D01*
X109083370Y-125477826D01*
X109062607Y-125437077D01*
X109061156Y-125427916D01*
X109060646Y-125424696D01*
X109060645Y-125424694D01*
X109060645Y-125424693D01*
X109021177Y-125347234D01*
X109003050Y-125311658D01*
X108913342Y-125221950D01*
X108800304Y-125164354D01*
X108800302Y-125164353D01*
X108800301Y-125164353D01*
X108706519Y-125149500D01*
X107693480Y-125149500D01*
X107599695Y-125164353D01*
X107599691Y-125164355D01*
X107486658Y-125221948D01*
X107485809Y-125222566D01*
X107485125Y-125222730D01*
X107481469Y-125224593D01*
X107481021Y-125223714D01*
X107430736Y-125235783D01*
X107389992Y-125215021D01*
X107277296Y-125102325D01*
X107255622Y-125049999D01*
X107277295Y-124997674D01*
X107427797Y-124847173D01*
X107480123Y-124825499D01*
X107993033Y-124825499D01*
X108008836Y-124822996D01*
X108083893Y-124811109D01*
X108102242Y-124801760D01*
X108193401Y-124755312D01*
X108193400Y-124755312D01*
X108193403Y-124755311D01*
X108280311Y-124668403D01*
X108336109Y-124558893D01*
X108350500Y-124468033D01*
X108350499Y-123999498D01*
X108372173Y-123947173D01*
X108424499Y-123925499D01*
X108509929Y-123925499D01*
X108634226Y-123889003D01*
X108743206Y-123818966D01*
X108804347Y-123748405D01*
X108823726Y-123726040D01*
X108874373Y-123700688D01*
X108879652Y-123700499D01*
X109140942Y-123700499D01*
X109193268Y-123722173D01*
X109197826Y-123726731D01*
X109219500Y-123779057D01*
X109219500Y-124077622D01*
X109222269Y-124101495D01*
X109222269Y-124101497D01*
X109222270Y-124101498D01*
X109265384Y-124199141D01*
X109340859Y-124274616D01*
X109438502Y-124317730D01*
X109462377Y-124320500D01*
X109817622Y-124320499D01*
X109841498Y-124317730D01*
X109939141Y-124274616D01*
X110014616Y-124199141D01*
X110057730Y-124101498D01*
X110060500Y-124077623D01*
X110060499Y-123622378D01*
X110057730Y-123598502D01*
X110014616Y-123500859D01*
X109939141Y-123425384D01*
X109841498Y-123382270D01*
X109817623Y-123379500D01*
X109817619Y-123379500D01*
X109519057Y-123379500D01*
X109466731Y-123357826D01*
X109466577Y-123357672D01*
X109466577Y-123357671D01*
X109392737Y-123283831D01*
X109392735Y-123283829D01*
X109368459Y-123273773D01*
X109368457Y-123273772D01*
X109368457Y-123273771D01*
X109309854Y-123249498D01*
X109220144Y-123249498D01*
X109211532Y-123249498D01*
X109211524Y-123249499D01*
X108879652Y-123249499D01*
X108827326Y-123227825D01*
X108823726Y-123223958D01*
X108743209Y-123131035D01*
X108743207Y-123131034D01*
X108743206Y-123131032D01*
X108676189Y-123087963D01*
X108634225Y-123060994D01*
X108509929Y-123024499D01*
X108424500Y-123024499D01*
X108372174Y-123002825D01*
X108350500Y-122950499D01*
X108350500Y-122727826D01*
X108350499Y-122473717D01*
X108372173Y-122421392D01*
X108424499Y-122399718D01*
X108435036Y-122400472D01*
X108435225Y-122400499D01*
X108435228Y-122400500D01*
X108435231Y-122400500D01*
X108564772Y-122400500D01*
X108689069Y-122364004D01*
X108798049Y-122293967D01*
X108882882Y-122196063D01*
X108936697Y-122078226D01*
X108955133Y-121950000D01*
X108955133Y-121949998D01*
X108955133Y-121949500D01*
X108955242Y-121949235D01*
X108955886Y-121944761D01*
X108957027Y-121944925D01*
X108976807Y-121897174D01*
X109029133Y-121875500D01*
X110214819Y-121875500D01*
X110214820Y-121875500D01*
X110258722Y-121866767D01*
X110308504Y-121833504D01*
X110341767Y-121783722D01*
X110350500Y-121739820D01*
X110350500Y-120573057D01*
X110372174Y-120520731D01*
X110424500Y-120499057D01*
X110476826Y-120520731D01*
X110527826Y-120571731D01*
X110549500Y-120624057D01*
X110549500Y-121739820D01*
X110551858Y-121751674D01*
X110558233Y-121783722D01*
X110591399Y-121833360D01*
X110591496Y-121833504D01*
X110641278Y-121866767D01*
X110685180Y-121875500D01*
X110685181Y-121875500D01*
X111914819Y-121875500D01*
X111914820Y-121875500D01*
X111958722Y-121866767D01*
X112008504Y-121833504D01*
X112041767Y-121783722D01*
X112050500Y-121739820D01*
X112050500Y-120310180D01*
X112041767Y-120266278D01*
X112008504Y-120216496D01*
X111958722Y-120183233D01*
X111914820Y-120174500D01*
X111914819Y-120174500D01*
X110799057Y-120174500D01*
X110746731Y-120152826D01*
X110576578Y-119982673D01*
X110576578Y-119982672D01*
X110502738Y-119908832D01*
X110502736Y-119908830D01*
X110478460Y-119898774D01*
X110478458Y-119898773D01*
X110478458Y-119898772D01*
X110419855Y-119874499D01*
X110330145Y-119874499D01*
X110321533Y-119874499D01*
X110321525Y-119874500D01*
X108649981Y-119874500D01*
X108597655Y-119852826D01*
X108575981Y-119800500D01*
X108597655Y-119748174D01*
X108604717Y-119741112D01*
X108613813Y-119732016D01*
X108657682Y-119632662D01*
X108660500Y-119608373D01*
X108660499Y-119314056D01*
X108682173Y-119261731D01*
X108723174Y-119220730D01*
X108775500Y-119199056D01*
X108827826Y-119220730D01*
X108849500Y-119273056D01*
X108849500Y-119539820D01*
X108858233Y-119583722D01*
X108887972Y-119628231D01*
X108891496Y-119633504D01*
X108941278Y-119666767D01*
X108985180Y-119675500D01*
X108985181Y-119675500D01*
X110214819Y-119675500D01*
X110214820Y-119675500D01*
X110258722Y-119666767D01*
X110308504Y-119633504D01*
X110341767Y-119583722D01*
X110350500Y-119539820D01*
X110350500Y-118110180D01*
X110549500Y-118110180D01*
X110549500Y-119539820D01*
X110558233Y-119583722D01*
X110587972Y-119628231D01*
X110591496Y-119633504D01*
X110641278Y-119666767D01*
X110685180Y-119675500D01*
X110685181Y-119675500D01*
X111914819Y-119675500D01*
X111914820Y-119675500D01*
X111958722Y-119666767D01*
X112008504Y-119633504D01*
X112041767Y-119583722D01*
X112050500Y-119539820D01*
X112050500Y-118110180D01*
X112041767Y-118066278D01*
X112008504Y-118016496D01*
X111970467Y-117991081D01*
X111958722Y-117983233D01*
X111914820Y-117974500D01*
X111914819Y-117974500D01*
X111762207Y-117974500D01*
X111709881Y-117952826D01*
X111688207Y-117900500D01*
X111694893Y-117869762D01*
X111736697Y-117778226D01*
X111755133Y-117650000D01*
X111736697Y-117521774D01*
X111682882Y-117403937D01*
X111598049Y-117306033D01*
X111528183Y-117261133D01*
X111489068Y-117235995D01*
X111364772Y-117199500D01*
X111235228Y-117199500D01*
X111110931Y-117235995D01*
X111001954Y-117306031D01*
X111001950Y-117306034D01*
X110917119Y-117403935D01*
X110917118Y-117403936D01*
X110917118Y-117403937D01*
X110915931Y-117406536D01*
X110863302Y-117521776D01*
X110844867Y-117650000D01*
X110863302Y-117778223D01*
X110863302Y-117778224D01*
X110863303Y-117778226D01*
X110905106Y-117869760D01*
X110907127Y-117926360D01*
X110868534Y-117967813D01*
X110837793Y-117974500D01*
X110685180Y-117974500D01*
X110663229Y-117978866D01*
X110641277Y-117983233D01*
X110591496Y-118016495D01*
X110591495Y-118016496D01*
X110558233Y-118066277D01*
X110555742Y-118078800D01*
X110549500Y-118110180D01*
X110350500Y-118110180D01*
X110341767Y-118066278D01*
X110308504Y-118016496D01*
X110270467Y-117991081D01*
X110258722Y-117983233D01*
X110214820Y-117974500D01*
X108985180Y-117974500D01*
X108963229Y-117978866D01*
X108941277Y-117983233D01*
X108891496Y-118016495D01*
X108891495Y-118016496D01*
X108858233Y-118066277D01*
X108849500Y-118110180D01*
X108849500Y-118525500D01*
X108827826Y-118577826D01*
X108775500Y-118599500D01*
X108755144Y-118599500D01*
X108748935Y-118600735D01*
X108693386Y-118589686D01*
X108661921Y-118542593D01*
X108660499Y-118528157D01*
X108660499Y-118281627D01*
X108657682Y-118257340D01*
X108657682Y-118257338D01*
X108613813Y-118157984D01*
X108537016Y-118081187D01*
X108537014Y-118081186D01*
X108533531Y-118078800D01*
X108502613Y-118031346D01*
X108514306Y-117975929D01*
X108519429Y-117969292D01*
X108533697Y-117952826D01*
X108582882Y-117896063D01*
X108636697Y-117778226D01*
X108655133Y-117650000D01*
X108636697Y-117521774D01*
X108582882Y-117403937D01*
X108498049Y-117306033D01*
X108428183Y-117261133D01*
X108389068Y-117235995D01*
X108264772Y-117199500D01*
X108135228Y-117199500D01*
X108010931Y-117235995D01*
X107901954Y-117306031D01*
X107901950Y-117306034D01*
X107817119Y-117403935D01*
X107817118Y-117403936D01*
X107817118Y-117403937D01*
X107815931Y-117406536D01*
X107763302Y-117521776D01*
X107744867Y-117650000D01*
X107763302Y-117778223D01*
X107763302Y-117778224D01*
X107763303Y-117778226D01*
X107817118Y-117896063D01*
X107817121Y-117896067D01*
X107880571Y-117969292D01*
X107898456Y-118023031D01*
X107873105Y-118073678D01*
X107866471Y-118078798D01*
X107862986Y-118081185D01*
X107786187Y-118157983D01*
X107742318Y-118257337D01*
X107739500Y-118281630D01*
X107739500Y-118648372D01*
X107742317Y-118672659D01*
X107742317Y-118672661D01*
X107742318Y-118672662D01*
X107786187Y-118772016D01*
X107862984Y-118848813D01*
X107927513Y-118877305D01*
X107966626Y-118918268D01*
X107965318Y-118974890D01*
X107927513Y-119012694D01*
X107897221Y-119026069D01*
X107862981Y-119041188D01*
X107817500Y-119086669D01*
X107765174Y-119108343D01*
X107712849Y-119086668D01*
X107697480Y-119064233D01*
X107663813Y-118987984D01*
X107587016Y-118911187D01*
X107487662Y-118867318D01*
X107487663Y-118867318D01*
X107482804Y-118866754D01*
X107463373Y-118864500D01*
X107463369Y-118864500D01*
X107316291Y-118864500D01*
X107263965Y-118842826D01*
X107242291Y-118790500D01*
X107243044Y-118779969D01*
X107246040Y-118759125D01*
X107258838Y-118670117D01*
X107240402Y-118541891D01*
X107186587Y-118424054D01*
X107101754Y-118326150D01*
X107008336Y-118266114D01*
X106992773Y-118256112D01*
X106868477Y-118219617D01*
X106738933Y-118219617D01*
X106614636Y-118256112D01*
X106505659Y-118326148D01*
X106505651Y-118326154D01*
X106427625Y-118416202D01*
X106376979Y-118441553D01*
X106323240Y-118423667D01*
X106297889Y-118373021D01*
X106304386Y-118337004D01*
X106345248Y-118247531D01*
X106363684Y-118119305D01*
X106345248Y-117991079D01*
X106291433Y-117873242D01*
X106206600Y-117775338D01*
X106114366Y-117716063D01*
X106097619Y-117705300D01*
X105973323Y-117668805D01*
X105871950Y-117668805D01*
X105819624Y-117647131D01*
X105797950Y-117594805D01*
X105798703Y-117584274D01*
X105803327Y-117552110D01*
X105815133Y-117470000D01*
X105802630Y-117383040D01*
X105816637Y-117328165D01*
X105851437Y-117302664D01*
X105977918Y-117258406D01*
X106084640Y-117179641D01*
X106084641Y-117179640D01*
X106163405Y-117072919D01*
X106207211Y-116947731D01*
X106207212Y-116947726D01*
X106209999Y-116917997D01*
X106210000Y-116917996D01*
X106210000Y-116875000D01*
X104990001Y-116875000D01*
X104990001Y-116918007D01*
X104992786Y-116947721D01*
X104992787Y-116947728D01*
X105036594Y-117072920D01*
X105039185Y-117077822D01*
X105036605Y-117079185D01*
X105047890Y-117124756D01*
X105030646Y-117162160D01*
X104977117Y-117223937D01*
X104974797Y-117227548D01*
X104928272Y-117259846D01*
X104898111Y-117260114D01*
X104844748Y-117249500D01*
X104030252Y-117249500D01*
X104001010Y-117255316D01*
X103971767Y-117261133D01*
X103905449Y-117305447D01*
X103905447Y-117305449D01*
X103861133Y-117371767D01*
X103854735Y-117403935D01*
X103849500Y-117430252D01*
X103849500Y-117569748D01*
X103854484Y-117594805D01*
X103861133Y-117628232D01*
X103881617Y-117658888D01*
X103892666Y-117714436D01*
X103881617Y-117741112D01*
X103861133Y-117771767D01*
X103855716Y-117799000D01*
X103849500Y-117830252D01*
X103849500Y-117969748D01*
X103853755Y-117991138D01*
X103861133Y-118028232D01*
X103881617Y-118058888D01*
X103892666Y-118114436D01*
X103881617Y-118141112D01*
X103861133Y-118171767D01*
X103860058Y-118177174D01*
X103851616Y-118219617D01*
X103849500Y-118230253D01*
X103849500Y-118369746D01*
X103861133Y-118428232D01*
X103881617Y-118458888D01*
X103892666Y-118514436D01*
X103881617Y-118541112D01*
X103861133Y-118571767D01*
X103856212Y-118596507D01*
X103849500Y-118630252D01*
X103849500Y-118769748D01*
X103851533Y-118779969D01*
X103861133Y-118828232D01*
X103881617Y-118858888D01*
X103892666Y-118914436D01*
X103881617Y-118941112D01*
X103861133Y-118971767D01*
X103856611Y-118994501D01*
X103849500Y-119030252D01*
X103849500Y-119169748D01*
X103851841Y-119181515D01*
X103861133Y-119228232D01*
X103881617Y-119258888D01*
X103892666Y-119314436D01*
X103881617Y-119341112D01*
X103861133Y-119371767D01*
X103856717Y-119393968D01*
X103849500Y-119430252D01*
X103849500Y-119569748D01*
X103855518Y-119600000D01*
X103861133Y-119628232D01*
X103881617Y-119658888D01*
X103892666Y-119714436D01*
X103881617Y-119741112D01*
X103861133Y-119771767D01*
X103856590Y-119794609D01*
X103849500Y-119830252D01*
X103849500Y-119969748D01*
X103850001Y-119972265D01*
X103861133Y-120028232D01*
X103881617Y-120058888D01*
X103892666Y-120114436D01*
X103881617Y-120141112D01*
X103861133Y-120171767D01*
X103855835Y-120198405D01*
X103850182Y-120226826D01*
X103849500Y-120230253D01*
X103849500Y-120369746D01*
X103861133Y-120428232D01*
X103881617Y-120458888D01*
X103892666Y-120514436D01*
X103881617Y-120541112D01*
X103861133Y-120571767D01*
X103849500Y-120630253D01*
X103849500Y-120769746D01*
X103861133Y-120828232D01*
X103878308Y-120853935D01*
X103905448Y-120894552D01*
X103920293Y-120904471D01*
X103971767Y-120938866D01*
X103971768Y-120938866D01*
X103971769Y-120938867D01*
X104030252Y-120950500D01*
X104030254Y-120950500D01*
X104844746Y-120950500D01*
X104844748Y-120950500D01*
X104903231Y-120938867D01*
X104903662Y-120938578D01*
X104904573Y-120937971D01*
X104907643Y-120937039D01*
X104909965Y-120936078D01*
X104910059Y-120936306D01*
X104945684Y-120925500D01*
X105633085Y-120925500D01*
X105685411Y-120947174D01*
X105694101Y-120955864D01*
X105715775Y-121008190D01*
X105701316Y-121052131D01*
X105686594Y-121072078D01*
X105686594Y-121072079D01*
X105642788Y-121197268D01*
X105642787Y-121197273D01*
X105640000Y-121227002D01*
X105640000Y-121300000D01*
X106296000Y-121300000D01*
X106348326Y-121321674D01*
X106370000Y-121374000D01*
X106370000Y-121526000D01*
X106348326Y-121578326D01*
X106296000Y-121600000D01*
X105640001Y-121600000D01*
X105640001Y-121673007D01*
X105642786Y-121702721D01*
X105642787Y-121702728D01*
X105686594Y-121827919D01*
X105765358Y-121934640D01*
X105773920Y-121940959D01*
X105803151Y-121989470D01*
X105789519Y-122044442D01*
X105741008Y-122073673D01*
X105729979Y-122074500D01*
X105606967Y-122074500D01*
X105516105Y-122088891D01*
X105516102Y-122088892D01*
X105406598Y-122144687D01*
X105319689Y-122231596D01*
X105263890Y-122341109D01*
X105252650Y-122412077D01*
X105223057Y-122460368D01*
X105179561Y-122474500D01*
X105094832Y-122474500D01*
X105042506Y-122452826D01*
X105020832Y-122400500D01*
X105022253Y-122386071D01*
X105025500Y-122369748D01*
X105025500Y-122230252D01*
X105013867Y-122171769D01*
X104993382Y-122141112D01*
X104982333Y-122085565D01*
X104993381Y-122058888D01*
X105013867Y-122028231D01*
X105025500Y-121969748D01*
X105025500Y-121830252D01*
X105013867Y-121771769D01*
X104993382Y-121741112D01*
X104982333Y-121685565D01*
X104993381Y-121658888D01*
X105013867Y-121628231D01*
X105025500Y-121569748D01*
X105025500Y-121430252D01*
X105013867Y-121371769D01*
X105013018Y-121370499D01*
X104996691Y-121346064D01*
X104969552Y-121305448D01*
X104947343Y-121290608D01*
X104903232Y-121261133D01*
X104903233Y-121261133D01*
X104873989Y-121255316D01*
X104844748Y-121249500D01*
X104030252Y-121249500D01*
X104001010Y-121255316D01*
X103971767Y-121261133D01*
X103905449Y-121305447D01*
X103905447Y-121305449D01*
X103861133Y-121371767D01*
X103861133Y-121371769D01*
X103849500Y-121430252D01*
X103849500Y-121569748D01*
X103855518Y-121600000D01*
X103861133Y-121628232D01*
X103881617Y-121658888D01*
X103892666Y-121714436D01*
X103881617Y-121741112D01*
X103861133Y-121771767D01*
X103849500Y-121830253D01*
X103849500Y-121969746D01*
X103861133Y-122028232D01*
X103881617Y-122058888D01*
X103892666Y-122114436D01*
X103881617Y-122141112D01*
X103861133Y-122171767D01*
X103856300Y-122196064D01*
X103849500Y-122230252D01*
X103849500Y-122369748D01*
X103854318Y-122393968D01*
X103861133Y-122428232D01*
X103881617Y-122458888D01*
X103892666Y-122514436D01*
X103881617Y-122541112D01*
X103861133Y-122571767D01*
X103849500Y-122630253D01*
X103849500Y-122675500D01*
X103827826Y-122727826D01*
X103775500Y-122749500D01*
X103730252Y-122749500D01*
X103701010Y-122755316D01*
X103671767Y-122761133D01*
X103641112Y-122781617D01*
X103585564Y-122792666D01*
X103558888Y-122781617D01*
X103528231Y-122761133D01*
X103528233Y-122761133D01*
X103498989Y-122755316D01*
X103469748Y-122749500D01*
X103330252Y-122749500D01*
X103301010Y-122755316D01*
X103271767Y-122761133D01*
X103241112Y-122781617D01*
X103185564Y-122792666D01*
X103158888Y-122781617D01*
X103128231Y-122761133D01*
X103128233Y-122761133D01*
X103098989Y-122755316D01*
X103069748Y-122749500D01*
X102930252Y-122749500D01*
X102901010Y-122755316D01*
X102871767Y-122761133D01*
X102841112Y-122781617D01*
X102785564Y-122792666D01*
X102758888Y-122781617D01*
X102728231Y-122761133D01*
X102728233Y-122761133D01*
X102698989Y-122755316D01*
X102669748Y-122749500D01*
X102530252Y-122749500D01*
X102501010Y-122755316D01*
X102471767Y-122761133D01*
X102405449Y-122805447D01*
X102405447Y-122805449D01*
X102361133Y-122871767D01*
X102355564Y-122899764D01*
X102349500Y-122930252D01*
X102349500Y-123744748D01*
X102361133Y-123803230D01*
X102361303Y-123803641D01*
X102361302Y-123804084D01*
X102362555Y-123810379D01*
X102361302Y-123810628D01*
X102361299Y-123860279D01*
X102321249Y-123900325D01*
X102268494Y-123901803D01*
X102242734Y-123892789D01*
X102242726Y-123892787D01*
X102212997Y-123890000D01*
X102111777Y-123890000D01*
X102059451Y-123868326D01*
X102037777Y-123816000D01*
X102039199Y-123801564D01*
X102049555Y-123749500D01*
X102050500Y-123744748D01*
X102050500Y-122930252D01*
X102038867Y-122871769D01*
X101994552Y-122805448D01*
X101958887Y-122781617D01*
X101928232Y-122761133D01*
X101928233Y-122761133D01*
X101898989Y-122755316D01*
X101869748Y-122749500D01*
X101730252Y-122749500D01*
X101701010Y-122755316D01*
X101671767Y-122761133D01*
X101641112Y-122781617D01*
X101585564Y-122792666D01*
X101558888Y-122781617D01*
X101528231Y-122761133D01*
X101528233Y-122761133D01*
X101498989Y-122755316D01*
X101469748Y-122749500D01*
X101330252Y-122749500D01*
X101301010Y-122755316D01*
X101271767Y-122761133D01*
X101241112Y-122781617D01*
X101185564Y-122792666D01*
X101158888Y-122781617D01*
X101128231Y-122761133D01*
X101128233Y-122761133D01*
X101098989Y-122755316D01*
X101069748Y-122749500D01*
X100930252Y-122749500D01*
X100901010Y-122755316D01*
X100871767Y-122761133D01*
X100841112Y-122781617D01*
X100785564Y-122792666D01*
X100758888Y-122781617D01*
X100728231Y-122761133D01*
X100728233Y-122761133D01*
X100698989Y-122755316D01*
X100669748Y-122749500D01*
X100530252Y-122749500D01*
X100501010Y-122755316D01*
X100471767Y-122761133D01*
X100441112Y-122781617D01*
X100385564Y-122792666D01*
X100358888Y-122781617D01*
X100328231Y-122761133D01*
X100328233Y-122761133D01*
X100298989Y-122755316D01*
X100269748Y-122749500D01*
X100130252Y-122749500D01*
X100101010Y-122755316D01*
X100071767Y-122761133D01*
X100041112Y-122781617D01*
X99985564Y-122792666D01*
X99958888Y-122781617D01*
X99928231Y-122761133D01*
X99928233Y-122761133D01*
X99898989Y-122755316D01*
X99869748Y-122749500D01*
X99730252Y-122749500D01*
X99701010Y-122755316D01*
X99671767Y-122761133D01*
X99641112Y-122781617D01*
X99585564Y-122792666D01*
X99558888Y-122781617D01*
X99528231Y-122761133D01*
X99528233Y-122761133D01*
X99498989Y-122755316D01*
X99469748Y-122749500D01*
X99330252Y-122749500D01*
X99301010Y-122755316D01*
X99271767Y-122761133D01*
X99241112Y-122781617D01*
X99185564Y-122792666D01*
X99158888Y-122781617D01*
X99128231Y-122761133D01*
X99128233Y-122761133D01*
X99098989Y-122755316D01*
X99069748Y-122749500D01*
X98930252Y-122749500D01*
X98901010Y-122755316D01*
X98871767Y-122761133D01*
X98841112Y-122781617D01*
X98785564Y-122792666D01*
X98758888Y-122781617D01*
X98728231Y-122761133D01*
X98728233Y-122761133D01*
X98698989Y-122755316D01*
X98669748Y-122749500D01*
X98530252Y-122749500D01*
X98501010Y-122755316D01*
X98471767Y-122761133D01*
X98405449Y-122805447D01*
X98405447Y-122805449D01*
X98361133Y-122871767D01*
X98355564Y-122899764D01*
X98352156Y-122916902D01*
X98349500Y-122930253D01*
X98349500Y-123675942D01*
X98327826Y-123728268D01*
X98327825Y-123728268D01*
X98271001Y-123785091D01*
X98218675Y-123806765D01*
X98178671Y-123795019D01*
X98149068Y-123775995D01*
X98024772Y-123739500D01*
X97895228Y-123739500D01*
X97770931Y-123775995D01*
X97661954Y-123846031D01*
X97661950Y-123846034D01*
X97577119Y-123943935D01*
X97523302Y-124061776D01*
X97504867Y-124190000D01*
X97523302Y-124318223D01*
X97523302Y-124318224D01*
X97523303Y-124318226D01*
X97541480Y-124358028D01*
X97577119Y-124436065D01*
X97577120Y-124436067D01*
X97662046Y-124534077D01*
X97679931Y-124587815D01*
X97654579Y-124638462D01*
X97646128Y-124644788D01*
X97581956Y-124686029D01*
X97581950Y-124686034D01*
X97497119Y-124783935D01*
X97497118Y-124783936D01*
X97497118Y-124783937D01*
X97477167Y-124827623D01*
X97443302Y-124901776D01*
X97424867Y-125030000D01*
X97443302Y-125158223D01*
X97443302Y-125158224D01*
X97443303Y-125158226D01*
X97497118Y-125276063D01*
X97581951Y-125373967D01*
X97690931Y-125444004D01*
X97815228Y-125480500D01*
X97944772Y-125480500D01*
X98069069Y-125444004D01*
X98178049Y-125373967D01*
X98194741Y-125354702D01*
X98245386Y-125329350D01*
X98299125Y-125347234D01*
X98306593Y-125354702D01*
X98331947Y-125383963D01*
X98331948Y-125383964D01*
X98331951Y-125383967D01*
X98425223Y-125443909D01*
X98427630Y-125445456D01*
X98459932Y-125491979D01*
X98455318Y-125537599D01*
X98422318Y-125612337D01*
X98419500Y-125636630D01*
X98419500Y-126063372D01*
X98422317Y-126087659D01*
X98422317Y-126087661D01*
X98422318Y-126087662D01*
X98466187Y-126187016D01*
X98542984Y-126263813D01*
X98642338Y-126307682D01*
X98666627Y-126310500D01*
X98854876Y-126310499D01*
X98907202Y-126332173D01*
X99282049Y-126707020D01*
X99337998Y-126762969D01*
X99406520Y-126802530D01*
X99406521Y-126802530D01*
X99406523Y-126802531D01*
X99444733Y-126812769D01*
X99482944Y-126823008D01*
X99482945Y-126823009D01*
X99482947Y-126823009D01*
X99890408Y-126823009D01*
X99942734Y-126844683D01*
X99946333Y-126848549D01*
X99961862Y-126866471D01*
X99961863Y-126866472D01*
X99961867Y-126866476D01*
X100070847Y-126936513D01*
X100195144Y-126973009D01*
X100324688Y-126973009D01*
X100448985Y-126936513D01*
X100557965Y-126866476D01*
X100642798Y-126768572D01*
X100696613Y-126650735D01*
X100715049Y-126522509D01*
X100696613Y-126394283D01*
X100655701Y-126304701D01*
X100653681Y-126248102D01*
X100683005Y-126211711D01*
X100685299Y-126210236D01*
X100685301Y-126210236D01*
X100694379Y-126204401D01*
X100750114Y-126194343D01*
X100796638Y-126226643D01*
X100803228Y-126239506D01*
X100816077Y-126272092D01*
X100907435Y-126392564D01*
X101027907Y-126483922D01*
X101168556Y-126539385D01*
X101256939Y-126550000D01*
X101625000Y-126550000D01*
X101625000Y-125674000D01*
X101646674Y-125621674D01*
X101699000Y-125600000D01*
X101851000Y-125600000D01*
X101903326Y-125621674D01*
X101925000Y-125674000D01*
X101925000Y-126550000D01*
X102293061Y-126550000D01*
X102381443Y-126539385D01*
X102522092Y-126483922D01*
X102642564Y-126392564D01*
X102733922Y-126272092D01*
X102789385Y-126131443D01*
X102793950Y-126093433D01*
X102821707Y-126044064D01*
X102876244Y-126028783D01*
X102925613Y-126056540D01*
X102935115Y-126072360D01*
X102935293Y-126072764D01*
X102935294Y-126072765D01*
X103014735Y-126152206D01*
X103117509Y-126197585D01*
X103142635Y-126200500D01*
X104257364Y-126200499D01*
X104282491Y-126197585D01*
X104385265Y-126152206D01*
X104464706Y-126072765D01*
X104510085Y-125969991D01*
X104513000Y-125944865D01*
X104512999Y-125563462D01*
X104534673Y-125511137D01*
X104586999Y-125489463D01*
X104607848Y-125492461D01*
X104635226Y-125500500D01*
X104635228Y-125500500D01*
X104764772Y-125500500D01*
X104889069Y-125464004D01*
X104998049Y-125393967D01*
X105013583Y-125376040D01*
X105064229Y-125350689D01*
X105069508Y-125350500D01*
X105130609Y-125350500D01*
X105182935Y-125372174D01*
X105204609Y-125424500D01*
X105198304Y-125454389D01*
X105190614Y-125471806D01*
X105164914Y-125530011D01*
X105161754Y-125557256D01*
X105161070Y-125557176D01*
X105140453Y-125603141D01*
X105121332Y-125622263D01*
X105121331Y-125622264D01*
X104658831Y-126084763D01*
X104648997Y-126108505D01*
X104624499Y-126167645D01*
X104624499Y-126265967D01*
X104624500Y-126265976D01*
X104624500Y-126520500D01*
X104602826Y-126572826D01*
X104550500Y-126594500D01*
X104511496Y-126594500D01*
X104452003Y-126606333D01*
X104452000Y-126606333D01*
X104451999Y-126606334D01*
X104451997Y-126606334D01*
X104451996Y-126606335D01*
X104443867Y-126609701D01*
X104443860Y-126609705D01*
X104408702Y-126630004D01*
X104408698Y-126630007D01*
X104359701Y-126693867D01*
X104356335Y-126701995D01*
X104356333Y-126702003D01*
X104344500Y-126761496D01*
X104344500Y-126976096D01*
X104322826Y-127028422D01*
X104270500Y-127050096D01*
X104267067Y-127050016D01*
X104266723Y-127050000D01*
X103850000Y-127050000D01*
X103850000Y-127726000D01*
X103828326Y-127778326D01*
X103776000Y-127800000D01*
X103624000Y-127800000D01*
X103571674Y-127778326D01*
X103550000Y-127726000D01*
X103550000Y-127050000D01*
X103133306Y-127050000D01*
X103133293Y-127050001D01*
X103102897Y-127052850D01*
X103102888Y-127052852D01*
X102974856Y-127097652D01*
X102865708Y-127178207D01*
X102865707Y-127178208D01*
X102785152Y-127287356D01*
X102780605Y-127300350D01*
X102742863Y-127342579D01*
X102686315Y-127345752D01*
X102644086Y-127308010D01*
X102637671Y-127287486D01*
X102635646Y-127274696D01*
X102578050Y-127161658D01*
X102488342Y-127071950D01*
X102375304Y-127014354D01*
X102375302Y-127014353D01*
X102375301Y-127014353D01*
X102281519Y-126999500D01*
X101268480Y-126999500D01*
X101174695Y-127014353D01*
X101174693Y-127014354D01*
X101061657Y-127071950D01*
X100971951Y-127161656D01*
X100914353Y-127274698D01*
X100914353Y-127274699D01*
X100911888Y-127290264D01*
X100882294Y-127338555D01*
X100857953Y-127350165D01*
X100784013Y-127369978D01*
X100784009Y-127369979D01*
X100715488Y-127409540D01*
X100647203Y-127477826D01*
X100594877Y-127499500D01*
X100535228Y-127499500D01*
X100410931Y-127535995D01*
X100301954Y-127606031D01*
X100301950Y-127606034D01*
X100217119Y-127703935D01*
X100168195Y-127811063D01*
X100163303Y-127821774D01*
X100161971Y-127831031D01*
X100133073Y-127879739D01*
X100088726Y-127894500D01*
X97600000Y-127894500D01*
X96450000Y-127894500D01*
X96441421Y-127894776D01*
X96439990Y-127894822D01*
X96363744Y-127920615D01*
X96363742Y-127920616D01*
X96355302Y-127930221D01*
X96304479Y-127955217D01*
X96250867Y-127936954D01*
X96249104Y-127935354D01*
X96227750Y-127915333D01*
X96207690Y-127909958D01*
X96150000Y-127894500D01*
X96149999Y-127894500D01*
X96003012Y-127894500D01*
X95950686Y-127872826D01*
X95931534Y-127839655D01*
X95930022Y-127834013D01*
X95930019Y-127834007D01*
X95890462Y-127765492D01*
X95890461Y-127765491D01*
X95890460Y-127765489D01*
X95484511Y-127359540D01*
X95467121Y-127349500D01*
X95460629Y-127345752D01*
X95415990Y-127319979D01*
X95415985Y-127319977D01*
X95339564Y-127299500D01*
X95339562Y-127299500D01*
X92789556Y-127299500D01*
X92710432Y-127299500D01*
X92634006Y-127319978D01*
X92634005Y-127319978D01*
X92634003Y-127319979D01*
X92634001Y-127319980D01*
X92565486Y-127359537D01*
X92072200Y-127852823D01*
X92019874Y-127874497D01*
X91960225Y-127874497D01*
X91835928Y-127910992D01*
X91726951Y-127981028D01*
X91726947Y-127981031D01*
X91642116Y-128078932D01*
X91588299Y-128196773D01*
X91569864Y-128324997D01*
X91588299Y-128453220D01*
X91588299Y-128453221D01*
X91588300Y-128453223D01*
X91609891Y-128500500D01*
X91642115Y-128571060D01*
X91642116Y-128571061D01*
X91670195Y-128603467D01*
X91688080Y-128657206D01*
X91670198Y-128700382D01*
X91667119Y-128703935D01*
X91667118Y-128703936D01*
X91613302Y-128821776D01*
X91594980Y-128949213D01*
X91566080Y-128997922D01*
X91511202Y-129011929D01*
X91469407Y-128991008D01*
X91149492Y-128671093D01*
X91130099Y-128624276D01*
X91128571Y-128624496D01*
X91127818Y-128619257D01*
X91109382Y-128491031D01*
X91055567Y-128373194D01*
X90970734Y-128275290D01*
X90871828Y-128211727D01*
X90861753Y-128205252D01*
X90737457Y-128168757D01*
X90607913Y-128168757D01*
X90483616Y-128205252D01*
X90374635Y-128275290D01*
X90370047Y-128280585D01*
X90319398Y-128305933D01*
X90265661Y-128288043D01*
X90252598Y-128273236D01*
X90196789Y-128189711D01*
X90085289Y-128078211D01*
X89954179Y-127990606D01*
X89954175Y-127990604D01*
X89954173Y-127990603D01*
X89954174Y-127990603D01*
X89808501Y-127930264D01*
X89808491Y-127930261D01*
X89703839Y-127909445D01*
X89653842Y-127899500D01*
X89653840Y-127899500D01*
X85374500Y-127899500D01*
X85322174Y-127877826D01*
X85300500Y-127825500D01*
X85300500Y-126460180D01*
X86124500Y-126460180D01*
X86124500Y-127139820D01*
X86133233Y-127183722D01*
X86166496Y-127233504D01*
X86216278Y-127266767D01*
X86260180Y-127275500D01*
X86260181Y-127275500D01*
X87339819Y-127275500D01*
X87339820Y-127275500D01*
X87383722Y-127266767D01*
X87433504Y-127233504D01*
X87466767Y-127183722D01*
X87475500Y-127139820D01*
X87475500Y-126460180D01*
X87466767Y-126416278D01*
X87433504Y-126366496D01*
X87393930Y-126340054D01*
X87383722Y-126333233D01*
X87378393Y-126332173D01*
X87339820Y-126324500D01*
X86260180Y-126324500D01*
X86238229Y-126328866D01*
X86216277Y-126333233D01*
X86166496Y-126366495D01*
X86166495Y-126366496D01*
X86133233Y-126416277D01*
X86133233Y-126416278D01*
X86124500Y-126460180D01*
X85300500Y-126460180D01*
X85300500Y-121715135D01*
X85734500Y-121715135D01*
X85734500Y-123104863D01*
X85737414Y-123129986D01*
X85737415Y-123129992D01*
X85769575Y-123202826D01*
X85782794Y-123232765D01*
X85862235Y-123312206D01*
X85965009Y-123357585D01*
X85990135Y-123360500D01*
X85990136Y-123360499D01*
X85992257Y-123360746D01*
X85992176Y-123361440D01*
X86038142Y-123382047D01*
X86067671Y-123411576D01*
X86067673Y-123411577D01*
X86666269Y-124010173D01*
X86687943Y-124062499D01*
X86666269Y-124114825D01*
X86628268Y-124152826D01*
X86575942Y-124174500D01*
X86285180Y-124174500D01*
X86268922Y-124177734D01*
X86241277Y-124183233D01*
X86191496Y-124216495D01*
X86191495Y-124216496D01*
X86158233Y-124266277D01*
X86149500Y-124310180D01*
X86149500Y-124989820D01*
X86154273Y-125013813D01*
X86158233Y-125033722D01*
X86185451Y-125074458D01*
X86191496Y-125083504D01*
X86241278Y-125116767D01*
X86285180Y-125125500D01*
X86285181Y-125125500D01*
X87364819Y-125125500D01*
X87364820Y-125125500D01*
X87408722Y-125116767D01*
X87458504Y-125083504D01*
X87491767Y-125033722D01*
X87500500Y-124989820D01*
X87500500Y-124349500D01*
X87522174Y-124297174D01*
X87574500Y-124275500D01*
X90200500Y-124275500D01*
X90252826Y-124297174D01*
X90274500Y-124349500D01*
X90274500Y-124989820D01*
X90279273Y-125013813D01*
X90283233Y-125033722D01*
X90310451Y-125074458D01*
X90316496Y-125083504D01*
X90366278Y-125116767D01*
X90410180Y-125125500D01*
X90410181Y-125125500D01*
X91489819Y-125125500D01*
X91489820Y-125125500D01*
X91533722Y-125116767D01*
X91583504Y-125083504D01*
X91616767Y-125033722D01*
X91625500Y-124989820D01*
X91625500Y-124349500D01*
X91647174Y-124297174D01*
X91699500Y-124275500D01*
X91855145Y-124275500D01*
X92197658Y-124275500D01*
X92249984Y-124297174D01*
X92271658Y-124349500D01*
X92271165Y-124358028D01*
X92269500Y-124372379D01*
X92269500Y-124827622D01*
X92272269Y-124851495D01*
X92272269Y-124851497D01*
X92272270Y-124851498D01*
X92293907Y-124900500D01*
X92315384Y-124949141D01*
X92346342Y-124980099D01*
X92368016Y-125032425D01*
X92346342Y-125084751D01*
X91128269Y-126302826D01*
X91075943Y-126324500D01*
X90410180Y-126324500D01*
X90388229Y-126328866D01*
X90366277Y-126333233D01*
X90316496Y-126366495D01*
X90316495Y-126366496D01*
X90283233Y-126416277D01*
X90283233Y-126416278D01*
X90274500Y-126460180D01*
X90274500Y-127139820D01*
X90283233Y-127183722D01*
X90316496Y-127233504D01*
X90366278Y-127266767D01*
X90410180Y-127275500D01*
X90410181Y-127275500D01*
X91489819Y-127275500D01*
X91489820Y-127275500D01*
X91533722Y-127266767D01*
X91583504Y-127233504D01*
X91616767Y-127183722D01*
X91625500Y-127139820D01*
X91625500Y-126474056D01*
X91647174Y-126421730D01*
X92213376Y-125855528D01*
X92807327Y-125261577D01*
X92807330Y-125261575D01*
X92817735Y-125251170D01*
X92817736Y-125251170D01*
X92881170Y-125187736D01*
X92905025Y-125130145D01*
X92915501Y-125104854D01*
X92915501Y-125104849D01*
X92916923Y-125097705D01*
X92918534Y-125098025D01*
X92937175Y-125053023D01*
X92959611Y-125037654D01*
X92989141Y-125024616D01*
X93064616Y-124949141D01*
X93107730Y-124851498D01*
X93110500Y-124827623D01*
X93110499Y-124372378D01*
X93108834Y-124358021D01*
X93124338Y-124303548D01*
X93173820Y-124275992D01*
X93182342Y-124275500D01*
X93217658Y-124275500D01*
X93269984Y-124297174D01*
X93291658Y-124349500D01*
X93291165Y-124358028D01*
X93289500Y-124372379D01*
X93289500Y-124827622D01*
X93292269Y-124851495D01*
X93292269Y-124851497D01*
X93292270Y-124851498D01*
X93335384Y-124949141D01*
X93410859Y-125024616D01*
X93508502Y-125067730D01*
X93532377Y-125070500D01*
X93887622Y-125070499D01*
X93911498Y-125067730D01*
X94009141Y-125024616D01*
X94071943Y-124961813D01*
X94124267Y-124940140D01*
X94164274Y-124951886D01*
X94260931Y-125014004D01*
X94385228Y-125050500D01*
X94514772Y-125050500D01*
X94639069Y-125014004D01*
X94725333Y-124958565D01*
X94781067Y-124948510D01*
X94817664Y-124968493D01*
X94862984Y-125013813D01*
X94962338Y-125057682D01*
X94986627Y-125060500D01*
X95353372Y-125060499D01*
X95377662Y-125057682D01*
X95477016Y-125013813D01*
X95500254Y-124990574D01*
X95552579Y-124968900D01*
X95604905Y-124990573D01*
X95612120Y-124998957D01*
X95675358Y-125084640D01*
X95675359Y-125084641D01*
X95782080Y-125163405D01*
X95907268Y-125207211D01*
X95907273Y-125207212D01*
X95937002Y-125209999D01*
X96280000Y-125209999D01*
X96322993Y-125209999D01*
X96323007Y-125209998D01*
X96352721Y-125207213D01*
X96352728Y-125207212D01*
X96477919Y-125163405D01*
X96584640Y-125084641D01*
X96584641Y-125084640D01*
X96663405Y-124977919D01*
X96707211Y-124852731D01*
X96707212Y-124852726D01*
X96709999Y-124822997D01*
X96710000Y-124822996D01*
X96710000Y-124750000D01*
X96280000Y-124750000D01*
X96280000Y-125209999D01*
X95937002Y-125209999D01*
X95979999Y-125209998D01*
X95980000Y-125209998D01*
X95980000Y-124524000D01*
X96001674Y-124471674D01*
X96054000Y-124450000D01*
X96709999Y-124450000D01*
X96709999Y-124377007D01*
X96709998Y-124376992D01*
X96707213Y-124347278D01*
X96707212Y-124347271D01*
X96663405Y-124222080D01*
X96584641Y-124115359D01*
X96584640Y-124115358D01*
X96477919Y-124036594D01*
X96370096Y-123998865D01*
X96327865Y-123961125D01*
X96324690Y-123904577D01*
X96342208Y-123876696D01*
X97246732Y-122972174D01*
X97299058Y-122950500D01*
X97964825Y-122950500D01*
X97964826Y-122950500D01*
X98008723Y-122941768D01*
X98045938Y-122916902D01*
X98116900Y-122845939D01*
X98141768Y-122808721D01*
X98150500Y-122764821D01*
X98150500Y-122630252D01*
X98138867Y-122571769D01*
X98118382Y-122541112D01*
X98107333Y-122485565D01*
X98118381Y-122458888D01*
X98138867Y-122428231D01*
X98150500Y-122369748D01*
X98150500Y-122230252D01*
X98138867Y-122171769D01*
X98118382Y-122141112D01*
X98107333Y-122085565D01*
X98118381Y-122058888D01*
X98138867Y-122028231D01*
X98150500Y-121969748D01*
X98150500Y-121830252D01*
X98138867Y-121771769D01*
X98118382Y-121741112D01*
X98107333Y-121685565D01*
X98118381Y-121658888D01*
X98138867Y-121628231D01*
X98150500Y-121569748D01*
X98150500Y-121430252D01*
X98138867Y-121371769D01*
X98118382Y-121341112D01*
X98107333Y-121285565D01*
X98118381Y-121258888D01*
X98138867Y-121228231D01*
X98150500Y-121169748D01*
X98150500Y-121030252D01*
X98138867Y-120971769D01*
X98118382Y-120941112D01*
X98107333Y-120885565D01*
X98118381Y-120858888D01*
X98138867Y-120828231D01*
X98150500Y-120769748D01*
X98150500Y-120630252D01*
X98138867Y-120571769D01*
X98124894Y-120550858D01*
X98104764Y-120520731D01*
X98094552Y-120505448D01*
X98049559Y-120475384D01*
X98028232Y-120461133D01*
X98028233Y-120461133D01*
X97998989Y-120455316D01*
X97969748Y-120449500D01*
X97155252Y-120449500D01*
X97116263Y-120457255D01*
X97096768Y-120461133D01*
X97095431Y-120462027D01*
X97092363Y-120462957D01*
X97090035Y-120463922D01*
X97089940Y-120463692D01*
X97054318Y-120474499D01*
X96974766Y-120474499D01*
X96926355Y-120494552D01*
X96926354Y-120494552D01*
X96891886Y-120508828D01*
X96891884Y-120508830D01*
X96828450Y-120572264D01*
X96828449Y-120572265D01*
X95965348Y-121435367D01*
X95117889Y-122282826D01*
X95065563Y-122304500D01*
X94491400Y-122304500D01*
X94439074Y-122282826D01*
X94417400Y-122230500D01*
X94421553Y-122206059D01*
X94447211Y-122132732D01*
X94447212Y-122132726D01*
X94449999Y-122102997D01*
X94450000Y-122102996D01*
X94450000Y-122030000D01*
X93794000Y-122030000D01*
X93741674Y-122008326D01*
X93720000Y-121956000D01*
X93720000Y-121804000D01*
X93741674Y-121751674D01*
X93794000Y-121730000D01*
X94449999Y-121730000D01*
X94449999Y-121657007D01*
X94449998Y-121656992D01*
X94447213Y-121627278D01*
X94447212Y-121627271D01*
X94403405Y-121502080D01*
X94324642Y-121395360D01*
X94280916Y-121363088D01*
X94251686Y-121314576D01*
X94265320Y-121259604D01*
X94272531Y-121251225D01*
X94274616Y-121249141D01*
X94309733Y-121169608D01*
X94350697Y-121130497D01*
X94377428Y-121125500D01*
X95670789Y-121125500D01*
X95670797Y-121125501D01*
X95679409Y-121125501D01*
X95769118Y-121125501D01*
X95769119Y-121125501D01*
X95830682Y-121100000D01*
X95852000Y-121091170D01*
X95915434Y-121027736D01*
X95915434Y-121027735D01*
X95925839Y-121017330D01*
X95925840Y-121017327D01*
X97170995Y-119772174D01*
X97223321Y-119750500D01*
X97969746Y-119750500D01*
X97969748Y-119750500D01*
X98028231Y-119738867D01*
X98094552Y-119694552D01*
X98138867Y-119628231D01*
X98150500Y-119569748D01*
X98150500Y-119430252D01*
X98138867Y-119371769D01*
X98118382Y-119341112D01*
X98107333Y-119285565D01*
X98118381Y-119258888D01*
X98138867Y-119228231D01*
X98150500Y-119169748D01*
X98150500Y-119050000D01*
X98394867Y-119050000D01*
X98413302Y-119178223D01*
X98413302Y-119178224D01*
X98413303Y-119178226D01*
X98467118Y-119296063D01*
X98551951Y-119393967D01*
X98616919Y-119435719D01*
X98625507Y-119441238D01*
X98657809Y-119487761D01*
X98659500Y-119503491D01*
X98659500Y-122001000D01*
X98661413Y-122025314D01*
X98661414Y-122025324D01*
X98666258Y-122055914D01*
X98666260Y-122055919D01*
X98694042Y-122122993D01*
X98694043Y-122122995D01*
X98729993Y-122172476D01*
X98730007Y-122172494D01*
X98740251Y-122185144D01*
X98807758Y-122228983D01*
X98807760Y-122228983D01*
X98807761Y-122228984D01*
X98807763Y-122228985D01*
X98828674Y-122235779D01*
X98865949Y-122247890D01*
X98907699Y-122254502D01*
X98913999Y-122255500D01*
X98914000Y-122255500D01*
X101501037Y-122255500D01*
X101553363Y-122277174D01*
X101563653Y-122291997D01*
X101564256Y-122291610D01*
X101567117Y-122296061D01*
X101567118Y-122296063D01*
X101574429Y-122304500D01*
X101651947Y-122393963D01*
X101651948Y-122393964D01*
X101651951Y-122393967D01*
X101760931Y-122464004D01*
X101885228Y-122500500D01*
X102014772Y-122500500D01*
X102139069Y-122464004D01*
X102248049Y-122393967D01*
X102332882Y-122296063D01*
X102332885Y-122296056D01*
X102335744Y-122291610D01*
X102337866Y-122292974D01*
X102373096Y-122260168D01*
X102398963Y-122255500D01*
X103116001Y-122255500D01*
X103118432Y-122255308D01*
X103140323Y-122253586D01*
X103170916Y-122248741D01*
X103237994Y-122220957D01*
X103287494Y-122184993D01*
X103300144Y-122174749D01*
X103343983Y-122107242D01*
X103362890Y-122049051D01*
X103370500Y-122001000D01*
X103370500Y-120034211D01*
X103392174Y-119981885D01*
X103404489Y-119971960D01*
X103448049Y-119943967D01*
X103532882Y-119846063D01*
X103586697Y-119728226D01*
X103605133Y-119600000D01*
X103586697Y-119471774D01*
X103532882Y-119353937D01*
X103448049Y-119256033D01*
X103448046Y-119256031D01*
X103404491Y-119228039D01*
X103372191Y-119181515D01*
X103370500Y-119165787D01*
X103370500Y-117798999D01*
X103368865Y-117778223D01*
X103368586Y-117774677D01*
X103363741Y-117744084D01*
X103335957Y-117677006D01*
X103329999Y-117668805D01*
X103300006Y-117627523D01*
X103299986Y-117627497D01*
X103296203Y-117622826D01*
X103289749Y-117614856D01*
X103222242Y-117571017D01*
X103222240Y-117571016D01*
X103222238Y-117571015D01*
X103222236Y-117571014D01*
X103164056Y-117552111D01*
X103164052Y-117552110D01*
X103164051Y-117552110D01*
X103136766Y-117547788D01*
X103116001Y-117544500D01*
X103116000Y-117544500D01*
X101063735Y-117544500D01*
X101011409Y-117522826D01*
X101001426Y-117508448D01*
X101000742Y-117508888D01*
X100997883Y-117504440D01*
X100997882Y-117504437D01*
X100933602Y-117430253D01*
X100913052Y-117406536D01*
X100913050Y-117406535D01*
X100913049Y-117406533D01*
X100811252Y-117341112D01*
X100804068Y-117336495D01*
X100679772Y-117300000D01*
X100550228Y-117300000D01*
X100425931Y-117336495D01*
X100316954Y-117406531D01*
X100316947Y-117406536D01*
X100232119Y-117504435D01*
X100229258Y-117508888D01*
X100226954Y-117507407D01*
X100192122Y-117539835D01*
X100166265Y-117544500D01*
X98913999Y-117544500D01*
X98889685Y-117546413D01*
X98889675Y-117546414D01*
X98859085Y-117551258D01*
X98859080Y-117551260D01*
X98792006Y-117579042D01*
X98792004Y-117579043D01*
X98742523Y-117614993D01*
X98742497Y-117615013D01*
X98729857Y-117625250D01*
X98729856Y-117625251D01*
X98708012Y-117658888D01*
X98686015Y-117692761D01*
X98686014Y-117692763D01*
X98667111Y-117750943D01*
X98659500Y-117798999D01*
X98659500Y-118596507D01*
X98637826Y-118648833D01*
X98625508Y-118658759D01*
X98551956Y-118706029D01*
X98551950Y-118706034D01*
X98467119Y-118803935D01*
X98413302Y-118921776D01*
X98394867Y-119050000D01*
X98150500Y-119050000D01*
X98150500Y-119030252D01*
X98138867Y-118971769D01*
X98118382Y-118941112D01*
X98107333Y-118885565D01*
X98118381Y-118858888D01*
X98138867Y-118828231D01*
X98150500Y-118769748D01*
X98150500Y-118630252D01*
X98138867Y-118571769D01*
X98136566Y-118568326D01*
X98109726Y-118528157D01*
X98094552Y-118505448D01*
X98072343Y-118490608D01*
X98028232Y-118461133D01*
X98028233Y-118461133D01*
X97998989Y-118455316D01*
X97969748Y-118449500D01*
X97155252Y-118449500D01*
X97126010Y-118455316D01*
X97096767Y-118461133D01*
X97095430Y-118462027D01*
X97092364Y-118462956D01*
X97090032Y-118463923D01*
X97089936Y-118463693D01*
X97054317Y-118474499D01*
X97020882Y-118474499D01*
X96972471Y-118494552D01*
X96972470Y-118494552D01*
X96938002Y-118508828D01*
X96878504Y-118568326D01*
X96826178Y-118590000D01*
X96324000Y-118590000D01*
X96271674Y-118568326D01*
X96250000Y-118516000D01*
X96250000Y-118364000D01*
X96271674Y-118311674D01*
X96324000Y-118290000D01*
X96964999Y-118290000D01*
X96964999Y-118229500D01*
X96986673Y-118177174D01*
X97038999Y-118155500D01*
X97496000Y-118155500D01*
X97513988Y-118151922D01*
X97528424Y-118150500D01*
X97969746Y-118150500D01*
X97969748Y-118150500D01*
X98028231Y-118138867D01*
X98094552Y-118094552D01*
X98138867Y-118028231D01*
X98150500Y-117969748D01*
X98150500Y-117830252D01*
X98138867Y-117771769D01*
X98118382Y-117741112D01*
X98107333Y-117685565D01*
X98118381Y-117658888D01*
X98138867Y-117628231D01*
X98150500Y-117569748D01*
X98150500Y-117430252D01*
X98138867Y-117371769D01*
X98118382Y-117341112D01*
X98107333Y-117285565D01*
X98118381Y-117258888D01*
X98138867Y-117228231D01*
X98150500Y-117169748D01*
X98150500Y-117035174D01*
X98141768Y-116991277D01*
X98116902Y-116954062D01*
X98045939Y-116883100D01*
X98033817Y-116875000D01*
X98008720Y-116858231D01*
X97964821Y-116849500D01*
X97661558Y-116849500D01*
X97609232Y-116827826D01*
X97540238Y-116758832D01*
X97540236Y-116758830D01*
X97515960Y-116748774D01*
X97515958Y-116748773D01*
X97515958Y-116748772D01*
X97457355Y-116724499D01*
X97367645Y-116724499D01*
X97359033Y-116724499D01*
X97359025Y-116724500D01*
X96749057Y-116724500D01*
X96696731Y-116702826D01*
X96305730Y-116311825D01*
X96284056Y-116259499D01*
X96305730Y-116207173D01*
X96358056Y-116185499D01*
X96543372Y-116185499D01*
X96567662Y-116182682D01*
X96667016Y-116138813D01*
X96743813Y-116062016D01*
X96787682Y-115962662D01*
X96790500Y-115938373D01*
X96790499Y-115511628D01*
X96787682Y-115487338D01*
X96743813Y-115387984D01*
X96673836Y-115318007D01*
X97590001Y-115318007D01*
X97592786Y-115347721D01*
X97592787Y-115347728D01*
X97636594Y-115472919D01*
X97715358Y-115579640D01*
X97715359Y-115579641D01*
X97822080Y-115658405D01*
X97947268Y-115702211D01*
X97947273Y-115702212D01*
X97977002Y-115704999D01*
X98050000Y-115704999D01*
X98050000Y-115275000D01*
X97590001Y-115275000D01*
X97590001Y-115318007D01*
X96673836Y-115318007D01*
X96667016Y-115311187D01*
X96567662Y-115267318D01*
X96567663Y-115267318D01*
X96562804Y-115266754D01*
X96543373Y-115264500D01*
X96543369Y-115264500D01*
X96525347Y-115264500D01*
X96473021Y-115242826D01*
X96350227Y-115120032D01*
X96330834Y-115073215D01*
X96329306Y-115073435D01*
X96327537Y-115061128D01*
X96310117Y-114939970D01*
X96256302Y-114822133D01*
X96171469Y-114724229D01*
X96077751Y-114664000D01*
X96062488Y-114654191D01*
X95938192Y-114617696D01*
X95808648Y-114617696D01*
X95684351Y-114654191D01*
X95575374Y-114724227D01*
X95575370Y-114724230D01*
X95490539Y-114822131D01*
X95490538Y-114822132D01*
X95490538Y-114822133D01*
X95467724Y-114872088D01*
X95436722Y-114939972D01*
X95418287Y-115068196D01*
X95434357Y-115179969D01*
X95420350Y-115234847D01*
X95371641Y-115263747D01*
X95361111Y-115264500D01*
X95216627Y-115264500D01*
X95192340Y-115267317D01*
X95092983Y-115311187D01*
X95016186Y-115387984D01*
X95000772Y-115422893D01*
X94959809Y-115462005D01*
X94903187Y-115460696D01*
X94865383Y-115422892D01*
X94861596Y-115414315D01*
X94844616Y-115375859D01*
X94769141Y-115300384D01*
X94671498Y-115257270D01*
X94647623Y-115254500D01*
X94647619Y-115254500D01*
X94292377Y-115254500D01*
X94268504Y-115257269D01*
X94170858Y-115300384D01*
X94099427Y-115371815D01*
X94047101Y-115393489D01*
X93994775Y-115371815D01*
X93977253Y-115343928D01*
X93973934Y-115334442D01*
X93896065Y-115228935D01*
X93896064Y-115228934D01*
X93790556Y-115151064D01*
X93693871Y-115117233D01*
X93651640Y-115079493D01*
X93648465Y-115022945D01*
X93665984Y-114995062D01*
X93938873Y-114722174D01*
X93991199Y-114700500D01*
X94064772Y-114700500D01*
X94189069Y-114664004D01*
X94298049Y-114593967D01*
X94382882Y-114496063D01*
X94436697Y-114378226D01*
X94455133Y-114250000D01*
X94436697Y-114121774D01*
X94382882Y-114003937D01*
X94298049Y-113906033D01*
X94210860Y-113850000D01*
X94189068Y-113835995D01*
X94064772Y-113799500D01*
X93935228Y-113799500D01*
X93929936Y-113799500D01*
X93929936Y-113797572D01*
X93881795Y-113785278D01*
X93852901Y-113736566D01*
X93852901Y-113715517D01*
X93855133Y-113700000D01*
X93836697Y-113571774D01*
X93782882Y-113453937D01*
X93698049Y-113356033D01*
X93631032Y-113312964D01*
X93589068Y-113285995D01*
X93464772Y-113249500D01*
X93335228Y-113249500D01*
X93210931Y-113285995D01*
X93101954Y-113356031D01*
X93101950Y-113356034D01*
X93017119Y-113453935D01*
X92963302Y-113571776D01*
X92944114Y-113705238D01*
X92942585Y-113705018D01*
X92923193Y-113751835D01*
X91715489Y-114959540D01*
X91659540Y-115015488D01*
X91619979Y-115084009D01*
X91618124Y-115088490D01*
X91615511Y-115087407D01*
X91586493Y-115125218D01*
X91530340Y-115132604D01*
X91485410Y-115098121D01*
X91475500Y-115061128D01*
X91475500Y-114759725D01*
X91475501Y-114759716D01*
X91475501Y-114661395D01*
X91447571Y-114593967D01*
X91447571Y-114593966D01*
X91441172Y-114578518D01*
X91441170Y-114578515D01*
X91441170Y-114578514D01*
X91377736Y-114515080D01*
X91377735Y-114515079D01*
X91373521Y-114510865D01*
X91373514Y-114510859D01*
X90630328Y-113767673D01*
X90630328Y-113767672D01*
X90556487Y-113693831D01*
X90556483Y-113693828D01*
X90524753Y-113680686D01*
X90473605Y-113659499D01*
X90383895Y-113659499D01*
X90375283Y-113659499D01*
X90375275Y-113659500D01*
X88033476Y-113659500D01*
X88033468Y-113659499D01*
X88024856Y-113659499D01*
X87935147Y-113659499D01*
X87886595Y-113679608D01*
X87886596Y-113679609D01*
X87852268Y-113693828D01*
X87852266Y-113693829D01*
X87327264Y-114218831D01*
X87308140Y-114237954D01*
X87262177Y-114258573D01*
X87262257Y-114259255D01*
X87235013Y-114262414D01*
X87235007Y-114262415D01*
X87132234Y-114307794D01*
X87052794Y-114387234D01*
X87007414Y-114490011D01*
X87004500Y-114515135D01*
X87004500Y-115904863D01*
X87007414Y-115929986D01*
X87007415Y-115929992D01*
X87036589Y-115996064D01*
X87052794Y-116032765D01*
X87132235Y-116112206D01*
X87235009Y-116157585D01*
X87260135Y-116160500D01*
X87649864Y-116160499D01*
X87674991Y-116157585D01*
X87777765Y-116112206D01*
X87857206Y-116032765D01*
X87902585Y-115929991D01*
X87905500Y-115904865D01*
X87905499Y-114515136D01*
X87902585Y-114490009D01*
X87859137Y-114391610D01*
X87857830Y-114334991D01*
X87874504Y-114309400D01*
X88051732Y-114132174D01*
X88104058Y-114110500D01*
X88526943Y-114110500D01*
X88579269Y-114132174D01*
X88600943Y-114184500D01*
X88579269Y-114236826D01*
X88579246Y-114236849D01*
X88578118Y-114237976D01*
X88532178Y-114258573D01*
X88532257Y-114259255D01*
X88505013Y-114262414D01*
X88505007Y-114262415D01*
X88402234Y-114307794D01*
X88322794Y-114387234D01*
X88277414Y-114490011D01*
X88274500Y-114515135D01*
X88274500Y-115904863D01*
X88277414Y-115929986D01*
X88277415Y-115929992D01*
X88306589Y-115996064D01*
X88322794Y-116032765D01*
X88402235Y-116112206D01*
X88505009Y-116157585D01*
X88530135Y-116160500D01*
X88919864Y-116160499D01*
X88944991Y-116157585D01*
X89047765Y-116112206D01*
X89127206Y-116032765D01*
X89172585Y-115929991D01*
X89175500Y-115904865D01*
X89175499Y-114515136D01*
X89175493Y-114515080D01*
X89172935Y-114493023D01*
X89188437Y-114438549D01*
X89237919Y-114410993D01*
X89246442Y-114410500D01*
X89473557Y-114410500D01*
X89525883Y-114432174D01*
X89547557Y-114484500D01*
X89547064Y-114493025D01*
X89544500Y-114515133D01*
X89544500Y-115904863D01*
X89547414Y-115929986D01*
X89547415Y-115929992D01*
X89576589Y-115996064D01*
X89592794Y-116032765D01*
X89672235Y-116112206D01*
X89775009Y-116157585D01*
X89800135Y-116160500D01*
X90189864Y-116160499D01*
X90214991Y-116157585D01*
X90317765Y-116112206D01*
X90317766Y-116112204D01*
X90320610Y-116110949D01*
X90377232Y-116109641D01*
X90418195Y-116148754D01*
X90424500Y-116178644D01*
X90424500Y-120703566D01*
X90402826Y-120755892D01*
X90350500Y-120777566D01*
X90302041Y-120759492D01*
X90298049Y-120756033D01*
X90189068Y-120685995D01*
X90064772Y-120649500D01*
X89935228Y-120649500D01*
X89810931Y-120685995D01*
X89701954Y-120756031D01*
X89701950Y-120756034D01*
X89617119Y-120853935D01*
X89617118Y-120853936D01*
X89617118Y-120853937D01*
X89602674Y-120885565D01*
X89563302Y-120971776D01*
X89546136Y-121091171D01*
X89544867Y-121100000D01*
X89548839Y-121127623D01*
X89563302Y-121228223D01*
X89563302Y-121228224D01*
X89563303Y-121228226D01*
X89567140Y-121236627D01*
X89617118Y-121346064D01*
X89672669Y-121410174D01*
X89690554Y-121463913D01*
X89669069Y-121510959D01*
X89592794Y-121587234D01*
X89547414Y-121690011D01*
X89544500Y-121715135D01*
X89544500Y-123104863D01*
X89547414Y-123129989D01*
X89547709Y-123131072D01*
X89547620Y-123131765D01*
X89548056Y-123135522D01*
X89547126Y-123135629D01*
X89540533Y-123187253D01*
X89495733Y-123221904D01*
X89476305Y-123224500D01*
X89243695Y-123224500D01*
X89191369Y-123202826D01*
X89169695Y-123150500D01*
X89172292Y-123131067D01*
X89172584Y-123129993D01*
X89172585Y-123129991D01*
X89175500Y-123104865D01*
X89175499Y-121715136D01*
X89172585Y-121690009D01*
X89127206Y-121587235D01*
X89047765Y-121507794D01*
X88944991Y-121462415D01*
X88944990Y-121462414D01*
X88944988Y-121462414D01*
X88923390Y-121459909D01*
X88919865Y-121459500D01*
X88919864Y-121459500D01*
X88530136Y-121459500D01*
X88505013Y-121462414D01*
X88505007Y-121462415D01*
X88402234Y-121507794D01*
X88322794Y-121587234D01*
X88277414Y-121690011D01*
X88274500Y-121715135D01*
X88274500Y-123104863D01*
X88277414Y-123129986D01*
X88277415Y-123129992D01*
X88309575Y-123202826D01*
X88322794Y-123232765D01*
X88402235Y-123312206D01*
X88505009Y-123357585D01*
X88530135Y-123360500D01*
X88530136Y-123360499D01*
X88532257Y-123360746D01*
X88532176Y-123361440D01*
X88578142Y-123382047D01*
X88594269Y-123398174D01*
X88615943Y-123450500D01*
X88594269Y-123502826D01*
X88541943Y-123524500D01*
X88119058Y-123524500D01*
X88066732Y-123502826D01*
X87874508Y-123310602D01*
X87852834Y-123258276D01*
X87859138Y-123228388D01*
X87902585Y-123129991D01*
X87905500Y-123104865D01*
X87905499Y-121715136D01*
X87902585Y-121690009D01*
X87857206Y-121587235D01*
X87777765Y-121507794D01*
X87674991Y-121462415D01*
X87674990Y-121462414D01*
X87674988Y-121462414D01*
X87653390Y-121459909D01*
X87649865Y-121459500D01*
X87649864Y-121459500D01*
X87260136Y-121459500D01*
X87235013Y-121462414D01*
X87235007Y-121462415D01*
X87132234Y-121507794D01*
X87052794Y-121587234D01*
X87007414Y-121690011D01*
X87004500Y-121715135D01*
X87004500Y-123104863D01*
X87007414Y-123129986D01*
X87007415Y-123129992D01*
X87039575Y-123202826D01*
X87052794Y-123232765D01*
X87132235Y-123312206D01*
X87235009Y-123357585D01*
X87260135Y-123360500D01*
X87260136Y-123360499D01*
X87262257Y-123360746D01*
X87262176Y-123361440D01*
X87308142Y-123382047D01*
X87337671Y-123411576D01*
X87337673Y-123411577D01*
X87624270Y-123698174D01*
X87645944Y-123750500D01*
X87624270Y-123802826D01*
X87571944Y-123824500D01*
X87149058Y-123824500D01*
X87096732Y-123802826D01*
X86604508Y-123310602D01*
X86582834Y-123258276D01*
X86589138Y-123228388D01*
X86632585Y-123129991D01*
X86635500Y-123104865D01*
X86635499Y-121715136D01*
X86632585Y-121690009D01*
X86587206Y-121587235D01*
X86507765Y-121507794D01*
X86404991Y-121462415D01*
X86404990Y-121462414D01*
X86404988Y-121462414D01*
X86383390Y-121459909D01*
X86379865Y-121459500D01*
X86379864Y-121459500D01*
X85990136Y-121459500D01*
X85965013Y-121462414D01*
X85965007Y-121462415D01*
X85862234Y-121507794D01*
X85782794Y-121587234D01*
X85737414Y-121690011D01*
X85734500Y-121715135D01*
X85300500Y-121715135D01*
X85300500Y-115914205D01*
X85585001Y-115914205D01*
X85587850Y-115944602D01*
X85587852Y-115944611D01*
X85632652Y-116072643D01*
X85713207Y-116181791D01*
X85713208Y-116181792D01*
X85822356Y-116262347D01*
X85822355Y-116262347D01*
X85950385Y-116307146D01*
X85950393Y-116307148D01*
X85980802Y-116309999D01*
X86335000Y-116309999D01*
X86389194Y-116309999D01*
X86389205Y-116309998D01*
X86419602Y-116307149D01*
X86419611Y-116307147D01*
X86547643Y-116262347D01*
X86656791Y-116181792D01*
X86656792Y-116181791D01*
X86737347Y-116072643D01*
X86782146Y-115944614D01*
X86782148Y-115944606D01*
X86784999Y-115914198D01*
X86785000Y-115914197D01*
X86785000Y-115360000D01*
X86335000Y-115360000D01*
X86335000Y-116309999D01*
X85980802Y-116309999D01*
X86034999Y-116309998D01*
X86035000Y-116309998D01*
X86035000Y-115360000D01*
X85585001Y-115360000D01*
X85585001Y-115914205D01*
X85300500Y-115914205D01*
X85300500Y-114505801D01*
X85585000Y-114505801D01*
X85585000Y-115060000D01*
X86035000Y-115060000D01*
X86335000Y-115060000D01*
X86784999Y-115060000D01*
X86784999Y-114505806D01*
X86784998Y-114505794D01*
X86782149Y-114475397D01*
X86782147Y-114475388D01*
X86737347Y-114347356D01*
X86656792Y-114238208D01*
X86656791Y-114238207D01*
X86547643Y-114157652D01*
X86547644Y-114157652D01*
X86419614Y-114112853D01*
X86419606Y-114112851D01*
X86389198Y-114110000D01*
X86335000Y-114110000D01*
X86335000Y-115060000D01*
X86035000Y-115060000D01*
X86035000Y-114110000D01*
X86034999Y-114109999D01*
X85980807Y-114110000D01*
X85980793Y-114110001D01*
X85950397Y-114112850D01*
X85950388Y-114112852D01*
X85822356Y-114157652D01*
X85713208Y-114238207D01*
X85713207Y-114238208D01*
X85632652Y-114347356D01*
X85587853Y-114475385D01*
X85587851Y-114475393D01*
X85585000Y-114505801D01*
X85300500Y-114505801D01*
X85300500Y-112600000D01*
X94044867Y-112600000D01*
X94063302Y-112728223D01*
X94063302Y-112728224D01*
X94063303Y-112728226D01*
X94117118Y-112846063D01*
X94201951Y-112943967D01*
X94310931Y-113014004D01*
X94435228Y-113050500D01*
X94570065Y-113050500D01*
X94570065Y-113052434D01*
X94618184Y-113064706D01*
X94647095Y-113113409D01*
X94647097Y-113134484D01*
X94644867Y-113149997D01*
X94644867Y-113149999D01*
X94663302Y-113278223D01*
X94663302Y-113278224D01*
X94663303Y-113278226D01*
X94717118Y-113396063D01*
X94801951Y-113493967D01*
X94910931Y-113564004D01*
X95035228Y-113600500D01*
X95164772Y-113600500D01*
X95289069Y-113564004D01*
X95398049Y-113493967D01*
X95413583Y-113476040D01*
X95464229Y-113450689D01*
X95469508Y-113450500D01*
X98781359Y-113450500D01*
X98833685Y-113472174D01*
X98855359Y-113524500D01*
X98837284Y-113572960D01*
X98767121Y-113653932D01*
X98767119Y-113653934D01*
X98713302Y-113771775D01*
X98710998Y-113787803D01*
X98682096Y-113836511D01*
X98627218Y-113850517D01*
X98585425Y-113829596D01*
X98537016Y-113781187D01*
X98515700Y-113771775D01*
X98437662Y-113737318D01*
X98437663Y-113737318D01*
X98431180Y-113736566D01*
X98413373Y-113734500D01*
X98413369Y-113734500D01*
X97986627Y-113734500D01*
X97962340Y-113737317D01*
X97862981Y-113781188D01*
X97819284Y-113824885D01*
X97766958Y-113846559D01*
X97714633Y-113824884D01*
X97711033Y-113821018D01*
X97698052Y-113806036D01*
X97698050Y-113806035D01*
X97698049Y-113806033D01*
X97613715Y-113751835D01*
X97589068Y-113735995D01*
X97464772Y-113699500D01*
X97335228Y-113699500D01*
X97210931Y-113735995D01*
X97101954Y-113806031D01*
X97101950Y-113806034D01*
X97017119Y-113903935D01*
X96963302Y-114021776D01*
X96944867Y-114150000D01*
X96963302Y-114278223D01*
X96963302Y-114278224D01*
X96963303Y-114278226D01*
X97017118Y-114396063D01*
X97101951Y-114493967D01*
X97210931Y-114564004D01*
X97335228Y-114600500D01*
X97464772Y-114600500D01*
X97589069Y-114564004D01*
X97698049Y-114493967D01*
X97698057Y-114493957D01*
X97702049Y-114490500D01*
X97703309Y-114491954D01*
X97747737Y-114469703D01*
X97801479Y-114487577D01*
X97805358Y-114491187D01*
X97809425Y-114495254D01*
X97831099Y-114547580D01*
X97809425Y-114599906D01*
X97801043Y-114607120D01*
X97715357Y-114670360D01*
X97636594Y-114777080D01*
X97592788Y-114902268D01*
X97592787Y-114902273D01*
X97590000Y-114932002D01*
X97590000Y-114975000D01*
X98276000Y-114975000D01*
X98328326Y-114996674D01*
X98350000Y-115049000D01*
X98350000Y-115704999D01*
X98422993Y-115704999D01*
X98423007Y-115704998D01*
X98452721Y-115702213D01*
X98452728Y-115702212D01*
X98577917Y-115658406D01*
X98581555Y-115655722D01*
X98636527Y-115642087D01*
X98685039Y-115671316D01*
X98699500Y-115715261D01*
X98699500Y-116336673D01*
X98699499Y-116336687D01*
X98699499Y-116432355D01*
X98708439Y-116453938D01*
X98733830Y-116515236D01*
X98737028Y-116520022D01*
X98749500Y-116561135D01*
X98749500Y-116869748D01*
X98750545Y-116875000D01*
X98761133Y-116928232D01*
X98776013Y-116950500D01*
X98805448Y-116994552D01*
X98839645Y-117017402D01*
X98871767Y-117038866D01*
X98871768Y-117038866D01*
X98871769Y-117038867D01*
X98930252Y-117050500D01*
X98930254Y-117050500D01*
X99069746Y-117050500D01*
X99069748Y-117050500D01*
X99128231Y-117038867D01*
X99158887Y-117018382D01*
X99214435Y-117007333D01*
X99241111Y-117018381D01*
X99271769Y-117038867D01*
X99330252Y-117050500D01*
X99330254Y-117050500D01*
X99469746Y-117050500D01*
X99469748Y-117050500D01*
X99528231Y-117038867D01*
X99558887Y-117018382D01*
X99614435Y-117007333D01*
X99641111Y-117018381D01*
X99671769Y-117038867D01*
X99730252Y-117050500D01*
X99730254Y-117050500D01*
X99869746Y-117050500D01*
X99869748Y-117050500D01*
X99928231Y-117038867D01*
X99958887Y-117018382D01*
X100014435Y-117007333D01*
X100041111Y-117018381D01*
X100071769Y-117038867D01*
X100130252Y-117050500D01*
X100130254Y-117050500D01*
X100269746Y-117050500D01*
X100269748Y-117050500D01*
X100328231Y-117038867D01*
X100358887Y-117018382D01*
X100414435Y-117007333D01*
X100441111Y-117018381D01*
X100471769Y-117038867D01*
X100530252Y-117050500D01*
X100530254Y-117050500D01*
X100669746Y-117050500D01*
X100669748Y-117050500D01*
X100728231Y-117038867D01*
X100794552Y-116994552D01*
X100838867Y-116928231D01*
X100850500Y-116869748D01*
X100850500Y-116055252D01*
X100850500Y-115839931D01*
X100872174Y-115787605D01*
X100884492Y-115777678D01*
X100898049Y-115768967D01*
X100982882Y-115671063D01*
X101036697Y-115553226D01*
X101055133Y-115425000D01*
X101055133Y-115424998D01*
X101055133Y-115424996D01*
X101052190Y-115404532D01*
X101066195Y-115349654D01*
X101114903Y-115320753D01*
X101125436Y-115319999D01*
X101130000Y-115319999D01*
X101130000Y-114664000D01*
X101151674Y-114611674D01*
X101204000Y-114590000D01*
X101889999Y-114590000D01*
X101889999Y-114547007D01*
X101889998Y-114546992D01*
X101887213Y-114517278D01*
X101887212Y-114517271D01*
X101843405Y-114392080D01*
X101771381Y-114294491D01*
X101757747Y-114239519D01*
X101786978Y-114191008D01*
X101841950Y-114177374D01*
X101870927Y-114188295D01*
X101910931Y-114214004D01*
X102035228Y-114250500D01*
X102053541Y-114250500D01*
X102105867Y-114272174D01*
X102127541Y-114324500D01*
X102120854Y-114355238D01*
X102115064Y-114367918D01*
X102113302Y-114371776D01*
X102094867Y-114500000D01*
X102113302Y-114628223D01*
X102113302Y-114628224D01*
X102113303Y-114628226D01*
X102132545Y-114670360D01*
X102167119Y-114746065D01*
X102167120Y-114746067D01*
X102197629Y-114781276D01*
X102215514Y-114835015D01*
X102190162Y-114885661D01*
X102136423Y-114903546D01*
X102101696Y-114891988D01*
X102070730Y-114872087D01*
X101946434Y-114835592D01*
X101816890Y-114835592D01*
X101692593Y-114872087D01*
X101683000Y-114878253D01*
X101642993Y-114890000D01*
X101430000Y-114890000D01*
X101430000Y-115256656D01*
X101429247Y-115267186D01*
X101426529Y-115286091D01*
X101429247Y-115304995D01*
X101430000Y-115315526D01*
X101430000Y-115335739D01*
X101435144Y-115346016D01*
X101444964Y-115414315D01*
X101444964Y-115414316D01*
X101444965Y-115414318D01*
X101496435Y-115527020D01*
X101498456Y-115583621D01*
X101481449Y-115610086D01*
X101447266Y-115644270D01*
X101447265Y-115644271D01*
X101383829Y-115707706D01*
X101383829Y-115707707D01*
X101377802Y-115722259D01*
X101377798Y-115722268D01*
X101372302Y-115735533D01*
X101356265Y-115759533D01*
X101272266Y-115843534D01*
X101208828Y-115906972D01*
X101202883Y-115921327D01*
X101202881Y-115921332D01*
X101191546Y-115948692D01*
X101184711Y-115961479D01*
X101161133Y-115996767D01*
X101161133Y-115996769D01*
X101149500Y-116055252D01*
X101149500Y-116869748D01*
X101150545Y-116875000D01*
X101161133Y-116928232D01*
X101176013Y-116950500D01*
X101205448Y-116994552D01*
X101239645Y-117017402D01*
X101271767Y-117038866D01*
X101271768Y-117038866D01*
X101271769Y-117038867D01*
X101330252Y-117050500D01*
X101330254Y-117050500D01*
X101469746Y-117050500D01*
X101469748Y-117050500D01*
X101528231Y-117038867D01*
X101558887Y-117018382D01*
X101614435Y-117007333D01*
X101641111Y-117018381D01*
X101671769Y-117038867D01*
X101730252Y-117050500D01*
X101730254Y-117050500D01*
X101869746Y-117050500D01*
X101869748Y-117050500D01*
X101928231Y-117038867D01*
X101958887Y-117018382D01*
X102014435Y-117007333D01*
X102041111Y-117018381D01*
X102071769Y-117038867D01*
X102130252Y-117050500D01*
X102130254Y-117050500D01*
X102269746Y-117050500D01*
X102269748Y-117050500D01*
X102328231Y-117038867D01*
X102358887Y-117018382D01*
X102414435Y-117007333D01*
X102441111Y-117018381D01*
X102471769Y-117038867D01*
X102530252Y-117050500D01*
X102530254Y-117050500D01*
X102669746Y-117050500D01*
X102669748Y-117050500D01*
X102728231Y-117038867D01*
X102758887Y-117018382D01*
X102814435Y-117007333D01*
X102841111Y-117018381D01*
X102871769Y-117038867D01*
X102930252Y-117050500D01*
X102930254Y-117050500D01*
X103069746Y-117050500D01*
X103069748Y-117050500D01*
X103128231Y-117038867D01*
X103158887Y-117018382D01*
X103214435Y-117007333D01*
X103241111Y-117018381D01*
X103271769Y-117038867D01*
X103330252Y-117050500D01*
X103330254Y-117050500D01*
X103469746Y-117050500D01*
X103469748Y-117050500D01*
X103528231Y-117038867D01*
X103558887Y-117018382D01*
X103614435Y-117007333D01*
X103641111Y-117018381D01*
X103671769Y-117038867D01*
X103730252Y-117050500D01*
X103730254Y-117050500D01*
X103864825Y-117050500D01*
X103864826Y-117050500D01*
X103908723Y-117041768D01*
X103945938Y-117016902D01*
X104016900Y-116945939D01*
X104041768Y-116908721D01*
X104050500Y-116864821D01*
X104050500Y-116561556D01*
X104062741Y-116532002D01*
X104990000Y-116532002D01*
X104990000Y-116575000D01*
X106209999Y-116575000D01*
X106209999Y-116532007D01*
X106209998Y-116531992D01*
X106207213Y-116502278D01*
X106207212Y-116502271D01*
X106163405Y-116377080D01*
X106084641Y-116270359D01*
X106084640Y-116270358D01*
X105998957Y-116207120D01*
X105969726Y-116158608D01*
X105983360Y-116103637D01*
X105990570Y-116095258D01*
X105998658Y-116087171D01*
X106050981Y-116065500D01*
X106093490Y-116065500D01*
X106145816Y-116087174D01*
X106149410Y-116091035D01*
X106151951Y-116093967D01*
X106260931Y-116164004D01*
X106385228Y-116200500D01*
X106514772Y-116200500D01*
X106639069Y-116164004D01*
X106748049Y-116093967D01*
X106832882Y-115996063D01*
X106886697Y-115878226D01*
X106905133Y-115750000D01*
X106886697Y-115621774D01*
X106832882Y-115503937D01*
X106748049Y-115406033D01*
X106668831Y-115355123D01*
X106639068Y-115335995D01*
X106514772Y-115299500D01*
X106385228Y-115299500D01*
X106260931Y-115335995D01*
X106151954Y-115406031D01*
X106151947Y-115406036D01*
X106123421Y-115438959D01*
X106072775Y-115464311D01*
X106067495Y-115464500D01*
X106050981Y-115464500D01*
X105998655Y-115442826D01*
X105937016Y-115381187D01*
X105896433Y-115363268D01*
X105837662Y-115337318D01*
X105837663Y-115337318D01*
X105832804Y-115336754D01*
X105813373Y-115334500D01*
X105813369Y-115334500D01*
X105386627Y-115334500D01*
X105362340Y-115337317D01*
X105262983Y-115381187D01*
X105186187Y-115457983D01*
X105144134Y-115553226D01*
X105142318Y-115557338D01*
X105139731Y-115579641D01*
X105139500Y-115581630D01*
X105139500Y-115948372D01*
X105142317Y-115972659D01*
X105142317Y-115972661D01*
X105142318Y-115972662D01*
X105159046Y-116010547D01*
X105186187Y-116072016D01*
X105209425Y-116095254D01*
X105231099Y-116147580D01*
X105209425Y-116199906D01*
X105201043Y-116207120D01*
X105115357Y-116270360D01*
X105036594Y-116377080D01*
X104992788Y-116502268D01*
X104992787Y-116502273D01*
X104990000Y-116532002D01*
X104062741Y-116532002D01*
X104072173Y-116509231D01*
X104267327Y-116314076D01*
X104267330Y-116314075D01*
X104277735Y-116303670D01*
X104277736Y-116303670D01*
X104341170Y-116240236D01*
X104359700Y-116195500D01*
X104375501Y-116157354D01*
X104375501Y-116067645D01*
X104375501Y-116061687D01*
X104375500Y-116061673D01*
X104375500Y-114280998D01*
X104397174Y-114228672D01*
X104409493Y-114218745D01*
X104448049Y-114193967D01*
X104532882Y-114096063D01*
X104586697Y-113978226D01*
X104605133Y-113850000D01*
X104586697Y-113721774D01*
X104532882Y-113603937D01*
X104532880Y-113603935D01*
X104532880Y-113603934D01*
X104532878Y-113603932D01*
X104506041Y-113572960D01*
X104488155Y-113519221D01*
X104513506Y-113468575D01*
X104561966Y-113450500D01*
X105580492Y-113450500D01*
X105632818Y-113472174D01*
X105636417Y-113476040D01*
X105651946Y-113493962D01*
X105651947Y-113493963D01*
X105651951Y-113493967D01*
X105760931Y-113564004D01*
X105885228Y-113600500D01*
X106014772Y-113600500D01*
X106139069Y-113564004D01*
X106248049Y-113493967D01*
X106332882Y-113396063D01*
X106386697Y-113278226D01*
X106405133Y-113150000D01*
X106386697Y-113021774D01*
X106332882Y-112903937D01*
X106248049Y-112806033D01*
X106152705Y-112744759D01*
X106139068Y-112735995D01*
X106014772Y-112699500D01*
X105885228Y-112699500D01*
X105760931Y-112735995D01*
X105651954Y-112806031D01*
X105651946Y-112806037D01*
X105636417Y-112823960D01*
X105585771Y-112849311D01*
X105580492Y-112849500D01*
X104923625Y-112849500D01*
X104871299Y-112827826D01*
X104849625Y-112775500D01*
X104856312Y-112744759D01*
X104863862Y-112728226D01*
X104886697Y-112678226D01*
X104905133Y-112550000D01*
X104886697Y-112421774D01*
X104832882Y-112303937D01*
X104748049Y-112206033D01*
X104660082Y-112149500D01*
X104639068Y-112135995D01*
X104514772Y-112099500D01*
X104385228Y-112099500D01*
X104385227Y-112099500D01*
X104278836Y-112130738D01*
X104222524Y-112124683D01*
X104186986Y-112080582D01*
X104190677Y-112028994D01*
X104204424Y-111998894D01*
X104236697Y-111928226D01*
X104255133Y-111800000D01*
X104236697Y-111671774D01*
X104182882Y-111553937D01*
X104098049Y-111456033D01*
X104020244Y-111406031D01*
X103989068Y-111385995D01*
X103864772Y-111349500D01*
X103735228Y-111349500D01*
X103610931Y-111385995D01*
X103501954Y-111456031D01*
X103501946Y-111456037D01*
X103480925Y-111480298D01*
X103430279Y-111505649D01*
X103376540Y-111487763D01*
X103369075Y-111480298D01*
X103348053Y-111456037D01*
X103348051Y-111456035D01*
X103348049Y-111456033D01*
X103270244Y-111406031D01*
X103239068Y-111385995D01*
X103114772Y-111349500D01*
X102985228Y-111349500D01*
X102860931Y-111385995D01*
X102755214Y-111453936D01*
X102751951Y-111456033D01*
X102708960Y-111505649D01*
X102705926Y-111509150D01*
X102655279Y-111534501D01*
X102601540Y-111516616D01*
X102594074Y-111509150D01*
X102548049Y-111456033D01*
X102470244Y-111406031D01*
X102439068Y-111385995D01*
X102314772Y-111349500D01*
X102185228Y-111349500D01*
X102060931Y-111385995D01*
X101951954Y-111456031D01*
X101951950Y-111456034D01*
X101867119Y-111553935D01*
X101813302Y-111671776D01*
X101794867Y-111800000D01*
X101813302Y-111928223D01*
X101813302Y-111928224D01*
X101813303Y-111928226D01*
X101850000Y-112008580D01*
X101867119Y-112046065D01*
X101867121Y-112046067D01*
X101937284Y-112127040D01*
X101955170Y-112180779D01*
X101929819Y-112231425D01*
X101881359Y-112249500D01*
X101368641Y-112249500D01*
X101316315Y-112227826D01*
X101294641Y-112175500D01*
X101312716Y-112127040D01*
X101324012Y-112114004D01*
X101382882Y-112046063D01*
X101436697Y-111928226D01*
X101455133Y-111800000D01*
X101436697Y-111671774D01*
X101382882Y-111553937D01*
X101298049Y-111456033D01*
X101220244Y-111406031D01*
X101189068Y-111385995D01*
X101064772Y-111349500D01*
X100935228Y-111349500D01*
X100810931Y-111385995D01*
X100701954Y-111456031D01*
X100701946Y-111456037D01*
X100619569Y-111551106D01*
X100568923Y-111576457D01*
X100515184Y-111558571D01*
X100496332Y-111533388D01*
X100482882Y-111503937D01*
X100398049Y-111406033D01*
X100310082Y-111349500D01*
X100289068Y-111335995D01*
X100164772Y-111299500D01*
X100035228Y-111299500D01*
X99910931Y-111335995D01*
X99801954Y-111406031D01*
X99801950Y-111406034D01*
X99717119Y-111503935D01*
X99717118Y-111503936D01*
X99717118Y-111503937D01*
X99692167Y-111558571D01*
X99663302Y-111621776D01*
X99644867Y-111750000D01*
X99663302Y-111878223D01*
X99663302Y-111878224D01*
X99663303Y-111878226D01*
X99717118Y-111996063D01*
X99801951Y-112093967D01*
X99831952Y-112113247D01*
X99864254Y-112159770D01*
X99854198Y-112215507D01*
X99807675Y-112247809D01*
X99791945Y-112249500D01*
X98180254Y-112249500D01*
X98127928Y-112227826D01*
X98106254Y-112175500D01*
X98127928Y-112123174D01*
X98140247Y-112113247D01*
X98143736Y-112111004D01*
X98248049Y-112043967D01*
X98332882Y-111946063D01*
X98386697Y-111828226D01*
X98405133Y-111700000D01*
X98386697Y-111571774D01*
X98332882Y-111453937D01*
X98248049Y-111356033D01*
X98160082Y-111299500D01*
X98139068Y-111285995D01*
X98014772Y-111249500D01*
X97885228Y-111249500D01*
X97760931Y-111285995D01*
X97651954Y-111356031D01*
X97651950Y-111356034D01*
X97567119Y-111453935D01*
X97567118Y-111453936D01*
X97567118Y-111453937D01*
X97525604Y-111544840D01*
X97517313Y-111562994D01*
X97475860Y-111601587D01*
X97419259Y-111599566D01*
X97382687Y-111562994D01*
X97377258Y-111551106D01*
X97332882Y-111453937D01*
X97248049Y-111356033D01*
X97160082Y-111299500D01*
X97139068Y-111285995D01*
X97014772Y-111249500D01*
X96885228Y-111249500D01*
X96760931Y-111285995D01*
X96651954Y-111356031D01*
X96651950Y-111356034D01*
X96567118Y-111453936D01*
X96564260Y-111458385D01*
X96562968Y-111457555D01*
X96525859Y-111492105D01*
X96469258Y-111490082D01*
X96436848Y-111457672D01*
X96435740Y-111458385D01*
X96432881Y-111453936D01*
X96391374Y-111406034D01*
X96348049Y-111356033D01*
X96260082Y-111299500D01*
X96239068Y-111285995D01*
X96114772Y-111249500D01*
X95985228Y-111249500D01*
X95860931Y-111285995D01*
X95751954Y-111356031D01*
X95751950Y-111356034D01*
X95667119Y-111453935D01*
X95667118Y-111453936D01*
X95667118Y-111453937D01*
X95643502Y-111505649D01*
X95613302Y-111571776D01*
X95594867Y-111700000D01*
X95613302Y-111828223D01*
X95613302Y-111828224D01*
X95613303Y-111828226D01*
X95667118Y-111946063D01*
X95751951Y-112043967D01*
X95838362Y-112099500D01*
X95859753Y-112113247D01*
X95892055Y-112159770D01*
X95881999Y-112215507D01*
X95835476Y-112247809D01*
X95819746Y-112249500D01*
X94809611Y-112249500D01*
X94769605Y-112237753D01*
X94689069Y-112185996D01*
X94564772Y-112149500D01*
X94435228Y-112149500D01*
X94310931Y-112185995D01*
X94201954Y-112256031D01*
X94201950Y-112256034D01*
X94117119Y-112353935D01*
X94063302Y-112471776D01*
X94044867Y-112600000D01*
X85300500Y-112600000D01*
X85300500Y-98574500D01*
X85322174Y-98522174D01*
X85374500Y-98500500D01*
X96792919Y-98500500D01*
X96845245Y-98522174D01*
G37*
%TD.AperFunction*%
%TD*%
M02*
