%TF.GenerationSoftware,KiCad,Pcbnew,8.0.5*%
%TF.CreationDate,2024-10-28T09:22:43-07:00*%
%TF.ProjectId,card,63617264-2e6b-4696-9361-645f70636258,rev?*%
%TF.SameCoordinates,Original*%
%TF.FileFunction,Paste,Top*%
%TF.FilePolarity,Positive*%
%FSLAX46Y46*%
G04 Gerber Fmt 4.6, Leading zero omitted, Abs format (unit mm)*
G04 Created by KiCad (PCBNEW 8.0.5) date 2024-10-28 09:22:43*
%MOMM*%
%LPD*%
G01*
G04 APERTURE LIST*
G04 Aperture macros list*
%AMRoundRect*
0 Rectangle with rounded corners*
0 $1 Rounding radius*
0 $2 $3 $4 $5 $6 $7 $8 $9 X,Y pos of 4 corners*
0 Add a 4 corners polygon primitive as box body*
4,1,4,$2,$3,$4,$5,$6,$7,$8,$9,$2,$3,0*
0 Add four circle primitives for the rounded corners*
1,1,$1+$1,$2,$3*
1,1,$1+$1,$4,$5*
1,1,$1+$1,$6,$7*
1,1,$1+$1,$8,$9*
0 Add four rect primitives between the rounded corners*
20,1,$1+$1,$2,$3,$4,$5,0*
20,1,$1+$1,$4,$5,$6,$7,0*
20,1,$1+$1,$6,$7,$8,$9,0*
20,1,$1+$1,$8,$9,$2,$3,0*%
%AMFreePoly0*
4,1,18,-0.437500,0.050000,-0.433694,0.069134,-0.422855,0.085355,-0.406634,0.096194,-0.387500,0.100000,0.387500,0.100000,0.437500,0.050000,0.437500,-0.050000,0.433694,-0.069134,0.422855,-0.085355,0.406634,-0.096194,0.387500,-0.100000,-0.387500,-0.100000,-0.406634,-0.096194,-0.422855,-0.085355,-0.433694,-0.069134,-0.437500,-0.050000,-0.437500,0.050000,-0.437500,0.050000,$1*%
%AMFreePoly1*
4,1,18,-0.437500,0.050000,-0.433694,0.069134,-0.422855,0.085355,-0.406634,0.096194,-0.387500,0.100000,0.387500,0.100000,0.406634,0.096194,0.422855,0.085355,0.433694,0.069134,0.437500,0.050000,0.437500,-0.050000,0.387500,-0.100000,-0.387500,-0.100000,-0.406634,-0.096194,-0.422855,-0.085355,-0.433694,-0.069134,-0.437500,-0.050000,-0.437500,0.050000,-0.437500,0.050000,$1*%
%AMFreePoly2*
4,1,18,-0.100000,0.387500,-0.050000,0.437500,0.050000,0.437500,0.069134,0.433694,0.085355,0.422855,0.096194,0.406634,0.100000,0.387500,0.100000,-0.387500,0.096194,-0.406634,0.085355,-0.422855,0.069134,-0.433694,0.050000,-0.437500,-0.050000,-0.437500,-0.069134,-0.433694,-0.085355,-0.422855,-0.096194,-0.406634,-0.100000,-0.387500,-0.100000,0.387500,-0.100000,0.387500,$1*%
%AMFreePoly3*
4,1,18,-0.100000,0.387500,-0.096194,0.406634,-0.085355,0.422855,-0.069134,0.433694,-0.050000,0.437500,0.050000,0.437500,0.100000,0.387500,0.100000,-0.387500,0.096194,-0.406634,0.085355,-0.422855,0.069134,-0.433694,0.050000,-0.437500,-0.050000,-0.437500,-0.069134,-0.433694,-0.085355,-0.422855,-0.096194,-0.406634,-0.100000,-0.387500,-0.100000,0.387500,-0.100000,0.387500,$1*%
%AMFreePoly4*
4,1,18,-0.437500,0.050000,-0.433694,0.069134,-0.422855,0.085355,-0.406634,0.096194,-0.387500,0.100000,0.387500,0.100000,0.406634,0.096194,0.422855,0.085355,0.433694,0.069134,0.437500,0.050000,0.437500,-0.050000,0.433694,-0.069134,0.422855,-0.085355,0.406634,-0.096194,0.387500,-0.100000,-0.387500,-0.100000,-0.437500,-0.050000,-0.437500,0.050000,-0.437500,0.050000,$1*%
%AMFreePoly5*
4,1,18,-0.437500,0.050000,-0.387500,0.100000,0.387500,0.100000,0.406634,0.096194,0.422855,0.085355,0.433694,0.069134,0.437500,0.050000,0.437500,-0.050000,0.433694,-0.069134,0.422855,-0.085355,0.406634,-0.096194,0.387500,-0.100000,-0.387500,-0.100000,-0.406634,-0.096194,-0.422855,-0.085355,-0.433694,-0.069134,-0.437500,-0.050000,-0.437500,0.050000,-0.437500,0.050000,$1*%
%AMFreePoly6*
4,1,18,-0.100000,0.387500,-0.096194,0.406634,-0.085355,0.422855,-0.069134,0.433694,-0.050000,0.437500,0.050000,0.437500,0.069134,0.433694,0.085355,0.422855,0.096194,0.406634,0.100000,0.387500,0.100000,-0.387500,0.050000,-0.437500,-0.050000,-0.437500,-0.069134,-0.433694,-0.085355,-0.422855,-0.096194,-0.406634,-0.100000,-0.387500,-0.100000,0.387500,-0.100000,0.387500,$1*%
%AMFreePoly7*
4,1,18,-0.100000,0.387500,-0.096194,0.406634,-0.085355,0.422855,-0.069134,0.433694,-0.050000,0.437500,0.050000,0.437500,0.069134,0.433694,0.085355,0.422855,0.096194,0.406634,0.100000,0.387500,0.100000,-0.387500,0.096194,-0.406634,0.085355,-0.422855,0.069134,-0.433694,0.050000,-0.437500,-0.050000,-0.437500,-0.100000,-0.387500,-0.100000,0.387500,-0.100000,0.387500,$1*%
G04 Aperture macros list end*
%ADD10RoundRect,0.135000X-0.135000X-0.185000X0.135000X-0.185000X0.135000X0.185000X-0.135000X0.185000X0*%
%ADD11RoundRect,0.140000X0.140000X0.170000X-0.140000X0.170000X-0.140000X-0.170000X0.140000X-0.170000X0*%
%ADD12RoundRect,0.250000X-0.475000X0.250000X-0.475000X-0.250000X0.475000X-0.250000X0.475000X0.250000X0*%
%ADD13RoundRect,0.237500X0.287500X0.237500X-0.287500X0.237500X-0.287500X-0.237500X0.287500X-0.237500X0*%
%ADD14RoundRect,0.140000X-0.140000X-0.170000X0.140000X-0.170000X0.140000X0.170000X-0.140000X0.170000X0*%
%ADD15R,0.530000X0.470000*%
%ADD16RoundRect,0.150000X0.512500X0.150000X-0.512500X0.150000X-0.512500X-0.150000X0.512500X-0.150000X0*%
%ADD17RoundRect,0.140000X-0.170000X0.140000X-0.170000X-0.140000X0.170000X-0.140000X0.170000X0.140000X0*%
%ADD18R,1.200000X1.400000*%
%ADD19RoundRect,0.140000X0.170000X-0.140000X0.170000X0.140000X-0.170000X0.140000X-0.170000X-0.140000X0*%
%ADD20RoundRect,0.250000X0.350000X-0.350000X0.350000X0.350000X-0.350000X0.350000X-0.350000X-0.350000X0*%
%ADD21FreePoly0,90.000000*%
%ADD22RoundRect,0.050000X0.050000X-0.387500X0.050000X0.387500X-0.050000X0.387500X-0.050000X-0.387500X0*%
%ADD23FreePoly1,90.000000*%
%ADD24FreePoly2,90.000000*%
%ADD25RoundRect,0.050000X0.387500X-0.050000X0.387500X0.050000X-0.387500X0.050000X-0.387500X-0.050000X0*%
%ADD26FreePoly3,90.000000*%
%ADD27FreePoly4,90.000000*%
%ADD28FreePoly5,90.000000*%
%ADD29FreePoly6,90.000000*%
%ADD30FreePoly7,90.000000*%
%ADD31R,1.050000X0.650000*%
%ADD32RoundRect,0.237500X-0.250000X-0.237500X0.250000X-0.237500X0.250000X0.237500X-0.250000X0.237500X0*%
%ADD33RoundRect,0.135000X0.135000X0.185000X-0.135000X0.185000X-0.135000X-0.185000X0.135000X-0.185000X0*%
%ADD34RoundRect,0.150000X0.150000X-0.650000X0.150000X0.650000X-0.150000X0.650000X-0.150000X-0.650000X0*%
%ADD35R,1.700000X0.700000*%
G04 APERTURE END LIST*
D10*
%TO.C,R3*%
X93450000Y-115725000D03*
X94470000Y-115725000D03*
%TD*%
D11*
%TO.C,C4*%
X93870000Y-121880000D03*
X92910000Y-121880000D03*
%TD*%
D12*
%TO.C,C11*%
X101775000Y-125750000D03*
X101775000Y-127650000D03*
%TD*%
D11*
%TO.C,C1*%
X99810000Y-125850000D03*
X98850000Y-125850000D03*
%TD*%
D13*
%TO.C,D1*%
X107675000Y-124200000D03*
X105925000Y-124200000D03*
%TD*%
D14*
%TO.C,C6*%
X102020000Y-124500000D03*
X102980000Y-124500000D03*
%TD*%
D15*
%TO.C,C16*%
X96400000Y-118440000D03*
X96400000Y-117410000D03*
%TD*%
D16*
%TO.C,U2*%
X105975000Y-127650000D03*
X105975000Y-126700000D03*
X105975000Y-125750000D03*
X103700000Y-125750000D03*
X103700000Y-127650000D03*
%TD*%
D11*
%TO.C,C5*%
X96130000Y-124600000D03*
X95170000Y-124600000D03*
%TD*%
D12*
%TO.C,C12*%
X108200000Y-125800000D03*
X108200000Y-127700000D03*
%TD*%
D17*
%TO.C,C13*%
X108200000Y-120300000D03*
X108200000Y-121260000D03*
%TD*%
D18*
%TO.C,Y1*%
X111300000Y-121025000D03*
X111300000Y-118825000D03*
X109600000Y-118825000D03*
X109600000Y-121025000D03*
%TD*%
D19*
%TO.C,C3*%
X100280000Y-114740000D03*
X100280000Y-113780000D03*
%TD*%
D10*
%TO.C,R4*%
X92690000Y-124600000D03*
X93710000Y-124600000D03*
%TD*%
%TO.C,R6*%
X92890000Y-119875000D03*
X93910000Y-119875000D03*
%TD*%
%TO.C,R7*%
X92880000Y-120900000D03*
X93900000Y-120900000D03*
%TD*%
D20*
%TO.C,U1*%
X100300000Y-120600000D03*
X101700000Y-120600000D03*
X100300000Y-119200000D03*
X101700000Y-119200000D03*
D21*
X98200000Y-123337500D03*
D22*
X98600000Y-123337500D03*
X99000000Y-123337500D03*
X99400000Y-123337500D03*
X99800000Y-123337500D03*
X100200000Y-123337500D03*
X100600000Y-123337500D03*
X101000000Y-123337500D03*
X101400000Y-123337500D03*
X101800000Y-123337500D03*
X102200000Y-123337500D03*
X102600000Y-123337500D03*
X103000000Y-123337500D03*
X103400000Y-123337500D03*
D23*
X103800000Y-123337500D03*
D24*
X104437500Y-122700000D03*
D25*
X104437500Y-122300000D03*
X104437500Y-121900000D03*
X104437500Y-121500000D03*
X104437500Y-121100000D03*
X104437500Y-120700000D03*
X104437500Y-120300000D03*
X104437500Y-119900000D03*
X104437500Y-119500000D03*
X104437500Y-119100000D03*
X104437500Y-118700000D03*
X104437500Y-118300000D03*
X104437500Y-117900000D03*
X104437500Y-117500000D03*
D26*
X104437500Y-117100000D03*
D27*
X103800000Y-116462500D03*
D22*
X103400000Y-116462500D03*
X103000000Y-116462500D03*
X102600000Y-116462500D03*
X102200000Y-116462500D03*
X101800000Y-116462500D03*
X101400000Y-116462500D03*
X101000000Y-116462500D03*
X100600000Y-116462500D03*
X100200000Y-116462500D03*
X99800000Y-116462500D03*
X99400000Y-116462500D03*
X99000000Y-116462500D03*
X98600000Y-116462500D03*
D28*
X98200000Y-116462500D03*
D29*
X97562500Y-117100000D03*
D25*
X97562500Y-117500000D03*
X97562500Y-117900000D03*
X97562500Y-118300000D03*
X97562500Y-118700000D03*
X97562500Y-119100000D03*
X97562500Y-119500000D03*
X97562500Y-119900000D03*
X97562500Y-120300000D03*
X97562500Y-120700000D03*
X97562500Y-121100000D03*
X97562500Y-121500000D03*
X97562500Y-121900000D03*
X97562500Y-122300000D03*
D30*
X97562500Y-122700000D03*
%TD*%
D15*
%TO.C,C15*%
X95400000Y-118440000D03*
X95400000Y-117410000D03*
%TD*%
D19*
%TO.C,C8*%
X101280000Y-114740000D03*
X101280000Y-113780000D03*
%TD*%
D14*
%TO.C,C17*%
X95400000Y-115725000D03*
X96360000Y-115725000D03*
%TD*%
D19*
%TO.C,C9*%
X105600000Y-116725000D03*
X105600000Y-115765000D03*
%TD*%
%TO.C,C14*%
X108200000Y-119425000D03*
X108200000Y-118465000D03*
%TD*%
D10*
%TO.C,R5*%
X109640000Y-123850000D03*
X110660000Y-123850000D03*
%TD*%
D31*
%TO.C,SW2*%
X114135000Y-127325000D03*
X109985000Y-127325000D03*
X114135000Y-125175000D03*
X110010000Y-125175000D03*
%TD*%
D14*
%TO.C,C10*%
X106220000Y-121450000D03*
X107180000Y-121450000D03*
%TD*%
D32*
%TO.C,R1*%
X105887500Y-122700000D03*
X107712500Y-122700000D03*
%TD*%
D14*
%TO.C,C2*%
X106320000Y-119325000D03*
X107280000Y-119325000D03*
%TD*%
D33*
%TO.C,R2*%
X107210000Y-120300000D03*
X106190000Y-120300000D03*
%TD*%
D19*
%TO.C,C7*%
X98200000Y-115125000D03*
X98200000Y-114165000D03*
%TD*%
D34*
%TO.C,U3*%
X86185000Y-122410000D03*
X87455000Y-122410000D03*
X88725000Y-122410000D03*
X89995000Y-122410000D03*
X89995000Y-115210000D03*
X88725000Y-115210000D03*
X87455000Y-115210000D03*
X86185000Y-115210000D03*
%TD*%
D31*
%TO.C,SW1*%
X90950000Y-126800000D03*
X86800000Y-126800000D03*
X90950000Y-124650000D03*
X86825000Y-124650000D03*
%TD*%
D35*
%TO.C,L1*%
X93500000Y-118625000D03*
X93500000Y-117225000D03*
%TD*%
M02*
