%TF.GenerationSoftware,KiCad,Pcbnew,8.0.5*%
%TF.CreationDate,2024-10-28T09:22:43-07:00*%
%TF.ProjectId,card,63617264-2e6b-4696-9361-645f70636258,rev?*%
%TF.SameCoordinates,Original*%
%TF.FileFunction,Copper,L2,Bot*%
%TF.FilePolarity,Positive*%
%FSLAX46Y46*%
G04 Gerber Fmt 4.6, Leading zero omitted, Abs format (unit mm)*
G04 Created by KiCad (PCBNEW 8.0.5) date 2024-10-28 09:22:43*
%MOMM*%
%LPD*%
G01*
G04 APERTURE LIST*
%TA.AperFunction,SMDPad,CuDef*%
%ADD10R,0.350000X1.950000*%
%TD*%
%TA.AperFunction,ComponentPad*%
%ADD11C,6.000000*%
%TD*%
%TA.AperFunction,ComponentPad*%
%ADD12C,0.600000*%
%TD*%
%TA.AperFunction,ViaPad*%
%ADD13C,0.600000*%
%TD*%
%TA.AperFunction,Conductor*%
%ADD14C,0.150000*%
%TD*%
%TA.AperFunction,Conductor*%
%ADD15C,0.300000*%
%TD*%
%TA.AperFunction,Conductor*%
%ADD16C,0.600000*%
%TD*%
G04 APERTURE END LIST*
D10*
%TO.P,A1,2,3v3*%
%TO.N,Net-(A1-3v3-Pad2)*%
X109000000Y-130675000D03*
%TO.P,A1,4,3v3*%
X108500000Y-130675000D03*
%TO.P,A1,6*%
%TO.N,N/C*%
X108000000Y-130675000D03*
%TO.P,A1,8*%
X107500000Y-130675000D03*
%TO.P,A1,10*%
X107000000Y-130675000D03*
%TO.P,A1,12*%
X106500000Y-130675000D03*
%TO.P,A1,14*%
X106000000Y-130675000D03*
%TO.P,A1,16*%
X105500000Y-130675000D03*
%TO.P,A1,18,GND*%
%TO.N,GND*%
X105000000Y-130675000D03*
%TO.P,A1,20*%
%TO.N,N/C*%
X104500000Y-130675000D03*
%TO.P,A1,22*%
X104000000Y-130675000D03*
D11*
%TO.P,A1,24*%
X100000000Y-98200000D03*
D10*
%TO.P,A1,32*%
X101500000Y-130675000D03*
%TO.P,A1,34*%
X101000000Y-130675000D03*
%TO.P,A1,36*%
X100500000Y-130675000D03*
%TO.P,A1,38,TP85*%
%TO.N,unconnected-(A1-TP85-Pad38)*%
X100000000Y-130675000D03*
%TO.P,A1,40*%
%TO.N,N/C*%
X99500000Y-130675000D03*
%TO.P,A1,42*%
X99000000Y-130675000D03*
%TO.P,A1,44*%
X98500000Y-130675000D03*
%TO.P,A1,46,TP86*%
%TO.N,unconnected-(A1-TP86-Pad46)*%
X98000000Y-130675000D03*
%TO.P,A1,48,TP87*%
%TO.N,Net-(A1-TP87)*%
X97500000Y-130675000D03*
%TO.P,A1,50,TP88*%
%TO.N,Net-(A1-TP88)*%
X97000000Y-130675000D03*
%TO.P,A1,52,TP89*%
%TO.N,Net-(A1-TP89)*%
X96500000Y-130675000D03*
%TO.P,A1,54,XIO_B*%
X96000000Y-130675000D03*
%TO.P,A1,56,TP90*%
%TO.N,Net-(A1-TP90)*%
X95500000Y-130675000D03*
%TO.P,A1,58,TP91*%
%TO.N,Net-(A1-TP91)*%
X95000000Y-130675000D03*
%TO.P,A1,60,TP92*%
%TO.N,Net-(A1-TP92)*%
X94500000Y-130675000D03*
%TO.P,A1,62,UART_TX*%
%TO.N,Net-(A1-UART_TX)*%
X94000000Y-130675000D03*
%TO.P,A1,64,UART_RX*%
%TO.N,Net-(A1-UART_RX)*%
X93500000Y-130675000D03*
%TO.P,A1,66*%
%TO.N,N/C*%
X93000000Y-130675000D03*
%TO.P,A1,68,5v*%
%TO.N,+5V*%
X92500000Y-130675000D03*
%TO.P,A1,70,5v*%
X92000000Y-130675000D03*
%TO.P,A1,72,5v*%
X91500000Y-130675000D03*
%TO.P,A1,74*%
%TO.N,N/C*%
X91000000Y-130675000D03*
%TD*%
D12*
%TO.P,U1,61,GND*%
%TO.N,GND*%
X99625000Y-121275000D03*
X101000000Y-121275000D03*
X102375000Y-121275000D03*
X99625000Y-119900000D03*
X101000000Y-119900000D03*
X102375000Y-119900000D03*
X99625000Y-118525000D03*
X101000000Y-118525000D03*
X102375000Y-118525000D03*
%TD*%
D13*
%TO.N,Net-(A1-TP89)*%
X101150000Y-124946232D03*
%TO.N,GND*%
X94450000Y-124600000D03*
X90000000Y-121100000D03*
X100259916Y-126522509D03*
X109325001Y-129275735D03*
X102100000Y-113800000D03*
X106450000Y-115750000D03*
X92150000Y-121900000D03*
X110000000Y-126600000D03*
X108200000Y-117650000D03*
X100600000Y-127950000D03*
X108712371Y-129251553D03*
X104700000Y-125050000D03*
X90672685Y-128619257D03*
X108500000Y-121950000D03*
X97400000Y-114150000D03*
X104700000Y-124200000D03*
X109340143Y-125926050D03*
X90675000Y-129275735D03*
X111300000Y-117650000D03*
X95400000Y-116700000D03*
X95873420Y-115068196D03*
X106800000Y-125050000D03*
%TO.N,Net-(A1-UART_TX)*%
X97960000Y-124190000D03*
%TO.N,Net-(A1-UART_RX)*%
X97880000Y-125030000D03*
X94583083Y-128723033D03*
X93500000Y-129388750D03*
%TO.N,Net-(A1-USB_DP)*%
X93400000Y-113700000D03*
X104450000Y-112550000D03*
X107050000Y-129100000D03*
X94500000Y-112600000D03*
%TO.N,Net-(A1-USB_DM)*%
X95100000Y-113150000D03*
X105950000Y-113150000D03*
X94000000Y-114250000D03*
X107850000Y-129249998D03*
%TO.N,+1V1*%
X100496232Y-125796232D03*
X98850000Y-119050000D03*
X105710156Y-119555000D03*
X100615000Y-117750500D03*
X100600000Y-115425000D03*
X101950000Y-122050000D03*
X94914500Y-119057770D03*
X95514500Y-119050000D03*
X103150000Y-119600000D03*
%TO.N,+5V*%
X92050000Y-128950000D03*
X92024997Y-128324997D03*
%TO.N,unconnected-(U1-GPIO22-Pad34)*%
X102250000Y-111800000D03*
X102934475Y-113808422D03*
%TO.N,Net-(A1-TP92)*%
X98630000Y-125040000D03*
%TO.N,Net-(A1-TP88)*%
X105908551Y-118119305D03*
%TO.N,Net-(A1-XIO_A)*%
X108445157Y-123474999D03*
X105360000Y-117470000D03*
X92744168Y-129255346D03*
%TO.N,Net-(A1-TP87)*%
X106803705Y-118670117D03*
%TO.N,Net-(A1-TP91)*%
X99468063Y-124867083D03*
%TO.N,unconnected-(U1-GPIO19-Pad31)*%
X104150000Y-113850000D03*
X103800000Y-111800000D03*
%TO.N,unconnected-(U1-GPIO20-Pad32)*%
X103607287Y-114504191D03*
X103050000Y-111800000D03*
%TO.N,unconnected-(U1-GPIO24-Pad36)*%
X101000000Y-111800000D03*
X102550000Y-114500000D03*
%TO.N,unconnected-(U1-GPIO25-Pad37)*%
X100100000Y-111750000D03*
X101881662Y-115286092D03*
%TO.N,Net-(A1-TP90)*%
X100688159Y-124232645D03*
%TO.N,unconnected-(U1-GPIO27_ADC1-Pad41)*%
X97950000Y-111700000D03*
X99750000Y-115550000D03*
%TO.N,unconnected-(U1-GPIO28_ADC2-Pad42)*%
X96950000Y-111700000D03*
X99150000Y-113900000D03*
%TO.N,unconnected-(U1-GPIO29_ADC3-Pad43)*%
X99000000Y-114650000D03*
X96050000Y-111700000D03*
%TD*%
D14*
%TO.N,Net-(A1-TP89)*%
X96245000Y-129305000D02*
X100603768Y-124946232D01*
X96000000Y-129550000D02*
X96245000Y-129305000D01*
X96500000Y-129560000D02*
X96245000Y-129305000D01*
X96000000Y-130675000D02*
X96000000Y-129550000D01*
X100603768Y-124946232D02*
X101150000Y-124946232D01*
X96500000Y-130675000D02*
X96500000Y-129560000D01*
%TO.N,Net-(A1-UART_TX)*%
X94025000Y-130650000D02*
X94025000Y-128125000D01*
X94000000Y-130675000D02*
X94025000Y-130650000D01*
X94025000Y-128125000D02*
X97960000Y-124190000D01*
%TO.N,Net-(A1-UART_RX)*%
X97880000Y-125030000D02*
X97880000Y-125785736D01*
X94942703Y-128723033D02*
X94583083Y-128723033D01*
X97880000Y-125785736D02*
X94942703Y-128723033D01*
X93500000Y-130675000D02*
X93500000Y-129388750D01*
D15*
%TO.N,Net-(A1-USB_DP)*%
X114100000Y-127150000D02*
X114000000Y-127250000D01*
X108950000Y-117050000D02*
X114013604Y-117050000D01*
X114000000Y-127250000D02*
X108900000Y-127250000D01*
X104450000Y-112550000D02*
X108950000Y-117050000D01*
X93400000Y-113700000D02*
X94500000Y-112600000D01*
X114100000Y-117136396D02*
X114100000Y-127150000D01*
X114013604Y-117050000D02*
X114100000Y-117136396D01*
X108900000Y-127250000D02*
X107050000Y-129100000D01*
%TO.N,Net-(A1-USB_DM)*%
X114550000Y-127336396D02*
X114550000Y-116950000D01*
X114150000Y-116550000D02*
X114550000Y-116950000D01*
X107850000Y-129249998D02*
X109349998Y-127750000D01*
X114136396Y-127750000D02*
X114550000Y-127336396D01*
X109350000Y-116550000D02*
X114150000Y-116550000D01*
X105950000Y-113150000D02*
X109350000Y-116550000D01*
X109349998Y-127750000D02*
X114136396Y-127750000D01*
X94000000Y-114250000D02*
X95100000Y-113150000D01*
D16*
%TO.N,+1V1*%
X100615000Y-115730443D02*
X100615000Y-117750500D01*
X98850000Y-119050000D02*
X94922270Y-119050000D01*
X100600000Y-115425000D02*
X100615000Y-115730443D01*
X105665156Y-119600000D02*
X105710156Y-119555000D01*
X94922270Y-119050000D02*
X94914500Y-119057770D01*
X101950000Y-122050000D02*
X101950000Y-125585378D01*
X103150000Y-119600000D02*
X105665156Y-119600000D01*
X101950000Y-125585378D02*
X101739146Y-125796232D01*
X101739146Y-125796232D02*
X100496232Y-125796232D01*
D15*
%TO.N,+5V*%
X92024997Y-128324997D02*
X91500000Y-128849994D01*
X92000000Y-130675000D02*
X92000000Y-129000000D01*
X92000000Y-129000000D02*
X92050000Y-128950000D01*
X91500000Y-128849994D02*
X91500000Y-130675000D01*
D14*
%TO.N,unconnected-(U1-GPIO22-Pad34)*%
X102250000Y-113123947D02*
X102934475Y-113808422D01*
X102250000Y-111800000D02*
X102250000Y-113123947D01*
%TO.N,Net-(A1-TP92)*%
X94530000Y-129310000D02*
X94780000Y-129310000D01*
X94500000Y-130675000D02*
X94500000Y-129340000D01*
X94500000Y-129340000D02*
X94530000Y-129310000D01*
X98630000Y-125460000D02*
X98630000Y-125040000D01*
X94780000Y-129310000D02*
X98630000Y-125460000D01*
%TO.N,Net-(A1-TP88)*%
X99425000Y-127125000D02*
X103508884Y-127125000D01*
X105908551Y-118930000D02*
X105908551Y-118119305D01*
X106737664Y-119759113D02*
X105908551Y-118930000D01*
X97000000Y-130675000D02*
X97000000Y-129550000D01*
X106737664Y-123896220D02*
X106737664Y-119759113D01*
X97000000Y-129550000D02*
X99425000Y-127125000D01*
X103508884Y-127125000D02*
X106737664Y-123896220D01*
%TO.N,Net-(A1-XIO_A)*%
X102482537Y-119050000D02*
X101550000Y-119982537D01*
X97750000Y-123650000D02*
X92925000Y-128475000D01*
X99367463Y-123650000D02*
X97750000Y-123650000D01*
X106346051Y-117470000D02*
X107400000Y-118523949D01*
X92925000Y-129074514D02*
X92744168Y-129255346D01*
X101550000Y-121467463D02*
X99367463Y-123650000D01*
X92925000Y-128475000D02*
X92925000Y-129074514D01*
X107400000Y-118523949D02*
X107400000Y-122429842D01*
X107400000Y-122429842D02*
X108445157Y-123474999D01*
X105360000Y-117470000D02*
X106346051Y-117470000D01*
X103780000Y-119050000D02*
X102482537Y-119050000D01*
X105360000Y-117470000D02*
X103780000Y-119050000D01*
X101550000Y-119982537D02*
X101550000Y-121467463D01*
%TO.N,Net-(A1-TP87)*%
X97500000Y-129550000D02*
X99625000Y-127425000D01*
X99625000Y-127425000D02*
X103633148Y-127425000D01*
X107037664Y-124020484D02*
X107037664Y-118904076D01*
X107037664Y-118904076D02*
X106803705Y-118670117D01*
X103633148Y-127425000D02*
X107037664Y-124020484D01*
X97500000Y-130675000D02*
X97500000Y-129550000D01*
%TO.N,Net-(A1-TP91)*%
X95000000Y-130675000D02*
X95000000Y-129550000D01*
X99468063Y-125081937D02*
X99468063Y-124867083D01*
X95000000Y-129550000D02*
X99468063Y-125081937D01*
%TO.N,unconnected-(U1-GPIO19-Pad31)*%
X103907287Y-113607287D02*
X103907287Y-111907287D01*
X103907287Y-111907287D02*
X103800000Y-111800000D01*
X104150000Y-113850000D02*
X103907287Y-113607287D01*
%TO.N,unconnected-(U1-GPIO20-Pad32)*%
X103607287Y-112357287D02*
X103050000Y-111800000D01*
X103607287Y-114504191D02*
X103607287Y-112357287D01*
%TO.N,unconnected-(U1-GPIO24-Pad36)*%
X101000000Y-113550000D02*
X101000000Y-111800000D01*
X101950000Y-114500000D02*
X101000000Y-113550000D01*
X102550000Y-114500000D02*
X101950000Y-114500000D01*
%TO.N,unconnected-(U1-GPIO25-Pad37)*%
X101881662Y-115286092D02*
X100100000Y-113504430D01*
X100100000Y-113504430D02*
X100100000Y-111750000D01*
%TO.N,Net-(A1-TP90)*%
X95500000Y-129625736D02*
X100688159Y-124437577D01*
X100688159Y-124437577D02*
X100688159Y-124232645D01*
X95500000Y-130675000D02*
X95500000Y-129625736D01*
%TO.N,unconnected-(U1-GPIO27_ADC1-Pad41)*%
X99750000Y-113500000D02*
X97950000Y-111700000D01*
X99750000Y-115550000D02*
X99750000Y-113500000D01*
%TO.N,unconnected-(U1-GPIO28_ADC2-Pad42)*%
X99150000Y-113900000D02*
X96950000Y-111700000D01*
%TO.N,unconnected-(U1-GPIO29_ADC3-Pad43)*%
X99000000Y-114650000D02*
X96050000Y-111700000D01*
%TD*%
%TA.AperFunction,Conductor*%
%TO.N,GND*%
G36*
X96845245Y-98522174D02*
G01*
X96865873Y-98562105D01*
X96923648Y-98902152D01*
X97021611Y-99242189D01*
X97021612Y-99242191D01*
X97157017Y-99569090D01*
X97157031Y-99569117D01*
X97328185Y-99878796D01*
X97328192Y-99878808D01*
X97532959Y-100167400D01*
X97768750Y-100431250D01*
X98032600Y-100667041D01*
X98321192Y-100871808D01*
X98321196Y-100871810D01*
X98321203Y-100871814D01*
X98630882Y-101042968D01*
X98630909Y-101042982D01*
X98957808Y-101178387D01*
X98957810Y-101178388D01*
X98957813Y-101178389D01*
X98957816Y-101178390D01*
X99297843Y-101276350D01*
X99297846Y-101276350D01*
X99297848Y-101276351D01*
X99297846Y-101276351D01*
X99479466Y-101307208D01*
X99646700Y-101335623D01*
X100000000Y-101355464D01*
X100353300Y-101335623D01*
X100634141Y-101287906D01*
X100702152Y-101276351D01*
X100702153Y-101276350D01*
X100702157Y-101276350D01*
X101042184Y-101178390D01*
X101079219Y-101163049D01*
X101369090Y-101042982D01*
X101369097Y-101042978D01*
X101369105Y-101042975D01*
X101678808Y-100871808D01*
X101967400Y-100667041D01*
X102231250Y-100431250D01*
X102467041Y-100167400D01*
X102671808Y-99878808D01*
X102842975Y-99569105D01*
X102842978Y-99569097D01*
X102842982Y-99569090D01*
X102978387Y-99242191D01*
X102978388Y-99242189D01*
X102978388Y-99242188D01*
X102978390Y-99242184D01*
X103076350Y-98902157D01*
X103134127Y-98562105D01*
X103164259Y-98514149D01*
X103207081Y-98500500D01*
X114625500Y-98500500D01*
X114677826Y-98522174D01*
X114699500Y-98574500D01*
X114699500Y-116495877D01*
X114677826Y-116548203D01*
X114625500Y-116569877D01*
X114573174Y-116548203D01*
X114334511Y-116309540D01*
X114265990Y-116269979D01*
X114265985Y-116269977D01*
X114189564Y-116249500D01*
X114189562Y-116249500D01*
X109505123Y-116249500D01*
X109452797Y-116227826D01*
X106426807Y-113201836D01*
X106407414Y-113155019D01*
X106405886Y-113155239D01*
X106394938Y-113079092D01*
X106386697Y-113021774D01*
X106332882Y-112903937D01*
X106248049Y-112806033D01*
X106181032Y-112762964D01*
X106139068Y-112735995D01*
X106014772Y-112699500D01*
X105885228Y-112699500D01*
X105760931Y-112735995D01*
X105651954Y-112806031D01*
X105651950Y-112806034D01*
X105567119Y-112903935D01*
X105513300Y-113021780D01*
X105511810Y-113026856D01*
X105510244Y-113026396D01*
X105484495Y-113069781D01*
X105429615Y-113083779D01*
X105387831Y-113062860D01*
X104926807Y-112601836D01*
X104907414Y-112555019D01*
X104905886Y-112555239D01*
X104893886Y-112471774D01*
X104886697Y-112421774D01*
X104832882Y-112303937D01*
X104748049Y-112206033D01*
X104660082Y-112149500D01*
X104639068Y-112135995D01*
X104514772Y-112099500D01*
X104385228Y-112099500D01*
X104385227Y-112099500D01*
X104278836Y-112130738D01*
X104222524Y-112124683D01*
X104186986Y-112080582D01*
X104190677Y-112028994D01*
X104204424Y-111998894D01*
X104236697Y-111928226D01*
X104255133Y-111800000D01*
X104236697Y-111671774D01*
X104182882Y-111553937D01*
X104098049Y-111456033D01*
X104020244Y-111406031D01*
X103989068Y-111385995D01*
X103864772Y-111349500D01*
X103735228Y-111349500D01*
X103610931Y-111385995D01*
X103501954Y-111456031D01*
X103501946Y-111456037D01*
X103480925Y-111480298D01*
X103430279Y-111505649D01*
X103376540Y-111487763D01*
X103369075Y-111480298D01*
X103348053Y-111456037D01*
X103348051Y-111456035D01*
X103348049Y-111456033D01*
X103270244Y-111406031D01*
X103239068Y-111385995D01*
X103114772Y-111349500D01*
X102985228Y-111349500D01*
X102860931Y-111385995D01*
X102755214Y-111453936D01*
X102751951Y-111456033D01*
X102708960Y-111505649D01*
X102705926Y-111509150D01*
X102655279Y-111534501D01*
X102601540Y-111516616D01*
X102594074Y-111509150D01*
X102548049Y-111456033D01*
X102470244Y-111406031D01*
X102439068Y-111385995D01*
X102314772Y-111349500D01*
X102185228Y-111349500D01*
X102060931Y-111385995D01*
X101951954Y-111456031D01*
X101951950Y-111456034D01*
X101867119Y-111553935D01*
X101813302Y-111671776D01*
X101794867Y-111800000D01*
X101813302Y-111928223D01*
X101813302Y-111928224D01*
X101813303Y-111928226D01*
X101867118Y-112046063D01*
X101951951Y-112143967D01*
X101986824Y-112166378D01*
X101990507Y-112168745D01*
X102022809Y-112215268D01*
X102024500Y-112230998D01*
X102024500Y-113073120D01*
X102024499Y-113073134D01*
X102024499Y-113168803D01*
X102048773Y-113227405D01*
X102058829Y-113251681D01*
X102058832Y-113251685D01*
X102132671Y-113325524D01*
X102132673Y-113325525D01*
X102470273Y-113663125D01*
X102491947Y-113715451D01*
X102491194Y-113725981D01*
X102479542Y-113807029D01*
X102479342Y-113808422D01*
X102497778Y-113936648D01*
X102506262Y-113955225D01*
X102508281Y-114011826D01*
X102469687Y-114053278D01*
X102459796Y-114056967D01*
X102360931Y-114085995D01*
X102251954Y-114156031D01*
X102251947Y-114156036D01*
X102171431Y-114248959D01*
X102120784Y-114274311D01*
X102115505Y-114274500D01*
X102074057Y-114274500D01*
X102021731Y-114252826D01*
X101247174Y-113478269D01*
X101225500Y-113425943D01*
X101225500Y-112230998D01*
X101247174Y-112178672D01*
X101259493Y-112168745D01*
X101263176Y-112166378D01*
X101298049Y-112143967D01*
X101382882Y-112046063D01*
X101436697Y-111928226D01*
X101455133Y-111800000D01*
X101436697Y-111671774D01*
X101382882Y-111553937D01*
X101298049Y-111456033D01*
X101220244Y-111406031D01*
X101189068Y-111385995D01*
X101064772Y-111349500D01*
X100935228Y-111349500D01*
X100810931Y-111385995D01*
X100701954Y-111456031D01*
X100701946Y-111456037D01*
X100619569Y-111551106D01*
X100568923Y-111576457D01*
X100515184Y-111558571D01*
X100496332Y-111533388D01*
X100482882Y-111503937D01*
X100398049Y-111406033D01*
X100310082Y-111349500D01*
X100289068Y-111335995D01*
X100164772Y-111299500D01*
X100035228Y-111299500D01*
X99910931Y-111335995D01*
X99801954Y-111406031D01*
X99801950Y-111406034D01*
X99717119Y-111503935D01*
X99717118Y-111503936D01*
X99717118Y-111503937D01*
X99692167Y-111558571D01*
X99663302Y-111621776D01*
X99644867Y-111750000D01*
X99663302Y-111878223D01*
X99663302Y-111878224D01*
X99663303Y-111878226D01*
X99717118Y-111996063D01*
X99801951Y-112093967D01*
X99840507Y-112118745D01*
X99872809Y-112165268D01*
X99874500Y-112180998D01*
X99874500Y-113126942D01*
X99852826Y-113179268D01*
X99800500Y-113200942D01*
X99748174Y-113179268D01*
X98414200Y-111845295D01*
X98392526Y-111792969D01*
X98393278Y-111782450D01*
X98405133Y-111700000D01*
X98386697Y-111571774D01*
X98332882Y-111453937D01*
X98248049Y-111356033D01*
X98160082Y-111299500D01*
X98139068Y-111285995D01*
X98014772Y-111249500D01*
X97885228Y-111249500D01*
X97760931Y-111285995D01*
X97651954Y-111356031D01*
X97651950Y-111356034D01*
X97567119Y-111453935D01*
X97567118Y-111453936D01*
X97567118Y-111453937D01*
X97525604Y-111544840D01*
X97517313Y-111562994D01*
X97475860Y-111601587D01*
X97419259Y-111599566D01*
X97382687Y-111562994D01*
X97377258Y-111551106D01*
X97332882Y-111453937D01*
X97248049Y-111356033D01*
X97160082Y-111299500D01*
X97139068Y-111285995D01*
X97014772Y-111249500D01*
X96885228Y-111249500D01*
X96760931Y-111285995D01*
X96651954Y-111356031D01*
X96651950Y-111356034D01*
X96567118Y-111453936D01*
X96564260Y-111458385D01*
X96562968Y-111457555D01*
X96525859Y-111492105D01*
X96469258Y-111490082D01*
X96436848Y-111457672D01*
X96435740Y-111458385D01*
X96432881Y-111453936D01*
X96391374Y-111406034D01*
X96348049Y-111356033D01*
X96260082Y-111299500D01*
X96239068Y-111285995D01*
X96114772Y-111249500D01*
X95985228Y-111249500D01*
X95860931Y-111285995D01*
X95751954Y-111356031D01*
X95751950Y-111356034D01*
X95667119Y-111453935D01*
X95667118Y-111453936D01*
X95667118Y-111453937D01*
X95643502Y-111505649D01*
X95613302Y-111571776D01*
X95594867Y-111700000D01*
X95613302Y-111828223D01*
X95613302Y-111828224D01*
X95613303Y-111828226D01*
X95667118Y-111946063D01*
X95751951Y-112043967D01*
X95860931Y-112114004D01*
X95985228Y-112150500D01*
X96114771Y-112150500D01*
X96114772Y-112150500D01*
X96124296Y-112147703D01*
X96180608Y-112153754D01*
X96197473Y-112166378D01*
X98535798Y-114504703D01*
X98557472Y-114557029D01*
X98556719Y-114567559D01*
X98547395Y-114632414D01*
X98544867Y-114650000D01*
X98548587Y-114675875D01*
X98563302Y-114778223D01*
X98563302Y-114778224D01*
X98563303Y-114778226D01*
X98617118Y-114896063D01*
X98701951Y-114993967D01*
X98810931Y-115064004D01*
X98935228Y-115100500D01*
X99064772Y-115100500D01*
X99189069Y-115064004D01*
X99298049Y-114993967D01*
X99382882Y-114896063D01*
X99383187Y-114895393D01*
X99383497Y-114895104D01*
X99385740Y-114891615D01*
X99386631Y-114892187D01*
X99424640Y-114856801D01*
X99481241Y-114858822D01*
X99519834Y-114900275D01*
X99524500Y-114926135D01*
X99524500Y-115119000D01*
X99502826Y-115171326D01*
X99490509Y-115181252D01*
X99451953Y-115206031D01*
X99451950Y-115206034D01*
X99367119Y-115303935D01*
X99313302Y-115421776D01*
X99294867Y-115550000D01*
X99313302Y-115678223D01*
X99313302Y-115678224D01*
X99313303Y-115678226D01*
X99367118Y-115796063D01*
X99451951Y-115893967D01*
X99560931Y-115964004D01*
X99685228Y-116000500D01*
X99814772Y-116000500D01*
X99939069Y-115964004D01*
X100048049Y-115893967D01*
X100048049Y-115893966D01*
X100050493Y-115892396D01*
X100106230Y-115882340D01*
X100152753Y-115914642D01*
X100164500Y-115954649D01*
X100164500Y-117712982D01*
X100163747Y-117723512D01*
X100159867Y-117750499D01*
X100163747Y-117777485D01*
X100164500Y-117788016D01*
X100164500Y-117809809D01*
X100171762Y-117836913D01*
X100173530Y-117845532D01*
X100178302Y-117878724D01*
X100178304Y-117878729D01*
X100187019Y-117897813D01*
X100191184Y-117909397D01*
X100195201Y-117924386D01*
X100212358Y-117954103D01*
X100215584Y-117960361D01*
X100232117Y-117996562D01*
X100241738Y-118007665D01*
X100249898Y-118019124D01*
X100254510Y-118027112D01*
X100283190Y-118055792D01*
X100286790Y-118059659D01*
X100316951Y-118094467D01*
X100324010Y-118099003D01*
X100336327Y-118108929D01*
X100338387Y-118110989D01*
X100352791Y-118119305D01*
X100378903Y-118134381D01*
X100381910Y-118136214D01*
X100425928Y-118164502D01*
X100425931Y-118164504D01*
X100427908Y-118165084D01*
X100436498Y-118168763D01*
X100436632Y-118168442D01*
X100441110Y-118170296D01*
X100441114Y-118170299D01*
X100492423Y-118184047D01*
X100493992Y-118184487D01*
X100538386Y-118197522D01*
X100550227Y-118201000D01*
X100550228Y-118201000D01*
X100679773Y-118201000D01*
X100691062Y-118197684D01*
X100736020Y-118184483D01*
X100737581Y-118184045D01*
X100788886Y-118170299D01*
X100788893Y-118170294D01*
X100793370Y-118168441D01*
X100793503Y-118168764D01*
X100802086Y-118165085D01*
X100804069Y-118164504D01*
X100848131Y-118136186D01*
X100851034Y-118134416D01*
X100891613Y-118110989D01*
X100893663Y-118108937D01*
X100905993Y-118099001D01*
X100913049Y-118094467D01*
X100943221Y-118059644D01*
X100946796Y-118055804D01*
X100975489Y-118027113D01*
X100980101Y-118019124D01*
X100988261Y-118007665D01*
X100997882Y-117996563D01*
X101014419Y-117960349D01*
X101017639Y-117954106D01*
X101017641Y-117954103D01*
X101034799Y-117924386D01*
X101038815Y-117909399D01*
X101042981Y-117897810D01*
X101051697Y-117878726D01*
X101056469Y-117845526D01*
X101058237Y-117836913D01*
X101065500Y-117809809D01*
X101065500Y-117788016D01*
X101066253Y-117777485D01*
X101066562Y-117775338D01*
X101070133Y-117750500D01*
X101066253Y-117723512D01*
X101065500Y-117712982D01*
X101065500Y-115786443D01*
X101067168Y-115770818D01*
X101067867Y-115767584D01*
X101065589Y-115721196D01*
X101065500Y-115717566D01*
X101065500Y-115671137D01*
X101065500Y-115671134D01*
X101064642Y-115667934D01*
X101062210Y-115652414D01*
X101061112Y-115630060D01*
X101052433Y-115453313D01*
X101053098Y-115439155D01*
X101055133Y-115425004D01*
X101055133Y-115425003D01*
X101053597Y-115414318D01*
X101049412Y-115385218D01*
X101048751Y-115378336D01*
X101047049Y-115343665D01*
X101042418Y-115329253D01*
X101039626Y-115317153D01*
X101037726Y-115303937D01*
X101036697Y-115296774D01*
X101022606Y-115265920D01*
X101019466Y-115257814D01*
X101018975Y-115256285D01*
X101010765Y-115230732D01*
X100999166Y-115212742D01*
X100994047Y-115203383D01*
X100982883Y-115178938D01*
X100972018Y-115166400D01*
X100964768Y-115158033D01*
X100958509Y-115149685D01*
X100946487Y-115131038D01*
X100925983Y-115112454D01*
X100919762Y-115106093D01*
X100898049Y-115081033D01*
X100880061Y-115069472D01*
X100870377Y-115062052D01*
X100858600Y-115051378D01*
X100858597Y-115051376D01*
X100828421Y-115035875D01*
X100822227Y-115032305D01*
X100794109Y-115014235D01*
X100789069Y-115010996D01*
X100789068Y-115010995D01*
X100789067Y-115010995D01*
X100774593Y-115006744D01*
X100761642Y-115001571D01*
X100753084Y-114997176D01*
X100753081Y-114997175D01*
X100713798Y-114988689D01*
X100708578Y-114987361D01*
X100664773Y-114974500D01*
X100664772Y-114974500D01*
X100656001Y-114974500D01*
X100640378Y-114972832D01*
X100637139Y-114972132D01*
X100590752Y-114974411D01*
X100587122Y-114974500D01*
X100535225Y-114974500D01*
X100532866Y-114975193D01*
X100523390Y-114976794D01*
X100523443Y-114977081D01*
X100518671Y-114977949D01*
X100518665Y-114977951D01*
X100468491Y-114994070D01*
X100466727Y-114994612D01*
X100410932Y-115010995D01*
X100410927Y-115010997D01*
X100410306Y-115011397D01*
X100409050Y-115012095D01*
X100356926Y-115045702D01*
X100356835Y-115045760D01*
X100301952Y-115081032D01*
X100301950Y-115081033D01*
X100263337Y-115125595D01*
X100262243Y-115126830D01*
X100226377Y-115166402D01*
X100226375Y-115166405D01*
X100223618Y-115170389D01*
X100223291Y-115170163D01*
X100218223Y-115177661D01*
X100217121Y-115178932D01*
X100217115Y-115178942D01*
X100198494Y-115219715D01*
X100157041Y-115258308D01*
X100100440Y-115256285D01*
X100075256Y-115237432D01*
X100048052Y-115206036D01*
X100048050Y-115206034D01*
X100048049Y-115206033D01*
X100043926Y-115203383D01*
X100009491Y-115181252D01*
X99977191Y-115134728D01*
X99975500Y-115119000D01*
X99975500Y-113877487D01*
X99997174Y-113825161D01*
X100049500Y-113803487D01*
X100101826Y-113825161D01*
X101417460Y-115140795D01*
X101439134Y-115193121D01*
X101438381Y-115203651D01*
X101426529Y-115286091D01*
X101444964Y-115414315D01*
X101444964Y-115414316D01*
X101444965Y-115414318D01*
X101498780Y-115532155D01*
X101583613Y-115630059D01*
X101692593Y-115700096D01*
X101816890Y-115736592D01*
X101946434Y-115736592D01*
X102070731Y-115700096D01*
X102179711Y-115630059D01*
X102264544Y-115532155D01*
X102318359Y-115414318D01*
X102336795Y-115286092D01*
X102318359Y-115157866D01*
X102264544Y-115040029D01*
X102264542Y-115040027D01*
X102264542Y-115040026D01*
X102264541Y-115040024D01*
X102234032Y-115004815D01*
X102216147Y-114951077D01*
X102241499Y-114900430D01*
X102295237Y-114882545D01*
X102329962Y-114894101D01*
X102360931Y-114914004D01*
X102485228Y-114950500D01*
X102614772Y-114950500D01*
X102739069Y-114914004D01*
X102848049Y-114843967D01*
X102932882Y-114746063D01*
X102986697Y-114628226D01*
X103005095Y-114500261D01*
X103005155Y-114500160D01*
X103005132Y-114500003D01*
X103005133Y-114500000D01*
X102986697Y-114371774D01*
X102978212Y-114353196D01*
X102976192Y-114296596D01*
X103014786Y-114255144D01*
X103024665Y-114251458D01*
X103103381Y-114228346D01*
X103159692Y-114234401D01*
X103195230Y-114278501D01*
X103191540Y-114330089D01*
X103170589Y-114375965D01*
X103152191Y-114503929D01*
X103152130Y-114504030D01*
X103170589Y-114632414D01*
X103170589Y-114632415D01*
X103170590Y-114632417D01*
X103224405Y-114750254D01*
X103309238Y-114848158D01*
X103418218Y-114918195D01*
X103542515Y-114954691D01*
X103672059Y-114954691D01*
X103796356Y-114918195D01*
X103905336Y-114848158D01*
X103990169Y-114750254D01*
X104043984Y-114632417D01*
X104062420Y-114504191D01*
X104048006Y-114403937D01*
X104045288Y-114385031D01*
X104059295Y-114330153D01*
X104108004Y-114301253D01*
X104118535Y-114300500D01*
X104214772Y-114300500D01*
X104339069Y-114264004D01*
X104448049Y-114193967D01*
X104532882Y-114096063D01*
X104586697Y-113978226D01*
X104605133Y-113850000D01*
X104586697Y-113721774D01*
X104532882Y-113603937D01*
X104448049Y-113506033D01*
X104366983Y-113453935D01*
X104339068Y-113435995D01*
X104214772Y-113399500D01*
X104206787Y-113399500D01*
X104154461Y-113377826D01*
X104132787Y-113325500D01*
X104132787Y-113017171D01*
X104154461Y-112964845D01*
X104206787Y-112943171D01*
X104246793Y-112954918D01*
X104260931Y-112964004D01*
X104385228Y-113000500D01*
X104444877Y-113000500D01*
X104497203Y-113022174D01*
X108709540Y-117234511D01*
X108765489Y-117290460D01*
X108834011Y-117330021D01*
X108834012Y-117330021D01*
X108834014Y-117330022D01*
X108872224Y-117340260D01*
X108910435Y-117350499D01*
X108910436Y-117350500D01*
X108910438Y-117350500D01*
X108989562Y-117350500D01*
X113725500Y-117350500D01*
X113777826Y-117372174D01*
X113799500Y-117424500D01*
X113799500Y-126875500D01*
X113777826Y-126927826D01*
X113725500Y-126949500D01*
X108860436Y-126949500D01*
X108784014Y-126969977D01*
X108784009Y-126969979D01*
X108736752Y-126997264D01*
X108715488Y-127009540D01*
X107097203Y-128627826D01*
X107044877Y-128649500D01*
X106985228Y-128649500D01*
X106860931Y-128685995D01*
X106751954Y-128756031D01*
X106751950Y-128756034D01*
X106667119Y-128853935D01*
X106613302Y-128971776D01*
X106594867Y-129100000D01*
X106613302Y-129228223D01*
X106613302Y-129228224D01*
X106613303Y-129228226D01*
X106662105Y-129335087D01*
X106667119Y-129346065D01*
X106667121Y-129346067D01*
X106737284Y-129427040D01*
X106755170Y-129480779D01*
X106729819Y-129531425D01*
X106681359Y-129549500D01*
X106310180Y-129549500D01*
X106300503Y-129551425D01*
X106264437Y-129558599D01*
X106235563Y-129558599D01*
X106199497Y-129551425D01*
X106189820Y-129549500D01*
X105810180Y-129549500D01*
X105800503Y-129551425D01*
X105764437Y-129558599D01*
X105735563Y-129558599D01*
X105699497Y-129551425D01*
X105689820Y-129549500D01*
X105479417Y-129549500D01*
X105427091Y-129527826D01*
X105347478Y-129448213D01*
X105244875Y-129402910D01*
X105244876Y-129402910D01*
X105219789Y-129400000D01*
X105150000Y-129400000D01*
X105150000Y-130751000D01*
X105128326Y-130803326D01*
X105076000Y-130825000D01*
X104924000Y-130825000D01*
X104871674Y-130803326D01*
X104850000Y-130751000D01*
X104850000Y-129400000D01*
X104780207Y-129400000D01*
X104755131Y-129402908D01*
X104755125Y-129402910D01*
X104652521Y-129448213D01*
X104572909Y-129527826D01*
X104520583Y-129549500D01*
X104310180Y-129549500D01*
X104300503Y-129551425D01*
X104264437Y-129558599D01*
X104235563Y-129558599D01*
X104199497Y-129551425D01*
X104189820Y-129549500D01*
X103810180Y-129549500D01*
X103800503Y-129551425D01*
X103766277Y-129558233D01*
X103716496Y-129591495D01*
X103716495Y-129591496D01*
X103683233Y-129641277D01*
X103674500Y-129685180D01*
X103674500Y-131664819D01*
X103683233Y-131708722D01*
X103716495Y-131758503D01*
X103716496Y-131758504D01*
X103724678Y-131763971D01*
X103756144Y-131811063D01*
X103745095Y-131866612D01*
X103698003Y-131898078D01*
X103683566Y-131899500D01*
X103599500Y-131899500D01*
X103547174Y-131877826D01*
X103525500Y-131825500D01*
X103525500Y-129211310D01*
X103490895Y-129037339D01*
X103490894Y-129037338D01*
X103490894Y-129037334D01*
X103468113Y-128982334D01*
X103423014Y-128873455D01*
X103409972Y-128853937D01*
X103324464Y-128725965D01*
X103199035Y-128600536D01*
X103154921Y-128571060D01*
X103051544Y-128501985D01*
X102887670Y-128434107D01*
X102887660Y-128434104D01*
X102771156Y-128410930D01*
X102713691Y-128399500D01*
X102536309Y-128399500D01*
X102486989Y-128409310D01*
X102362339Y-128434104D01*
X102362329Y-128434107D01*
X102198455Y-128501985D01*
X102050968Y-128600533D01*
X101925533Y-128725968D01*
X101826985Y-128873455D01*
X101759107Y-129037329D01*
X101759104Y-129037339D01*
X101724500Y-129211310D01*
X101724500Y-129475500D01*
X101702826Y-129527826D01*
X101650500Y-129549500D01*
X101310180Y-129549500D01*
X101300503Y-129551425D01*
X101264437Y-129558599D01*
X101235563Y-129558599D01*
X101199497Y-129551425D01*
X101189820Y-129549500D01*
X100810180Y-129549500D01*
X100800503Y-129551425D01*
X100764437Y-129558599D01*
X100735563Y-129558599D01*
X100699497Y-129551425D01*
X100689820Y-129549500D01*
X100310180Y-129549500D01*
X100300503Y-129551425D01*
X100264437Y-129558599D01*
X100235563Y-129558599D01*
X100199497Y-129551425D01*
X100189820Y-129549500D01*
X99810180Y-129549500D01*
X99800503Y-129551425D01*
X99764437Y-129558599D01*
X99735563Y-129558599D01*
X99699497Y-129551425D01*
X99689820Y-129549500D01*
X99310180Y-129549500D01*
X99300503Y-129551425D01*
X99264437Y-129558599D01*
X99235563Y-129558599D01*
X99199497Y-129551425D01*
X99189820Y-129549500D01*
X98810180Y-129549500D01*
X98800503Y-129551425D01*
X98764437Y-129558599D01*
X98735563Y-129558599D01*
X98699497Y-129551425D01*
X98689820Y-129549500D01*
X98310180Y-129549500D01*
X98300503Y-129551425D01*
X98264437Y-129558599D01*
X98235563Y-129558599D01*
X98199497Y-129551425D01*
X98189820Y-129549500D01*
X98189819Y-129549500D01*
X97998057Y-129549500D01*
X97945731Y-129527826D01*
X97924057Y-129475500D01*
X97945731Y-129423174D01*
X99696731Y-127672174D01*
X99749057Y-127650500D01*
X103579673Y-127650500D01*
X103579681Y-127650501D01*
X103588293Y-127650501D01*
X103678002Y-127650501D01*
X103678003Y-127650501D01*
X103736608Y-127626225D01*
X103760884Y-127616170D01*
X103824318Y-127552736D01*
X103824318Y-127552735D01*
X103834723Y-127542330D01*
X103834725Y-127542327D01*
X107154991Y-124222061D01*
X107154994Y-124222059D01*
X107165399Y-124211654D01*
X107165400Y-124211654D01*
X107228834Y-124148220D01*
X107246977Y-124104419D01*
X107263165Y-124065338D01*
X107263165Y-123975629D01*
X107263165Y-123969671D01*
X107263164Y-123969657D01*
X107263164Y-122790563D01*
X107284838Y-122738237D01*
X107337164Y-122716563D01*
X107389490Y-122738237D01*
X107980955Y-123329702D01*
X108002629Y-123382028D01*
X108001876Y-123392558D01*
X107990024Y-123474998D01*
X108008459Y-123603222D01*
X108008459Y-123603223D01*
X108008460Y-123603225D01*
X108062275Y-123721062D01*
X108147108Y-123818966D01*
X108256088Y-123889003D01*
X108380385Y-123925499D01*
X108509929Y-123925499D01*
X108634226Y-123889003D01*
X108743206Y-123818966D01*
X108828039Y-123721062D01*
X108881854Y-123603225D01*
X108900290Y-123474999D01*
X108881854Y-123346773D01*
X108828039Y-123228936D01*
X108743206Y-123131032D01*
X108676189Y-123087963D01*
X108634225Y-123060994D01*
X108509929Y-123024499D01*
X108380385Y-123024499D01*
X108380380Y-123024499D01*
X108370850Y-123027297D01*
X108314538Y-123021238D01*
X108297682Y-123008619D01*
X107647174Y-122358111D01*
X107625500Y-122305785D01*
X107625500Y-118577424D01*
X107625501Y-118577415D01*
X107625501Y-118479093D01*
X107591170Y-118396214D01*
X107591169Y-118396212D01*
X107523521Y-118328564D01*
X107523514Y-118328558D01*
X106547629Y-117352673D01*
X106547629Y-117352672D01*
X106473789Y-117278832D01*
X106473787Y-117278830D01*
X106449511Y-117268774D01*
X106449509Y-117268773D01*
X106449509Y-117268772D01*
X106390906Y-117244499D01*
X106301196Y-117244499D01*
X106292584Y-117244499D01*
X106292576Y-117244500D01*
X105794495Y-117244500D01*
X105742169Y-117222826D01*
X105738569Y-117218959D01*
X105658052Y-117126036D01*
X105658050Y-117126035D01*
X105658049Y-117126033D01*
X105591032Y-117082964D01*
X105549068Y-117055995D01*
X105424772Y-117019500D01*
X105295228Y-117019500D01*
X105170931Y-117055995D01*
X105061954Y-117126031D01*
X105061950Y-117126034D01*
X104977119Y-117223935D01*
X104923302Y-117341776D01*
X104904867Y-117469999D01*
X104916719Y-117552437D01*
X104902712Y-117607315D01*
X104895798Y-117615294D01*
X103708269Y-118802826D01*
X103655943Y-118824500D01*
X102437682Y-118824500D01*
X102354803Y-118858828D01*
X102354800Y-118858831D01*
X101358830Y-119854800D01*
X101354308Y-119865718D01*
X101324499Y-119937681D01*
X101324499Y-120036003D01*
X101324500Y-120036012D01*
X101324500Y-121343405D01*
X101302826Y-121395731D01*
X99295732Y-123402826D01*
X99243406Y-123424500D01*
X97705145Y-123424500D01*
X97622266Y-123458828D01*
X92733829Y-128347265D01*
X92733827Y-128347268D01*
X92726666Y-128364558D01*
X92726666Y-128364559D01*
X92699499Y-128430145D01*
X92699499Y-128528466D01*
X92699500Y-128528475D01*
X92699500Y-128743546D01*
X92677826Y-128795872D01*
X92646348Y-128814549D01*
X92564187Y-128838673D01*
X92507874Y-128832618D01*
X92476028Y-128798413D01*
X92432882Y-128703937D01*
X92404801Y-128671529D01*
X92386916Y-128617790D01*
X92404804Y-128574608D01*
X92407879Y-128571060D01*
X92461694Y-128453223D01*
X92480130Y-128324997D01*
X92461694Y-128196771D01*
X92407879Y-128078934D01*
X92323046Y-127981030D01*
X92249600Y-127933829D01*
X92214065Y-127910992D01*
X92089769Y-127874497D01*
X91960225Y-127874497D01*
X91835928Y-127910992D01*
X91726951Y-127981028D01*
X91726947Y-127981031D01*
X91642116Y-128078932D01*
X91588299Y-128196773D01*
X91569111Y-128330235D01*
X91567582Y-128330015D01*
X91548190Y-128376832D01*
X91315489Y-128609534D01*
X91259540Y-128665482D01*
X91219979Y-128734003D01*
X91219977Y-128734008D01*
X91199500Y-128810429D01*
X91199500Y-129475500D01*
X91177826Y-129527826D01*
X91125500Y-129549500D01*
X90810180Y-129549500D01*
X90800503Y-129551425D01*
X90766277Y-129558233D01*
X90716496Y-129591495D01*
X90716495Y-129591496D01*
X90683233Y-129641277D01*
X90674500Y-129685180D01*
X90674500Y-131664819D01*
X90683233Y-131708722D01*
X90716495Y-131758503D01*
X90716496Y-131758504D01*
X90724678Y-131763971D01*
X90756144Y-131811063D01*
X90745095Y-131866612D01*
X90698003Y-131898078D01*
X90683566Y-131899500D01*
X90449500Y-131899500D01*
X90397174Y-131877826D01*
X90375500Y-131825500D01*
X90375500Y-128621159D01*
X90367857Y-128582737D01*
X90344737Y-128466503D01*
X90310775Y-128384511D01*
X90284396Y-128320825D01*
X90284395Y-128320823D01*
X90284394Y-128320821D01*
X90196789Y-128189711D01*
X90085289Y-128078211D01*
X89954179Y-127990606D01*
X89954175Y-127990604D01*
X89954173Y-127990603D01*
X89954174Y-127990603D01*
X89808501Y-127930264D01*
X89808491Y-127930261D01*
X89704925Y-127909661D01*
X89653842Y-127899500D01*
X89653840Y-127899500D01*
X85374500Y-127899500D01*
X85322174Y-127877826D01*
X85300500Y-127825500D01*
X85300500Y-119057769D01*
X94459367Y-119057769D01*
X94463248Y-119084762D01*
X94464001Y-119095293D01*
X94464001Y-119117079D01*
X94469353Y-119137055D01*
X94471261Y-119144176D01*
X94473028Y-119152794D01*
X94477802Y-119185991D01*
X94477803Y-119185996D01*
X94486520Y-119205085D01*
X94490684Y-119216667D01*
X94494701Y-119231657D01*
X94494703Y-119231662D01*
X94511862Y-119261383D01*
X94515088Y-119267640D01*
X94531616Y-119303831D01*
X94541239Y-119314937D01*
X94549395Y-119326391D01*
X94554006Y-119334377D01*
X94554009Y-119334381D01*
X94554011Y-119334384D01*
X94569127Y-119349500D01*
X94582697Y-119363070D01*
X94586296Y-119366936D01*
X94609716Y-119393965D01*
X94616451Y-119401737D01*
X94623504Y-119406269D01*
X94635823Y-119416196D01*
X94637886Y-119418259D01*
X94678420Y-119441661D01*
X94681419Y-119443489D01*
X94725431Y-119471774D01*
X94727400Y-119472352D01*
X94735996Y-119476033D01*
X94736130Y-119475712D01*
X94740608Y-119477566D01*
X94740613Y-119477569D01*
X94791860Y-119491300D01*
X94793500Y-119491760D01*
X94849728Y-119508270D01*
X94979272Y-119508270D01*
X94995528Y-119503497D01*
X95016376Y-119500500D01*
X98914773Y-119500500D01*
X98926062Y-119497184D01*
X98971020Y-119483983D01*
X98972581Y-119483545D01*
X99023886Y-119469799D01*
X99023893Y-119469794D01*
X99028370Y-119467941D01*
X99028503Y-119468264D01*
X99037086Y-119464585D01*
X99039069Y-119464004D01*
X99083131Y-119435686D01*
X99086034Y-119433916D01*
X99126613Y-119410489D01*
X99128663Y-119408437D01*
X99140993Y-119398501D01*
X99148049Y-119393967D01*
X99178221Y-119359144D01*
X99181796Y-119355304D01*
X99210489Y-119326613D01*
X99215098Y-119318627D01*
X99223259Y-119307167D01*
X99232882Y-119296063D01*
X99249419Y-119259849D01*
X99252639Y-119253606D01*
X99265312Y-119231657D01*
X99269799Y-119223886D01*
X99271900Y-119216043D01*
X99273815Y-119208899D01*
X99277981Y-119197310D01*
X99283148Y-119185996D01*
X99286697Y-119178226D01*
X99291469Y-119145026D01*
X99293235Y-119136416D01*
X99300500Y-119109309D01*
X99300500Y-119087516D01*
X99301253Y-119076985D01*
X99305133Y-119050000D01*
X99301253Y-119023012D01*
X99300500Y-119012482D01*
X99300500Y-118990691D01*
X99296256Y-118974855D01*
X99293233Y-118963573D01*
X99291468Y-118954964D01*
X99286697Y-118921775D01*
X99286695Y-118921770D01*
X99277980Y-118902686D01*
X99273815Y-118891103D01*
X99269799Y-118876114D01*
X99252632Y-118846382D01*
X99249412Y-118840134D01*
X99247796Y-118836595D01*
X99232882Y-118803937D01*
X99223259Y-118792832D01*
X99215097Y-118781369D01*
X99210491Y-118773390D01*
X99210487Y-118773385D01*
X99181808Y-118744706D01*
X99178208Y-118740839D01*
X99148052Y-118706036D01*
X99148050Y-118706034D01*
X99148049Y-118706033D01*
X99140984Y-118701493D01*
X99128674Y-118691572D01*
X99126613Y-118689511D01*
X99126610Y-118689509D01*
X99126609Y-118689508D01*
X99086086Y-118666112D01*
X99083079Y-118664279D01*
X99039066Y-118635994D01*
X99039063Y-118635993D01*
X99037075Y-118635409D01*
X99028501Y-118631739D01*
X99028370Y-118632058D01*
X99023888Y-118630202D01*
X99023886Y-118630201D01*
X99003004Y-118624605D01*
X98972670Y-118616477D01*
X98970977Y-118616002D01*
X98914772Y-118599500D01*
X98909309Y-118599500D01*
X94862961Y-118599500D01*
X94862959Y-118599500D01*
X94748387Y-118630199D01*
X94748382Y-118630201D01*
X94724889Y-118643766D01*
X94645654Y-118689511D01*
X94645654Y-118689512D01*
X94635819Y-118699346D01*
X94623512Y-118709264D01*
X94616452Y-118713802D01*
X94586296Y-118748603D01*
X94582699Y-118752466D01*
X94554008Y-118781158D01*
X94549395Y-118789148D01*
X94541241Y-118800600D01*
X94531617Y-118811707D01*
X94531616Y-118811710D01*
X94515090Y-118847895D01*
X94511866Y-118854150D01*
X94494698Y-118883887D01*
X94490683Y-118898871D01*
X94486521Y-118910450D01*
X94477802Y-118929543D01*
X94473027Y-118962749D01*
X94471260Y-118971363D01*
X94464001Y-118998456D01*
X94464001Y-119020245D01*
X94463248Y-119030775D01*
X94459367Y-119057769D01*
X85300500Y-119057769D01*
X85300500Y-113700000D01*
X92944867Y-113700000D01*
X92963302Y-113828223D01*
X92963302Y-113828224D01*
X92963303Y-113828226D01*
X93017118Y-113946063D01*
X93101951Y-114043967D01*
X93183016Y-114096064D01*
X93210931Y-114114004D01*
X93335228Y-114150500D01*
X93470065Y-114150500D01*
X93470065Y-114152434D01*
X93518184Y-114164706D01*
X93547095Y-114213409D01*
X93547097Y-114234484D01*
X93544867Y-114249997D01*
X93544867Y-114250000D01*
X93548362Y-114274311D01*
X93563302Y-114378223D01*
X93563302Y-114378224D01*
X93563303Y-114378226D01*
X93617118Y-114496063D01*
X93701951Y-114593967D01*
X93810931Y-114664004D01*
X93935228Y-114700500D01*
X94064772Y-114700500D01*
X94189069Y-114664004D01*
X94298049Y-114593967D01*
X94382882Y-114496063D01*
X94436697Y-114378226D01*
X94455133Y-114250000D01*
X94455133Y-114249997D01*
X94455886Y-114244761D01*
X94457414Y-114244980D01*
X94476807Y-114198163D01*
X95052797Y-113622174D01*
X95105123Y-113600500D01*
X95164772Y-113600500D01*
X95289069Y-113564004D01*
X95398049Y-113493967D01*
X95482882Y-113396063D01*
X95536697Y-113278226D01*
X95555133Y-113150000D01*
X95536697Y-113021774D01*
X95482882Y-112903937D01*
X95398049Y-112806033D01*
X95331032Y-112762964D01*
X95289068Y-112735995D01*
X95164772Y-112699500D01*
X95035228Y-112699500D01*
X95029936Y-112699500D01*
X95029936Y-112697572D01*
X94981795Y-112685278D01*
X94952901Y-112636566D01*
X94952901Y-112615517D01*
X94955133Y-112600000D01*
X94936697Y-112471774D01*
X94882882Y-112353937D01*
X94798049Y-112256033D01*
X94696219Y-112190591D01*
X94689068Y-112185995D01*
X94564772Y-112149500D01*
X94435228Y-112149500D01*
X94310931Y-112185995D01*
X94201954Y-112256031D01*
X94201950Y-112256034D01*
X94117119Y-112353935D01*
X94063302Y-112471776D01*
X94044114Y-112605238D01*
X94042585Y-112605018D01*
X94023193Y-112651835D01*
X93447203Y-113227826D01*
X93394877Y-113249500D01*
X93335228Y-113249500D01*
X93210931Y-113285995D01*
X93101954Y-113356031D01*
X93101950Y-113356034D01*
X93017119Y-113453935D01*
X93017118Y-113453936D01*
X93017118Y-113453937D01*
X93012315Y-113464455D01*
X92963302Y-113571776D01*
X92944867Y-113700000D01*
X85300500Y-113700000D01*
X85300500Y-98574500D01*
X85322174Y-98522174D01*
X85374500Y-98500500D01*
X96792919Y-98500500D01*
X96845245Y-98522174D01*
G37*
%TD.AperFunction*%
%TA.AperFunction,Conductor*%
G36*
X109816096Y-128072174D02*
G01*
X109837770Y-128124500D01*
X109816096Y-128176826D01*
X109803212Y-128189710D01*
X109803210Y-128189711D01*
X109715603Y-128320825D01*
X109655264Y-128466498D01*
X109655261Y-128466508D01*
X109624500Y-128621159D01*
X109624500Y-131825500D01*
X109602826Y-131877826D01*
X109550500Y-131899500D01*
X109316434Y-131899500D01*
X109264108Y-131877826D01*
X109242434Y-131825500D01*
X109264108Y-131773174D01*
X109275322Y-131763971D01*
X109275401Y-131763917D01*
X109283504Y-131758504D01*
X109316767Y-131708722D01*
X109325500Y-131664820D01*
X109325500Y-129685180D01*
X109316767Y-129641278D01*
X109283504Y-129591496D01*
X109249499Y-129568775D01*
X109233722Y-129558233D01*
X109189820Y-129549500D01*
X108810180Y-129549500D01*
X108800503Y-129551425D01*
X108764437Y-129558599D01*
X108735563Y-129558599D01*
X108699497Y-129551425D01*
X108689820Y-129549500D01*
X108323624Y-129549500D01*
X108271298Y-129527826D01*
X108249624Y-129475500D01*
X108256311Y-129444759D01*
X108259341Y-129438125D01*
X108286697Y-129378224D01*
X108305133Y-129249998D01*
X108305132Y-129249997D01*
X108305886Y-129244759D01*
X108307414Y-129244978D01*
X108326807Y-129198161D01*
X109452795Y-128072174D01*
X109505121Y-128050500D01*
X109763770Y-128050500D01*
X109816096Y-128072174D01*
G37*
%TD.AperFunction*%
%TA.AperFunction,Conductor*%
G36*
X102740118Y-119297174D02*
G01*
X102761792Y-119349500D01*
X102755104Y-119380241D01*
X102750585Y-119390136D01*
X102747359Y-119396395D01*
X102730200Y-119426114D01*
X102730200Y-119426115D01*
X102726182Y-119441105D01*
X102722021Y-119452680D01*
X102713302Y-119471773D01*
X102708530Y-119504966D01*
X102706762Y-119513584D01*
X102699500Y-119540688D01*
X102699500Y-119562482D01*
X102698747Y-119573012D01*
X102694867Y-119599999D01*
X102698747Y-119626985D01*
X102699500Y-119637516D01*
X102699500Y-119659309D01*
X102706762Y-119686413D01*
X102708530Y-119695032D01*
X102713302Y-119728224D01*
X102713304Y-119728229D01*
X102722019Y-119747313D01*
X102726184Y-119758897D01*
X102730201Y-119773886D01*
X102747358Y-119803603D01*
X102750584Y-119809861D01*
X102767117Y-119846062D01*
X102776738Y-119857165D01*
X102784898Y-119868624D01*
X102789510Y-119876612D01*
X102818190Y-119905292D01*
X102821790Y-119909159D01*
X102851951Y-119943967D01*
X102859010Y-119948503D01*
X102871327Y-119958429D01*
X102873387Y-119960489D01*
X102907596Y-119980240D01*
X102913903Y-119983881D01*
X102916910Y-119985714D01*
X102960931Y-120014004D01*
X102962908Y-120014584D01*
X102971498Y-120018263D01*
X102971632Y-120017942D01*
X102976110Y-120019796D01*
X102976114Y-120019799D01*
X103027423Y-120033547D01*
X103028992Y-120033987D01*
X103073386Y-120047022D01*
X103085227Y-120050500D01*
X103085228Y-120050500D01*
X105724465Y-120050500D01*
X105814829Y-120026286D01*
X105814830Y-120026286D01*
X105825506Y-120023425D01*
X105839043Y-120019799D01*
X105941770Y-119960489D01*
X105988837Y-119913421D01*
X106001150Y-119903500D01*
X106008205Y-119898967D01*
X106038353Y-119864172D01*
X106041954Y-119860305D01*
X106049741Y-119852518D01*
X106070646Y-119831614D01*
X106075260Y-119823620D01*
X106083425Y-119812156D01*
X106088190Y-119806658D01*
X106093038Y-119801063D01*
X106109577Y-119764843D01*
X106112776Y-119758638D01*
X106129955Y-119728886D01*
X106133970Y-119713897D01*
X106138131Y-119702321D01*
X106146853Y-119683226D01*
X106150454Y-119658178D01*
X106179353Y-119609468D01*
X106234230Y-119595460D01*
X106276027Y-119616381D01*
X106490490Y-119830844D01*
X106512164Y-119883170D01*
X106512164Y-123772162D01*
X106490490Y-123824488D01*
X103437153Y-126877826D01*
X103384827Y-126899500D01*
X99478475Y-126899500D01*
X99478467Y-126899499D01*
X99469855Y-126899499D01*
X99380145Y-126899499D01*
X99321539Y-126923774D01*
X99321537Y-126923775D01*
X99321536Y-126923774D01*
X99297263Y-126933830D01*
X96872264Y-129358830D01*
X96808826Y-129422268D01*
X96807787Y-129423824D01*
X96806232Y-129424862D01*
X96803677Y-129427418D01*
X96803168Y-129426909D01*
X96760692Y-129455285D01*
X96705144Y-129444229D01*
X96693937Y-129435031D01*
X96616231Y-129357325D01*
X96594557Y-129304999D01*
X96616231Y-129252673D01*
X98257037Y-127611867D01*
X99948090Y-125920813D01*
X100000415Y-125899140D01*
X100052741Y-125920814D01*
X100067726Y-125942395D01*
X100068249Y-125943540D01*
X100072416Y-125955129D01*
X100076433Y-125970118D01*
X100093590Y-125999835D01*
X100096816Y-126006093D01*
X100113349Y-126042294D01*
X100122970Y-126053397D01*
X100131130Y-126064856D01*
X100135742Y-126072844D01*
X100164422Y-126101524D01*
X100168022Y-126105391D01*
X100198183Y-126140199D01*
X100205242Y-126144735D01*
X100217559Y-126154661D01*
X100219619Y-126156721D01*
X100219621Y-126156722D01*
X100260135Y-126180113D01*
X100263142Y-126181946D01*
X100307163Y-126210236D01*
X100309140Y-126210816D01*
X100317730Y-126214495D01*
X100317864Y-126214174D01*
X100322342Y-126216028D01*
X100322346Y-126216031D01*
X100373655Y-126229779D01*
X100375224Y-126230219D01*
X100419618Y-126243254D01*
X100431459Y-126246732D01*
X100431460Y-126246732D01*
X101798455Y-126246732D01*
X101888819Y-126222518D01*
X101888820Y-126222518D01*
X101899496Y-126219657D01*
X101913033Y-126216031D01*
X102015760Y-126156721D01*
X102310490Y-125861992D01*
X102369799Y-125759264D01*
X102375785Y-125736923D01*
X102400500Y-125644687D01*
X102400500Y-122087516D01*
X102401253Y-122076985D01*
X102405133Y-122050000D01*
X102401253Y-122023012D01*
X102400500Y-122012482D01*
X102400500Y-121990691D01*
X102393233Y-121963573D01*
X102391468Y-121954964D01*
X102386697Y-121921775D01*
X102386695Y-121921770D01*
X102377980Y-121902686D01*
X102373815Y-121891103D01*
X102369799Y-121876114D01*
X102352632Y-121846382D01*
X102349412Y-121840134D01*
X102332882Y-121803937D01*
X102323259Y-121792832D01*
X102315097Y-121781369D01*
X102310491Y-121773390D01*
X102310487Y-121773385D01*
X102281808Y-121744706D01*
X102278208Y-121740839D01*
X102248052Y-121706036D01*
X102248050Y-121706034D01*
X102248049Y-121706033D01*
X102240984Y-121701493D01*
X102228674Y-121691572D01*
X102226613Y-121689511D01*
X102226610Y-121689509D01*
X102226609Y-121689508D01*
X102186086Y-121666112D01*
X102183079Y-121664279D01*
X102139066Y-121635994D01*
X102139063Y-121635993D01*
X102137075Y-121635409D01*
X102128501Y-121631739D01*
X102128370Y-121632058D01*
X102123888Y-121630202D01*
X102123886Y-121630201D01*
X102103004Y-121624605D01*
X102072670Y-121616477D01*
X102070977Y-121616002D01*
X102014772Y-121599500D01*
X101885228Y-121599500D01*
X101878649Y-121601431D01*
X101867543Y-121604692D01*
X101811230Y-121598634D01*
X101775694Y-121554533D01*
X101774121Y-121519247D01*
X101775500Y-121512316D01*
X101775500Y-120106594D01*
X101797174Y-120054268D01*
X102554269Y-119297174D01*
X102606595Y-119275500D01*
X102687792Y-119275500D01*
X102740118Y-119297174D01*
G37*
%TD.AperFunction*%
%TD*%
M02*
